<?xml version="1.0" encoding="UTF-8" standalone="no"?>
<svg
   xmlns:dc="http://purl.org/dc/elements/1.1/"
   xmlns:cc="http://creativecommons.org/ns#"
   xmlns:rdf="http://www.w3.org/1999/02/22-rdf-syntax-ns#"
   xmlns:svg="http://www.w3.org/2000/svg"
   xmlns="http://www.w3.org/2000/svg"
   xmlns:sodipodi="http://sodipodi.sourceforge.net/DTD/sodipodi-0.dtd"
   xmlns:inkscape="http://www.inkscape.org/namespaces/inkscape"
   width="302.5"
   height="246.5"
   viewBox="0 0 80.036458 65.219794"
   version="1.1"
   id="svg1478"
   inkscape:version="1.0.2 (e86c870879, 2021-01-15, custom)"
   sodipodi:docname="attribution-mobile.svg">
  <defs
     id="defs1472" />
  <sodipodi:namedview
     id="base"
     pagecolor="#ffffff"
     bordercolor="#666666"
     borderopacity="1.0"
     inkscape:pageopacity="0.0"
     inkscape:pageshadow="2"
     inkscape:zoom="1.4"
     inkscape:cx="98.600266"
     inkscape:cy="81.715939"
     inkscape:document-units="px"
     inkscape:current-layer="layer1"
     inkscape:document-rotation="0"
     showgrid="false"
     units="px"
     inkscape:window-width="1267"
     inkscape:window-height="728"
     inkscape:window-x="13"
     inkscape:window-y="0"
     inkscape:window-maximized="0" />
  <metadata
     id="metadata1475">
    <rdf:RDF>
      <cc:Work
         rdf:about="">
        <dc:format>image/svg+xml</dc:format>
        <dc:type
           rdf:resource="http://purl.org/dc/dcmitype/StillImage" />
        <dc:title></dc:title>
      </cc:Work>
    </rdf:RDF>
  </metadata>
  <g
     inkscape:label="Layer 1"
     inkscape:groupmode="layer"
     id="layer1">
    <g
       id="g1324">
      <g
         id="g18196"
         transform="matrix(0.8804291,-0.32617226,0.32617226,0.8804291,-671.4909,-132.5752)">
        <path
           d="m 635.24204,402.06512 a 0.89988053,0.89988053 0 1 0 -1.79107,0.11831 l -2.58541,3.38571 a 1.253514,1.253514 0 0 0 0.16942,1.3764 l 0.20281,0.2366 0.93054,-0.18613 1.05467,-0.93057 -0.12408,-1.05465 1.3028,-2.04726 -0.002,-10e-4 a 0.89915239,0.89915239 0 0 0 0.84202,-0.89694 z"
           fill="#ffb9b9"
           id="path17954"
           style="fill:#9f616a;fill-opacity:1;stroke-width:0.0922881" />
        <polygon
           points="88.8,380.265 95.549,405.331 30.041,422.968 25.468,405.984 "
           fill="#ffb8b8"
           id="polygon17956"
           transform="matrix(0.09228862,0,0,0.09228862,614.5906,379.5823)"
           style="fill:#9f616a;fill-opacity:1" />
        <path
           d="m 616.65617,419.67278 -2.66769,-4.50301 0.0569,-0.0337 a 2.0372861,2.0372861 0 0 1 2.79103,0.71428 l 5e-5,9e-5 1.62933,2.75028 z"
           fill="#2f2e41"
           id="path17958"
           style="stroke-width:0.0922881" />
        <polygon
           points="136.185,350.121 157.179,365.388 117.278,420.254 103.054,409.91 "
           fill="#ffb8b8"
           id="polygon17960"
           transform="matrix(0.09228862,0,0,0.09228862,614.5906,379.5823)"
           style="fill:#9f616a;fill-opacity:1" />
        <path
           d="m 624.82346,419.883 -4.23292,-3.07831 0.0389,-0.0535 a 2.037287,2.037287 0 0 1 2.8457,-0.44949 l 9e-5,7e-5 2.58531,1.88015 z"
           fill="#2f2e41"
           id="path17962"
           style="stroke-width:0.0922881" />
        <path
           d="m 636.57305,410.65626 -3.30347,-3.20911 a 1.6682332,1.6682332 0 0 0 -2.18432,-0.12202 l -6.23745,6.92937 0.55836,0.86851 5.95565,-4.03249 4.03249,5.27325 3.84637,-1.92315 z"
           fill="#2f2e41"
           id="path17964"
           style="stroke-width:0.0922881" />
        <path
           d="m 635.14619,411.33869 -2.41951,-0.18612 -1.75219,-0.42477 a 0.90005033,0.90005033 0 1 0 -0.17073,1.16798 l -2.8e-4,10e-4 1.05467,0.43426 4.52877,1.55096 0.55835,-0.43426 z"
           fill="#ffb9b9"
           id="path17966"
           style="fill:#9f616a;fill-opacity:1;stroke-width:0.0922881" />
        <polygon
           points="253.653,426.11 172.315,395.86 53.332,417.371 49.971,391.826 158.871,344.099 254.326,375.693 285.92,416.699 271.131,426.11 "
           fill="#2f2e41"
           id="polygon17968"
           transform="matrix(0.09228862,0,0,0.09228862,614.5906,379.5823)" />
        <circle
           cx="638.06195"
           cy="400.54404"
           r="2.4194922"
           fill="#ffb9b9"
           id="circle17970"
           style="fill:#9f616a;fill-opacity:1;stroke-width:0.0922881" />
        <path
           d="m 644.32226,410.20401 a 13.901528,13.901528 0 0 1 -0.6818,4.29988 l -0.18115,0.5571 -0.86854,3.97045 -0.93057,0.24815 -0.68242,-0.86853 -1.36484,-0.99261 -0.99261,-1.61299 -0.85117,-1.4182 -0.26552,-0.44296 -0.93058,-4.65287 -3.53618,-1.98522 -1.17873,-0.18611 0.24816,-0.68243 1.05465,-1.42688 1.05464,-0.12407 0.3102,-0.24816 0.24815,0.12408 1.36796,0.52698 4.4351,-1.87383 0.64892,0.10608 2.23337,1.86115 a 13.889356,13.889356 0 0 1 0.86296,4.82099 z"
           fill="#cccccc"
           id="path17972"
           style="stroke-width:0.0922881" />
        <polygon
           points="240.209,331.999 242.226,331.999 263.065,293.683 314.825,325.949 289.281,342.754 251.153,377.131 248.276,372.332 "
           opacity="0.1"
           style="isolation:isolate"
           id="polygon17974"
           transform="matrix(0.09228862,0,0,0.09228862,614.5906,379.5823)" />
        <polygon
           points="248.276,375.693 289.281,338.721 314.825,321.915 263.065,289.649 242.226,327.965 230.126,341.41 219.371,344.099 "
           fill="#cccccc"
           id="polygon17976"
           transform="matrix(0.09228862,0,0,0.09228862,614.5906,379.5823)" />
        <path
           d="m 636.18011,398.74504 -0.26215,0.10086 a 0.36595394,0.36595394 0 0 1 -0.0979,-0.5082 q 0.002,-0.003 0.004,-0.006 l -0.48444,-0.0226 a 3.6580848,3.6580848 0 0 1 5.46103,-0.44018 c 0.022,-0.076 0.26249,0.0718 0.36065,0.22169 0.033,-0.12361 0.25842,0.47392 0.33815,0.89629 0.0369,-0.14063 0.17885,0.0864 0.0545,0.30425 0.0788,-0.0115 0.11437,0.19006 0.0534,0.30237 0.0862,-0.0404 0.0717,0.20013 -0.0218,0.36094 0.12299,-0.0109 -0.0105,2.52236 -1.85627,2.33779 -0.12849,-0.59042 -0.0923,-0.55373 -0.2436,-1.31294 -0.0704,-0.0748 -0.14755,-0.14284 -0.22455,-0.21081 l -0.41646,-0.36761 c -0.48427,-0.42747 -0.92479,-0.95504 -1.56992,-1.11481 -0.44334,-0.10979 -0.72367,-0.13458 -0.48206,-0.63416 -0.21829,0.0911 -0.42214,0.22656 -0.64238,0.31117 0.003,-0.0698 0.0337,-0.14792 0.0294,-0.21776 z"
           fill="#2f2e41"
           id="path17978"
           style="stroke-width:0.0922881" />
        <circle
           cx="639.27173"
           cy="400.82321"
           r="0.43426785"
           fill="#ffb9b9"
           id="circle17980"
           style="fill:#9f616a;fill-opacity:1;stroke-width:0.0922881" />
        <rect
           x="-350.56433"
           y="643.60498"
           width="1.9943656"
           height="1.9943656"
           transform="rotate(-86.189921)"
           fill="#e6e6e6"
           style="isolation:isolate;fill:#f7e7ce;fill-opacity:1;stroke-width:0.0922881"
           id="rect17982" />
        <path
           d="m 617.73632,391.62338 2.41638,0.16091 -0.16093,2.41638 -2.41637,-0.16092 z m 2.30432,0.25898 -2.20626,-0.14693 -0.14693,2.20625 2.20626,0.14693 z"
           fill="#cccccc"
           id="path17984"
           style="fill:#d69e5d;fill-opacity:1;stroke-width:0.0922881" />
        <rect
           x="533.39856"
           y="508.48529"
           width="1.9943656"
           height="1.9943656"
           transform="rotate(-12.126749)"
           fill="#e6e6e6"
           style="isolation:isolate;fill:#f7e7ce;fill-opacity:1;stroke-width:0.0922881"
           id="rect17986" />
        <path
           d="m 628.89724,383.72146 0.50874,2.36769 -2.36769,0.50874 -0.50874,-2.36769 z m 0.38368,2.28687 -0.4645,-2.1618 -2.16181,0.4645 0.4645,2.1618 z"
           fill="#cccccc"
           id="path17988"
           style="fill:#d69e5d;fill-opacity:1;stroke-width:0.0922881" />
        <rect
           x="187.13635"
           y="717.03949"
           width="1.9943645"
           height="1.9943656"
           transform="rotate(-43.127119)"
           fill="#e6e6e6"
           style="isolation:isolate;fill:#f7e7ce;fill-opacity:1;stroke-width:0.0922881"
           id="rect17990" />
        <path
           d="m 629.68502,393.82587 -1.76746,1.65554 -1.65555,-1.76747 1.76747,-1.65554 z m -1.7626,1.50672 1.61378,-1.51159 -1.51159,-1.61377 -1.61377,1.51158 z"
           fill="#cccccc"
           id="path17992"
           style="fill:#d69e5d;fill-opacity:1;stroke-width:0.0922881" />
      </g>
      <path
         d="M 75.18985,28.01409 H 19.78715 A 1.5249145,1.5249145 0 0 0 18.26222,29.539 v 30.86936 a 1.5249189,1.5249189 0 0 0 1.52493,1.52492 h 55.4027 a 1.5249206,1.5249206 0 0 0 1.52492,-1.52492 V 29.539 a 1.5249171,1.5249171 0 0 0 -1.52492,-1.52491 z"
         fill="#3f3d56"
         id="path17994"
         style="fill:#2f2e41;fill-opacity:1;stroke-width:0.0866499" />
      <rect
         x="20.306749"
         y="30.708988"
         width="54.363647"
         height="30.666672"
         fill="#ffffff"
         id="rect17996"
         style="stroke-width:0.0866499" />
      <circle
         cx="47.442127"
         cy="29.315067"
         r="0.55757475"
         fill="#ffffff"
         id="circle17998"
         style="stroke-width:0.0866499" />
      <polygon
         points="329.89,31.102 777.858,385.015 329.89,385.015 "
         fill="#f2f2f2"
         style="isolation:isolate"
         id="polygon18000"
         transform="matrix(0.0866503,0,0,0.0866503,-8.2784,28.01409)" />
      <rect
         x="20.306749"
         y="30.709049"
         width="54.363647"
         height="30.666626"
         fill="#e6e6e6"
         id="rect18018"
         style="stroke-width:0.0834406" />
      <path
         d="m 78.24118,60.81813 h -5.30554 v -0.38226 a 0.07578956,0.07578956 0 0 0 -0.0757,-0.0757 h -1.81905 a 0.07579129,0.07579129 0 0 0 -0.0758,0.0757 v 0.38226 h -1.1369 v -0.38226 a 0.07579129,0.07579129 0 0 0 -0.0757,-0.0757 h -1.81905 a 0.07579042,0.07579042 0 0 0 -0.0757,0.0757 v 0 0.38226 h -1.13689 v -0.38226 a 0.07579042,0.07579042 0 0 0 -0.0757,-0.0757 H 64.8261 a 0.07579129,0.07579129 0 0 0 -0.0757,0.0757 v 0 0.38226 h -1.13689 v -0.38226 a 0.07579129,0.07579129 0 0 0 -0.0757,-0.0757 h -1.81904 a 0.07578956,0.07578956 0 0 0 -0.0757,0.0757 v 0.38226 h -1.1369 v -0.38226 a 0.07579129,0.07579129 0 0 0 -0.0758,-0.0757 h -1.81904 a 0.07579042,0.07579042 0 0 0 -0.0757,0.0757 v 0 0.38226 h -1.1369 v -0.38226 a 0.07579042,0.07579042 0 0 0 -0.0757,-0.0757 h -1.81905 a 0.07579129,0.07579129 0 0 0 -0.0757,0.0757 v 0 0.38226 h -1.1369 v -0.38226 a 0.07579129,0.07579129 0 0 0 -0.0757,-0.0757 H 39.96652 a 0.07579042,0.07579042 0 0 0 -0.0757,0.0757 v 0 0.38226 h -1.1369 v -0.38226 a 0.07579042,0.07579042 0 0 0 -0.0757,-0.0757 H 36.8592 a 0.07579129,0.07579129 0 0 0 -0.0757,0.0757 v 0 0.38226 h -1.1369 v -0.38226 a 0.07578956,0.07578956 0 0 0 -0.0757,-0.0757 h -1.81905 a 0.07579042,0.07579042 0 0 0 -0.0757,0.0757 v 0 0.38226 h -1.13691 v -0.38226 a 0.07579042,0.07579042 0 0 0 -0.0758,-0.0757 h -1.81905 a 0.07579129,0.07579129 0 0 0 -0.0758,0.0757 v 0 0.38226 h -1.1369 v -0.38226 a 0.07579042,0.07579042 0 0 0 -0.0757,-0.0757 h -1.81904 a 0.07579129,0.07579129 0 0 0 -0.0757,0.0757 v 0 0.38226 h -1.13689 v -0.38226 a 0.07579129,0.07579129 0 0 0 -0.0758,-0.0757 H 24.4295 a 0.07579129,0.07579129 0 0 0 -0.0757,0.0757 v 0.38226 h -1.13689 v -0.38226 a 0.07579042,0.07579042 0 0 0 -0.0757,-0.0757 h -1.81904 a 0.07579302,0.07579302 0 0 0 -0.0758,0.0757 v 0 0.38226 h -3.4865 a 1.8190429,1.8190429 0 0 0 -1.81904,1.81906 v 0.82251 a 1.819042,1.819042 0 0 0 1.81904,1.81903 h 60.48314 a 1.8190437,1.8190437 0 0 0 1.81905,-1.81903 v -0.82251 a 1.8190412,1.8190412 0 0 0 -1.81905,-1.81906 z"
         fill="#3f3d56"
         id="path18020"
         style="fill:#2f2e41;fill-opacity:1;stroke-width:0.0866499" />
      <rect
         x="21.686327"
         y="34.655582"
         width="51.60442"
         height="24.429163"
         fill="#ffffff"
         id="rect18022"
         style="stroke-width:0.0827537" />
      <rect
         x="20.306688"
         width="54.363659"
         height="2.0962589"
         fill="#d69e5d"
         id="rect18024"
         y="30.709049"
         style="stroke-width:0.0847029" />
      <circle
         cx="21.813219"
         cy="31.771244"
         r="0.39214727"
         fill="#ffffff"
         id="circle18026"
         style="stroke-width:0.0814483" />
      <circle
         cx="23.301744"
         cy="31.771244"
         r="0.39214727"
         fill="#ffffff"
         id="circle18028"
         style="stroke-width:0.0814483" />
      <circle
         cx="24.790209"
         cy="31.771244"
         r="0.39214727"
         fill="#ffffff"
         id="circle18030"
         style="stroke-width:0.0814483" />
      <path
         d="M 57.67974,36.30202 H 42.39288 a 0.13568276,0.13568276 0 0 1 0,-0.26903 h 15.28686 a 0.13568276,0.13568276 0 0 1 0,0.26903 z"
         fill="#cccccc"
         id="path18032"
         style="stroke-width:0.0814488" />
      <path
         d="m 47.08745,37.78174 h -9.71941 a 0.13568276,0.13568276 0 0 1 0,-0.26904 h 9.71941 a 0.13568276,0.13568276 0 0 1 0,0.26904 z"
         fill="#cccccc"
         id="path18034"
         style="stroke-width:0.0814488" />
      <path
         d="m 57.67974,37.80863 h -9.71942 a 0.13568276,0.13568276 0 0 1 0,-0.26903 h 9.71942 a 0.13568276,0.13568276 0 0 1 0,0.26903 z"
         fill="#cccccc"
         id="path18036"
         style="stroke-width:0.0814488" />
      <path
         d="m 47.11104,39.26145 h -9.71941 a 0.13568276,0.13568276 0 0 1 0,-0.26904 h 9.71941 a 0.13568276,0.13568276 0 0 1 0,0.26904 z"
         fill="#cccccc"
         id="path18038"
         style="stroke-width:0.0814488" />
      <path
         d="m 47.13464,40.74117 h -9.71943 a 0.13568276,0.13568276 0 0 1 0,-0.26904 h 9.71943 a 0.13568276,0.13568276 0 0 1 0,0.26904 z"
         fill="#cccccc"
         id="path18040"
         style="stroke-width:0.0814488" />
      <path
         d="M 51.54612,39.26145 H 48.7624 a 0.13568276,0.13568276 0 0 1 0,-0.26904 h 2.78372 a 0.13568276,0.13568276 0 0 1 0,0.26904 z"
         fill="#cccccc"
         id="path18042"
         style="stroke-width:0.0814488" />
      <path
         d="M 51.54612,40.71426 H 48.7624 a 0.13568276,0.13568276 0 0 1 0,-0.26904 h 2.78372 a 0.13568276,0.13568276 0 0 1 0,0.26904 z"
         fill="#cccccc"
         id="path18044"
         style="stroke-width:0.0814488" />
      <path
         d="m 56.21711,40.71426 h -2.78372 a 0.13568276,0.13568276 0 0 1 0,-0.26904 h 2.78372 a 0.13568276,0.13568276 0 0 1 0,0.26904 z"
         fill="#cccccc"
         id="path18046"
         style="stroke-width:0.0814488" />
      <path
         d="m 40.08099,36.30202 h -2.78373 a 0.13568276,0.13568276 0 0 1 0,-0.26903 h 2.78373 a 0.13568276,0.13568276 0 0 1 0,0.26903 z"
         fill="#cccccc"
         id="path18048"
         style="stroke-width:0.0814488" />
      <polygon
         points="558.681,173.938 547.965,163.221 501.622,208.985 547.965,254.748 558.392,244.321 523.345,209.274 "
         fill="#e6e6e6"
         id="polygon18050"
         transform="matrix(0.08144859,0,0,0.08144859,0.07384,29.83724)"
         style="fill:#d69e5d;fill-opacity:1" />
      <polygon
         points="605.603,173.938 616.32,163.221 662.662,208.985 616.32,254.748 605.893,244.321 640.939,209.274 "
         fill="#d69e5d"
         id="polygon18056"
         transform="matrix(0.08144859,0,0,0.08144859,0.07384,29.83724)" />
      <path
         d="M 47.134635,53.037102 H 37.4237 a 0.13556427,0.13556427 0 0 1 0,-0.268803 h 9.71094 a 0.13556427,0.13556427 0 0 1 0,0.268803 z"
         fill="#cccccc"
         id="path17521"
         style="stroke-width:0.0813776" />
      <path
         d="m 47.087491,55.993947 h -9.710928 a 0.13556427,0.13556427 0 0 1 0,-0.268805 h 9.710934 a 0.13556427,0.13556427 0 0 1 0,0.268805 z"
         fill="#cccccc"
         id="path17523"
         style="stroke-width:0.0813776" />
      <path
         d="m 47.111063,57.47237 h -9.710935 a 0.13556427,0.13556427 0 0 1 0,-0.268803 h 9.710941 a 0.13556427,0.13556427 0 0 1 0,0.268803 z"
         fill="#cccccc"
         id="path17525"
         style="stroke-width:0.0813776" />
      <path
         d="m 51.259422,56.020828 h -2.781288 a 0.13556427,0.13556427 0 0 1 0,-0.268803 h 2.781288 a 0.13556427,0.13556427 0 0 1 0,0.268803 z"
         fill="#cccccc"
         id="path17527"
         style="stroke-width:0.0813776" />
      <path
         d="m 51.259422,57.47237 h -2.781288 a 0.13556427,0.13556427 0 0 1 0,-0.268803 h 2.781288 a 0.13556427,0.13556427 0 0 1 0,0.268803 z"
         fill="#cccccc"
         id="path17529"
         style="stroke-width:0.0813776" />
      <path
         d="m 55.926329,56.020828 h -2.781292 a 0.13556427,0.13556427 0 0 1 0,-0.268803 h 2.781292 a 0.13556427,0.13556427 0 0 1 0,0.268803 z"
         fill="#cccccc"
         id="path17531"
         style="stroke-width:0.0813776" />
      <path
         d="M 57.764803,54.515527 H 42.491298 a 0.13556427,0.13556427 0 0 1 0,-0.268803 h 15.273505 a 0.13556427,0.13556427 0 0 1 0,0.268803 z"
         fill="#cccccc"
         id="path17533"
         style="stroke-width:0.0813776" />
      <path
         d="m 40.18142,54.515527 h -2.781292 a 0.13556427,0.13556427 0 0 1 0,-0.268803 h 2.781292 a 0.13556427,0.13556427 0 0 1 0,0.268803 z"
         fill="#cccccc"
         id="path17535"
         style="stroke-width:0.0813776" />
    </g>
  </g>
</svg>
