<?xml version="1.0" encoding="UTF-8" standalone="no"?>
<svg
   xmlns:dc="http://purl.org/dc/elements/1.1/"
   xmlns:cc="http://creativecommons.org/ns#"
   xmlns:rdf="http://www.w3.org/1999/02/22-rdf-syntax-ns#"
   xmlns:svg="http://www.w3.org/2000/svg"
   xmlns="http://www.w3.org/2000/svg"
   xmlns:sodipodi="http://sodipodi.sourceforge.net/DTD/sodipodi-0.dtd"
   xmlns:inkscape="http://www.inkscape.org/namespaces/inkscape"
   width="609"
   height="264"
   viewBox="0 0 161.13125 69.850002"
   version="1.1"
   id="svg1478"
   inkscape:version="1.0.2 (e86c870879, 2021-01-15, custom)"
   sodipodi:docname="drawing.svg">
  <defs
     id="defs1472" />
  <sodipodi:namedview
     id="base"
     pagecolor="#ffffff"
     bordercolor="#666666"
     borderopacity="1.0"
     inkscape:pageopacity="0.0"
     inkscape:pageshadow="2"
     inkscape:zoom="1.4"
     inkscape:cx="210.4471"
     inkscape:cy="154.0377"
     inkscape:document-units="px"
     inkscape:current-layer="layer1"
     inkscape:document-rotation="0"
     showgrid="false"
     units="px"
     inkscape:window-width="1267"
     inkscape:window-height="728"
     inkscape:window-x="13"
     inkscape:window-y="38"
     inkscape:window-maximized="0" />
  <metadata
     id="metadata1475">
    <rdf:RDF>
      <cc:Work
         rdf:about="">
        <dc:format>image/svg+xml</dc:format>
        <dc:type
           rdf:resource="http://purl.org/dc/dcmitype/StillImage" />
        <dc:title></dc:title>
      </cc:Work>
    </rdf:RDF>
  </metadata>
  <g
     inkscape:label="Layer 1"
     inkscape:groupmode="layer"
     id="layer1">
    <g
       id="g2221"
       transform="translate(42.763125)">
      <g
         id="g17701"
         transform="matrix(1.0077416,0,0,1.0077416,-382.16015,-421.98097)">
        <path
           d="m 370.12437,460.09117 a 1.4303804,1.4303804 0 1 0 -2.84695,0.18805 l -4.10957,5.38166 a 1.9924887,1.9924887 0 0 0 0.26929,2.18783 l 0.32238,0.37607 1.47912,-0.29585 1.67642,-1.47917 -0.19724,-1.67639 2.07084,-3.25416 -0.003,-0.002 a 1.429223,1.429223 0 0 0 1.3384,-1.42571 z"
           fill="#ffb9b9"
           id="path17661"
           style="fill:#9f616a;fill-opacity:1;stroke-width:0.146694" />
        <polygon
           points="30.041,422.968 25.468,405.984 88.8,380.265 95.549,405.331 "
           fill="#ffb8b8"
           id="polygon17663"
           transform="matrix(0.14669485,0,0,0.14669485,337.29844,424.35421)"
           style="fill:#9f616a;fill-opacity:1" />
        <path
           d="m 339.46133,487.68705 -2.16289,-8.03331 0.10161,-0.0274 a 3.2383122,3.2383122 0 0 1 3.96868,2.28481 l 5e-5,1.5e-4 1.32101,4.90648 z"
           fill="#2f2e41"
           id="path17665"
           style="stroke-width:0.146694" />
        <polygon
           points="117.278,420.254 103.054,409.91 136.185,350.121 157.179,365.388 "
           fill="#ffb8b8"
           id="polygon17667"
           transform="matrix(0.14669485,0,0,0.14669485,337.29844,424.35421)"
           style="fill:#9f616a;fill-opacity:1" />
        <path
           d="m 353.5638,488.41309 -6.72832,-4.89304 0.0619,-0.0851 a 3.2383137,3.2383137 0 0 1 4.52331,-0.71446 l 1.4e-4,1.1e-4 4.10942,2.98854 z"
           fill="#2f2e41"
           id="path17669"
           style="stroke-width:0.146694" />
        <path
           d="m 372.24003,473.74698 -5.25094,-5.10096 a 2.6516943,2.6516943 0 0 0 -3.47202,-0.19395 l -9.91457,11.01439 0.88753,1.38052 9.46663,-6.40974 6.40974,8.38195 6.1139,-3.05688 z"
           fill="#2f2e41"
           id="path17671"
           style="stroke-width:0.146694" />
        <path
           d="m 369.97201,474.83172 -3.84586,-0.29584 -2.78515,-0.67519 a 1.4306503,1.4306503 0 1 0 -0.27139,1.85653 l -4.4e-4,0.002 1.67642,0.69027 7.19858,2.46529 0.88751,-0.69027 z"
           fill="#ffb9b9"
           id="path17673"
           style="fill:#9f616a;fill-opacity:1;stroke-width:0.146694" />
        <polygon
           points="53.332,417.371 49.971,391.826 158.871,344.099 254.326,375.693 285.92,416.699 271.131,426.11 253.653,426.11 172.315,395.86 "
           fill="#2f2e41"
           id="polygon17675"
           transform="matrix(0.14669485,0,0,0.14669485,337.29844,424.35421)" />
        <circle
           cx="374.60672"
           cy="457.67337"
           r="3.8458374"
           fill="#ffb9b9"
           id="circle17677"
           style="fill:#9f616a;fill-opacity:1;stroke-width:0.146694" />
        <path
           d="m 384.55758,473.02811 a 22.096792,22.096792 0 0 1 -1.08374,6.83476 l -0.28794,0.88552 -1.38056,6.31112 -1.47916,0.39445 -1.08473,-1.38056 -2.16944,-1.57777 -1.57778,-2.56389 -1.35295,-2.25426 -0.42205,-0.70409 -1.47918,-7.39584 -5.62083,-3.15555 -1.87362,-0.29583 0.39445,-1.08473 1.67639,-2.26806 1.67638,-0.19722 0.49306,-0.39445 0.39445,0.19722 2.17439,0.83765 7.0497,-2.9785 1.03147,0.16863 3.55,2.95834 a 22.077445,22.077445 0 0 1 1.37169,7.66306 z"
           fill="#cccccc"
           id="path17679"
           style="stroke-width:0.146694" />
        <polygon
           points="242.226,331.999 263.065,293.683 314.825,325.949 289.281,342.754 251.153,377.131 248.276,372.332 240.209,331.999 "
           opacity="0.1"
           style="isolation:isolate"
           id="polygon17681"
           transform="matrix(0.14669485,0,0,0.14669485,337.29844,424.35421)" />
        <polygon
           points="289.281,338.721 314.825,321.915 263.065,289.649 242.226,327.965 230.126,341.41 219.371,344.099 248.276,375.693 "
           fill="#cccccc"
           id="polygon17683"
           transform="matrix(0.14669485,0,0,0.14669485,337.29844,424.35421)" />
        <path
           d="m 371.61545,454.81382 -0.41669,0.16032 a 0.58169204,0.58169204 0 0 1 -0.15555,-0.8078 q 0.003,-0.005 0.007,-0.01 l -0.77003,-0.036 a 5.8146083,5.8146083 0 0 1 8.68044,-0.69967 c 0.035,-0.12074 0.41723,0.11418 0.57326,0.35238 0.0524,-0.19648 0.41076,0.75331 0.5375,1.42468 0.0587,-0.22354 0.28428,0.13734 0.0866,0.48361 0.12523,-0.0183 0.1818,0.30211 0.0849,0.48062 0.13702,-0.0643 0.11392,0.31811 -0.0346,0.57373 0.1955,-0.0174 -0.0167,4.00934 -2.95058,3.71596 -0.20424,-0.93849 -0.14669,-0.88017 -0.38721,-2.08695 -0.11194,-0.11882 -0.23453,-0.22704 -0.35693,-0.33508 l -0.66197,-0.58433 c -0.76976,-0.67947 -1.46997,-1.51806 -2.49542,-1.77201 -0.70471,-0.17452 -1.15029,-0.21392 -0.76625,-1.00801 -0.34698,0.1448 -0.671,0.36012 -1.02108,0.49461 0.005,-0.11097 0.0536,-0.23513 0.0468,-0.34614 z"
           fill="#2f2e41"
           id="path17685"
           style="stroke-width:0.146694" />
        <circle
           cx="376.52963"
           cy="458.11713"
           r="0.69027853"
           fill="#ffb9b9"
           id="circle17687"
           style="fill:#9f616a;fill-opacity:1;stroke-width:0.146694" />
        <rect
           x="-421.12662"
           y="372.93668"
           width="3.170089"
           height="3.170089"
           transform="rotate(-86.189921)"
           fill="#e6e6e6"
           style="isolation:isolate;fill:#f7e7ce;fill-opacity:1;stroke-width:0.146694"
           id="rect17689" />
        <path
           d="m 342.29863,443.49378 3.84089,0.25578 -0.2558,3.84089 -3.84088,-0.25579 z m 3.66277,0.41166 -3.5069,-0.23355 -0.23355,3.50689 3.5069,0.23354 z"
           fill="#cccccc"
           id="path17691"
           style="fill:#d69e5d;fill-opacity:1;stroke-width:0.146694" />
        <rect
           x="260.11801"
           y="498.87729"
           width="3.170089"
           height="3.170089"
           transform="rotate(-12.126749)"
           fill="#e6e6e6"
           style="isolation:isolate;fill:#f7e7ce;fill-opacity:1;stroke-width:0.146694"
           id="rect17693" />
        <path
           d="m 360.03916,430.9335 0.80866,3.7635 -3.7635,0.80866 -0.80866,-3.7635 z m 0.60987,3.63503 -0.73834,-3.43623 -3.43624,0.73834 0.73834,3.43623 z"
           fill="#cccccc"
           id="path17695"
           style="fill:#d69e5d;fill-opacity:1;stroke-width:0.146694" />
        <rect
           x="-46.984535"
           y="571.86121"
           width="3.1700873"
           height="3.170089"
           transform="rotate(-43.12712)"
           fill="#e6e6e6"
           style="isolation:isolate;fill:#f7e7ce;fill-opacity:1;stroke-width:0.146694"
           id="rect17697" />
        <path
           d="m 361.29136,446.9947 -2.80943,2.63151 -2.63152,-2.80943 2.80943,-2.63152 z m -2.8017,2.39495 2.56514,-2.4027 -2.4027,-2.56512 -2.56513,2.40268 z"
           fill="#cccccc"
           id="path17699"
           style="fill:#d69e5d;fill-opacity:1;stroke-width:0.146694" />
      </g>
      <g
         id="g870"
         transform="translate(-0.46778417,0.34773219)">
        <path
           d="M 110.07317,0.19442841 H 7.1995004 A 2.8315139,2.8315139 0 0 0 4.3679841,3.0259447 V 60.345238 a 2.8315219,2.8315219 0 0 0 2.8315163,2.831527 H 110.07317 a 2.8315252,2.8315252 0 0 0 2.83152,-2.831527 V 3.0259447 a 2.8315187,2.8315187 0 0 0 -2.83152,-2.83151629 z"
           fill="#3f3d56"
           id="path16825"
           style="fill:#2f2e41;fill-opacity:1;stroke-width:0.160894" />
        <circle
           cx="58.550064"
           cy="2.6101937"
           r="1.0353242"
           fill="#ffffff"
           id="circle16829"
           style="stroke-width:0.160894" />
        <rect
           x="8.1641932"
           y="5.1985979"
           width="100.9443"
           height="56.942848"
           fill="#e6e6e6"
           id="rect16849"
           style="stroke-width:0.154935" />
        <path
           d="m 115.73897,61.106112 h -9.85152 v -0.709796 a 0.14072867,0.14072867 0 0 0 -0.14072,-0.140741 h -3.37768 a 0.14073188,0.14073188 0 0 0 -0.14075,0.140741 v 0.709796 h -2.11102 v -0.709796 a 0.14073188,0.14073188 0 0 0 -0.140726,-0.140741 h -3.377658 a 0.14073027,0.14073027 0 0 0 -0.140731,0.140741 v 0 0.709796 h -2.111037 v -0.709796 a 0.14073027,0.14073027 0 0 0 -0.140731,-0.140741 h -3.37768 a 0.14073188,0.14073188 0 0 0 -0.140731,0.140741 v 0 0.709796 h -2.111027 v -0.709796 a 0.14073188,0.14073188 0 0 0 -0.140741,-0.140741 h -3.377659 a 0.14072867,0.14072867 0 0 0 -0.14073,0.140741 v 0.709796 H 82.806802 V 60.396316 A 0.14073188,0.14073188 0 0 0 82.66606,60.255575 h -3.377658 a 0.14073027,0.14073027 0 0 0 -0.140731,0.140741 v 0 0.709796 h -2.111048 v -0.709796 a 0.14073027,0.14073027 0 0 0 -0.140731,-0.140741 h -3.377669 a 0.14073188,0.14073188 0 0 0 -0.140731,0.140741 v 0 0.709796 H 71.266455 V 60.396316 A 0.14073188,0.14073188 0 0 0 71.125724,60.255575 H 44.667382 a 0.14073027,0.14073027 0 0 0 -0.140731,0.140741 v 0 0.709796 h -2.111038 v -0.709796 a 0.14073027,0.14073027 0 0 0 -0.140742,-0.140741 h -3.377647 a 0.14073188,0.14073188 0 0 0 -0.140741,0.140741 v 0 0.709796 h -2.111038 v -0.709796 a 0.14072867,0.14072867 0 0 0 -0.14072,-0.140741 h -3.37768 a 0.14073027,0.14073027 0 0 0 -0.140731,0.140741 v 0 0.709796 h -2.111048 v -0.709796 a 0.14073027,0.14073027 0 0 0 -0.140731,-0.140741 h -3.377658 a 0.14073188,0.14073188 0 0 0 -0.140742,0.140741 v 0 0.709796 h -2.111027 v -0.709796 a 0.14073027,0.14073027 0 0 0 -0.14073,-0.140741 h -3.37767 a 0.14073188,0.14073188 0 0 0 -0.14073,0.140741 v 0 0.709796 H 19.33494 v -0.709796 a 0.14073188,0.14073188 0 0 0 -0.140742,-0.140741 h -3.377669 a 0.14073188,0.14073188 0 0 0 -0.14073,0.140741 v 0.709796 H 13.564772 V 60.396316 A 0.14073027,0.14073027 0 0 0 13.42403,60.255575 h -3.377658 a 0.14073509,0.14073509 0 0 0 -0.1407308,0.140741 v 0 0.709796 H 3.4317754 a 3.3776618,3.3776618 0 0 0 -3.37764714,3.377669 v 1.527298 A 3.37766,3.37766 0 0 0 3.4317754,69.388726 H 115.73897 a 3.3776633,3.3776633 0 0 0 3.37765,-3.377647 v -1.527298 a 3.3776585,3.3776585 0 0 0 -3.37765,-3.377669 z"
           fill="#3f3d56"
           id="path16851"
           style="fill:#2f2e41;fill-opacity:1;stroke-width:0.160894" />
        <rect
           x="10.725886"
           y="12.526636"
           width="95.820869"
           height="45.360912"
           fill="#ffffff"
           id="rect16853"
           style="stroke-width:0.15366" />
        <rect
           x="8.1641598"
           width="100.94431"
           height="3.8924057"
           fill="#d69e5d"
           id="rect16855"
           y="5.1985979"
           style="stroke-width:0.157279" />
        <circle
           cx="10.961595"
           cy="7.1708879"
           r="0.72815263"
           fill="#ffffff"
           id="circle16857"
           style="stroke-width:0.151236" />
        <circle
           cx="13.725458"
           cy="7.1708879"
           r="0.72815263"
           fill="#ffffff"
           id="circle16859"
           style="stroke-width:0.151236" />
        <circle
           cx="16.489355"
           cy="7.1708879"
           r="0.72815263"
           fill="#ffffff"
           id="circle16861"
           style="stroke-width:0.151236" />
        <path
           d="m 77.559765,15.583763 h -28.38515 a 0.25194045,0.25194045 0 0 1 0,-0.499561 h 28.38515 a 0.25194045,0.25194045 0 0 1 0,0.499561 z"
           fill="#cccccc"
           id="path16863"
           style="stroke-width:0.151237" />
        <path
           d="M 57.891661,18.331341 H 39.844302 a 0.25194045,0.25194045 0 0 1 0,-0.499561 h 18.047359 a 0.25194045,0.25194045 0 0 1 0,0.499561 z"
           fill="#cccccc"
           id="path16865"
           style="stroke-width:0.151237" />
        <path
           d="M 77.559765,18.3813 H 59.512417 a 0.25194045,0.25194045 0 0 1 0,-0.49956 h 18.047359 a 0.25194045,0.25194045 0 0 1 0,0.49956 z"
           fill="#cccccc"
           id="path16867"
           style="stroke-width:0.151237" />
        <path
           d="M 57.935456,21.07893 H 39.888109 a 0.25194045,0.25194045 0 0 1 0,-0.499561 h 18.047347 a 0.25194045,0.25194045 0 0 1 0,0.499561 z"
           fill="#cccccc"
           id="path16869"
           style="stroke-width:0.151237" />
        <path
           d="M 57.979263,23.826519 H 39.931915 a 0.25194045,0.25194045 0 0 1 0,-0.499572 h 18.047348 a 0.25194045,0.25194045 0 0 1 0,0.499572 z"
           fill="#cccccc"
           id="path16871"
           style="stroke-width:0.151237" />
        <path
           d="m 66.170655,21.07893 h -5.168901 a 0.25194045,0.25194045 0 0 1 0,-0.499561 h 5.168901 a 0.25194045,0.25194045 0 0 1 0,0.499561 z"
           fill="#cccccc"
           id="path16873"
           style="stroke-width:0.151237" />
        <path
           d="m 66.170655,23.776549 h -5.168901 a 0.25194045,0.25194045 0 0 1 0,-0.49955 h 5.168901 a 0.25194045,0.25194045 0 0 1 0,0.49955 z"
           fill="#cccccc"
           id="path16875"
           style="stroke-width:0.151237" />
        <path
           d="m 74.843906,23.776549 h -5.168901 a 0.25194045,0.25194045 0 0 1 0,-0.49955 h 5.168901 a 0.25194045,0.25194045 0 0 1 0,0.49955 z"
           fill="#cccccc"
           id="path16877"
           style="stroke-width:0.151237" />
        <path
           d="m 44.881795,15.583763 h -5.168912 a 0.25194045,0.25194045 0 0 1 0,-0.499561 h 5.168912 a 0.25194045,0.25194045 0 0 1 0,0.499561 z"
           fill="#cccccc"
           id="path16879"
           style="stroke-width:0.151237" />
        <polygon
           points="547.965,163.221 501.622,208.985 547.965,254.748 558.392,244.321 523.345,209.274 558.681,173.938 "
           fill="#d69e5d"
           id="polygon16885"
           transform="matrix(0.15123656,0,0,0.15123656,-29.404846,3.5797203)" />
        <polygon
           points="616.32,163.221 662.662,208.985 616.32,254.748 605.893,244.321 640.939,209.274 605.603,173.938 "
           fill="#e6e6e6"
           id="polygon16883"
           transform="matrix(0.15123656,0,0,0.15123656,-29.404846,3.5797203)"
           style="fill:#d69e5d;fill-opacity:1" />
      </g>
    </g>
  </g>
</svg>
