<?xml version="1.0" encoding="UTF-8" standalone="no"?>
<svg
   xmlns:dc="http://purl.org/dc/elements/1.1/"
   xmlns:cc="http://creativecommons.org/ns#"
   xmlns:rdf="http://www.w3.org/1999/02/22-rdf-syntax-ns#"
   xmlns:svg="http://www.w3.org/2000/svg"
   xmlns="http://www.w3.org/2000/svg"
   xmlns:sodipodi="http://sodipodi.sourceforge.net/DTD/sodipodi-0.dtd"
   xmlns:inkscape="http://www.inkscape.org/namespaces/inkscape"
   width="45"
   height="51"
   viewBox="0 0 11.90625 13.49375"
   version="1.1"
   id="svg19088"
   inkscape:version="1.0.2 (e86c870879, 2021-01-15, custom)"
   sodipodi:docname="bg_img_3.svg">
  <defs
     id="defs19082" />
  <sodipodi:namedview
     id="base"
     pagecolor="#ffffff"
     bordercolor="#666666"
     borderopacity="1.0"
     inkscape:pageopacity="0.0"
     inkscape:pageshadow="2"
     inkscape:zoom="5.6"
     inkscape:cx="32.766504"
     inkscape:cy="18.189278"
     inkscape:document-units="px"
     inkscape:current-layer="layer1"
     inkscape:document-rotation="0"
     showgrid="false"
     units="px"
     inkscape:window-width="1267"
     inkscape:window-height="728"
     inkscape:window-x="83"
     inkscape:window-y="0"
     inkscape:window-maximized="0" />
  <metadata
     id="metadata19085">
    <rdf:RDF>
      <cc:Work
         rdf:about="">
        <dc:format>image/svg+xml</dc:format>
        <dc:type
           rdf:resource="http://purl.org/dc/dcmitype/StillImage" />
        <dc:title></dc:title>
      </cc:Work>
    </rdf:RDF>
  </metadata>
  <g
     inkscape:label="Layer 1"
     inkscape:groupmode="layer"
     id="layer1">
    <g
       id="g24366"
       transform="matrix(-0.2249372,0.62404329,0.62404329,0.2249372,-335.87277,-357.24971)">
      <g
         id="g24288"
         transform="matrix(0.00478475,0.01605687,-0.01605687,0.00478475,350.37342,667.6026)"
         style="opacity:0.3">
        <g
           id="g24256">
          <g
             id="g24254">
            <path
               d="M 510.606,278.946 C 503.63,211.522 470.958,145.538 418.606,93.186 309.582,-15.773 147.918,-31.485 58.254,58.274 c -89.728,89.728 -74.048,251.328 34.944,360.32 52.352,52.352 118.336,85.024 185.76,92 8.992,0.928 17.856,1.408 26.592,1.408 57.984,0 109.824,-20.32 148,-58.496 43.904,-43.872 64.192,-105.888 57.056,-174.56 z M 351.054,334.274 C 315.342,307.01 276.622,296.226 234.574,284.706 128.718,255.682 76.142,167.362 63.854,63.843 c 29.824,35.968 51.84,77.056 88.448,107.168 39.008,32.064 81.952,43.744 129.12,57.408 103.552,30.048 154.784,117.6 166.56,219.52 -32.32,-38.848 -56.032,-82.433 -96.928,-113.665 z"
               id="path24252" />
          </g>
        </g>
        <g
           id="g24258" />
        <g
           id="g24260" />
        <g
           id="g24262" />
        <g
           id="g24264" />
        <g
           id="g24266" />
        <g
           id="g24268" />
        <g
           id="g24270" />
        <g
           id="g24272" />
        <g
           id="g24274" />
        <g
           id="g24276" />
        <g
           id="g24278" />
        <g
           id="g24280" />
        <g
           id="g24282" />
        <g
           id="g24284" />
        <g
           id="g24286" />
      </g>
      <g
         id="g24326"
         transform="matrix(0.02339929,0,0,0.02339929,333.12502,660.45663)"
         style="opacity:0.3;fill:#9f703a;fill-opacity:1">
        <g
           id="g24294"
           style="fill:#9f703a;fill-opacity:1">
          <g
             id="g24292"
             style="fill:#9f703a;fill-opacity:1">
            <path
               d="M 510.606,278.946 C 503.63,211.522 470.958,145.538 418.606,93.186 309.582,-15.773 147.918,-31.485 58.254,58.274 c -89.728,89.728 -74.048,251.328 34.944,360.32 52.352,52.352 118.336,85.024 185.76,92 8.992,0.928 17.856,1.408 26.592,1.408 57.984,0 109.824,-20.32 148,-58.496 43.904,-43.872 64.192,-105.888 57.056,-174.56 z M 351.054,334.274 C 315.342,307.01 276.622,296.226 234.574,284.706 128.718,255.682 76.142,167.362 63.854,63.843 c 29.824,35.968 51.84,77.056 88.448,107.168 39.008,32.064 81.952,43.744 129.12,57.408 103.552,30.048 154.784,117.6 166.56,219.52 -32.32,-38.848 -56.032,-82.433 -96.928,-113.665 z"
               id="path24290"
               style="fill:#d69e5d;fill-opacity:1" />
          </g>
        </g>
        <g
           id="g24296"
           style="fill:#9f703a;fill-opacity:1" />
        <g
           id="g24298"
           style="fill:#9f703a;fill-opacity:1" />
        <g
           id="g24300"
           style="fill:#9f703a;fill-opacity:1" />
        <g
           id="g24302"
           style="fill:#9f703a;fill-opacity:1" />
        <g
           id="g24304"
           style="fill:#9f703a;fill-opacity:1" />
        <g
           id="g24306"
           style="fill:#9f703a;fill-opacity:1" />
        <g
           id="g24308"
           style="fill:#9f703a;fill-opacity:1" />
        <g
           id="g24310"
           style="fill:#9f703a;fill-opacity:1" />
        <g
           id="g24312"
           style="fill:#9f703a;fill-opacity:1" />
        <g
           id="g24314"
           style="fill:#9f703a;fill-opacity:1" />
        <g
           id="g24316"
           style="fill:#9f703a;fill-opacity:1" />
        <g
           id="g24318"
           style="fill:#9f703a;fill-opacity:1" />
        <g
           id="g24320"
           style="fill:#9f703a;fill-opacity:1" />
        <g
           id="g24322"
           style="fill:#9f703a;fill-opacity:1" />
        <g
           id="g24324"
           style="fill:#9f703a;fill-opacity:1" />
      </g>
      <g
         id="g24364"
         transform="matrix(0.01170178,0.00396057,-0.00396057,0.01170178,337.79825,672.38772)"
         style="opacity:0.3">
        <g
           id="g24332">
          <g
             id="g24330">
            <path
               d="M 510.606,278.946 C 503.63,211.522 470.958,145.538 418.606,93.186 309.582,-15.773 147.918,-31.485 58.254,58.274 c -89.728,89.728 -74.048,251.328 34.944,360.32 52.352,52.352 118.336,85.024 185.76,92 8.992,0.928 17.856,1.408 26.592,1.408 57.984,0 109.824,-20.32 148,-58.496 43.904,-43.872 64.192,-105.888 57.056,-174.56 z M 351.054,334.274 C 315.342,307.01 276.622,296.226 234.574,284.706 128.718,255.682 76.142,167.362 63.854,63.843 c 29.824,35.968 51.84,77.056 88.448,107.168 39.008,32.064 81.952,43.744 129.12,57.408 103.552,30.048 154.784,117.6 166.56,219.52 -32.32,-38.848 -56.032,-82.433 -96.928,-113.665 z"
               id="path24328" />
          </g>
        </g>
        <g
           id="g24334" />
        <g
           id="g24336" />
        <g
           id="g24338" />
        <g
           id="g24340" />
        <g
           id="g24342" />
        <g
           id="g24344" />
        <g
           id="g24346" />
        <g
           id="g24348" />
        <g
           id="g24350" />
        <g
           id="g24352" />
        <g
           id="g24354" />
        <g
           id="g24356" />
        <g
           id="g24358" />
        <g
           id="g24360" />
        <g
           id="g24362" />
      </g>
    </g>
  </g>
</svg>
