<?xml version="1.0" encoding="UTF-8" standalone="no"?>
<svg
   xmlns:dc="http://purl.org/dc/elements/1.1/"
   xmlns:cc="http://creativecommons.org/ns#"
   xmlns:rdf="http://www.w3.org/1999/02/22-rdf-syntax-ns#"
   xmlns:svg="http://www.w3.org/2000/svg"
   xmlns="http://www.w3.org/2000/svg"
   xmlns:sodipodi="http://sodipodi.sourceforge.net/DTD/sodipodi-0.dtd"
   xmlns:inkscape="http://www.inkscape.org/namespaces/inkscape"
   width="46.299999"
   height="48.5"
   viewBox="0 0 12.250208 12.832292"
   version="1.1"
   id="svg19088"
   inkscape:version="1.0.2 (e86c870879, 2021-01-15, custom)"
   sodipodi:docname="bg_img_1.svg">
  <defs
     id="defs19082" />
  <sodipodi:namedview
     id="base"
     pagecolor="#ffffff"
     bordercolor="#666666"
     borderopacity="1.0"
     inkscape:pageopacity="0.0"
     inkscape:pageshadow="2"
     inkscape:zoom="5.6"
     inkscape:cx="32.766504"
     inkscape:cy="18.189278"
     inkscape:document-units="px"
     inkscape:current-layer="layer1"
     inkscape:document-rotation="0"
     showgrid="false"
     units="px"
     inkscape:window-width="1267"
     inkscape:window-height="728"
     inkscape:window-x="83"
     inkscape:window-y="0"
     inkscape:window-maximized="0" />
  <metadata
     id="metadata19085">
    <rdf:RDF>
      <cc:Work
         rdf:about="">
        <dc:format>image/svg+xml</dc:format>
        <dc:type
           rdf:resource="http://purl.org/dc/dcmitype/StillImage" />
        <dc:title></dc:title>
      </cc:Work>
    </rdf:RDF>
  </metadata>
  <g
     inkscape:label="Layer 1"
     inkscape:groupmode="layer"
     id="layer1">
    <g
       id="g22021"
       transform="matrix(0.66334514,0,0,0.66334514,-220.94415,-438.03367)">
      <g
         id="g21328"
         transform="matrix(0.00478475,0.01605687,-0.01605687,0.00478475,350.37342,667.6026)"
         style="opacity:0.3">
        <g
           id="g20378">
          <g
             id="g20371">
            <path
               d="M 510.606,278.946 C 503.63,211.522 470.958,145.538 418.606,93.186 309.582,-15.773 147.918,-31.485 58.254,58.274 c -89.728,89.728 -74.048,251.328 34.944,360.32 52.352,52.352 118.336,85.024 185.76,92 8.992,0.928 17.856,1.408 26.592,1.408 57.984,0 109.824,-20.32 148,-58.496 43.904,-43.872 64.192,-105.888 57.056,-174.56 z M 351.054,334.274 C 315.342,307.01 276.622,296.226 234.574,284.706 128.718,255.682 76.142,167.362 63.854,63.843 c 29.824,35.968 51.84,77.056 88.448,107.168 39.008,32.064 81.952,43.744 129.12,57.408 103.552,30.048 154.784,117.6 166.56,219.52 -32.32,-38.848 -56.032,-82.433 -96.928,-113.665 z"
               id="path20346" />
          </g>
        </g>
        <g
           id="g20411" />
        <g
           id="g20413" />
        <g
           id="g20415" />
        <g
           id="g20453" />
        <g
           id="g20491" />
        <g
           id="g20529" />
        <g
           id="g20569" />
        <g
           id="g20607" />
        <g
           id="g20645" />
        <g
           id="g20683" />
        <g
           id="g21214" />
        <g
           id="g21243" />
        <g
           id="g21253" />
        <g
           id="g21285" />
        <g
           id="g21290" />
      </g>
      <g
         id="g21541"
         transform="matrix(0.02339929,0,0,0.02339929,333.12502,660.45663)"
         style="opacity:0.3;fill:#9f703a;fill-opacity:1">
        <g
           id="g21366"
           style="fill:#9f703a;fill-opacity:1">
          <g
             id="g21333"
             style="fill:#9f703a;fill-opacity:1">
            <path
               d="M 510.606,278.946 C 503.63,211.522 470.958,145.538 418.606,93.186 309.582,-15.773 147.918,-31.485 58.254,58.274 c -89.728,89.728 -74.048,251.328 34.944,360.32 52.352,52.352 118.336,85.024 185.76,92 8.992,0.928 17.856,1.408 26.592,1.408 57.984,0 109.824,-20.32 148,-58.496 43.904,-43.872 64.192,-105.888 57.056,-174.56 z M 351.054,334.274 C 315.342,307.01 276.622,296.226 234.574,284.706 128.718,255.682 76.142,167.362 63.854,63.843 c 29.824,35.968 51.84,77.056 88.448,107.168 39.008,32.064 81.952,43.744 129.12,57.408 103.552,30.048 154.784,117.6 166.56,219.52 -32.32,-38.848 -56.032,-82.433 -96.928,-113.665 z"
               id="path21330"
               style="fill:#d69e5d;fill-opacity:1" />
          </g>
        </g>
        <g
           id="g21373"
           style="fill:#9f703a;fill-opacity:1" />
        <g
           id="g21377"
           style="fill:#9f703a;fill-opacity:1" />
        <g
           id="g21379"
           style="fill:#9f703a;fill-opacity:1" />
        <g
           id="g21381"
           style="fill:#9f703a;fill-opacity:1" />
        <g
           id="g21383"
           style="fill:#9f703a;fill-opacity:1" />
        <g
           id="g21385"
           style="fill:#9f703a;fill-opacity:1" />
        <g
           id="g21387"
           style="fill:#9f703a;fill-opacity:1" />
        <g
           id="g21389"
           style="fill:#9f703a;fill-opacity:1" />
        <g
           id="g21404"
           style="fill:#9f703a;fill-opacity:1" />
        <g
           id="g21427"
           style="fill:#9f703a;fill-opacity:1" />
        <g
           id="g21442"
           style="fill:#9f703a;fill-opacity:1" />
        <g
           id="g21465"
           style="fill:#9f703a;fill-opacity:1" />
        <g
           id="g21480"
           style="fill:#9f703a;fill-opacity:1" />
        <g
           id="g21503"
           style="fill:#9f703a;fill-opacity:1" />
        <g
           id="g21518"
           style="fill:#9f703a;fill-opacity:1" />
      </g>
      <g
         id="g21961"
         transform="matrix(0.01170178,0.00396057,-0.00396057,0.01170178,337.79825,672.38772)"
         style="opacity:0.3">
        <g
           id="g21579">
          <g
             id="g21556">
            <path
               d="M 510.606,278.946 C 503.63,211.522 470.958,145.538 418.606,93.186 309.582,-15.773 147.918,-31.485 58.254,58.274 c -89.728,89.728 -74.048,251.328 34.944,360.32 52.352,52.352 118.336,85.024 185.76,92 8.992,0.928 17.856,1.408 26.592,1.408 57.984,0 109.824,-20.32 148,-58.496 43.904,-43.872 64.192,-105.888 57.056,-174.56 z M 351.054,334.274 C 315.342,307.01 276.622,296.226 234.574,284.706 128.718,255.682 76.142,167.362 63.854,63.843 c 29.824,35.968 51.84,77.056 88.448,107.168 39.008,32.064 81.952,43.744 129.12,57.408 103.552,30.048 154.784,117.6 166.56,219.52 -32.32,-38.848 -56.032,-82.433 -96.928,-113.665 z"
               id="path21543" />
          </g>
        </g>
        <g
           id="g21594" />
        <g
           id="g21617" />
        <g
           id="g21621" />
        <g
           id="g21623" />
        <g
           id="g21625" />
        <g
           id="g21627" />
        <g
           id="g21629" />
        <g
           id="g21631" />
        <g
           id="g21633" />
        <g
           id="g21670" />
        <g
           id="g21708" />
        <g
           id="g21885" />
        <g
           id="g21898" />
        <g
           id="g21923" />
        <g
           id="g21936" />
      </g>
    </g>
  </g>
</svg>
