<?xml version="1.0" encoding="UTF-8" standalone="no"?>
<svg
   xmlns:dc="http://purl.org/dc/elements/1.1/"
   xmlns:cc="http://creativecommons.org/ns#"
   xmlns:rdf="http://www.w3.org/1999/02/22-rdf-syntax-ns#"
   xmlns:svg="http://www.w3.org/2000/svg"
   xmlns="http://www.w3.org/2000/svg"
   xmlns:sodipodi="http://sodipodi.sourceforge.net/DTD/sodipodi-0.dtd"
   xmlns:inkscape="http://www.inkscape.org/namespaces/inkscape"
   width="50"
   height="50"
   viewBox="0 0 13.229166 13.229167"
   version="1.1"
   id="svg29780"
   inkscape:version="1.0.2 (e86c870879, 2021-01-15, custom)"
   sodipodi:docname="chat.svg">
  <defs
     id="defs29774" />
  <sodipodi:namedview
     id="base"
     pagecolor="#ffffff"
     bordercolor="#666666"
     borderopacity="1.0"
     inkscape:pageopacity="0.0"
     inkscape:pageshadow="2"
     inkscape:zoom="2.8"
     inkscape:cx="48.042156"
     inkscape:cy="31.184652"
     inkscape:document-units="px"
     inkscape:current-layer="layer1"
     inkscape:document-rotation="0"
     showgrid="false"
     units="px"
     inkscape:window-width="1267"
     inkscape:window-height="728"
     inkscape:window-x="78"
     inkscape:window-y="0"
     inkscape:window-maximized="0" />
  <metadata
     id="metadata29777">
    <rdf:RDF>
      <cc:Work
         rdf:about="">
        <dc:format>image/svg+xml</dc:format>
        <dc:type
           rdf:resource="http://purl.org/dc/dcmitype/StillImage" />
        <dc:title></dc:title>
      </cc:Work>
    </rdf:RDF>
  </metadata>
  <g
     inkscape:label="Layer 1"
     inkscape:groupmode="layer"
     id="layer1">
    <g
       id="g19177"
       transform="translate(-320.49317,-268.03114)">
      <path
         d="m 333.72234,274.64313 a 6.6145833,6.6145833 0 1 0 -3.43559,5.80317 c 0.45742,0.32547 1.57331,0.97462 2.67567,0.50701 l -1.32695,-1.48748 a 6.5984229,6.5984229 0 0 0 2.08687,-4.8227 z"
         fill="#d69e5d"
         id="path19169"
         style="fill:#2f2e41;fill-opacity:1;stroke-width:0.0535614" />
      <path
         d="m 323.72244,273.55168 c 1.36895,-0.0142 2.73774,-0.0388 4.10661,-0.0573 q 0.68454,-0.009 1.3691,-0.0163 c 0.39323,-0.005 0.39423,-0.61557 0,-0.61147 -1.36896,0.0142 -2.73773,0.0388 -4.10661,0.0573 q -0.68454,0.009 -1.3691,0.0163 c -0.39322,0.005 -0.39423,0.61557 0,0.61147 z"
         fill="#ffffff"
         id="path19171"
         style="fill:#fbf0da;fill-opacity:1;stroke-width:0.0535614" />
      <path
         d="m 323.72244,274.9784 5.53274,-0.0573 1.57354,-0.0163 c 0.39322,-0.005 0.39423,-0.61554 0,-0.61146 l -5.53274,0.0573 -1.57354,0.0163 c -0.39323,0.005 -0.39423,0.61554 0,0.61145 z"
         fill="#ffffff"
         id="path19173"
         style="fill:#fbf0da;fill-opacity:1;stroke-width:0.0535614" />
      <path
         d="m 323.72244,276.40515 5.53274,-0.0573 1.57354,-0.0163 c 0.39322,-0.005 0.39423,-0.61553 0,-0.61144 l -5.53274,0.0573 -1.57354,0.0163 c -0.39323,0.005 -0.39423,0.61554 0,0.61146 z"
         fill="#ffffff"
         id="path19175"
         style="fill:#fbf0da;fill-opacity:1;stroke-width:0.0535614" />
    </g>
  </g>
</svg>
