<?xml version="1.0" encoding="UTF-8" standalone="no"?>
<svg
   xmlns:dc="http://purl.org/dc/elements/1.1/"
   xmlns:cc="http://creativecommons.org/ns#"
   xmlns:rdf="http://www.w3.org/1999/02/22-rdf-syntax-ns#"
   xmlns:svg="http://www.w3.org/2000/svg"
   xmlns="http://www.w3.org/2000/svg"
   xmlns:xlink="http://www.w3.org/1999/xlink"
   xmlns:sodipodi="http://sodipodi.sourceforge.net/DTD/sodipodi-0.dtd"
   xmlns:inkscape="http://www.inkscape.org/namespaces/inkscape"
   width="679"
   height="356.5"
   viewBox="0 0 179.65208 94.323961"
   version="1.1"
   id="svg16237"
   inkscape:version="1.0.2 (e86c870879, 2021-01-15, custom)"
   sodipodi:docname="contact_us.svg">
  <defs
     id="defs16231">
    <linearGradient
       inkscape:collect="always"
       xlink:href="#eb6c86d6-45fa-49e0-9a60-1b0612516196"
       id="linearGradient29764"
       gradientUnits="userSpaceOnUse"
       x1="819.07001"
       y1="732.58002"
       x2="819.07001"
       y2="560.46002"
       gradientTransform="matrix(0.16389878,0,0,0.16389878,313.73571,98.534901)" />
    <linearGradient
       id="eb6c86d6-45fa-49e0-9a60-1b0612516196"
       x1="819.07001"
       y1="732.58002"
       x2="819.07001"
       y2="560.46002"
       gradientUnits="userSpaceOnUse">
      <stop
         offset="0"
         stop-color="gray"
         stop-opacity="0.25"
         id="stop29083" />
      <stop
         offset="0.54"
         stop-color="gray"
         stop-opacity="0.12"
         id="stop29085" />
      <stop
         offset="1"
         stop-color="gray"
         stop-opacity="0.1"
         id="stop29087" />
    </linearGradient>
    <pattern
       id="ad310e25-2b04-44c8-bb7b-982389166780"
       data-name="New Pattern 3"
       width="36.88"
       height="49.48"
       patternUnits="userSpaceOnUse"
       viewBox="0 0 36.88 49.48">
      <rect
         width="36.88"
         height="49.48"
         fill="none"
         id="rect29090" />
      <path
         d="M4.33,13.19c4.5,0,4.51-7,0-7s-4.52,7,0,7Z"
         id="path29092" />
      <path
         d="M4.51,17.16c4.51,0,4.52-7,0-7s-4.51,7,0,7Z"
         id="path29094" />
      <path
         d="M4.51,20.94c4.51,0,4.52-7,0-7s-4.51,7,0,7Z"
         id="path29096" />
      <path
         d="M3.38,24.72c4.51,0,4.51-7,0-7s-4.51,7,0,7Z"
         id="path29098" />
      <path
         d="M1.09,28.29l.2.38a3.52,3.52,0,0,0,4.78,1.25,3.58,3.58,0,0,0,1.26-4.79l-.19-.37A3.52,3.52,0,0,0,2.35,23.5a3.59,3.59,0,0,0-1.26,4.79Z"
         id="path29100" />
      <path
         d="M1.49,30.1l.18.57a3.73,3.73,0,0,0,1.61,2.09,3.59,3.59,0,0,0,2.7.35A3.54,3.54,0,0,0,8.42,28.8l-.18-.56a3.68,3.68,0,0,0-1.61-2.1,3.61,3.61,0,0,0-2.69-.35A3.56,3.56,0,0,0,1.49,30.1Z"
         id="path29102" />
      <path
         d="M1.58,33.88v.38a3.54,3.54,0,0,0,3.5,3.5,3.56,3.56,0,0,0,3.5-3.5v-.38a3.54,3.54,0,0,0-3.5-3.5,3.57,3.57,0,0,0-3.5,3.5Z"
         id="path29104" />
      <path
         d="M4.89,42.3c4.51,0,4.51-7,0-7s-4.51,7,0,7Z"
         id="path29106" />
      <path
         d="M1.77,42v.19a3.54,3.54,0,0,0,3.5,3.5,3.56,3.56,0,0,0,3.5-3.5V42a3.54,3.54,0,0,0-3.5-3.5A3.56,3.56,0,0,0,1.77,42Z"
         id="path29108" />
      <path
         d="M6,49.29c4.5,0,4.51-7,0-7s-4.52,7,0,7Z"
         id="path29110" />
      <path
         d="M10,14.14c4.5,0,4.51-7,0-7s-4.52,7,0,7Z"
         id="path29112" />
      <path
         d="M6.59,20.94c4.51,0,4.52-7,0-7s-4.51,7,0,7Z"
         id="path29114" />
      <path
         d="M8.48,27c4.51,0,4.51-7,0-7s-4.51,7,0,7Z"
         id="path29116" />
      <path
         d="M8.48,29.26c4.51,0,4.51-7,0-7s-4.51,7,0,7Z"
         id="path29118" />
      <path
         d="M14.91,33.79c4.5,0,4.51-7,0-7s-4.51,7,0,7Z"
         id="path29120" />
      <path
         d="M9.81,38.52c4.5,0,4.51-7,0-7s-4.52,7,0,7Z"
         id="path29122" />
      <path
         d="M10.56,45.13c4.51,0,4.51-7,0-7s-4.51,7,0,7Z"
         id="path29124" />
      <path
         d="M10.56,49.48c4.51,0,4.51-7,0-7s-4.51,7,0,7Z"
         id="path29126" />
      <path
         d="M12.83,18.12c2.57,0,2.58-4,0-4s-2.58,4,0,4Z"
         id="path29128" />
      <path
         d="M13,20.39c2.57,0,2.58-4,0-4s-2.58,4,0,4Z"
         id="path29130" />
      <path
         d="M13.1,21v.19a2,2,0,0,0,4,0V21a2,2,0,0,0-4,0Z"
         id="path29132" />
      <path
         d="M15.1,25.87c2.57,0,2.58-4,0-4s-2.58,4,0,4Z"
         id="path29134" />
      <path
         d="M16.61,11.07a1,1,0,0,0,0-2,1,1,0,0,0,0,2Z"
         id="path29136" />
      <path
         d="M21.71,16.55a1,1,0,0,0,0-2,1,1,0,0,0,0,2Z"
         id="path29138" />
      <path
         d="M16.85,8.94V8.56a1,1,0,0,0-2,0v.38a1,1,0,0,0,2,0Z"
         id="path29140" />
      <path
         d="M16.48,4.78V4.59a1,1,0,0,0-2,0v.19a1,1,0,0,0,2,0Z"
         id="path29142" />
      <path
         d="M15.48,2a1,1,0,0,0,0-2,1,1,0,0,0,0,2Z"
         id="path29144" />
      <path
         d="M10.56,2a1,1,0,0,0,0-2,1,1,0,0,0,0,2Z"
         id="path29146" />
      <path
         d="M10.37,4.65a1,1,0,0,0,0-2,1,1,0,0,0,0,2Z"
         id="path29148" />
      <path
         d="M7.35,6.16a1,1,0,0,0,0-2,1,1,0,0,0,0,2Z"
         id="path29150" />
      <path
         d="M11.88,7.1h.38a1,1,0,0,0,0-2h-.38a1,1,0,0,0,0,2Z"
         id="path29152" />
      <path
         d="M13.28,11l.57,1.32a1,1,0,0,0,1.37.36,1,1,0,0,0,.36-1.37L15,10a1,1,0,0,0-1.37-.36A1,1,0,0,0,13.28,11Z"
         id="path29154" />
      <path
         d="M18.44,19.33v.19a1,1,0,0,0,2,0v-.19a1,1,0,0,0-2,0Z"
         id="path29156" />
      <path
         d="M20.68,24.93l.19.38c.57,1.15,2.3.14,1.72-1l-.19-.38c-.57-1.15-2.3-.14-1.72,1Z"
         id="path29158" />
      <path
         d="M22.13,29.38a2.48,2.48,0,0,0-.84,1.86,1,1,0,0,0,2,0,.56.56,0,0,1,.25-.44,1,1,0,0,0,0-1.42,1,1,0,0,0-1.41,0Z"
         id="path29160" />
      <path
         d="M20.32,33.41l-.54,1.71c-.38,1.23,1.55,1.76,1.93.53l.54-1.71c.38-1.23-1.55-1.76-1.93-.53Z"
         id="path29162" />
      <path
         d="M19.44,37h-.19a1,1,0,0,0,0,2h.19a1,1,0,0,0,0-2Z"
         id="path29164" />
      <path
         d="M17.64,41.5l-.19.38c-.58,1.15,1.15,2.16,1.72,1l.19-.38c.58-1.15-1.15-2.16-1.72-1Z"
         id="path29166" />
      <path
         d="M15.8,47.87v.56a1,1,0,0,0,2,0v-.56a1,1,0,0,0-2,0Z"
         id="path29168" />
      <path
         d="M14.34,49.43a1,1,0,0,0,0-2,1,1,0,0,0,0,2Z"
         id="path29170" />
      <path
         d="M14.34,41.31a1,1,0,0,0,0-2,1,1,0,0,0,0,2Z"
         id="path29172" />
      <path
         d="M17.13,36.47a2,2,0,0,0,1-1.64,1,1,0,0,0-2,0c0-.13.19-.2,0-.08-1.15.58-.14,2.3,1,1.72Z"
         id="path29174" />
      <path
         d="M17.37,31.29a1,1,0,0,0,0-2,1,1,0,0,0,0,2Z"
         id="path29176" />
      <path
         d="M18.12,28.46a1,1,0,0,0,0-2,1,1,0,0,0,0,2Z"
         id="path29178" />
      <path
         d="M19,24.94l.19-.38c.58-1.15-1.15-2.16-1.72-1l-.19.38c-.58,1.15,1.15,2.16,1.72,1Z"
         id="path29180" />
      <path
         d="M17.93,16a1,1,0,0,0,0-2,1,1,0,0,0,0,2Z"
         id="path29182" />
      <path
         d="M24.64,16.05l.57.94a1,1,0,0,0,1.72-1L26.37,15a1,1,0,0,0-1.73,1Z"
         id="path29184" />
      <path
         d="M34.88,29.72v.19a1,1,0,0,0,2,0v-.19a1,1,0,0,0-2,0Z"
         id="path29186" />
      <path
         d="M24,39.23a1,1,0,0,0,0-2,1,1,0,0,0,0,2Z"
         id="path29188" />
      <path
         d="M22.85,29a1,1,0,0,0,0-2,1,1,0,0,0,0,2Z"
         id="path29190" />
      <path
         d="M18.24,21.9l.57-.56c.93-.89-.48-2.3-1.41-1.41l-.58.56c-.93.89.49,2.3,1.42,1.41Z"
         id="path29192" />
    </pattern>
    <pattern
       id="pattern16051"
       data-name="New Pattern 3"
       width="36.88"
       height="49.48"
       patternUnits="userSpaceOnUse"
       viewBox="0 0 36.88 49.48">
      <rect
         width="36.88"
         height="49.48"
         fill="none"
         id="rect15947" />
      <path
         d="M4.33,13.19c4.5,0,4.51-7,0-7s-4.52,7,0,7Z"
         id="path15949" />
      <path
         d="M4.51,17.16c4.51,0,4.52-7,0-7s-4.51,7,0,7Z"
         id="path15951" />
      <path
         d="M4.51,20.94c4.51,0,4.52-7,0-7s-4.51,7,0,7Z"
         id="path15953" />
      <path
         d="M3.38,24.72c4.51,0,4.51-7,0-7s-4.51,7,0,7Z"
         id="path15955" />
      <path
         d="M1.09,28.29l.2.38a3.52,3.52,0,0,0,4.78,1.25,3.58,3.58,0,0,0,1.26-4.79l-.19-.37A3.52,3.52,0,0,0,2.35,23.5a3.59,3.59,0,0,0-1.26,4.79Z"
         id="path15957" />
      <path
         d="M1.49,30.1l.18.57a3.73,3.73,0,0,0,1.61,2.09,3.59,3.59,0,0,0,2.7.35A3.54,3.54,0,0,0,8.42,28.8l-.18-.56a3.68,3.68,0,0,0-1.61-2.1,3.61,3.61,0,0,0-2.69-.35A3.56,3.56,0,0,0,1.49,30.1Z"
         id="path15959" />
      <path
         d="M1.58,33.88v.38a3.54,3.54,0,0,0,3.5,3.5,3.56,3.56,0,0,0,3.5-3.5v-.38a3.54,3.54,0,0,0-3.5-3.5,3.57,3.57,0,0,0-3.5,3.5Z"
         id="path15961" />
      <path
         d="M4.89,42.3c4.51,0,4.51-7,0-7s-4.51,7,0,7Z"
         id="path15963" />
      <path
         d="M1.77,42v.19a3.54,3.54,0,0,0,3.5,3.5,3.56,3.56,0,0,0,3.5-3.5V42a3.54,3.54,0,0,0-3.5-3.5A3.56,3.56,0,0,0,1.77,42Z"
         id="path15965" />
      <path
         d="M6,49.29c4.5,0,4.51-7,0-7s-4.52,7,0,7Z"
         id="path15967" />
      <path
         d="M10,14.14c4.5,0,4.51-7,0-7s-4.52,7,0,7Z"
         id="path15969" />
      <path
         d="M6.59,20.94c4.51,0,4.52-7,0-7s-4.51,7,0,7Z"
         id="path15971" />
      <path
         d="M8.48,27c4.51,0,4.51-7,0-7s-4.51,7,0,7Z"
         id="path15973" />
      <path
         d="M8.48,29.26c4.51,0,4.51-7,0-7s-4.51,7,0,7Z"
         id="path15975" />
      <path
         d="M14.91,33.79c4.5,0,4.51-7,0-7s-4.51,7,0,7Z"
         id="path15977" />
      <path
         d="M9.81,38.52c4.5,0,4.51-7,0-7s-4.52,7,0,7Z"
         id="path15979" />
      <path
         d="M10.56,45.13c4.51,0,4.51-7,0-7s-4.51,7,0,7Z"
         id="path15981" />
      <path
         d="M10.56,49.48c4.51,0,4.51-7,0-7s-4.51,7,0,7Z"
         id="path15983" />
      <path
         d="M12.83,18.12c2.57,0,2.58-4,0-4s-2.58,4,0,4Z"
         id="path15985" />
      <path
         d="M13,20.39c2.57,0,2.58-4,0-4s-2.58,4,0,4Z"
         id="path15987" />
      <path
         d="M13.1,21v.19a2,2,0,0,0,4,0V21a2,2,0,0,0-4,0Z"
         id="path15989" />
      <path
         d="M15.1,25.87c2.57,0,2.58-4,0-4s-2.58,4,0,4Z"
         id="path15991" />
      <path
         d="M16.61,11.07a1,1,0,0,0,0-2,1,1,0,0,0,0,2Z"
         id="path15993" />
      <path
         d="M21.71,16.55a1,1,0,0,0,0-2,1,1,0,0,0,0,2Z"
         id="path15995" />
      <path
         d="M16.85,8.94V8.56a1,1,0,0,0-2,0v.38a1,1,0,0,0,2,0Z"
         id="path15997" />
      <path
         d="M16.48,4.78V4.59a1,1,0,0,0-2,0v.19a1,1,0,0,0,2,0Z"
         id="path15999" />
      <path
         d="M15.48,2a1,1,0,0,0,0-2,1,1,0,0,0,0,2Z"
         id="path16001" />
      <path
         d="M10.56,2a1,1,0,0,0,0-2,1,1,0,0,0,0,2Z"
         id="path16003" />
      <path
         d="M10.37,4.65a1,1,0,0,0,0-2,1,1,0,0,0,0,2Z"
         id="path16005" />
      <path
         d="M7.35,6.16a1,1,0,0,0,0-2,1,1,0,0,0,0,2Z"
         id="path16007" />
      <path
         d="M11.88,7.1h.38a1,1,0,0,0,0-2h-.38a1,1,0,0,0,0,2Z"
         id="path16009" />
      <path
         d="M13.28,11l.57,1.32a1,1,0,0,0,1.37.36,1,1,0,0,0,.36-1.37L15,10a1,1,0,0,0-1.37-.36A1,1,0,0,0,13.28,11Z"
         id="path16011" />
      <path
         d="M18.44,19.33v.19a1,1,0,0,0,2,0v-.19a1,1,0,0,0-2,0Z"
         id="path16013" />
      <path
         d="M20.68,24.93l.19.38c.57,1.15,2.3.14,1.72-1l-.19-.38c-.57-1.15-2.3-.14-1.72,1Z"
         id="path16015" />
      <path
         d="M22.13,29.38a2.48,2.48,0,0,0-.84,1.86,1,1,0,0,0,2,0,.56.56,0,0,1,.25-.44,1,1,0,0,0,0-1.42,1,1,0,0,0-1.41,0Z"
         id="path16017" />
      <path
         d="M20.32,33.41l-.54,1.71c-.38,1.23,1.55,1.76,1.93.53l.54-1.71c.38-1.23-1.55-1.76-1.93-.53Z"
         id="path16019" />
      <path
         d="M19.44,37h-.19a1,1,0,0,0,0,2h.19a1,1,0,0,0,0-2Z"
         id="path16021" />
      <path
         d="M17.64,41.5l-.19.38c-.58,1.15,1.15,2.16,1.72,1l.19-.38c.58-1.15-1.15-2.16-1.72-1Z"
         id="path16023" />
      <path
         d="M15.8,47.87v.56a1,1,0,0,0,2,0v-.56a1,1,0,0,0-2,0Z"
         id="path16025" />
      <path
         d="M14.34,49.43a1,1,0,0,0,0-2,1,1,0,0,0,0,2Z"
         id="path16027" />
      <path
         d="M14.34,41.31a1,1,0,0,0,0-2,1,1,0,0,0,0,2Z"
         id="path16029" />
      <path
         d="M17.13,36.47a2,2,0,0,0,1-1.64,1,1,0,0,0-2,0c0-.13.19-.2,0-.08-1.15.58-.14,2.3,1,1.72Z"
         id="path16031" />
      <path
         d="M17.37,31.29a1,1,0,0,0,0-2,1,1,0,0,0,0,2Z"
         id="path16033" />
      <path
         d="M18.12,28.46a1,1,0,0,0,0-2,1,1,0,0,0,0,2Z"
         id="path16035" />
      <path
         d="M19,24.94l.19-.38c.58-1.15-1.15-2.16-1.72-1l-.19.38c-.58,1.15,1.15,2.16,1.72,1Z"
         id="path16037" />
      <path
         d="M17.93,16a1,1,0,0,0,0-2,1,1,0,0,0,0,2Z"
         id="path16039" />
      <path
         d="M24.64,16.05l.57.94a1,1,0,0,0,1.72-1L26.37,15a1,1,0,0,0-1.73,1Z"
         id="path16041" />
      <path
         d="M34.88,29.72v.19a1,1,0,0,0,2,0v-.19a1,1,0,0,0-2,0Z"
         id="path16043" />
      <path
         d="M24,39.23a1,1,0,0,0,0-2,1,1,0,0,0,0,2Z"
         id="path16045" />
      <path
         d="M22.85,29a1,1,0,0,0,0-2,1,1,0,0,0,0,2Z"
         id="path16047" />
      <path
         d="M18.24,21.9l.57-.56c.93-.89-.48-2.3-1.41-1.41l-.58.56c-.93.89.49,2.3,1.42,1.41Z"
         id="path16049" />
    </pattern>
    <linearGradient
       id="a964f849-fa65-4178-8cc4-fb8fb10b3617"
       x1="462.91"
       y1="660.67999"
       x2="462.91"
       y2="559.69"
       xlink:href="#eb6c86d6-45fa-49e0-9a60-1b0612516196"
       gradientTransform="matrix(0.16389878,0,0,0.16389878,313.73571,98.534901)" />
  </defs>
  <sodipodi:namedview
     id="base"
     pagecolor="#ffffff"
     bordercolor="#666666"
     borderopacity="1.0"
     inkscape:pageopacity="0.0"
     inkscape:pageshadow="2"
     inkscape:zoom="0.7"
     inkscape:cx="289.99293"
     inkscape:cy="330.9079"
     inkscape:document-units="px"
     inkscape:current-layer="layer1"
     inkscape:document-rotation="0"
     showgrid="false"
     units="px"
     inkscape:window-width="1267"
     inkscape:window-height="728"
     inkscape:window-x="51"
     inkscape:window-y="91"
     inkscape:window-maximized="0" />
  <metadata
     id="metadata16234">
    <rdf:RDF>
      <cc:Work
         rdf:about="">
        <dc:format>image/svg+xml</dc:format>
        <dc:type
           rdf:resource="http://purl.org/dc/dcmitype/StillImage" />
        <dc:title></dc:title>
      </cc:Work>
    </rdf:RDF>
  </metadata>
  <g
     inkscape:label="Layer 1"
     inkscape:groupmode="layer"
     id="layer1">
    <g
       id="g20214"
       transform="translate(-322.00134,-125.00184)">
      <g
         opacity="0.1"
         id="g29212"
         transform="matrix(0.16389878,0,0,0.16389878,322.25845,125.18976)">
        <ellipse
           cx="479.42001"
           cy="362.12"
           rx="11.38"
           ry="14.9"
           fill="#3f3d56"
           id="ellipse29200" />
        <path
           d="m 540.43,461 a 18,18 0 0 0 2.38,-9.11 c 0,-8.23 -5.1,-14.9 -11.39,-14.9 -6.29,0 -11.42,6.69 -11.42,14.92 a 18,18 0 0 0 2.38,9.11 18.61,18.61 0 0 0 0,18.21 18.61,18.61 0 0 0 0,18.21 17.94,17.94 0 0 0 -2.38,9.11 c 0,8.22 5.1,14.9 11.38,14.9 6.28,0 11.39,-6.68 11.39,-14.9 a 17.94,17.94 0 0 0 -2.38,-9.11 18.61,18.61 0 0 0 0,-18.21 18.61,18.61 0 0 0 0,-18.21 z"
           transform="translate(-52,-162.63)"
           fill="#3f3d56"
           id="path29202" />
        <ellipse
           cx="479.42001"
           cy="271.07001"
           rx="11.38"
           ry="14.9"
           fill="#3f3d56"
           id="ellipse29204" />
        <ellipse
           cx="479.42001"
           cy="252.86"
           rx="11.38"
           ry="14.9"
           fill="#3f3d56"
           id="ellipse29206" />
        <path
           d="m 488.82,290.86 a 53.08,53.08 0 0 1 -4.24,-6.24 l 29.9,-4.91 -32.34,0.24 a 54.62,54.62 0 0 1 -1,-43.2 l 43.39,22.51 -40,-29.42 a 54.53,54.53 0 1 1 90,61 54.54,54.54 0 0 1 6.22,9.94 L 541.92,321 583.31,307.11 a 54.53,54.53 0 0 1 -8.79,51.2 54.52,54.52 0 1 1 -85.7,0 54.52,54.52 0 0 1 0,-67.42 z"
           transform="translate(-52,-162.63)"
           fill="#d69e5d"
           id="path29208" />
        <path
           d="m 586.19,324.57 a 54.27,54.27 0 0 1 -11.67,33.71 54.52,54.52 0 1 1 -85.7,0 c -7.31,-9.28 97.37,-39.83 97.37,-33.71 z"
           transform="translate(-52,-162.63)"
           opacity="0.1"
           id="path29210" />
      </g>
      <g
         opacity="0.1"
         id="g29226"
         transform="matrix(0.16389878,0,0,0.16389878,322.25845,125.18976)">
        <ellipse
           cx="612.28003"
           cy="330.26001"
           rx="8.5100002"
           ry="11.13"
           fill="#3f3d56"
           id="ellipse29214" />
        <path
           d="m 671,445.26 a 13.43,13.43 0 0 0 1.77,-6.8 c 0,-6.15 -3.81,-11.14 -8.5,-11.14 -4.69,0 -8.51,5 -8.51,11.14 a 13.33,13.33 0 0 0 1.78,6.8 13.9,13.9 0 0 0 0,13.61 13.9,13.9 0 0 0 0,13.61 13.33,13.33 0 0 0 -1.78,6.8 c 0,6.15 3.81,11.14 8.51,11.14 4.7,0 8.5,-5 8.5,-11.14 a 13.43,13.43 0 0 0 -1.77,-6.8 14,14 0 0 0 0,-13.61 14,14 0 0 0 0,-13.61 z"
           transform="translate(-52,-162.63)"
           fill="#3f3d56"
           id="path29216" />
        <ellipse
           cx="612.28003"
           cy="262.22"
           rx="8.5100002"
           ry="11.13"
           fill="#3f3d56"
           id="ellipse29218" />
        <ellipse
           cx="612.28003"
           cy="248.61"
           rx="8.5100002"
           ry="11.13"
           fill="#3f3d56"
           id="ellipse29220" />
        <path
           d="m 632.44,318.11 a 39,39 0 0 1 -3.17,-4.66 l 22.35,-3.67 -24.17,0.18 a 40.84,40.84 0 0 1 -0.78,-32.29 l 32.43,16.83 -29.91,-22 a 40.75,40.75 0 1 1 67.29,45.6 41.2,41.2 0 0 1 4.65,7.43 l -29,15.07 30.93,-10.38 a 40.76,40.76 0 0 1 -6.57,38.26 40.74,40.74 0 1 1 -64,0 40.74,40.74 0 0 1 0,-50.38 z"
           transform="translate(-52,-162.63)"
           fill="#d69e5d"
           id="path29222" />
        <path
           d="m 705.2,343.3 a 40.57,40.57 0 0 1 -8.72,25.19 40.74,40.74 0 1 1 -64,0 C 627,361.56 705.2,338.73 705.2,343.3 Z"
           transform="translate(-52,-162.63)"
           opacity="0.1"
           id="path29224" />
      </g>
      <g
         opacity="0.1"
         id="g29240"
         transform="matrix(0.16389878,0,0,0.16389878,322.25845,125.18976)">
        <ellipse
           cx="1038.58"
           cy="322.12"
           rx="11.38"
           ry="14.9"
           fill="#3f3d56"
           id="ellipse29228" />
        <path
           d="m 1081.57,421 a 18,18 0 0 1 -2.38,-9.11 c 0,-8.23 5.1,-14.9 11.39,-14.9 6.29,0 11.38,6.67 11.38,14.9 a 18,18 0 0 1 -2.38,9.11 18.61,18.61 0 0 1 0,18.21 18.61,18.61 0 0 1 0,18.21 17.94,17.94 0 0 1 2.38,9.11 c 0,8.22 -5.1,14.9 -11.38,14.9 -6.28,0 -11.39,-6.68 -11.39,-14.9 a 17.94,17.94 0 0 1 2.38,-9.11 18.61,18.61 0 0 1 0,-18.21 18.61,18.61 0 0 1 0,-18.21 z"
           transform="translate(-52,-162.63)"
           fill="#3f3d56"
           id="path29230" />
        <ellipse
           cx="1038.58"
           cy="231.07001"
           rx="11.38"
           ry="14.9"
           fill="#3f3d56"
           id="ellipse29232" />
        <ellipse
           cx="1038.58"
           cy="212.86"
           rx="11.38"
           ry="14.9"
           fill="#3f3d56"
           id="ellipse29234" />
        <path
           d="m 1133.18,250.86 a 53.08,53.08 0 0 0 4.24,-6.24 l -29.9,-4.91 32.34,0.24 a 54.62,54.62 0 0 0 1,-43.2 l -43.39,22.51 40,-29.42 a 54.53,54.53 0 1 0 -90,61 54.54,54.54 0 0 0 -6.22,9.94 l 38.83,20.22 -41.39,-13.89 a 54.53,54.53 0 0 0 8.79,51.2 54.52,54.52 0 1 0 85.7,0 54.52,54.52 0 0 0 0,-67.42 z"
           transform="translate(-52,-162.63)"
           fill="#d69e5d"
           id="path29236" />
        <path
           d="m 1035.81,284.57 a 54.27,54.27 0 0 0 11.67,33.71 54.52,54.52 0 1 0 85.7,0 c 7.31,-9.28 -97.37,-39.83 -97.37,-33.71 z"
           transform="translate(-52,-162.63)"
           opacity="0.1"
           id="path29238" />
      </g>
      <g
         opacity="0.1"
         id="g29254"
         transform="matrix(0.16389878,0,0,0.16389878,322.25845,125.18976)">
        <ellipse
           cx="928.71997"
           cy="324.26001"
           rx="8.5100002"
           ry="11.13"
           fill="#3f3d56"
           id="ellipse29242" />
        <path
           d="m 974,439.26 a 13.43,13.43 0 0 1 -1.77,-6.8 c 0,-6.15 3.81,-11.14 8.5,-11.14 4.69,0 8.51,5 8.51,11.14 a 13.33,13.33 0 0 1 -1.78,6.8 13.9,13.9 0 0 1 0,13.61 13.9,13.9 0 0 1 0,13.61 13.33,13.33 0 0 1 1.78,6.8 c 0,6.15 -3.81,11.14 -8.51,11.14 -4.7,0 -8.5,-5 -8.5,-11.14 a 13.43,13.43 0 0 1 1.77,-6.8 14,14 0 0 1 0,-13.61 14,14 0 0 1 0,-13.61 z"
           transform="translate(-52,-162.63)"
           fill="#3f3d56"
           id="path29244" />
        <ellipse
           cx="928.71997"
           cy="256.22"
           rx="8.5100002"
           ry="11.13"
           fill="#3f3d56"
           id="ellipse29246" />
        <ellipse
           cx="928.71997"
           cy="242.61"
           rx="8.5100002"
           ry="11.13"
           fill="#3f3d56"
           id="ellipse29248" />
        <path
           d="m 1012.56,312.11 a 39,39 0 0 0 3.17,-4.66 l -22.35,-3.67 24.17,0.18 a 40.84,40.84 0 0 0 0.78,-32.29 l -32.43,16.83 29.91,-22 a 40.75,40.75 0 1 0 -67.29,45.6 41.2,41.2 0 0 0 -4.65,7.43 l 29,15.07 L 942,324.23 a 40.76,40.76 0 0 0 6.57,38.26 40.74,40.74 0 1 0 64,0 40.74,40.74 0 0 0 0,-50.38 z"
           transform="translate(-52,-162.63)"
           fill="#d69e5d"
           id="path29250" />
        <path
           d="m 939.8,337.3 a 40.57,40.57 0 0 0 8.72,25.19 40.74,40.74 0 1 0 64,0 C 1018,355.56 939.8,332.73 939.8,337.3 Z"
           transform="translate(-52,-162.63)"
           opacity="0.1"
           id="path29252" />
      </g>
      <g
         opacity="0.1"
         id="g29268"
         transform="matrix(0.16389878,0,0,0.16389878,322.25845,125.18976)">
        <ellipse
           cx="61.59"
           cy="322.12"
           rx="11.38"
           ry="14.9"
           fill="#3f3d56"
           id="ellipse29256" />
        <path
           d="m 122.59,421 a 18,18 0 0 0 2.38,-9.11 c 0,-8.23 -5.1,-14.9 -11.38,-14.9 -6.28,0 -11.38,6.67 -11.38,14.9 a 18,18 0 0 0 2.37,9.11 18.67,18.67 0 0 0 0,18.21 18.67,18.67 0 0 0 0,18.21 17.93,17.93 0 0 0 -2.37,9.11 c 0,8.22 5.09,14.9 11.38,14.9 6.29,0 11.41,-6.66 11.41,-14.88 a 17.94,17.94 0 0 0 -2.38,-9.11 18.61,18.61 0 0 0 0,-18.21 18.61,18.61 0 0 0 0,-18.21 z"
           transform="translate(-52,-162.63)"
           fill="#3f3d56"
           id="path29258" />
        <ellipse
           cx="61.59"
           cy="231.07001"
           rx="11.38"
           ry="14.9"
           fill="#3f3d56"
           id="ellipse29260" />
        <ellipse
           cx="61.59"
           cy="212.86"
           rx="11.38"
           ry="14.9"
           fill="#3f3d56"
           id="ellipse29262" />
        <path
           d="m 71,250.86 a 54.33,54.33 0 0 1 -4.24,-6.24 L 96.67,239.71 64.3,240 a 54.62,54.62 0 0 1 -1,-43.2 l 43.4,22.51 -40,-29.42 a 54.52,54.52 0 1 1 90,61 54.54,54.54 0 0 1 6.22,9.94 l -38.84,20.17 41.4,-13.89 a 54.59,54.59 0 0 1 -8.8,51.2 54.52,54.52 0 1 1 -85.7,0 54.52,54.52 0 0 1 0,-67.42 z"
           transform="translate(-52,-162.63)"
           fill="#d69e5d"
           id="path29264" />
        <path
           d="m 168.35,284.57 a 54.27,54.27 0 0 1 -11.67,33.71 54.52,54.52 0 1 1 -85.7,0 c -7.31,-9.28 97.37,-39.83 97.37,-33.71 z"
           transform="translate(-52,-162.63)"
           opacity="0.1"
           id="path29266" />
      </g>
      <g
         opacity="0.1"
         id="g29282"
         transform="matrix(0.16389878,0,0,0.16389878,322.25845,125.18976)">
        <ellipse
           cx="171.44"
           cy="324.26001"
           rx="8.5100002"
           ry="11.13"
           fill="#3f3d56"
           id="ellipse29270" />
        <path
           d="m 230.17,439.26 a 13.43,13.43 0 0 0 1.77,-6.8 c 0,-6.15 -3.8,-11.14 -8.5,-11.14 -4.7,0 -8.51,5 -8.51,11.14 a 13.43,13.43 0 0 0 1.78,6.8 13.9,13.9 0 0 0 0,13.61 13.9,13.9 0 0 0 0,13.61 13.43,13.43 0 0 0 -1.78,6.8 c 0,6.15 3.81,11.14 8.51,11.14 4.7,0 8.5,-5 8.5,-11.14 a 13.43,13.43 0 0 0 -1.77,-6.8 14,14 0 0 0 0,-13.61 14,14 0 0 0 0,-13.61 z"
           transform="translate(-52,-162.63)"
           fill="#3f3d56"
           id="path29272" />
        <ellipse
           cx="171.44"
           cy="256.22"
           rx="8.5100002"
           ry="11.13"
           fill="#3f3d56"
           id="ellipse29274" />
        <ellipse
           cx="171.44"
           cy="242.61"
           rx="8.5100002"
           ry="11.13"
           fill="#3f3d56"
           id="ellipse29276" />
        <path
           d="m 191.6,312.11 a 40.21,40.21 0 0 1 -3.17,-4.66 l 22.35,-3.67 -24.17,0.18 a 40.84,40.84 0 0 1 -0.78,-32.29 l 32.43,16.83 -29.91,-22 a 40.75,40.75 0 1 1 67.29,45.6 40.12,40.12 0 0 1 4.65,7.43 l -29,15.07 30.93,-10.38 a 40.76,40.76 0 0 1 -6.57,38.26 40.74,40.74 0 1 1 -64,0 40.74,40.74 0 0 1 0,-50.38 z"
           transform="translate(-52,-162.63)"
           fill="#d69e5d"
           id="path29278" />
        <path
           d="m 264.36,337.3 a 40.57,40.57 0 0 1 -8.72,25.19 40.74,40.74 0 1 1 -64,0 c -5.5,-6.93 72.72,-29.76 72.72,-25.19 z"
           transform="translate(-52,-162.63)"
           opacity="0.1"
           id="path29280" />
      </g>
      <ellipse
         cx="412.07498"
         cy="206.01317"
         rx="89.816528"
         ry="1.4521432"
         fill="#d69e5d"
         opacity="0.1"
         id="ellipse29284"
         style="stroke-width:0.163899" />
      <ellipse
         cx="412.07498"
         cy="217.9368"
         rx="89.816528"
         ry="1.4521432"
         fill="#d69e5d"
         opacity="0.1"
         id="ellipse29286"
         style="stroke-width:0.163899" />
      <ellipse
         cx="412.07498"
         cy="181.12842"
         rx="89.816528"
         ry="1.4521432"
         fill="#d69e5d"
         opacity="0.1"
         id="ellipse29288"
         style="stroke-width:0.163899" />
      <ellipse
         cx="412.07498"
         cy="193.56996"
         rx="89.816528"
         ry="1.4521432"
         fill="#d69e5d"
         opacity="0.1"
         id="ellipse29290"
         style="stroke-width:0.163899" />
      <path
         d="m 454.81814,143.27927 a 2.9993477,2.9993477 0 0 0 -1.73733,0.19012 2.5650159,2.5650159 0 0 1 -2.08807,0 2.9305102,2.9305102 0 0 0 -2.45848,0.0475 1.5144247,1.5144247 0 0 1 -0.7064,0.17701 c -0.99651,0 -1.8242,-1.00306 -1.99629,-2.32572 a 1.9471175,1.9471175 0 0 0 0.4917,-0.53595 c 0.58348,-0.94078 1.48656,-1.54557 2.50273,-1.54557 1.01617,0 1.90778,0.5966 2.49126,1.52754 a 1.9143378,1.9143378 0 0 0 1.65374,0.908 h 0.0262 c 0.80146,-0.008 1.4882,0.62773 1.82091,1.55704 z"
         fill="#d69e5d"
         opacity="0.1"
         id="path29292"
         style="stroke-width:0.163899" />
      <path
         d="m 457.85191,139.12443 -1.60949,1.01945 0.98339,-1.77666 a 1.5898182,1.5898182 0 0 0 -0.97355,-0.34582 h -0.0262 a 1.8602512,1.8602512 0 0 1 -0.3278,-0.0246 l -0.55397,0.34583 0.23437,-0.42614 a 1.9323666,1.9323666 0 0 1 -0.95553,-0.72443 l -0.98339,0.61953 0.61626,-1.12106 c -0.57037,-0.6851 -1.34069,-1.10468 -2.18641,-1.10468 -1.01617,0 -1.91926,0.60315 -2.50438,1.54393 a 1.8700851,1.8700851 0 0 1 -1.65373,0.89161 h -0.0541 c -1.12107,0 -2.02907,1.27021 -2.02907,2.83708 0,1.56688 0.908,2.83873 2.02907,2.83873 a 1.5390095,1.5390095 0 0 0 0.7064,-0.17701 2.9272322,2.9272322 0 0 1 2.45849,-0.0492 2.548626,2.548626 0 0 0 2.08807,0 2.9370661,2.9370661 0 0 1 2.43553,0.0475 1.5242587,1.5242587 0 0 0 0.69821,0.17373 c 1.12107,0 2.02907,-1.27185 2.02907,-2.83872 a 3.5943002,3.5943002 0 0 0 -0.42122,-1.72914 z"
         fill="#d69e5d"
         opacity="0.1"
         id="path29294"
         style="stroke-width:0.163899" />
      <path
         d="m 386.38548,142.39258 a 2.1044603,2.1044603 0 0 0 -1.21776,0.13275 1.7897747,1.7897747 0 0 1 -1.46034,0 2.0454568,2.0454568 0 0 0 -1.7193,0.0344 1.0850099,1.0850099 0 0 1 -0.4917,0.12293 c -0.69657,0 -1.27677,-0.70149 -1.39805,-1.62752 a 1.3636378,1.3636378 0 0 0 0.3491,-0.37533 c 0.40811,-0.65559 1.04076,-1.08173 1.75208,-1.08173 0.71132,0 1.33577,0.41794 1.74388,1.06862 a 1.342331,1.342331 0 0 0 1.15877,0.63593 h 0.018 c 0.5507,-0.003 1.03093,0.44253 1.2653,1.08993 z"
         fill="#d69e5d"
         opacity="0.1"
         id="path29296"
         style="stroke-width:0.163899" />
      <path
         d="m 388.50797,139.48665 -1.12598,0.7146 0.68346,-1.24399 a 1.1063168,1.1063168 0 0 0 -0.68018,-0.24257 h -0.0197 a 1.2276019,1.2276019 0 0 1 -0.23274,-0.018 l -0.38188,0.24257 0.1639,-0.2983 a 1.3603599,1.3603599 0 0 1 -0.66871,-0.50644 l -0.68346,0.43269 0.43269,-0.78344 a 2.0012041,2.0012041 0 0 0 -1.53081,-0.77524 c -0.71132,0 -1.34397,0.42286 -1.75208,1.08173 a 1.3111902,1.3111902 0 0 1 -1.15876,0.62446 h -0.0377 c -0.78507,0 -1.421,0.88833 -1.421,1.98645 0,1.09812 0.63593,1.98645 1.421,1.98645 a 1.0653421,1.0653421 0 0 0 0.4917,-0.12456 2.0487348,2.0487348 0 0 1 1.71766,-0.0328 1.8192765,1.8192765 0 0 0 0.7359,0.1639 1.8028866,1.8028866 0 0 0 0.72607,-0.15407 2.0552907,2.0552907 0 0 1 1.70455,0.0328 1.0620641,1.0620641 0 0 0 0.4917,0.12129 c 0.78343,0 1.41936,-0.88997 1.41936,-1.98645 a 2.5125683,2.5125683 0 0 0 -0.29502,-1.22105 z"
         fill="#d69e5d"
         opacity="0.1"
         id="path29298"
         style="stroke-width:0.163899" />
      <path
         d="m 366.44392,155.24388 a 2.1011824,2.1011824 0 0 1 1.21613,0.13276 1.7930527,1.7930527 0 0 0 1.46197,0 2.0520127,2.0520127 0 0 1 1.7193,0.0328 1.0604251,1.0604251 0 0 0 0.4917,0.12456 c 0.69657,0 1.27677,-0.70313 1.39642,-1.62915 a 1.3357751,1.3357751 0 0 1 -0.34747,-0.37533 c -0.40975,-0.6556 -1.04239,-1.0801 -1.75208,-1.0801 -0.70968,0 -1.33577,0.41631 -1.74552,1.06862 a 1.342331,1.342331 0 0 1 -1.15712,0.63593 h -0.018 c -0.55234,0.003 -1.0342,0.44745 -1.2653,1.08993 z"
         fill="#d69e5d"
         opacity="0.1"
         id="path29300"
         style="stroke-width:0.163899" />
      <path
         d="m 364.31979,152.34287 1.12762,0.7146 -0.68509,-1.24235 a 1.1128727,1.1128727 0 0 1 0.68182,-0.24421 h 0.018 a 1.3964176,1.3964176 0 0 0 0.23438,-0.0164 l 0.38188,0.24093 -0.16389,-0.29666 a 1.3587209,1.3587209 0 0 0 0.66706,-0.50645 l 0.68346,0.4327 -0.42614,-0.78508 a 1.9995651,1.9995651 0 0 1 1.53082,-0.7736 c 0.70968,0 1.34397,0.42286 1.75208,1.08173 a 1.3111902,1.3111902 0 0 0 1.15712,0.62446 h 0.0393 c 0.78343,0 1.41936,0.88997 1.41936,1.98645 0,1.09648 -0.63593,1.98645 -1.41936,1.98645 a 1.0637031,1.0637031 0 0 1 -0.4917,-0.12292 2.0454568,2.0454568 0 0 0 -1.7193,-0.0344 1.7799408,1.7799408 0 0 1 -0.73426,0.1639 1.8028866,1.8028866 0 0 1 -0.72771,-0.15407 2.0520127,2.0520127 0 0 0 -1.70291,0.0328 1.0620641,1.0620641 0 0 1 -0.4917,0.12129 c -0.78507,0 -1.421,-0.88833 -1.421,-1.98645 a 2.5305972,2.5305972 0 0 1 0.2901,-1.22269 z"
         fill="#d69e5d"
         opacity="0.1"
         id="path29302"
         style="stroke-width:0.163899" />
      <path
         d="m 431.13805,205.54278 c 0.42777,-0.79327 -0.0574,-1.76356 -0.61463,-2.46996 -0.55725,-0.7064 -1.23907,-1.44231 -1.22432,-2.34211 0.0213,-1.29316 1.39478,-2.05857 2.49126,-2.74367 a 12.177679,12.177679 0 0 0 2.23722,-1.80288 3.2992824,3.2992824 0 0 0 0.68674,-0.92112 c 0.22782,-0.5048 0.22126,-1.08173 0.20651,-1.63898 q -0.0705,-2.76825 -0.27371,-5.53323"
         fill="none"
         stroke="#3f3d56"
         stroke-miterlimit="10"
         stroke-width="0.655595"
         id="path29304" />
      <path
         d="m 436.73355,187.99905 a 2.017594,2.017594 0 0 0 -1.00798,-1.65374 l -0.45236,0.89325 0.0147,-1.08173 a 2.017594,2.017594 0 1 0 1.44559,1.84222 z"
         fill="#d69e5d"
         id="path29306"
         style="stroke-width:0.163899" />
      <path
         d="m 433.13433,201.6551 a 2.017594,2.017594 0 0 1 -3.80901,-0.8195 1.9667854,1.9667854 0 0 1 0.13112,-0.81949 2.019233,2.019233 0 0 1 3.76968,0.0213 l -1.26039,1.026 1.38659,-0.3278 a 2.0061211,2.0061211 0 0 1 -0.21799,0.91948 z"
         fill="#d69e5d"
         id="path29308"
         style="stroke-width:0.163899" />
      <path
         d="m 432.13783,197.73792 a 2.017594,2.017594 0 0 1 -0.63921,-3.95816 l -0.0115,0.83097 0.45728,-0.90472 v 0 a 2.0181566,2.0181566 0 1 1 0.18848,4.03191 z"
         fill="#d69e5d"
         id="path29310"
         style="stroke-width:0.163899" />
      <path
         d="m 437.03676,194.47797 a 2.017594,2.017594 0 1 1 0.89161,-3.76967 l -0.35566,0.98339 0.72607,-0.71788 a 2.017594,2.017594 0 0 1 -1.26857,3.50252 z"
         fill="#d69e5d"
         id="path29312"
         style="stroke-width:0.163899" />
      <path
         d="m 436.46148,188.53664 c -0.46548,0.0508 -0.91784,0.19504 -1.38659,0.22454 -0.46875,0.0295 -0.98339,-0.0836 -1.27513,-0.44581 a 6.4707238,6.4707238 0 0 1 -0.37369,-0.65559 1.4357533,1.4357533 0 0 0 -0.50808,-0.47858 2.017594,2.017594 0 1 0 3.76967,1.34069 c -0.0738,0.002 -0.15079,0.007 -0.22618,0.0147 z"
         opacity="0.1"
         id="path29314"
         style="stroke-width:0.163899" />
      <path
         d="m 437.03676,194.47797 a 2.017594,2.017594 0 0 1 -1.91925,-2.87806 1.4931179,1.4931179 0 0 1 0.40483,0.40647 6.8378571,6.8378571 0 0 0 0.39991,0.66706 c 0.31469,0.36878 0.85227,0.4917 1.33905,0.46711 0.48678,-0.0246 0.95717,-0.16389 1.44231,-0.20487 0.0672,0 0.1344,-0.01 0.20324,-0.0115 a 2.017594,2.017594 0 0 1 -1.87009,1.55376 z"
         opacity="0.1"
         id="path29316"
         style="stroke-width:0.163899" />
      <path
         d="m 432.13783,197.73792 a 2.017594,2.017594 0 0 1 -1.93565,-2.84037 1.6389878,1.6389878 0 0 1 0.42778,0.40975 6.7575467,6.7575467 0 0 0 0.43761,0.68018 c 0.33927,0.3786 0.91291,0.513 1.42756,0.49169 0.51464,-0.0213 0.98339,-0.13276 1.47509,-0.1639 a 2.020872,2.020872 0 0 1 -1.83239,1.42265 z"
         opacity="0.1"
         id="path29318"
         style="stroke-width:0.163899" />
      <path
         d="m 433.13433,201.6551 a 2.017594,2.017594 0 0 1 -3.80901,-0.8195 1.9667854,1.9667854 0 0 1 0.13112,-0.81949 2.014316,2.014316 0 0 1 0.44253,0.39499 c 0.19176,0.23274 0.31796,0.4917 0.54087,0.71624 0.41138,0.40483 1.07845,0.57201 1.67012,0.58676 a 8.4735669,8.4735669 0 0 0 1.02437,-0.059 z"
         opacity="0.1"
         id="path29320"
         style="stroke-width:0.163899" />
      <path
         d="m 331.15979,193.74206 c 0.42778,-0.79327 -0.0574,-1.76355 -0.61462,-2.46995 -0.55726,-0.70641 -1.23908,-1.44559 -1.22433,-2.34211 0.0213,-1.29317 1.39478,-2.05857 2.49127,-2.74367 a 12.177679,12.177679 0 0 0 2.23721,-1.80289 3.2992824,3.2992824 0 0 0 0.68674,-0.92111 c 0.22782,-0.50481 0.22126,-1.08173 0.20651,-1.63899 q -0.0721,-2.76825 -0.27371,-5.53322"
         fill="none"
         stroke="#3f3d56"
         stroke-miterlimit="10"
         stroke-width="0.655595"
         id="path29322" />
      <path
         d="m 336.75529,176.19834 a 2.017594,2.017594 0 0 0 -1.00797,-1.65374 l -0.45236,0.89325 0.0147,-1.08173 a 2.017594,2.017594 0 1 0 1.44558,1.84222 z"
         fill="#d69e5d"
         id="path29324"
         style="stroke-width:0.163899" />
      <path
         d="m 333.15608,189.85438 a 2.017594,2.017594 0 0 1 -3.80901,-0.81949 1.9667854,1.9667854 0 0 1 0.13112,-0.81949 2.019233,2.019233 0 0 1 3.76967,0.0213 l -1.26038,1.02601 1.38658,-0.3278 a 2.0061211,2.0061211 0 0 1 -0.21798,0.91947 z"
         fill="#d69e5d"
         id="path29326"
         style="stroke-width:0.163899" />
      <path
         d="m 332.15957,185.9372 a 2.017594,2.017594 0 0 1 -0.6392,-3.95815 l -0.0115,0.83096 0.45728,-0.90472 v 0 a 2.0181566,2.0181566 0 1 1 0.18848,4.03191 z"
         fill="#d69e5d"
         id="path29328"
         style="stroke-width:0.163899" />
      <path
         d="m 337.05851,182.67726 a 2.017594,2.017594 0 1 1 0.89161,-3.76968 l -0.35566,0.9834 0.72607,-0.71788 a 2.017594,2.017594 0 0 1 -1.26858,3.50252 z"
         fill="#d69e5d"
         id="path29330"
         style="stroke-width:0.163899" />
      <path
         d="m 336.48322,176.73593 c -0.46547,0.0508 -0.91783,0.19504 -1.38658,0.22454 -0.46875,0.0295 -0.98339,-0.0836 -1.27513,-0.44581 a 6.4707238,6.4707238 0 0 1 -0.37369,-0.65559 1.4357533,1.4357533 0 0 0 -0.50809,-0.47859 2.017594,2.017594 0 1 0 3.76967,1.3407 c -0.0738,0.002 -0.15078,0.007 -0.22618,0.0147 z"
         opacity="0.1"
         id="path29332"
         style="stroke-width:0.163899" />
      <path
         d="m 337.05851,182.67726 a 2.017594,2.017594 0 0 1 -1.91926,-2.87807 1.4931179,1.4931179 0 0 1 0.40483,0.40647 6.8378571,6.8378571 0 0 0 0.39991,0.66707 c 0.31469,0.36877 0.85228,0.4917 1.33906,0.46711 0.48678,-0.0246 0.95717,-0.1639 1.44231,-0.20487 0.0672,0 0.13439,-0.01 0.20323,-0.0115 a 2.017594,2.017594 0 0 1 -1.87008,1.55376 z"
         opacity="0.1"
         id="path29334"
         style="stroke-width:0.163899" />
      <path
         d="m 332.15957,185.9372 a 2.017594,2.017594 0 0 1 -1.93564,-2.84036 1.6389878,1.6389878 0 0 1 0.42777,0.40974 6.7575467,6.7575467 0 0 0 0.43761,0.68018 c 0.33927,0.37861 0.91292,0.51301 1.42756,0.4917 0.51464,-0.0213 0.98339,-0.13276 1.47509,-0.1639 a 2.020872,2.020872 0 0 1 -1.83239,1.42264 z"
         opacity="0.1"
         id="path29336"
         style="stroke-width:0.163899" />
      <path
         d="m 333.15608,189.85438 a 2.017594,2.017594 0 0 1 -3.80901,-0.81949 1.9667854,1.9667854 0 0 1 0.13112,-0.81949 2.014316,2.014316 0 0 1 0.44252,0.39499 c 0.19177,0.23274 0.31797,0.4917 0.54087,0.71624 0.41139,0.40483 1.07845,0.57201 1.67013,0.58676 a 8.4735669,8.4735669 0 0 0 1.02437,-0.059 z"
         opacity="0.1"
         id="path29338"
         style="stroke-width:0.163899" />
      <path
         d="m 397.73711,180.24172 c -0.42777,-0.79163 0.0574,-1.76191 0.61626,-2.46831 0.5589,-0.70641 1.23744,-1.44231 1.22269,-2.34212 -0.0197,-1.2948 -1.39314,-2.05857 -2.49126,-2.74366 a 12.12851,12.12851 0 0 1 -2.23558,-1.80289 3.2419179,3.2419179 0 0 1 -0.68838,-0.91947 c -0.22618,-0.50645 -0.21962,-1.08173 -0.20651,-1.63899 q 0.0737,-2.76825 0.27371,-5.53322"
         fill="none"
         stroke="#3f3d56"
         stroke-miterlimit="10"
         stroke-width="0.655595"
         id="path29340" />
      <path
         d="m 392.14325,162.69963 a 2.015955,2.015955 0 0 1 1.00634,-1.65373 l 0.45236,0.89324 -0.0131,-1.08173 a 2.0684026,2.0684026 0 0 1 0.66379,-0.0803 2.017594,2.017594 0 1 1 -2.10937,1.92253 z"
         fill="#d69e5d"
         id="path29342"
         style="stroke-width:0.163899" />
      <path
         d="m 395.74083,176.35568 a 2.017594,2.017594 0 1 0 -0.0967,-1.62424 l 1.26038,1.02601 -1.38659,-0.3278 a 2.0061211,2.0061211 0 0 0 0.22291,0.92603 z"
         fill="#d69e5d"
         id="path29344"
         style="stroke-width:0.163899" />
      <path
         d="m 396.73733,172.4385 a 2.017594,2.017594 0 0 0 0.64084,-3.95816 l 0.01,0.83097 -0.45728,-0.90472 v 0 a 2.017594,2.017594 0 0 0 -2.11429,1.91598 1.9930092,1.9930092 0 0 0 0.0869,0.68837 2.015955,2.015955 0 0 0 1.83403,1.42756 z"
         fill="#d69e5d"
         id="path29346"
         style="stroke-width:0.163899" />
      <path
         d="m 391.84003,169.17528 a 2.017594,2.017594 0 1 0 -0.89324,-3.76968 l 0.3573,0.9834 -0.73427,-0.70313 a 2.0012041,2.0012041 0 0 0 -0.6556,1.39314 1.9520345,1.9520345 0 0 0 0.0508,0.55562 2.015955,2.015955 0 0 0 1.875,1.54065 z"
         fill="#d69e5d"
         id="path29348"
         style="stroke-width:0.163899" />
      <path
         d="m 392.41532,163.23722 c 0.46547,0.0508 0.91783,0.19504 1.38494,0.22454 0.46712,0.0295 0.9834,-0.0836 1.27678,-0.4458 a 6.4576119,6.4576119 0 0 0 0.37205,-0.6556 1.4406703,1.4406703 0 0 1 0.50972,-0.47858 2.017594,2.017594 0 1 1 -3.76967,1.33905 c 0.0738,0.002 0.14915,0.008 0.22618,0.0164 z"
         opacity="0.1"
         id="path29350"
         style="stroke-width:0.163899" />
      <path
         d="m 391.84003,169.17528 a 2.019233,2.019233 0 0 0 1.91926,-2.87807 1.4996738,1.4996738 0 0 0 -0.40647,0.40647 6.8378571,6.8378571 0 0 1 -0.39991,0.66707 c -0.31305,0.36877 -0.85064,0.4917 -1.33742,0.46711 -0.48678,-0.0246 -0.95717,-0.1639 -1.44231,-0.20487 -0.0672,0 -0.13603,-0.01 -0.20323,-0.0115 a 2.015955,2.015955 0 0 0 1.87008,1.55377 z"
         opacity="0.1"
         id="path29352"
         style="stroke-width:0.163899" />
      <path
         d="m 396.73733,172.4385 a 2.015955,2.015955 0 0 0 1.93564,-2.84037 1.611125,1.611125 0 0 0 -0.42613,0.40975 6.7575467,6.7575467 0 0 1 -0.43761,0.68018 c -0.34091,0.37861 -0.91292,0.513 -1.4292,0.4917 -0.51628,-0.0213 -0.98339,-0.13276 -1.47509,-0.1639 a 2.015955,2.015955 0 0 0 1.83239,1.42264 z"
         opacity="0.1"
         id="path29354"
         style="stroke-width:0.163899" />
      <path
         d="m 395.74083,176.35568 a 2.017594,2.017594 0 0 0 3.67952,-1.63899 1.9372836,1.9372836 0 0 0 -0.44252,0.395 c -0.19177,0.23274 -0.3278,0.4917 -0.54087,0.71624 -0.41302,0.40483 -1.07845,0.572 -1.67177,0.58675 a 8.8407002,8.8407002 0 0 1 -1.02436,-0.059 z"
         opacity="0.1"
         id="path29356"
         style="stroke-width:0.163899" />
      <circle
         cx="450.05524"
         cy="164.22717"
         r="16.383322"
         fill="#3f3d56"
         id="circle29358"
         style="stroke-width:0.163899" />
      <path
         d="m 457.08814,168.45248 c -0.57037,-0.57037 -1.9422,-1.43083 -2.62238,-1.75208 -0.78508,-0.37696 -1.07354,-0.37041 -1.62916,0.0311 -0.46219,0.3278 -0.76212,0.64413 -1.29316,0.52776 -0.53103,-0.11637 -1.58326,-0.90964 -2.60107,-1.92417 -1.01781,-1.01454 -1.8078,-2.06021 -1.92089,-2.59944 -0.11309,-0.53922 0.19831,-0.8326 0.52939,-1.2948 0.39991,-0.55562 0.41138,-0.84408 0.0311,-1.62915 -0.3278,-0.68018 -1.17843,-2.04874 -1.75372,-2.62238 -0.57528,-0.57365 -0.69985,-0.44745 -1.01453,-0.3278 a 5.8675763,5.8675763 0 0 0 -0.92931,0.4917 c -0.57036,0.38188 -0.88997,0.69984 -1.11451,1.17843 -0.22454,0.47858 -0.47858,1.36691 0.82769,3.69264 a 20.600438,20.600438 0 0 0 3.62216,4.83009 v 0 0 a 20.631578,20.631578 0 0 0 4.84649,3.62872 c 2.32409,1.31119 3.21406,1.0506 3.69264,0.82769 0.47858,-0.2229 0.79655,-0.53922 1.17679,-1.11451 a 5.7905439,5.7905439 0 0 0 0.4917,-0.9293 c 0.10817,-0.31469 0.23601,-0.44253 -0.33927,-1.01454 z"
         fill="#d69e5d"
         id="path29360"
         style="stroke-width:0.163899" />
      <path
         d="m 450.05524,147.84549 a 16.389878,16.389878 0 1 0 16.38169,16.38168 16.389878,16.389878 0 0 0 -16.38169,-16.38168 z m 0,30.58679 a 14.205107,14.205107 0 1 1 14.20511,-14.20511 14.205107,14.205107 0 0 1 -14.20511,14.20511 z"
         opacity="0.1"
         id="path29362"
         style="stroke-width:0.163899" />
      <circle
         cx="412.41589"
         cy="189.11192"
         r="16.383322"
         fill="#3f3d56"
         id="circle29364"
         style="stroke-width:0.163899" />
      <path
         d="m 421.73353,184.16218 -4.90549,4.99072 a 0.08850534,0.08850534 0 0 0 0,0.12784 l 3.44188,3.65986 a 0.59331358,0.59331358 0 0 1 -0.41794,1.01125 0.59659156,0.59659156 0 0 1 -0.41959,-0.17373 l -3.42384,-3.64675 a 0.0934223,0.0934223 0 0 0 -0.13112,0 l -0.83425,0.84244 a 3.6664157,3.6664157 0 0 1 -2.62238,1.10304 3.7467261,3.7467261 0 0 1 -2.66827,-1.13418 l -0.80146,-0.81949 a 0.0934223,0.0934223 0 0 0 -0.13112,0 l -3.41565,3.63855 a 0.5916746,0.5916746 0 0 1 -0.83753,0 0.59003561,0.59003561 0 0 1 0,-0.83752 l 3.42877,-3.65167 a 0.09833927,0.09833927 0 0 0 0,-0.12784 l -4.90549,-4.99072 a 0.09014433,0.09014433 0 0 0 -0.15407,0.0639 v 9.98635 a 1.4619771,1.4619771 0 0 0 1.45706,1.45706 h 16.04078 a 1.4619771,1.4619771 0 0 0 1.45706,-1.45706 v -9.97816 a 0.09014433,0.09014433 0 0 0 -0.15735,-0.0639 z"
         fill="#d69e5d"
         id="path29366"
         style="stroke-width:0.163899" />
      <path
         d="m 412.41589,190.89186 a 2.4814275,2.4814275 0 0 0 1.78977,-0.73754 l 7.14435,-7.27219 a 1.4259194,1.4259194 0 0 0 -0.90144,-0.3278 h -16.05225 a 1.4160855,1.4160855 0 0 0 -0.90144,0.3278 l 7.14598,7.27219 a 2.4715936,2.4715936 0 0 0 1.77503,0.73754 z"
         fill="#d69e5d"
         id="path29368"
         style="stroke-width:0.163899" />
      <path
         d="m 412.20937,172.73024 a 16.389878,16.389878 0 1 0 16.38169,16.38168 16.389878,16.389878 0 0 0 -16.38169,-16.38168 z m 0,30.58679 a 14.205107,14.205107 0 1 1 14.20511,-14.20511 14.205107,14.205107 0 0 1 -14.20511,14.20511 z"
         opacity="0.1"
         id="path29370"
         style="stroke-width:0.163899" />
      <circle
         cx="373.53418"
         cy="176.87688"
         r="16.383322"
         fill="#3f3d56"
         id="circle29372"
         style="stroke-width:0.163899" />
      <path
         d="m 373.53418,169.0376 -6.53137,15.06885 0.60971,0.60971 5.9233,-2.61255 5.9233,2.61255 0.6097,-0.60971 z"
         fill="#d69e5d"
         id="path29374"
         style="stroke-width:0.163899" />
      <path
         d="m 373.53418,160.48864 a 16.389878,16.389878 0 1 0 16.38168,16.38988 16.389878,16.389878 0 0 0 -16.38168,-16.38988 z m 0,30.58679 a 14.205107,14.205107 0 1 1 14.20511,-14.19691 14.205107,14.205107 0 0 1 -14.20511,14.20347 z"
         opacity="0.1"
         id="path29376"
         style="stroke-width:0.163899" />
      <path
         d="m 451.56311,197.5101 q -0.2229,-0.54415 -0.45728,-1.08501 a 3.220611,3.220611 0 0 0 -0.55889,-0.96537 1.0227284,1.0227284 0 0 0 -0.3278,-0.24585 1.3980566,1.3980566 0 0 0 -0.42777,-0.0852 3.4140116,3.4140116 0 0 0 -0.67199,-0.018 c -0.0869,-0.0262 -0.18521,-0.0606 -0.28191,-0.1 a 2.3404746,2.3404746 0 0 0 1.74389,-2.17166 c 0,-0.0328 0,-0.0672 0,-0.1 a 2.3355576,2.3355576 0 0 0 -2.32573,-2.34539 2.2945829,2.2945829 0 0 0 -1.22104,0.34911 2.1913267,2.1913267 0 0 0 -2.45848,1.18498 2.7092468,2.7092468 0 0 0 -0.83589,2.01596 c 0,0.0344 0,0.0705 0,0.10326 0.0426,1.27349 0.86539,2.29458 1.90451,2.39783 a 1.0915659,1.0915659 0 0 0 -0.30158,0.2016 c -0.31796,0.30649 -0.37041,0.79327 -0.40483,1.2358 l -0.0246,0.32779 -0.5507,0.19668 a 0.10161724,0.10161724 0 0 0 -0.0246,0.17865 l 0.52612,0.37533 c 0,0.0311 0,0.0623 0,0.0934 0,0.0311 0,0.0705 0.01,0.10654 a 0.7522954,0.7522954 0 0 0 -0.20323,0.2901 1.340692,1.340692 0 0 0 -0.0475,0.53103 l 0.0197,0.45728 a 3.5910223,3.5910223 0 0 0 0.13932,1.01781 c 0.0688,0.20323 0.36713,0.69329 0.58184,0.69657 -0.19832,0.90144 -0.25077,2.80267 -0.25077,2.80267 -0.0246,0.0246 0.0443,0.0475 0.1639,0.0672 0.11801,0.90472 0.50317,3.44187 1.18663,4.55802 a 9.6110245,9.6110245 0 0 1 0.25732,1.10796 c 0,0 0.19504,2.41095 0.45236,3.12719 0.21963,0.6097 0.39336,2.11429 0.44089,2.55026 a 0.25076513,0.25076513 0 0 0 -0.18193,0.18685 c -0.12948,0.39007 -0.96864,0.98339 -0.96864,0.98339 a 4.0581338,4.0581338 0 0 0 -0.72443,0.46383 c -0.26388,0.23765 -0.25405,0.45236 0.91783,0.31797 2.2618,-0.2606 2.6486,-0.9834 2.6486,-0.9834 0,0 -0.036,-0.12128 -0.0901,-0.27863 a 3.0255715,3.0255715 0 0 0 -0.29666,-0.69984 c -0.0328,-0.0311 -0.0656,0.0213 -0.10489,0.10325 a 14.034653,14.034653 0 0 1 -0.15407,-3.16488 c 0,0 0.0639,-1.10796 -0.25896,-1.88976 a 3.5779104,3.5779104 0 0 1 0,-1.23743 c 0.12948,-0.5212 -0.51628,-3.06327 -0.51628,-3.06327 l -0.37041,-1.87172 a 0.537588,0.537588 0 0 1 0.10326,0.21798 l 0.01,0.0377 0.01,0.0541 a 0.10161724,0.10161724 0 0 0 0.0262,0.0508 c 0.2524,1.04896 0.94406,3.95488 0.94406,4.38102 0,0.5212 0.64576,1.82419 0.64576,1.82419 0,0 0.25732,2.15035 0.70968,2.99607 0.34419,0.64412 0.35238,1.58818 0.33599,2.00448 v 0 c 0,0 -0.077,0.53595 -0.20651,0.66543 a 1.5832622,1.5832622 0 0 0 -0.24421,0.4245 l -0.0147,0.0311 c 0,0 -0.1934,0.39172 -0.0639,0.45728 a 3.1747194,3.1747194 0 0 0 1.55048,0.19504 c 0,0 0.25896,-0.3278 0.25896,-0.45564 a 2.0520127,2.0520127 0 0 0 -0.0295,-0.23274 c -0.0475,-0.30813 -0.13604,-0.79327 -0.13768,-0.79818 0.0541,-0.20979 -0.16389,-0.79327 -0.16389,-0.79327 l -0.0656,-1.8242 a 8.4211193,8.4211193 0 0 0 -0.45236,-3.65002 c 0,0 -0.3278,-1.17188 -0.25733,-1.49804 0.0705,-0.32616 -0.12948,-3.7795 -0.12948,-3.7795 l -0.0197,-0.0492 a 3.7336142,3.7336142 0 0 1 0.0197,-0.73263 c 0.0639,-0.7818 -0.1934,-2.41095 -0.25896,-2.47487 a 2.147074,2.147074 0 0 1 -0.0918,-0.53923 c 0.0147,-0.13604 0.059,-0.53431 0.11965,-1.02928 a 18.505811,18.505811 0 0 0 1.9045,-0.1639 0.23765323,0.23765323 0 0 0 0.1639,-0.0656 0.22945829,0.22945829 0 0 0 0.0377,-0.13276 c 0.0754,-0.98175 -0.28355,-1.93564 -0.6556,-2.84364 z m -1.29972,2.06676 c 0.0672,-0.46711 0.13932,-0.91947 0.21143,-1.25546 l 0.01,0.0295 a 9.1209671,9.1209671 0 0 1 0.3114,1.03256 3.5123509,3.5123509 0 0 1 -0.53267,0.1934 z"
         fill="url(#eb6c86d6-45fa-49e0-9a60-1b0612516196)"
         id="path29378"
         style="fill:url(#linearGradient29764);stroke-width:0.163899" />
      <path
         d="m 445.24317,204.85276 c 0,0 0.38681,3.47957 1.22433,4.83174 a 9.3766492,9.3766492 0 0 1 0.25732,1.09484 c 0,0 0.1934,2.38309 0.45072,3.09113 0.25732,0.70805 0.45072,2.64205 0.45072,2.64205 0,0 0.90145,1.02929 1.22433,0.1934 a 13.574097,13.574097 0 0 1 -0.1934,-3.35009 c 0,0 0.0639,-1.09484 -0.25733,-1.86845 a 3.494322,3.494322 0 0 1 0,-1.22268 c 0.12785,-0.51628 -0.51628,-3.02721 -0.51628,-3.02721 l -0.51464,-2.51257 z"
         fill="#be6f72"
         id="path29380"
         style="stroke-width:0.163899" />
      <path
         d="m 449.30131,217.35004 c 0,0 -0.3868,0.70805 -2.64041,0.96537 -1.17024,0.13276 -1.17843,-0.0787 -0.91456,-0.31469 a 4.0810796,4.0810796 0 0 1 0.72116,-0.45891 c 0,0 0.83752,-0.57857 0.96536,-0.96537 0.12784,-0.3868 0.5802,-0.0639 0.5802,-0.0639 0.64413,0.96536 0.77361,-0.25896 0.90145,-0.12948 a 2.9059254,2.9059254 0 0 1 0.29665,0.69001 c 0.0541,0.15571 0.0901,0.27699 0.0901,0.27699 z"
         fill="#ff6f61"
         id="path29382"
         style="stroke-width:0.163899" />
      <path
         d="m 449.30131,217.35004 c 0,0 -0.3868,0.70805 -2.64041,0.96537 -1.17024,0.13276 -1.17843,-0.0787 -0.91456,-0.31469 0.18357,0.11637 0.55398,0.1639 1.29972,-0.13603 1.07354,-0.43925 1.85206,-0.6933 2.1651,-0.79164 0.0541,0.15571 0.0901,0.27699 0.0901,0.27699 z"
         opacity="0.1"
         id="path29384"
         style="stroke-width:0.163899" />
      <path
         d="m 448.65719,213.35583 c 0,0 0.0639,-1.09484 -0.25733,-1.86845 a 3.494322,3.494322 0 0 1 0,-1.22268 c 0.12785,-0.51628 -0.51628,-3.02721 -0.51628,-3.02721 l -0.51464,-2.51257 -0.4458,0.0262 0.50972,2.48635 c 0,0 0.64412,2.51093 0.51628,3.02721 a 3.494322,3.494322 0 0 0 0,1.22268 c 0.3278,0.77361 0.25732,1.86845 0.25732,1.86845 a 13.574097,13.574097 0 0 0 0.1934,3.35009 0.5638118,0.5638118 0 0 1 -0.18684,0.26552 c 0.23929,0.10817 0.4917,0.10325 0.63757,-0.26552 a 13.574097,13.574097 0 0 1 -0.1934,-3.35009 z"
         opacity="0.1"
         id="path29386"
         style="stroke-width:0.163899" />
      <path
         d="m 448.2376,190.71485 a 2.2945829,2.2945829 0 0 0 -1.21612,0.34583 2.1880487,2.1880487 0 0 0 -2.45849,1.17188 2.6682721,2.6682721 0 0 0 -0.83424,1.993 c 0,1.3702 0.92275,2.47979 2.06021,2.47979 0.81949,0 1.53737,-0.58348 1.8668,-1.42756 a 2.2618032,2.2618032 0 0 0 0.58021,0.0754 2.31917,2.31917 0 0 0 0,-4.63834 z"
         fill="#3f3d56"
         id="path29388"
         style="stroke-width:0.163899" />
      <path
         d="m 450.13883,205.17564 0.1934,0.51464 c 0,0 0.1934,3.41402 0.12784,3.7369 -0.0656,0.32288 0.25896,1.47509 0.25896,1.47509 a 8.2457476,8.2457476 0 0 1 0.45072,3.60577 l 0.0639,1.80289 c 0,0 0.25733,0.70804 0.12948,0.83752 -0.12784,0.12948 -1.09976,-0.11473 -1.09976,-0.11473 0,0 0.12948,-1.35217 -0.32779,-2.18969 -0.45728,-0.83752 -0.70805,-2.96329 -0.70805,-2.96329 0,0 -0.64412,-1.28824 -0.64412,-1.80289 0,-0.51464 -1.03092,-4.70225 -1.03092,-4.70225 z"
         fill="#be6f72"
         id="path29390"
         style="stroke-width:0.163899" />
      <path
         d="m 445.11369,205.11172 c 0,0 0.0656,-2.31917 0.3278,-3.02721 a 4.8071512,4.8071512 0 0 0 0.28682,-1.02764 c 0,0 3.89916,0.70476 4.22204,0.44744 0,0 0.0639,0.90144 0.12948,0.96536 0.0656,0.0639 0.32779,1.67505 0.25732,2.44865 -0.0705,0.7736 0,0.77196 0,0.77196 0,0 -2.64205,0.38681 -2.70597,0 -0.0639,-0.3868 -0.25732,-0.38516 -0.25732,-0.38516 0,0 -2.38801,-0.0721 -2.26017,-0.1934 z"
         fill="#3f3d56"
         id="path29392"
         style="stroke-width:0.163899" />
      <g
         opacity="0.1"
         id="g29402"
         transform="matrix(0.16389878,0,0,0.16389878,322.25845,125.18976)">
        <path
           d="m 814.55,650.26 c 0,0 -9.94,-0.27 -12.94,-0.81 0,0.51 0,0.81 0,0.81 -0.78,0.78 13.76,1.18 13.76,1.18 a 1,1 0 0 1 0.54,0.22 c -0.53,-1.4 -1.36,-1.4 -1.36,-1.4 z"
           transform="translate(-52,-162.63)"
           id="path29394" />
        <path
           d="m 831.85,634.14 c -0.4,-0.39 -0.79,-5.89 -0.79,-5.89 a 1.69,1.69 0 0 1 -0.67,0.24 c 0.14,1.66 0.41,4.21 0.67,4.47 0.26,0.26 2,10.22 1.57,14.94 -0.43,4.72 0,4.71 0,4.71 0,0 -12.75,1.87 -15.84,0.62 0,0.17 0.09,0.36 0.12,0.56 0.39,2.36 16.51,0 16.51,0 0,0 -0.4,0 0,-4.71 0.4,-4.71 -1.18,-14.54 -1.57,-14.94 z"
           transform="translate(-52,-162.63)"
           id="path29396" />
        <path
           d="m 814.55,650.26 c 0,0 -9.94,-0.27 -12.94,-0.81 0,0.51 0,0.81 0,0.81 -0.78,0.78 13.76,1.18 13.76,1.18 a 1,1 0 0 1 0.54,0.22 c -0.53,-1.4 -1.36,-1.4 -1.36,-1.4 z"
           transform="translate(-52,-162.63)"
           fill="url(#ad310e25-2b04-44c8-bb7b-982389166780)"
           id="path29398" />
        <path
           d="m 831.85,634.14 c -0.4,-0.39 -0.79,-5.89 -0.79,-5.89 a 1.69,1.69 0 0 1 -0.67,0.24 c 0.14,1.66 0.41,4.21 0.67,4.47 0.26,0.26 2,10.22 1.57,14.94 -0.43,4.72 0,4.71 0,4.71 0,0 -12.75,1.87 -15.84,0.62 0,0.17 0.09,0.36 0.12,0.56 0.39,2.36 16.51,0 16.51,0 0,0 -0.4,0 0,-4.71 0.4,-4.71 -1.18,-14.54 -1.57,-14.94 z"
           transform="translate(-52,-162.63)"
           fill="url(#ad310e25-2b04-44c8-bb7b-982389166780)"
           id="path29400" />
      </g>
      <path
         d="m 447.95242,194.77299 a 0.85391264,0.85391264 0 0 0 0.24585,0.31796 0.5506999,0.5506999 0 0 0 0.2311,0.1 c -0.14423,0.0836 -0.30158,0.14587 -0.44581,0.22946 a 7.926145,7.926145 0 0 0 -0.65559,0.49169 1.3341361,1.3341361 0 0 1 -0.7523,0.29174 0.92111114,0.92111114 0 0 0 0.1049,-0.91619 0.85555163,0.85555163 0 0 1 -0.11473,-0.31796 c 0,-0.18521 0.1639,-0.3278 0.31632,-0.42614 0.12293,-0.0836 0.24913,-0.1639 0.37697,-0.24421 0.1,-0.0623 0.25076,-0.1934 0.37697,-0.18848 0.1262,0.005 0.14095,0.11636 0.1639,0.23109 a 1.8176375,1.8176375 0 0 0 0.15242,0.43106 z"
         fill="#be6f72"
         id="path29404"
         style="stroke-width:0.163899" />
      <path
         d="m 447.95242,194.77299 a 0.85391264,0.85391264 0 0 0 0.24585,0.31796 0.5506999,0.5506999 0 0 0 0.2311,0.1 c -0.14423,0.0836 -0.30158,0.14587 -0.44581,0.22946 a 7.926145,7.926145 0 0 0 -0.65559,0.49169 1.3341361,1.3341361 0 0 1 -0.7523,0.29174 0.92111114,0.92111114 0 0 0 0.1049,-0.91619 0.85555163,0.85555163 0 0 1 -0.11473,-0.31796 c 0,-0.18521 0.1639,-0.3278 0.31632,-0.42614 0.12293,-0.0836 0.24913,-0.1639 0.37697,-0.24421 0.1,-0.0623 0.25076,-0.1934 0.37697,-0.18848 0.1262,0.005 0.14095,0.11636 0.1639,0.23109 a 1.8176375,1.8176375 0 0 0 0.15242,0.43106 z"
         opacity="0.1"
         id="path29406"
         style="stroke-width:0.163899" />
      <circle
         cx="449.46194"
         cy="197.09216"
         r="1.481645"
         fill="#be6f72"
         id="circle29408"
         style="stroke-width:0.163899" />
      <path
         d="m 451.55492,218.12201 c 0,0.12948 -0.25732,0.45072 -0.25732,0.45072 a 3.1894703,3.1894703 0 0 1 -1.54557,-0.1934 c -0.12948,-0.0639 0.0639,-0.45072 0.0639,-0.45072 l 0.0147,-0.0311 a 1.5635944,1.5635944 0 0 1 0.24421,-0.41959 c 0.12784,-0.12784 0.20487,-0.65559 0.20487,-0.65559 0.39992,-0.6556 1.1096,0.28354 1.1096,0.28354 0,0 0.0901,0.4917 0.13767,0.79 0.0164,0.10653 0.0279,0.1934 0.0279,0.22618 z"
         fill="#ff6f61"
         id="path29410"
         style="stroke-width:0.163899" />
      <path
         d="m 451.55492,218.12201 c 0,0.12948 -0.25732,0.45072 -0.25732,0.45072 a 3.1894703,3.1894703 0 0 1 -1.54557,-0.1934 c -0.12948,-0.0639 0.0639,-0.45072 0.0639,-0.45072 l 0.0147,-0.0311 a 3.1140768,3.1140768 0 0 0 1.40297,0.28846 l 0.29338,-0.29338 c 0.0164,0.10981 0.0279,0.19668 0.0279,0.22946 z"
         opacity="0.1"
         id="path29412"
         style="stroke-width:0.163899" />
      <circle
         cx="446.49866"
         cy="193.99939"
         r="1.4488653"
         fill="#be6f72"
         id="circle29414"
         style="stroke-width:0.163899" />
      <path
         d="m 445.33004,196.89711 c -0.31796,0.30322 -0.37041,0.78344 -0.40319,1.22105 l -0.0492,0.64084 a 3.2320839,3.2320839 0 0 0 -0.0115,0.51956 c 0,0.10654 0.0262,0.21471 0.036,0.3278 0.01,0.11309 0.0131,0.25568 0.0148,0.38516 v 0.94734 a 1.1177897,1.1177897 0 0 0 0.10489,0.56873 0.38680112,0.38680112 0 0 0 0.4917,0.17701 0.56053383,0.56053383 0 0 0 0.20323,-0.31469 4.8923786,4.8923786 0 0 0 0.3278,-1.19974 c 0.0131,-0.14259 0.0147,-0.28518 0.0279,-0.42777 0.0131,-0.14259 0.0377,-0.29174 0.059,-0.43597 0.0918,-0.60315 0.13275,-1.21285 0.17373,-1.82092 0.0115,-0.18029 0.17373,-0.88997 -0.0623,-0.96864 -0.11473,-0.0377 -0.35239,0.0803 -0.4622,0.11965 a 1.3013563,1.3013563 0 0 0 -0.45072,0.26059 z"
         fill="#be6f72"
         id="path29416"
         style="stroke-width:0.163899" />
      <path
         d="m 445.33004,196.89711 c -0.31796,0.30322 -0.37041,0.78344 -0.40319,1.22105 l -0.0492,0.64084 a 3.2320839,3.2320839 0 0 0 -0.0115,0.51956 c 0,0.10654 0.0262,0.21471 0.036,0.3278 0.01,0.11309 0.0131,0.25568 0.0148,0.38516 v 0.94734 a 1.1177897,1.1177897 0 0 0 0.10489,0.56873 0.38680112,0.38680112 0 0 0 0.4917,0.17701 0.56053383,0.56053383 0 0 0 0.20323,-0.31469 4.8923786,4.8923786 0 0 0 0.3278,-1.19974 c 0.0131,-0.14259 0.0147,-0.28518 0.0279,-0.42777 0.0131,-0.14259 0.0377,-0.29174 0.059,-0.43597 0.0918,-0.60315 0.13275,-1.21285 0.17373,-1.82092 0.0115,-0.18029 0.17373,-0.88997 -0.0623,-0.96864 -0.11473,-0.0377 -0.35239,0.0803 -0.4622,0.11965 a 1.3013563,1.3013563 0 0 0 -0.45072,0.26059 z"
         opacity="0.1"
         id="path29418"
         style="stroke-width:0.163899" />
      <path
         d="m 448.33431,194.93361 c 0,0 -1.09485,0.83752 -1.73897,1.03092 0,0 -0.38189,0.43597 -0.44744,0.54087 -0.0656,0.10489 -0.19668,1.26202 -0.3278,1.52098 -0.13112,0.25896 -0.45072,0.83752 0,1.41608 0,0 0.12784,0.5802 0.0639,0.77361 -0.0639,0.1934 -0.2983,0.90144 -0.0852,0.93422 0.21307,0.0328 0.85883,0.48186 1.43739,0.35402 0.57857,-0.12784 2.73875,0.4917 2.73875,0.4917 0,0 0.3573,-3.31895 0.61626,-3.90571 l -0.5802,-0.1934 c 0,0 -1.60949,-0.96537 -0.64412,-2.44701 -0.002,0 -0.90636,-0.1934 -1.03256,-0.51628 z"
         fill="#ff6f61"
         id="path29420"
         style="stroke-width:0.163899" />
      <path
         d="m 444.33681,198.81309 1.33086,0.94242 a 0.09833927,0.09833927 0 0 0 0.11637,0 l 0.36058,-0.27043 a 0.10161724,0.10161724 0 0 0 0,-0.15407 l -1.02437,-0.90964 a 0.09833927,0.09833927 0 0 0 -0.1,-0.0197 l -0.65723,0.23601 a 0.09997826,0.09997826 0 0 0 -0.0262,0.17537 z"
         fill="#3f3d56"
         id="path29422"
         style="stroke-width:0.163899" />
      <path
         d="m 444.78426,201.65182 a 3.5664375,3.5664375 0 0 1 -0.13932,-1.0047 l -0.0197,-0.454 a 1.3111902,1.3111902 0 0 1 0.0475,-0.52448 0.85719062,0.85719062 0 0 1 0.55234,-0.4835 1.9077818,1.9077818 0 0 1 0.75229,-0.0541 0.19340056,0.19340056 0 0 1 0.0967,0.0262 0.18028866,0.18028866 0 0 1 0.0525,0.0885 0.59331358,0.59331358 0 0 1 0.0295,0.47367 0.49169634,0.49169634 0 0 1 -0.15079,0.15571 c -0.17865,0.12784 -0.3868,0.21306 -0.55561,0.35238 a 0.2015955,0.2015955 0 0 0 -0.0754,0.0951 0.22126335,0.22126335 0 0 0 0,0.10326 1.6520997,1.6520997 0 0 0 0.0852,0.26387 0.26059906,0.26059906 0 0 0 0.0738,0.11145 c 0.0311,0.0262 0.0721,0.0361 0.1049,0.0607 0.0705,0.0574 0.21799,0.13275 0.20979,0.2229 -0.0246,0.3278 -0.22126,0.69493 -0.2983,1.01945 -0.1475,0.63429 -0.67034,-0.17537 -0.7654,-0.45236 z"
         fill="#be6f72"
         id="path29424"
         style="stroke-width:0.163899" />
      <g
         opacity="0.1"
         id="g29430"
         transform="matrix(0.16389878,0,0,0.16389878,322.25845,125.18976)">
        <path
           d="m 812.2,628.25 h -0.22 a 6.73,6.73 0 0 0 2.57,0 h 0.25 a 9,9 0 0 0 -2.6,0 z"
           transform="translate(-52,-162.63)"
           id="path29426" />
        <path
           d="m 832.83,606.83 c -1.41,3.17 -3.49,20.34 -3.86,23.75 1.38,0.36 2.29,0.62 2.29,0.62 0,0 2.16,-20.2 3.74,-23.78 z"
           transform="translate(-52,-162.63)"
           id="path29428" />
      </g>
      <path
         d="m 449.51274,197.13805 a 0.49169634,0.49169634 0 0 0 0.21143,0.3196 2.8370879,2.8370879 0 0 1 0.37532,0.38024 2.692857,2.692857 0 0 1 0.37206,0.74574 9.137357,9.137357 0 0 1 0.30976,1.01945 c -0.81949,0.38025 -1.75044,0.36222 -2.62238,0.61299 a 2.0929874,2.0929874 0 0 0 -0.98339,0.58184 1.3554429,1.3554429 0 0 0 -0.36222,1.06698 0.13931396,0.13931396 0 0 0 0.0197,0.0639 0.13767498,0.13767498 0 0 0 0.11473,0.0459 0.98339268,0.98339268 0 0 0 0.60151,-0.20651 2.8616727,2.8616727 0 0 0 0.46056,-0.45236 0.74082249,0.74082249 0 0 1 0.32779,-0.24257 c 0.47367,-0.14424 0.9834,-0.13604 1.47509,-0.14424 a 18.5894,18.5894 0 0 0 2.19788,-0.17373 0.17701068,0.17701068 0 0 0 0.19668,-0.19668 c 0.0721,-0.967 -0.28682,-1.91106 -0.65559,-2.80758 q -0.22127,-0.53923 -0.45564,-1.07354 a 3.1796363,3.1796363 0 0 0 -0.55726,-0.95389 0.98339268,0.98339268 0 0 0 -0.32779,-0.24257 1.3865837,1.3865837 0 0 0 -0.43925,-0.082 3.1140768,3.1140768 0 0 0 -0.71952,-0.0131 1.5340926,1.5340926 0 0 0 -0.0688,0.37205 c 0.0131,0.44253 0.20652,0.85719 0.39664,1.2571 0.0246,0.0606 0.0951,0.0639 0.13276,0.12293 z"
         fill="#be6f72"
         id="path29432"
         style="stroke-width:0.163899" />
      <path
         d="m 446.88872,197.96737 a 1.2013781,1.2013781 0 0 0 -0.1639,0.6261 0.84243973,0.84243973 0 0 0 0.041,0.25568 0.82932783,0.82932783 0 0 0 0.52284,0.4917"
         fill="none"
         stroke="#000000"
         stroke-miterlimit="10"
         opacity="0.1"
         id="path29434"
         style="stroke-width:0.163899" />
      <path
         d="m 447.72296,192.5833 a 0.7522954,0.7522954 0 0 0 -0.23765,0.0377 c -0.21471,-0.3278 -0.71952,-0.55398 -1.31119,-0.55398 -0.78344,0 -1.41773,0.40483 -1.41773,0.90308 0,0.49825 0.63429,0.90144 1.41773,0.90144 a 1.9946482,1.9946482 0 0 0 0.85063,-0.18029 0.77196325,0.77196325 0 1 0 0.69493,-1.10795 z"
         fill="#3f3d56"
         id="path29436"
         style="stroke-width:0.163899" />
      <path
         d="m 447.78688,193.93546 a 0.77032427,0.77032427 0 0 1 -0.69493,-0.43761 1.9946482,1.9946482 0 0 1 -0.85063,0.18029 c -0.7818,0 -1.41609,-0.40319 -1.41609,-0.90144 a 0.54250496,0.54250496 0 0 1 0,-0.0901 0.61134245,0.61134245 0 0 0 -0.0721,0.28354 c 0,0.4917 0.63429,0.90144 1.41772,0.90144 a 1.9946482,1.9946482 0 0 0 0.85064,-0.18029 0.77196325,0.77196325 0 0 0 1.45378,-0.19176 0.76868528,0.76868528 0 0 1 -0.68838,0.43597 z"
         opacity="0.1"
         id="path29438"
         style="stroke-width:0.163899" />
      <path
         d="m 444.56463,192.6128 a 2.1880487,2.1880487 0 0 1 2.45848,-1.17188 2.3175287,2.3175287 0 0 1 3.52711,1.77995 c 0,-0.0639 0,-0.12785 0,-0.19341 a 2.3175287,2.3175287 0 0 0 -3.5353,-1.96678 2.1880487,2.1880487 0 0 0 -2.45848,1.17188 2.6682721,2.6682721 0 0 0 -0.83425,1.993 c 0,0.0656 0,0.12948 0,0.19341 a 2.6223805,2.6223805 0 0 1 0.84244,-1.80617 z"
         opacity="0.1"
         id="path29440"
         style="stroke-width:0.163899" />
      <path
         d="m 459.34175,193.1045 c 0.42777,-0.79163 -0.0574,-1.76355 -0.61626,-2.46996 -0.5589,-0.7064 -1.23744,-1.44067 -1.22269,-2.34211 0.0197,-1.29316 1.39314,-2.05693 2.49126,-2.74367 a 12.11212,12.11212 0 0 0 2.23558,-1.80288 3.2665027,3.2665027 0 0 0 0.68838,-0.91948 c 0.22618,-0.50644 0.21962,-1.08173 0.20651,-1.63898 q -0.0721,-2.76989 -0.27371,-5.53323"
         fill="none"
         stroke="#3f3d56"
         stroke-miterlimit="10"
         stroke-width="0.655595"
         id="path29442" />
      <path
         d="m 464.93561,175.55585 a 2.014316,2.014316 0 0 0 -1.00634,-1.6521 l -0.45236,0.89325 0.0131,-1.08173 a 1.9798973,1.9798973 0 0 0 -0.66379,-0.0803 2.017594,2.017594 0 1 0 2.10937,1.92089 z"
         fill="#d69e5d"
         id="path29444"
         style="stroke-width:0.163899" />
      <path
         d="m 461.33803,189.21354 a 2.017594,2.017594 0 1 1 0.0967,-1.62588 l -1.26038,1.02601 1.38659,-0.3278 a 2.0061211,2.0061211 0 0 1 -0.22291,0.92767 z"
         fill="#d69e5d"
         id="path29446"
         style="stroke-width:0.163899" />
      <path
         d="m 460.34153,185.29472 a 2.017594,2.017594 0 0 1 -0.64084,-3.95816 l -0.01,0.83097 0.45728,-0.90308 v 0 a 2.019233,2.019233 0 0 1 2.10938,1.92253 2.015955,2.015955 0 0 1 -1.9209,2.10938 z"
         fill="#d69e5d"
         id="path29448"
         style="stroke-width:0.163899" />
      <path
         d="m 465.23883,182.03641 a 2.017594,2.017594 0 1 1 0.89324,-3.76967 l -0.3573,0.98339 0.73427,-0.70476 a 2.0061211,2.0061211 0 0 1 0.6556,1.39314 1.9471175,1.9471175 0 0 1 -0.0508,0.55561 2.017594,2.017594 0 0 1 -1.875,1.54229 z"
         fill="#d69e5d"
         id="path29450"
         style="stroke-width:0.163899" />
      <path
         d="m 464.66518,176.09344 c -0.46547,0.0525 -0.91947,0.19668 -1.38658,0.22618 -0.46712,0.0295 -0.9834,-0.0836 -1.27678,-0.44744 a 6.2609334,6.2609334 0 0 1 -0.37205,-0.6556 1.4505042,1.4505042 0 0 0 -0.50808,-0.47858 2.017594,2.017594 0 1 0 3.76967,1.33905 c -0.0754,0.003 -0.15079,0.008 -0.22618,0.0164 z"
         opacity="0.1"
         id="path29452"
         style="stroke-width:0.163899" />
      <path
         d="m 465.23883,182.03641 a 2.019233,2.019233 0 0 1 -1.91926,-2.87806 1.4931179,1.4931179 0 0 1 0.40647,0.40483 6.4690848,6.4690848 0 0 0 0.39991,0.66707 c 0.31305,0.37041 0.85064,0.49169 1.33742,0.46875 0.48678,-0.023 0.95717,-0.1639 1.44231,-0.20488 0.0672,0 0.13603,-0.0115 0.20323,-0.0131 a 2.017594,2.017594 0 0 1 -1.87008,1.5554 z"
         opacity="0.1"
         id="path29454"
         style="stroke-width:0.163899" />
      <path
         d="m 460.34153,185.29472 a 2.015955,2.015955 0 0 1 -1.93564,-2.84364 1.6635726,1.6635726 0 0 1 0.42613,0.40974 c 0.1639,0.22127 0.25405,0.47695 0.43761,0.68018 0.34091,0.38025 0.91292,0.51301 1.4292,0.50153 0.51628,-0.0115 0.98339,-0.13439 1.47509,-0.17209 a 2.017594,2.017594 0 0 1 -1.83239,1.42428 z"
         opacity="0.1"
         id="path29456"
         style="stroke-width:0.163899" />
      <path
         d="m 461.33803,189.21354 a 2.019233,2.019233 0 0 1 -3.67952,-1.63899 1.9766193,1.9766193 0 0 1 0.44252,0.395 c 0.1934,0.23437 0.31961,0.49169 0.54087,0.71787 0.41302,0.40483 1.07845,0.57037 1.67177,0.58676 a 8.8407002,8.8407002 0 0 0 1.02436,-0.0606 z"
         opacity="0.1"
         id="path29458"
         style="stroke-width:0.163899" />
      <path
         d="m 485.40165,218.01711 c 0.42778,-0.79163 -0.0574,-1.76355 -0.61626,-2.46995 -0.55889,-0.70641 -1.23743,-1.44067 -1.22268,-2.34212 0.0197,-1.29316 1.39314,-2.05693 2.49126,-2.74366 a 12.11212,12.11212 0 0 0 2.23558,-1.80289 3.2665027,3.2665027 0 0 0 0.68837,-0.91947 c 0.22618,-0.50645 0.21963,-1.08173 0.20652,-1.63899 q -0.0705,-2.76989 -0.27371,-5.53322"
         fill="none"
         stroke="#3f3d56"
         stroke-miterlimit="10"
         stroke-width="0.655595"
         id="path29460" />
      <path
         d="m 490.99552,200.46847 a 2.014316,2.014316 0 0 0 -1.00634,-1.6521 l -0.45236,0.89325 0.0131,-1.08173 a 1.9798973,1.9798973 0 0 0 -0.65559,-0.0803 2.017594,2.017594 0 1 0 2.10937,1.92089 z"
         fill="#d69e5d"
         id="path29462"
         style="stroke-width:0.163899" />
      <path
         d="m 487.39794,214.12615 a 2.017594,2.017594 0 1 1 0.0967,-1.62587 l -1.26038,1.02601 1.38658,-0.3278 a 2.0061211,2.0061211 0 0 1 -0.2229,0.92766 z"
         fill="#d69e5d"
         id="path29464"
         style="stroke-width:0.163899" />
      <path
         d="m 486.40144,210.20733 a 2.017594,2.017594 0 0 1 -0.64085,-3.95815 l -0.01,0.83097 0.45728,-0.90309 v 0 a 2.019233,2.019233 0 0 1 2.10937,1.92254 2.015955,2.015955 0 0 1 -1.92089,2.10937 z"
         fill="#d69e5d"
         id="path29466"
         style="stroke-width:0.163899" />
      <path
         d="m 491.29873,206.94903 a 2.017594,2.017594 0 1 1 0.89325,-3.76967 l -0.3573,0.98339 0.73427,-0.70477 a 2.0061211,2.0061211 0 0 1 0.65559,1.39314 1.9471175,1.9471175 0 0 1 -0.0508,0.55562 2.017594,2.017594 0 0 1 -1.875,1.54229 z"
         fill="#d69e5d"
         id="path29468"
         style="stroke-width:0.163899" />
      <path
         d="m 490.72509,201.00606 c -0.46548,0.0524 -0.91948,0.19668 -1.38659,0.22618 -0.46711,0.0295 -0.98339,-0.0836 -1.27677,-0.44745 a 6.2609334,6.2609334 0 0 1 -0.37205,-0.65559 1.4505042,1.4505042 0 0 0 -0.50809,-0.47859 2.017594,2.017594 0 1 0 3.76968,1.33906 c -0.0754,0.003 -0.15079,0.008 -0.22618,0.0164 z"
         opacity="0.1"
         id="path29470"
         style="stroke-width:0.163899" />
      <path
         d="m 491.29873,206.94903 a 2.019233,2.019233 0 0 1 -1.91925,-2.87807 1.4931179,1.4931179 0 0 1 0.40647,0.40483 6.4690848,6.4690848 0 0 0 0.39991,0.66707 c 0.31305,0.37041 0.85063,0.4917 1.33741,0.46875 0.48678,-0.0229 0.95717,-0.1639 1.44231,-0.20487 0.0672,0 0.13604,-0.0115 0.20324,-0.0131 a 2.017594,2.017594 0 0 1 -1.87009,1.5554 z"
         opacity="0.1"
         id="path29472"
         style="stroke-width:0.163899" />
      <path
         d="m 486.40144,210.20733 a 2.015955,2.015955 0 0 1 -1.93565,-2.84364 1.6635726,1.6635726 0 0 1 0.42614,0.40975 c 0.1639,0.22126 0.25404,0.47694 0.43761,0.68018 0.34091,0.38024 0.91291,0.513 1.4292,0.50153 0.51628,-0.0115 0.98339,-0.1344 1.47508,-0.1721 a 2.017594,2.017594 0 0 1 -1.83238,1.42428 z"
         opacity="0.1"
         id="path29474"
         style="stroke-width:0.163899" />
      <path
         d="m 487.39794,214.12615 a 2.019233,2.019233 0 0 1 -3.67953,-1.63898 1.9766193,1.9766193 0 0 1 0.44253,0.39499 c 0.1934,0.23438 0.3278,0.4917 0.54087,0.71788 0.41302,0.40483 1.07845,0.57037 1.67176,0.58676 a 8.8407002,8.8407002 0 0 0 1.02437,-0.0607 z"
         opacity="0.1"
         id="path29476"
         style="stroke-width:0.163899" />
      <path
         d="m 400.60206,194.89263 a 1.607847,1.607847 0 0 0 -0.64084,-1.29808 1.884836,1.884836 0 0 0 -1.57507,-1.84877 1.881558,1.881558 0 0 0 -1.25382,-1.40134 v 0 a 1.5996521,1.5996521 0 0 0 -0.23274,-0.0541 h -0.0229 -0.041 -0.0328 -0.0361 -0.0443 -0.1 a 1.8455003,1.8455003 0 0 0 -1.78322,1.5767 c -0.57528,-0.13276 -1.1014,0.0393 -1.1981,0.40319 a 0.49169634,0.49169634 0 0 0 0.0164,0.29174 c 0.0983,0.28191 0.41794,0.55234 0.84572,0.6851 l 0.0557,0.0164 0.0836,0.0213 h 0.018 v 0 a 1.4488652,1.4488652 0 0 0 -0.13767,0.62117 1.4324753,1.4324753 0 0 0 0.77196,1.27841 l -0.0377,0.023 a 0.51136419,0.51136419 0 0 0 -0.12456,0.17373 2.5994347,2.5994347 0 0 0 -0.24093,0.5802 c -0.041,0.17374 -0.0475,0.35402 -0.0983,0.52612 -0.0951,0.31632 -0.33763,0.58348 -0.36549,0.91291 -0.0131,0.14751 0.0115,0.3278 -0.0934,0.42286 a 0.50972521,0.50972521 0 0 1 -0.0836,0.059 0.67690196,0.67690196 0 0 0 -0.18193,0.19176 0.63592727,0.63592727 0 0 1 -0.12784,0.18356 c -0.0951,0.0705 -0.25077,0.0639 -0.29666,0.17374 -0.0459,0.10981 0.0737,0.23929 0.0459,0.35894 -0.0279,0.11964 -0.12948,0.14259 -0.20323,0.20979 a 0.72934957,0.72934957 0 0 0 -0.17537,0.32779 1.075176,1.075176 0 0 1 -0.88506,-0.22618 1.6537387,1.6537387 0 0 1 0.0918,0.3278 1.4357533,1.4357533 0 0 0 -0.47695,-0.23929 1.5062298,1.5062298 0 0 1 -0.50809,-0.37697 l 0.27208,-0.0377 -1.20138,-1.83402 -0.35566,-0.0738 0.31796,0.61135 a 0.19503955,0.19503955 0 0 0 -0.10817,0.12948 0.55561686,0.55561686 0 0 0 -0.0115,0.20815 3.7254193,3.7254193 0 0 0 0.082,0.49169 l 0.0918,0.42942 c 0.008,0.0393 0.018,0.0803 0.0295,0.11964 a 1.1292626,1.1292626 0 0 0 -0.35566,0.0393 3.094409,3.094409 0 0 0 -0.73918,-0.17537 0.40974695,0.40974695 0 0 0 -0.1639,0 0.42449784,0.42449784 0 0 0 -0.15571,0.1262 5.0415265,5.0415265 0 0 0 -0.54906,0.7736 c -0.65559,1.12435 -1.50951,2.1061 -2.31753,3.12227 -0.55725,0.22618 -1.11943,0.44089 -1.6816,0.6556 l -1.20957,0.46219 a 1.8340273,1.8340273 0 0 1 -0.75066,0.1639 c -0.11473,0 -0.25732,-0.0246 -0.3278,0.0738 a 0.69001386,0.69001386 0 0 0 -0.0737,0.1639 l -0.12456,0.0131 v 0 a 1.4324753,1.4324753 0 0 0 -0.2901,-0.53431 0.18356663,0.18356663 0 0 0 -0.13604,0.10489 c -0.0295,0.0541 -0.0475,0.11309 -0.082,0.1639 -0.0639,0.0951 -0.17701,0.14095 -0.25732,0.22127 -0.0803,0.0803 -0.13112,0.20487 -0.21962,0.28682 a 0.86866353,0.86866353 0 0 1 -0.41139,0.1639 2.5961567,2.5961567 0 0 0 -0.64412,0.24421 1.0374793,1.0374793 0 0 1 -0.23766,0.10981 0.89324835,0.89324835 0 0 1 -0.28026,0.01 l -0.63921,-0.0475 a 0.50480824,0.50480824 0 0 0 -0.17209,0.008 0.32779756,0.32779756 0 0 0 -0.20324,0.32779 0.51628116,0.51628116 0 0 0 0.20324,0.35239 1.3013563,1.3013563 0 0 0 0.36385,0.18848 10.678006,10.678006 0 0 0 1.70455,0.50481 v 0.12948 a 2.9092033,2.9092033 0 0 0 1.31119,0.31141 0.20323449,0.20323449 0 0 0 0.0983,-0.018 0.21634639,0.21634639 0 0 0 0.082,-0.12784 5.2726238,5.2726238 0 0 0 0.25568,-1.25547 v 0 a 0.65559512,0.65559512 0 0 0 0.2311,-0.059 c 0.21962,-0.0606 0.43925,0.0901 0.66707,0.11473 0.28026,0.0311 0.53922,-0.13276 0.80474,-0.23274 l 0.11473,-0.0377 a 1.2587426,1.2587426 0 0 1 -0.26552,0.25405 c -0.10981,0.0787 -0.23273,0.13767 -0.33927,0.21962 a 2.3371966,2.3371966 0 0 1 -0.28846,0.2229 1.8110815,1.8110815 0 0 1 -0.22126,0.0852 1.4603381,1.4603381 0 0 0 -0.31633,0.1639 0.64084423,0.64084423 0 0 0 -0.2147,0.20979 0.31468566,0.31468566 0 0 0 -0.018,0.29502 0.31140768,0.31140768 0 0 0 0.21143,0.14751 0.86702455,0.86702455 0 0 0 0.2606,0 c 0.34746,-0.0262 0.69329,-0.0574 1.03911,-0.0885 a 2.7731674,2.7731674 0 0 0 0.43434,-0.0623 c 0.0754,-0.018 0.15078,-0.0426 0.22618,-0.0639 a 2.017594,2.017594 0 0 1 0.39499,-0.059 0.32779756,0.32779756 0 0 1 0.11473,0.0115 c 0.0803,0.0262 0.13768,0.10817 0.21963,0.12456 a 0.32779756,0.32779756 0 0 0 0.16389,-0.0213 3.6549428,3.6549428 0 0 1 0.76869,-0.082 c 0.11309,0 0.24585,-0.0279 0.2983,-0.13276 0.0524,-0.1049 -0.0426,-0.27371 -0.0852,-0.41303 a 1.2636596,1.2636596 0 0 1 -0.0361,-0.27207 1.7029083,1.7029083 0 0 0 -0.19012,-0.64576 1.6865184,1.6865184 0 0 1 -0.14259,-0.29502 7.4524775,7.4524775 0 0 0 1.41444,-0.71787 2.5289582,2.5289582 0 0 1 0.80638,-0.38844 2.1929657,2.1929657 0 0 1 1.0129,0.118 23.045807,23.045807 0 0 1 2.32244,0.80966 c 0.36222,0.14915 0.7228,0.30649 1.09649,0.41958 a 1.7094643,1.7094643 0 0 0 0.39008,0.37861 1.8028866,1.8028866 0 0 0 0.84407,0.2311 11.05989,11.05989 0 0 0 1.18827,0.0442 2.0044821,2.0044821 0 0 0 0.88505,-0.1639 0.90963823,0.90963823 0 0 0 0.18521,-0.12292 0.73426653,0.73426653 0 0 0 0.58348,-0.21471 1.4144465,1.4144465 0 0 0 0.44417,-0.70149 c 0.0967,-0.37369 0.0229,-0.81949 0.2524,-1.11779 0.0606,-0.082 0.14095,-0.14751 0.20159,-0.22946 a 0.64576119,0.64576119 0 0 0 0.1049,-0.3786 0.07703243,0.07703243 0 0 1 0.01,-0.0147 1.3882227,1.3882227 0 0 0 0.0983,-0.37697 2.15363,2.15363 0 0 1 0.10654,-0.2983 9.2094724,9.2094724 0 0 0 0.30485,-0.88341 5.1611726,5.1611726 0 0 0 0.14095,-0.60643 c 0.0246,-0.16389 0.0393,-0.32779 0.0525,-0.49169 a 3.0534343,3.0534343 0 0 1 0.14915,-0.75885 6.175706,6.175706 0 0 0 0.34419,-1.816 v -0.0361 a 1.2177679,1.2177679 0 0 0 1.07845,-1.23907 1.2931614,1.2931614 0 0 0 -0.11309,-0.5294 1.6389878,1.6389878 0 0 0 0.21962,-0.82605 z m -5.86429,7.12468 c 0.018,0.0639 0.0393,0.1262 0.0606,0.18849 -0.0967,-0.0934 -0.19012,-0.19013 -0.28683,-0.28519 0.0377,0.0131 0.077,0.0246 0.11309,0.0393 a 0.61134245,0.61134245 0 0 1 0.10818,0.0574 z m -0.46384,-0.31468 c -0.56709,-0.4917 -1.22268,-0.87358 -1.80289,-1.35053 0.31633,0.1557 0.62446,0.33763 0.92931,0.51137 q 0.54251,0.30976 1.09976,0.59495 a 0.8998043,0.8998043 0 0 1 -0.2311,0.24421 z m 0.24093,-1.23908 0.0279,-0.0279 c 0,0.0705 0,0.1344 0,0.19504 l -0.15243,-0.0524 a 1.3570819,1.3570819 0 0 0 0.11965,-0.11473 z m -4.98744,1.32758 a 4.6924221,4.6924221 0 0 0 0.60315,-0.86047 c 0.22454,0.39172 0.59004,0.67527 0.8998,1.0047 -0.49989,-0.0639 -1.00142,-0.118 -1.50295,-0.14423 z"
         fill="url(#a964f849-fa65-4178-8cc4-fb8fb10b3617)"
         id="path29478"
         style="fill:url(#a964f849-fa65-4178-8cc4-fb8fb10b3617);stroke-width:0.163899" />
      <polygon
         points="424.96,449.68 421.69,450.12 415.35,438.25 417.53,438.69 "
         fill="#2f2e41"
         id="polygon29480"
         transform="matrix(0.16389878,0,0,0.16389878,322.25845,125.18976)" />
      <path
         d="m 381.67012,204.32501 a 7.0115898,7.0115898 0 0 0 0.35729,0.9293 8.8505341,8.8505341 0 0 0 1.18827,-0.33927 3.7467261,3.7467261 0 0 0 -0.24749,-0.32779 1.2226849,1.2226849 0 0 0 -0.33599,-0.25733 0.92438912,0.92438912 0 0 0 -0.40811,0 c -0.18356,-0.005 -0.36877,-0.002 -0.55397,-0.005 z"
         fill="#fbbebe"
         id="path29482"
         style="stroke-width:0.163899" />
      <path
         d="m 382.63384,204.80523 a 0.74082249,0.74082249 0 0 1 -0.40647,-0.46219 1.4882009,1.4882009 0 0 0 -0.30977,-0.55234 0.17701068,0.17701068 0 0 0 -0.13767,0.10325 c -0.0295,0.0525 -0.0475,0.11145 -0.0803,0.1639 -0.0656,0.0934 -0.18029,0.13932 -0.26224,0.21799 -0.082,0.0787 -0.13112,0.20159 -0.21963,0.2819 a 0.87194151,0.87194151 0 0 1 -0.41466,0.1639 2.689579,2.689579 0 0 0 -0.65559,0.24093 1.1309016,1.1309016 0 0 1 -0.24094,0.10818 0.9538909,0.9538909 0 0 1 -0.2819,0 l -0.64576,-0.0459 a 0.50480824,0.50480824 0 0 0 -0.1639,0 0.31304667,0.31304667 0 0 0 -0.20487,0.32779 0.49169634,0.49169634 0 0 0 0.20487,0.34747 1.3603599,1.3603599 0 0 0 0.36713,0.18684 10.80093,10.80093 0 0 0 1.73077,0.4917 v 0.12784 a 2.9960697,2.9960697 0 0 0 1.31939,0.30649 0.22290234,0.22290234 0 0 0 0.0983,-0.0164 0.21634639,0.21634639 0 0 0 0.082,-0.12784 5.1136419,5.1136419 0 0 0 0.27043,-1.40297 1.1177897,1.1177897 0 0 0 -0.0279,-0.36222 c -0.0361,-0.11637 0.0852,-0.0672 -0.0262,-0.11309"
         fill="#2f2e41"
         id="path29484"
         style="stroke-width:0.163899" />
      <path
         d="m 395.01803,202.37133 c -1.91434,0.11473 -3.80573,-0.4458 -5.72334,-0.5048 a 2.7944742,2.7944742 0 0 0 -0.71132,0.0442 3.5844663,3.5844663 0 0 0 -0.70477,0.27371 c -1.02764,0.47858 -2.09135,0.87522 -3.15341,1.27022 l -1.22105,0.45399 a 1.8487782,1.8487782 0 0 1 -0.75557,0.1639 c -0.11637,0 -0.25896,-0.0246 -0.3278,0.0721 -0.19832,0.29502 -0.10489,0.72607 0.0262,1.05715 0.0426,0.10653 0.11472,0.2229 0.22945,0.23437 a 0.66706803,0.66706803 0 0 0 0.23274,-0.059 c 0.22126,-0.059 0.44253,0.0901 0.67199,0.11473 0.2819,0.0295 0.54414,-0.13112 0.81129,-0.22946 0.44253,-0.1639 0.92439,-0.1639 1.38987,-0.23602 0.77851,-0.12948 1.50131,-0.49169 2.17657,-0.90308 a 2.5404311,2.5404311 0 0 1 0.8113,-0.38352 2.2454133,2.2454133 0 0 1 1.02109,0.11637 23.437526,23.437526 0 0 1 2.34211,0.79655 10.917298,10.917298 0 0 0 1.22269,0.44744 4.4252671,4.4252671 0 0 0 2.74202,-0.1639 c 0.3065,-0.12129 0.63921,-0.3278 0.6556,-0.66543 0.0115,-0.18848 -0.13604,-0.35402 -0.23274,-0.51628 -0.0623,-0.10326 -0.1262,-0.20651 -0.1934,-0.30649 -0.32779,-0.47531 -0.72771,-1.11123 -1.30955,-1.07682 z"
         fill="#2f2e41"
         id="path29486"
         style="stroke-width:0.163899" />
      <path
         d="m 395.01803,202.37133 c -1.91434,0.11473 -3.80573,-0.4458 -5.72334,-0.5048 a 2.7944742,2.7944742 0 0 0 -0.71132,0.0442 3.5844663,3.5844663 0 0 0 -0.70477,0.27371 c -1.02764,0.47858 -2.09135,0.87522 -3.15341,1.27022 l -1.22105,0.45399 a 1.8487782,1.8487782 0 0 1 -0.75557,0.1639 c -0.11637,0 -0.25896,-0.0246 -0.3278,0.0721 -0.19832,0.29502 -0.10489,0.72607 0.0262,1.05715 0.0426,0.10653 0.11472,0.2229 0.22945,0.23437 a 0.66706803,0.66706803 0 0 0 0.23274,-0.059 c 0.22126,-0.059 0.44253,0.0901 0.67199,0.11473 0.2819,0.0295 0.54414,-0.13112 0.81129,-0.22946 0.44253,-0.1639 0.92439,-0.1639 1.38987,-0.23602 0.77851,-0.12948 1.50131,-0.49169 2.17657,-0.90308 a 2.5404311,2.5404311 0 0 1 0.8113,-0.38352 2.2454133,2.2454133 0 0 1 1.02109,0.11637 23.437526,23.437526 0 0 1 2.34211,0.79655 10.917298,10.917298 0 0 0 1.22269,0.44744 4.4252671,4.4252671 0 0 0 2.74202,-0.1639 c 0.3065,-0.12129 0.63921,-0.3278 0.6556,-0.66543 0.0115,-0.18848 -0.13604,-0.35402 -0.23274,-0.51628 -0.0623,-0.10326 -0.1262,-0.20651 -0.1934,-0.30649 -0.32779,-0.47531 -0.72771,-1.11123 -1.30955,-1.07682 z"
         opacity="0.1"
         id="path29488"
         style="stroke-width:0.163899" />
      <path
         d="m 385.34636,204.41351 q 0.44909,0.15243 0.90637,0.28191 c 0.16389,-0.28027 0.49169,-0.47531 0.56217,-0.79655 a 0.07539344,0.07539344 0 0 0 0,-0.0426 0.07867141,0.07867141 0 0 0 -0.0344,-0.0311 1.7176592,1.7176592 0 0 0 -0.71132,-0.20816 c -0.19668,-0.0115 -0.28682,0.19341 -0.37533,0.33764 -0.0344,0.0639 -0.26715,0.49005 -0.34747,0.45891 z"
         fill="#fbbebe"
         id="path29490"
         style="stroke-width:0.163899" />
      <path
         d="m 385.76595,204.21356 a 0.65559512,0.65559512 0 0 1 -0.44089,-0.2901 c -0.041,-0.0738 -0.0869,-0.17374 -0.1721,-0.1639 -0.0852,0.01 -0.11309,0.0983 -0.13111,0.17537 a 4.9169634,4.9169634 0 0 1 -0.24749,0.85063 1.5963741,1.5963741 0 0 1 -0.52939,0.69657 c -0.11146,0.077 -0.23438,0.1344 -0.34419,0.21635 a 2.3650594,2.3650594 0 0 1 -0.2901,0.21962 1.7225762,1.7225762 0 0 1 -0.22291,0.0819 1.5455655,1.5455655 0 0 0 -0.31796,0.1639 0.6310103,0.6310103 0 0 0 -0.21798,0.20815 0.29993477,0.29993477 0 0 0 -0.0164,0.2901 0.30976869,0.30976869 0 0 0 0.21143,0.14424 0.89160936,0.89160936 0 0 0 0.26387,0 c 0.34911,-0.0246 0.69821,-0.0557 1.04732,-0.0869 a 3.0222935,3.0222935 0 0 0 0.43761,-0.0606 l 0.22781,-0.0623 a 1.8127205,1.8127205 0 0 1 0.39828,-0.059 0.30976869,0.30976869 0 0 1 0.11637,0.0115 c 0.0803,0.0262 0.13767,0.10654 0.22126,0.12293 a 0.37041124,0.37041124 0 0 0 0.1639,-0.0213 3.6188851,3.6188851 0 0 1 0.77524,-0.0803 c 0.11473,0 0.24913,-0.0295 0.30157,-0.13112 0.0656,-0.12784 -0.0426,-0.27043 -0.0869,-0.40811 a 1.3111902,1.3111902 0 0 1 -0.0361,-0.26715 1.6291539,1.6291539 0 0 0 -0.19176,-0.63593 c -0.0885,-0.1639 -0.20979,-0.34419 -0.14751,-0.51792 a 0.49169634,0.49169634 0 0 0 0.059,-0.17865 c -0.0246,-0.2819 -0.67034,-0.18193 -0.83096,-0.21798 z"
         fill="#2f2e41"
         id="path29492"
         style="stroke-width:0.163899" />
      <path
         d="m 392.14816,199.29987 a 1.4947569,1.4947569 0 0 1 -0.76376,-0.75721 c -0.0311,-0.0721 -0.0574,-0.14915 -0.0885,-0.22126 a 1.6816015,1.6816015 0 0 0 -0.45564,-0.63429 0.22454133,0.22454133 0 0 0 -0.1639,-0.0705 0.17864967,0.17864967 0 0 0 -0.12292,0.13276 0.50644723,0.50644723 0 0 0 -0.0131,0.20487 3.6500258,3.6500258 0 0 0 0.082,0.47859 l 0.0934,0.42286 a 0.92766709,0.92766709 0 0 0 0.0574,0.18848 0.65559512,0.65559512 0 0 0 0.15571,0.1852 c 0.0852,0.0787 0.17209,0.15407 0.25896,0.22946 a 0.88997038,0.88997038 0 0 0 0.1639,0.11309 0.95225191,0.95225191 0 0 0 0.2901,0.0852 2.4683156,2.4683156 0 0 1 1.08828,0.41958 c 0,0 0,-0.28354 0,-0.31468 a 0.4163029,0.4163029 0 0 0 -0.0819,-0.22782 1.4537822,1.4537822 0 0 0 -0.4999,-0.23438 z"
         fill="#fbbebe"
         id="path29494"
         style="stroke-width:0.163899" />
      <path
         d="m 392.14816,199.29987 a 1.4947569,1.4947569 0 0 1 -0.76376,-0.75721 c -0.0311,-0.0721 -0.0574,-0.14915 -0.0885,-0.22126 a 1.6816015,1.6816015 0 0 0 -0.45564,-0.63429 0.22454133,0.22454133 0 0 0 -0.1639,-0.0705 0.17864967,0.17864967 0 0 0 -0.12292,0.13276 0.50644723,0.50644723 0 0 0 -0.0131,0.20487 3.6500258,3.6500258 0 0 0 0.082,0.47859 l 0.0934,0.42286 a 0.92766709,0.92766709 0 0 0 0.0574,0.18848 0.65559512,0.65559512 0 0 0 0.15571,0.1852 c 0.0852,0.0787 0.17209,0.15407 0.25896,0.22946 a 0.88997038,0.88997038 0 0 0 0.1639,0.11309 0.95225191,0.95225191 0 0 0 0.2901,0.0852 2.4683156,2.4683156 0 0 1 1.08828,0.41958 c 0,0 0,-0.28354 0,-0.31468 a 0.4163029,0.4163029 0 0 0 -0.0819,-0.22782 1.4537822,1.4537822 0 0 0 -0.4999,-0.23438 z"
         opacity="0.1"
         id="path29496"
         style="stroke-width:0.163899" />
      <ellipse
         cx="396.04568"
         cy="195.59576"
         rx="0.46547252"
         ry="0.46875051"
         fill="#2f2e41"
         id="ellipse29498"
         style="stroke-width:0.163899" />
      <path
         d="m 395.75722,195.31385 a 0.50316925,0.50316925 0 0 0 -0.36714,0.0524 0.50972521,0.50972521 0 0 0 -0.1262,0.17209 2.4994564,2.4994564 0 0 0 -0.24257,0.57037 c -0.041,0.1639 -0.0475,0.34911 -0.1,0.51792 -0.0951,0.31141 -0.33927,0.57529 -0.36713,0.89981 -0.0131,0.14587 0.0115,0.31632 -0.0951,0.41466 a 0.60314751,0.60314751 0 0 1 -0.0836,0.0606 0.62937132,0.62937132 0 0 0 -0.18357,0.18849 0.6178984,0.6178984 0 0 1 -0.12948,0.17865 c -0.0951,0.0705 -0.2524,0.0639 -0.29829,0.16389 -0.0459,0.1 0.0738,0.23602 0.0459,0.35403 -0.0279,0.118 -0.13112,0.14095 -0.20488,0.20651 a 0.71623767,0.71623767 0 0 0 -0.17701,0.3278 1.0932049,1.0932049 0 0 1 -0.89161,-0.22127 2.8387269,2.8387269 0 0 1 0.13932,1.01945 0.4163029,0.4163029 0 0 1 -0.082,0.31469 5.6774537,5.6774537 0 0 1 1.0932,0.19012 0.75393439,0.75393439 0 0 0 0.47695,0 0.79654807,0.79654807 0 0 0 0.21962,-0.17373 c 0.19668,-0.19996 0.40319,-0.41794 0.45073,-0.69493 a 4.0827186,4.0827186 0 0 0 0.008,-0.47039 2.6518823,2.6518823 0 0 1 0.11965,-0.57201 6.8067163,6.8067163 0 0 0 0.20815,-1.17679 c 0.0213,-0.24585 0.23437,-0.44253 0.34582,-0.6556 0.20979,-0.41466 0.42614,-0.84571 0.44089,-1.31119 0.007,-0.15078 -0.0459,-0.33927 -0.19995,-0.35566 z"
         fill="#2f2e41"
         id="path29500"
         style="stroke-width:0.163899" />
      <path
         d="m 395.75722,195.31385 a 0.50316925,0.50316925 0 0 0 -0.36714,0.0524 0.50972521,0.50972521 0 0 0 -0.1262,0.17209 2.4994564,2.4994564 0 0 0 -0.24257,0.57037 c -0.041,0.1639 -0.0475,0.34911 -0.1,0.51792 -0.0951,0.31141 -0.33927,0.57529 -0.36713,0.89981 -0.0131,0.14587 0.0115,0.31632 -0.0951,0.41466 a 0.60314751,0.60314751 0 0 1 -0.0836,0.0606 0.62937132,0.62937132 0 0 0 -0.18357,0.18849 0.6178984,0.6178984 0 0 1 -0.12948,0.17865 c -0.0951,0.0705 -0.2524,0.0639 -0.29829,0.16389 -0.0459,0.1 0.0738,0.23602 0.0459,0.35403 -0.0279,0.118 -0.13112,0.14095 -0.20488,0.20651 a 0.71623767,0.71623767 0 0 0 -0.17701,0.3278 1.0932049,1.0932049 0 0 1 -0.89161,-0.22127 2.8387269,2.8387269 0 0 1 0.13932,1.01945 0.4163029,0.4163029 0 0 1 -0.082,0.31469 5.6774537,5.6774537 0 0 1 1.0932,0.19012 0.75393439,0.75393439 0 0 0 0.47695,0 0.79654807,0.79654807 0 0 0 0.21962,-0.17373 c 0.19668,-0.19996 0.40319,-0.41794 0.45073,-0.69493 a 4.0827186,4.0827186 0 0 0 0.008,-0.47039 2.6518823,2.6518823 0 0 1 0.11965,-0.57201 6.8067163,6.8067163 0 0 0 0.20815,-1.17679 c 0.0213,-0.24585 0.23437,-0.44253 0.34582,-0.6556 0.20979,-0.41466 0.42614,-0.84571 0.44089,-1.31119 0.007,-0.15078 -0.0459,-0.33927 -0.19995,-0.35566 z"
         opacity="0.1"
         id="path29502"
         style="stroke-width:0.163899" />
      <path
         d="m 395.32124,202.77453 c -0.39827,-0.19013 -0.69001,-0.54251 -1.01289,-0.84572 -0.61462,-0.57857 -1.36692,-0.9834 -2.01432,-1.52918 -0.42941,-0.35894 -0.81949,-0.77688 -1.28332,-1.07845 a 3.2074991,3.2074991 0 0 0 -1.37511,-0.48023 0.36549428,0.36549428 0 0 0 -0.1639,0 0.37696719,0.37696719 0 0 0 -0.15571,0.12293 4.9530211,4.9530211 0 0 0 -0.55561,0.76213 c -0.8195,1.39314 -1.98482,2.56337 -2.95018,3.85818 a 0.24584817,0.24584817 0 0 0 -0.0475,0.0918 0.2278193,0.2278193 0 0 0 0.0361,0.14259 l 0.19667,0.38352 c 0.10982,0.21635 0.28683,0.46711 0.52284,0.4245 a 0.57200674,0.57200674 0 0 0 0.27371,-0.17537 l 0.88178,-0.84408 0.92439,-0.88341 c 0.54086,-0.51628 1.09156,-1.04568 1.44558,-1.70783 0.27535,0.47859 0.76541,0.79163 1.09976,1.22924 0.12785,0.1639 0.23274,0.34911 0.34747,0.52612 0.18193,0.2819 0.39008,0.54742 0.59659,0.81949 l 1.06043,1.35217 a 2.0290669,2.0290669 0 0 0 0.49169,0.49169 1.876641,1.876641 0 0 0 0.85064,0.22782 11.241817,11.241817 0 0 0 1.1981,0.0426 2.0651246,2.0651246 0 0 0 0.89325,-0.1639 0.80965997,0.80965997 0 0 0 0.4835,-0.71952 1.0555081,1.0555081 0 0 0 -0.15243,-0.44744 c -0.38352,-0.68346 -0.8785,-1.26038 -1.59146,-1.59965 z"
         fill="#2f2e41"
         id="path29504"
         style="stroke-width:0.163899" />
      <ellipse
         cx="396.33252"
         cy="195.92027"
         rx="0.35893834"
         ry="0.36057732"
         fill="#e8e8f0"
         id="ellipse29506"
         style="stroke-width:0.163899" />
      <path
         d="m 396.25383,195.64985 a 0.69001386,0.69001386 0 0 1 0.0393,0.51792 2.1011824,2.1011824 0 0 1 -0.23109,0.47694 2.2699981,2.2699981 0 0 1 -0.29994,0.42614 c 0.55398,0.0262 1.08993,-0.19013 1.57671,-0.45236 0.39336,-0.21143 0.78507,-0.47203 0.99486,-0.86703 a 0.45891658,0.45891658 0 0 1 -0.36713,-0.0688 1.3111902,1.3111902 0 0 1 -0.28027,-0.26059 l -0.27698,-0.31141 a 1.2472697,1.2472697 0 0 1 -0.1639,-0.22454 0.61953739,0.61953739 0 0 1 -0.0738,-0.36222 2.1093773,2.1093773 0 0 1 -0.36713,0.30485 c -0.19832,0.12948 -0.4163,0.2229 -0.61626,0.35075 -0.0688,0.0459 -0.22618,0.118 -0.18521,0.20979 0.041,0.0918 0.19504,0.16226 0.25077,0.2606 z"
         fill="#fbbebe"
         id="path29508"
         style="stroke-width:0.163899" />
      <path
         d="m 396.25383,195.64985 a 0.69001386,0.69001386 0 0 1 0.0393,0.51792 2.1011824,2.1011824 0 0 1 -0.23109,0.47694 2.2699981,2.2699981 0 0 1 -0.29994,0.42614 c 0.55398,0.0262 1.08993,-0.19013 1.57671,-0.45236 0.39336,-0.21143 0.78507,-0.47203 0.99486,-0.86703 a 0.45891658,0.45891658 0 0 1 -0.36713,-0.0688 1.3111902,1.3111902 0 0 1 -0.28027,-0.26059 l -0.27698,-0.31141 a 1.2472697,1.2472697 0 0 1 -0.1639,-0.22454 0.61953739,0.61953739 0 0 1 -0.0738,-0.36222 2.1093773,2.1093773 0 0 1 -0.36713,0.30485 c -0.19832,0.12948 -0.4163,0.2229 -0.61626,0.35075 -0.0688,0.0459 -0.22618,0.118 -0.18521,0.20979 0.041,0.0918 0.19504,0.16226 0.25077,0.2606 z"
         opacity="0.1"
         id="path29510"
         style="stroke-width:0.163899" />
      <path
         d="m 396.26038,195.70393 a 0.46711152,0.46711152 0 0 0 0,0.54087 c 0.0164,0.0197 0.0754,0.14259 0.1,0.14423 a 0.09014433,0.09014433 0 0 0 0.0623,-0.0328 4.1138594,4.1138594 0 0 0 0.35075,-0.41794 0.78015819,0.78015819 0 0 1 0.4458,-0.29174 0.96372483,0.96372483 0 0 1 0.61462,0.19176 0.58347966,0.58347966 0 0 1 0.21143,0.1639 0.57200674,0.57200674 0 0 1 0.0688,0.23437 11.292626,11.292626 0 0 1 0.0623,1.48984 5.8708543,5.8708543 0 0 1 -0.0705,1.07354 c -0.036,0.18193 -0.0885,0.36058 -0.11309,0.54578 a 3.4812101,3.4812101 0 0 0 -0.0229,0.4917 v 0.6851 a 1.8028866,1.8028866 0 0 0 0.0262,0.37532 c 0.0328,0.14915 0.10326,0.28847 0.15079,0.43434 a 2.8403659,2.8403659 0 0 1 0.1,0.513 l 0.0934,0.70804 c 0.0295,0.2229 0.0525,0.46711 -0.0836,0.6556 -0.0606,0.0803 -0.14095,0.14587 -0.20323,0.22618 -0.2311,0.30157 -0.1639,0.73262 -0.25405,1.1014 a 1.3734718,1.3734718 0 0 1 -0.44908,0.68837 0.74246147,0.74246147 0 0 1 -0.59167,0.21143 c -0.28846,-0.0541 -0.46056,-0.35402 -0.53923,-0.63756 -0.0787,-0.28355 -0.10653,-0.59168 -0.27699,-0.83097 a 2.2044386,2.2044386 0 0 0 -0.54742,-0.45728 0.94569596,0.94569596 0 0 1 -0.42778,-0.55562 c -0.018,-0.10325 0,-0.20979 -0.018,-0.31468 a 0.74246147,0.74246147 0 0 0 -0.45727,-0.60151 c -0.14751,-0.0574 -0.3278,-0.0787 -0.41303,-0.21307 a 0.99486559,0.99486559 0 0 0 0.43106,-0.57856 2.9714849,2.9714849 0 0 0 0.10489,-0.73099 l 0.0492,-0.81949 c 0.0229,-0.36878 0.0328,-0.73263 0.19504,-1.06371 0.0721,-0.14751 0.1639,-0.28682 0.23765,-0.43269 a 4.697339,4.697339 0 0 0 0.25405,-0.63429 c 0.118,-0.33763 0.23601,-0.67526 0.34091,-1.01617 a 1.9143378,1.9143378 0 0 1 0.18684,-0.47367 c 0.0885,-0.15406 0.21635,-0.33927 0.38188,-0.37205 z"
         fill="#e8e8f0"
         id="path29512"
         style="stroke-width:0.163899" />
      <path
         d="m 394.43291,201.05359 h 0.21799 l 0.0459,-0.3278 a 0.68345791,0.68345791 0 0 1 0.0459,-0.19176 1.1472915,1.1472915 0 0 1 0.1262,-0.18357 c 0.21307,-0.30321 0.19832,-0.70476 0.25077,-1.07353 a 5.4627463,5.4627463 0 0 1 0.47858,-1.40298 l 0.42286,-0.94242 a 1.3013563,1.3013563 0 0 0 0.0918,-0.24093 1.4455872,1.4455872 0 0 0 0.0262,-0.27863 c 0,-0.14587 0.0459,-0.6769 0.0508,-0.81949 0,-0.0541 -0.11965,-0.0246 -0.14423,-0.0721 -0.0525,-0.1049 -0.12457,0.17864 -0.22454,0.24093 a 0.5506999,0.5506999 0 0 0 -0.19504,0.28518 c -0.0918,0.23601 -0.14751,0.4917 -0.23274,0.72607 a 1.483284,1.483284 0 0 1 -0.395,0.64248 c -0.0869,0.0754 -0.18684,0.13604 -0.26879,0.21799 -0.26224,0.25896 -0.28846,0.67035 -0.29666,1.04076 -0.007,0.22618 -0.0492,2.37981 0,2.37981 z"
         fill="#2f2e41"
         id="path29514"
         style="stroke-width:0.163899" />
      <path
         d="m 397.56994,195.31221 a 0.74410046,0.74410046 0 0 0 -0.38844,0.53267 2.6944959,2.6944959 0 0 1 -0.19668,0.6556 c -0.26552,0.46219 -0.94242,0.59659 -1.1309,1.09648 a 2.015955,2.015955 0 0 0 -0.0754,0.51628 c -0.0328,0.35894 -0.15078,0.70477 -0.18684,1.06207 a 4.7317578,4.7317578 0 0 0 0.0197,0.83424 l 0.23765,2.82234 a 3.7696719,3.7696719 0 0 1 -0.0705,1.24235 1.1964611,1.1964611 0 0 0 0.71132,-0.118 c 0.22127,-0.10162 0.4245,-0.24094 0.63921,-0.35894 0.36713,-0.20324 0.7736,-0.34583 1.09648,-0.61626 a 0.67034601,0.67034601 0 0 0 0.14751,-0.1639 1.4177244,1.4177244 0 0 0 0.0983,-0.37041 1.9995651,1.9995651 0 0 1 0.10653,-0.29174 8.596491,8.596491 0 0 0 0.30813,-0.87194 5.0038298,5.0038298 0 0 0 0.14096,-0.5966 c 0.0262,-0.16389 0.041,-0.32779 0.0541,-0.49169 a 2.8846185,2.8846185 0 0 1 0.15079,-0.74574 6.0068903,6.0068903 0 0 0 0.34583,-1.78978 0.93586203,0.93586203 0 0 0 -0.018,-0.26223 1.4029736,1.4029736 0 0 0 -0.14423,-0.29994 c -0.0983,-0.1852 -0.1639,-0.38844 -0.24913,-0.57692 a 2.8370879,2.8370879 0 0 0 -0.96864,-1.01781 c -0.19012,-0.12948 -0.41303,-0.26716 -0.62773,-0.19013 z"
         fill="#2f2e41"
         id="path29516"
         style="stroke-width:0.163899" />
      <path
         d="m 392.61855,199.91777 a 1.7094643,1.7094643 0 0 1 -0.45072,-0.34255 c -0.059,-0.0688 -0.10817,-0.14587 -0.1639,-0.21471 a 1.1161507,1.1161507 0 0 0 -0.56709,-0.32779 2.7698894,2.7698894 0 0 0 -0.65559,-0.0639 1.1899051,1.1899051 0 0 0 -0.43761,0.0524 0.44580468,0.44580468 0 0 0 -0.2901,0.31141 0.51628116,0.51628116 0 0 0 0.22126,0.45892 1.0423962,1.0423962 0 0 0 0.44089,0.21307 3.5238238,3.5238238 0 0 0 0.39827,0.0475 c 0.78344,0.082 1.48329,0.50808 2.17002,0.89652 q 0.90472,0.51464 1.8455,0.95717 a 3.8352315,3.8352315 0 0 0 0.0311,-0.56545 c 0,-0.14095 -0.0115,-0.3573 -0.14423,-0.44089 a 2.8944525,2.8944525 0 0 0 -0.58675,-0.17537 9.2340573,9.2340573 0 0 1 -1.18171,-0.47858 c -0.21635,-0.0934 -0.4245,-0.20815 -0.62938,-0.3278 z"
         fill="#fbbebe"
         id="path29518"
         style="stroke-width:0.163899" />
      <ellipse
         cx="396.04568"
         cy="194.08461"
         rx="1.3964177"
         ry="1.4046125"
         fill="#fbbebe"
         id="ellipse29520"
         style="stroke-width:0.163899" />
      <path
         d="m 397.96821,196.90367 a 2.2388573,2.2388573 0 0 0 -0.27043,0.50645 c -0.1639,0.35402 -0.44253,0.65559 -0.57857,1.03092 -0.13603,0.37533 -0.13767,0.85719 -0.41794,1.16368 a 0.40810796,0.40810796 0 0 0 -0.12292,0.17701 0.8457177,0.8457177 0 0 1 -0.0131,0.12784 c -0.041,0.11146 -0.22291,0.11637 -0.25732,0.2311 -0.01,0.0328 0,0.0688 -0.0164,0.10162 -0.0279,0.0737 -0.12621,0.0852 -0.19013,0.12948 -0.13603,0.0918 -0.10817,0.30485 -0.20487,0.43761 a 0.36877226,0.36877226 0 0 1 -0.3491,0.12292 1.2292408,1.2292408 0 0 1 -0.36222,-0.13603 0.3491044,0.3491044 0 0 0 -0.13112,-0.041 0.27043299,0.27043299 0 0 0 -0.15079,0.0524 0.92930608,0.92930608 0 0 0 -0.37696,0.79491 2.5961567,2.5961567 0 0 0 0.21634,0.88997 0.35729934,0.35729934 0 0 0 0.0705,0.13276 0.31304667,0.31304667 0 0 0 0.34746,0.0262 1.6389878,1.6389878 0 0 1 0.33927,-0.15242 c 0.21635,-0.0393 0.42778,0.10981 0.6474,0.0967 a 0.8998043,0.8998043 0 0 0 0.43598,-0.19177 2.4093121,2.4093121 0 0 0 0.58675,-0.49169 c 0.0951,-0.1262 0.1639,-0.2688 0.24913,-0.40319 a 5.1693675,5.1693675 0 0 1 0.35238,-0.47039 l 0.80638,-0.9834 a 2.2667201,2.2667201 0 0 0 0.21635,-0.29829 2.1028213,2.1028213 0 0 0 0.1639,-0.45072 3.4533473,3.4533473 0 0 0 0.1639,-0.80147 3.0796581,3.0796581 0 0 0 -0.059,-0.67198 2.3748933,2.3748933 0 0 0 -0.16389,-0.64085 c -0.17538,-0.37041 -0.60151,-0.67198 -0.93095,-0.28846 z"
         fill="#2f2e41"
         id="path29522"
         style="stroke-width:0.163899" />
      <path
         d="m 400.77416,195.07128 a 1.5734283,1.5734283 0 0 0 -0.64576,-1.27841 1.8700851,1.8700851 0 0 0 -1.58818,-1.82091 1.8143595,1.8143595 0 0 0 -3.57464,0.0967 c -0.5802,-0.13112 -1.11123,0.0393 -1.20793,0.39663 -0.0967,0.3573 0.31305,0.8195 0.92439,0.98339 a 1.7225762,1.7225762 0 0 0 0.59331,0.059 1.8159985,1.8159985 0 0 0 1.24891,0.77852 1.8635291,1.8635291 0 0 0 1.36364,1.40625 1.5652333,1.5652333 0 0 0 0.42122,0.58184 c 0,0.0442 0,0.0901 0,0.13604 a 1.1817102,1.1817102 0 1 0 2.36342,0 1.2620206,1.2620206 0 0 0 -0.11309,-0.52284 1.5799842,1.5799842 0 0 0 0.21471,-0.81622 z"
         fill="#f86d70"
         id="path29524"
         style="stroke-width:0.163899" />
      <path
         d="m 394.15101,192.54069 c 0.0967,-0.3573 0.62773,-0.52776 1.20793,-0.39664 a 1.8455003,1.8455003 0 0 1 1.80289,-1.55376 h 0.11964 a 1.7766628,1.7766628 0 0 0 -0.51464,-0.077 1.8455003,1.8455003 0 0 0 -1.80288,1.55376 c -0.58021,-0.13112 -1.11124,0.0393 -1.20794,0.39663 -0.0967,0.3573 0.31305,0.8195 0.92439,0.9834 a 1.8028866,1.8028866 0 0 0 0.35074,0.0606 c -0.58511,-0.17537 -0.97683,-0.60151 -0.88013,-0.967 z"
         opacity="0.1"
         id="path29526"
         style="stroke-width:0.163899" />
      <path
         d="m 398.69592,196.47917 a 1.2325188,1.2325188 0 0 1 0,-0.13439 1.5308146,1.5308146 0 0 1 -0.42122,-0.58184 1.8586122,1.8586122 0 0 1 -1.36364,-1.4079 1.8110815,1.8110815 0 0 1 -1.25054,-0.77688 1.5734283,1.5734283 0 0 1 -0.34911,-0.01 1.8209154,1.8209154 0 0 0 1.20466,0.71624 1.8635291,1.8635291 0 0 0 1.36363,1.40625 1.5652333,1.5652333 0 0 0 0.42122,0.58184 c 0,0.0443 0,0.0901 0,0.13604 a 1.203017,1.203017 0 0 0 1.17516,1.22268 1.2226849,1.2226849 0 0 1 -0.78016,-1.15221 z"
         opacity="0.1"
         id="path29528"
         style="stroke-width:0.163899" />
      <ellipse
         cx="198.17937"
         cy="394.62332"
         rx="0.21470739"
         ry="0.28682286"
         transform="rotate(-37.22)"
         fill="#fbbebe"
         id="ellipse29530"
         style="stroke-width:0.163899" />
    </g>
  </g>
</svg>
