<?xml version="1.0" encoding="UTF-8" standalone="no"?>
<svg
   xmlns:dc="http://purl.org/dc/elements/1.1/"
   xmlns:cc="http://creativecommons.org/ns#"
   xmlns:rdf="http://www.w3.org/1999/02/22-rdf-syntax-ns#"
   xmlns:svg="http://www.w3.org/2000/svg"
   xmlns="http://www.w3.org/2000/svg"
   xmlns:sodipodi="http://sodipodi.sourceforge.net/DTD/sodipodi-0.dtd"
   xmlns:inkscape="http://www.inkscape.org/namespaces/inkscape"
   width="103"
   height="69"
   viewBox="0 0 27.252083 18.256251"
   version="1.1"
   id="svg16816"
   inkscape:version="1.0.2 (e86c870879, 2021-01-15, custom)"
   sodipodi:docname="cup.svg">
  <defs
     id="defs16810" />
  <sodipodi:namedview
     id="base"
     pagecolor="#ffffff"
     bordercolor="#666666"
     borderopacity="1.0"
     inkscape:pageopacity="0.0"
     inkscape:pageshadow="2"
     inkscape:zoom="3.959798"
     inkscape:cx="42.747606"
     inkscape:cy="18.479055"
     inkscape:document-units="px"
     inkscape:current-layer="layer1"
     inkscape:document-rotation="0"
     showgrid="false"
     units="px"
     inkscape:window-width="1267"
     inkscape:window-height="728"
     inkscape:window-x="83"
     inkscape:window-y="0"
     inkscape:window-maximized="0" />
  <metadata
     id="metadata16813">
    <rdf:RDF>
      <cc:Work
         rdf:about="">
        <dc:format>image/svg+xml</dc:format>
        <dc:type
           rdf:resource="http://purl.org/dc/dcmitype/StillImage" />
        <dc:title></dc:title>
      </cc:Work>
    </rdf:RDF>
  </metadata>
  <g
     inkscape:label="Layer 1"
     inkscape:groupmode="layer"
     id="layer1">
    <g
       id="g69220"
       transform="matrix(0.16008284,0,0,0.16008284,-46.954687,-74.383595)">
      <path
         style="fill:#3e3f41;fill-opacity:1;stroke:#3e3f41;stroke-width:0.394093px;stroke-linecap:butt;stroke-linejoin:miter;stroke-opacity:1"
         d="m 349.75839,527.47738 c -20.55183,4.1204 -37.89625,9.5609 -41.17582,20.79011 -2.1317,14.68575 35.8878,22.23506 70.16856,24.66747 39.76187,1.59233 64.64601,-3.08548 84.90938,-9.71077 -16.95256,9.20809 -44.55552,14.35726 -85.15128,14.55488 -51.34627,-0.61147 -91.85341,-7.89681 -83.76922,-28.23101 5.51058,-9.71988 21.12802,-17.57817 55.01838,-22.07068 z"
         id="path68585"
         sodipodi:nodetypes="ccccccc" />
      <path
         style="fill:#3e3f41;fill-opacity:1;stroke:#ffffff;stroke-width:1.81045;stroke-linecap:butt;stroke-linejoin:miter;stroke-opacity:1"
         d="m 320.19154,479.63072 c 6.68316,45.53338 19.55834,80.24184 59.40034,82.03376 38.7329,0.61145 57.48115,-30.5989 64.2977,-79.34042 l 0.13312,-2.12995"
         id="path68587"
         sodipodi:nodetypes="cccc" />
      <path
         style="fill:none;stroke:#3e3f41;stroke-width:2.71568;stroke-linecap:butt;stroke-linejoin:miter;stroke-opacity:1"
         d="m 440.27993,495.13854 c 2.75411,-5.20196 8.94823,-10.03934 14.02953,-6.02582 4.69247,3.31095 5.81729,9.87044 5.82668,14.12184 -0.11958,13.2668 -10.09398,22.85444 -10.63136,23.72034 -7.29039,7.31001 -11.42789,7.11832 -14.87272,4.33002 -3.12679,-2.38465 -2.77042,-4.76931 -2.82393,-7.15396 z"
         id="path68589"
         sodipodi:nodetypes="ccccccc" />
      <path
         style="fill:#3e3f41;fill-opacity:1;stroke:#3e3f41;stroke-width:0.446877px;stroke-linecap:butt;stroke-linejoin:miter;stroke-opacity:1"
         d="m 345.86064,546.42038 0.37279,-0.18536 v 0 c -13.05314,-13.76236 -22.2943,-35.6897 -25.78063,-63.20755 l 3.17475,2.94792 -0.79385,10.52606 -2.3809,-13.47398"
         id="path68591"
         sodipodi:nodetypes="cccc" />
      <ellipse
         style="fill:#ffffff;fill-opacity:1;stroke:none;stroke-width:1.89359;stroke-linejoin:round"
         id="ellipse68593"
         cx="382.15228"
         cy="480.20471"
         rx="62.503071"
         ry="15.437506" />
      <ellipse
         style="fill:#ebe8d9;fill-opacity:1;stroke:none;stroke-width:1.66308;stroke-linejoin:round"
         id="ellipse68595"
         cx="380.46402"
         cy="480.21384"
         rx="60.243923"
         ry="12.354145" />
      <ellipse
         style="fill:#9f703a;fill-opacity:1;stroke:none;stroke-width:1.09524;stroke-linejoin:round"
         id="ellipse68597"
         cx="376.15552"
         cy="489.87723"
         rx="48.571663"
         ry="6.6457043"
         transform="rotate(-0.62862322)" />
      <g
         id="g68609"
         style="fill:#9f703a;fill-opacity:1"
         transform="matrix(0.00846521,0.02840794,-0.02840794,0.00846521,394.44608,522.90396)">
        <g
           id="g68607"
           style="fill:#9f703a;fill-opacity:1">
          <path
             d="M 510.606,278.946 C 503.63,211.522 470.958,145.538 418.606,93.186 309.582,-15.773 147.918,-31.485 58.254,58.274 c -89.728,89.728 -74.048,251.328 34.944,360.32 52.352,52.352 118.336,85.024 185.76,92 8.992,0.928 17.856,1.408 26.592,1.408 57.984,0 109.824,-20.32 148,-58.496 43.904,-43.872 64.192,-105.888 57.056,-174.56 z M 351.054,334.274 C 315.342,307.01 276.622,296.226 234.574,284.706 128.718,255.682 76.142,167.362 63.854,63.843 c 29.824,35.968 51.84,77.056 88.448,107.168 39.008,32.064 81.952,43.744 129.12,57.408 103.552,30.048 154.784,117.6 166.56,219.52 -32.32,-38.848 -56.032,-82.433 -96.928,-113.665 z"
             id="path68605"
             style="fill:#9f703a;fill-opacity:1" />
        </g>
      </g>
      <g
         id="g68647"
         style="fill:#9f703a;fill-opacity:1"
         transform="matrix(0.04139818,0,0,0.04139818,363.93009,510.26127)">
        <g
           id="g68645"
           style="fill:#9f703a;fill-opacity:1">
          <path
             d="M 510.606,278.946 C 503.63,211.522 470.958,145.538 418.606,93.186 309.582,-15.773 147.918,-31.485 58.254,58.274 c -89.728,89.728 -74.048,251.328 34.944,360.32 52.352,52.352 118.336,85.024 185.76,92 8.992,0.928 17.856,1.408 26.592,1.408 57.984,0 109.824,-20.32 148,-58.496 43.904,-43.872 64.192,-105.888 57.056,-174.56 z M 351.054,334.274 C 315.342,307.01 276.622,296.226 234.574,284.706 128.718,255.682 76.142,167.362 63.854,63.843 c 29.824,35.968 51.84,77.056 88.448,107.168 39.008,32.064 81.952,43.744 129.12,57.408 103.552,30.048 154.784,117.6 166.56,219.52 -32.32,-38.848 -56.032,-82.433 -96.928,-113.665 z"
             id="path68643"
             style="fill:#9f703a;fill-opacity:1" />
        </g>
      </g>
      <g
         id="g68685"
         style="fill:#9f703a;fill-opacity:1"
         transform="matrix(0.02070287,0.00700709,-0.00700709,0.02070287,372.19802,531.36982)">
        <g
           id="g68683"
           style="fill:#9f703a;fill-opacity:1">
          <path
             d="M 510.606,278.946 C 503.63,211.522 470.958,145.538 418.606,93.186 309.582,-15.773 147.918,-31.485 58.254,58.274 c -89.728,89.728 -74.048,251.328 34.944,360.32 52.352,52.352 118.336,85.024 185.76,92 8.992,0.928 17.856,1.408 26.592,1.408 57.984,0 109.824,-20.32 148,-58.496 43.904,-43.872 64.192,-105.888 57.056,-174.56 z M 351.054,334.274 C 315.342,307.01 276.622,296.226 234.574,284.706 128.718,255.682 76.142,167.362 63.854,63.843 c 29.824,35.968 51.84,77.056 88.448,107.168 39.008,32.064 81.952,43.744 129.12,57.408 103.552,30.048 154.784,117.6 166.56,219.52 -32.32,-38.848 -56.032,-82.433 -96.928,-113.665 z"
             id="path68681"
             style="fill:#9f703a;fill-opacity:1" />
        </g>
      </g>
      <g
         id="g68723"
         style="fill:#9f703a;fill-opacity:1"
         transform="matrix(0.00846521,0.02840794,-0.02840794,0.00846521,394.44608,522.90396)">
        <g
           id="g68721"
           style="fill:#9f703a;fill-opacity:1">
          <path
             d="M 510.606,278.946 C 503.63,211.522 470.958,145.538 418.606,93.186 309.582,-15.773 147.918,-31.485 58.254,58.274 c -89.728,89.728 -74.048,251.328 34.944,360.32 52.352,52.352 118.336,85.024 185.76,92 8.992,0.928 17.856,1.408 26.592,1.408 57.984,0 109.824,-20.32 148,-58.496 43.904,-43.872 64.192,-105.888 57.056,-174.56 z M 351.054,334.274 C 315.342,307.01 276.622,296.226 234.574,284.706 128.718,255.682 76.142,167.362 63.854,63.843 c 29.824,35.968 51.84,77.056 88.448,107.168 39.008,32.064 81.952,43.744 129.12,57.408 103.552,30.048 154.784,117.6 166.56,219.52 -32.32,-38.848 -56.032,-82.433 -96.928,-113.665 z"
             id="path68719"
             style="fill:#9f703a;fill-opacity:1" />
        </g>
      </g>
      <g
         id="g68761"
         style="fill:#9f703a;fill-opacity:1"
         transform="matrix(0.04139818,0,0,0.04139818,363.93009,510.26127)">
        <g
           id="g68759"
           style="fill:#9f703a;fill-opacity:1">
          <path
             d="M 510.606,278.946 C 503.63,211.522 470.958,145.538 418.606,93.186 309.582,-15.773 147.918,-31.485 58.254,58.274 c -89.728,89.728 -74.048,251.328 34.944,360.32 52.352,52.352 118.336,85.024 185.76,92 8.992,0.928 17.856,1.408 26.592,1.408 57.984,0 109.824,-20.32 148,-58.496 43.904,-43.872 64.192,-105.888 57.056,-174.56 z M 351.054,334.274 C 315.342,307.01 276.622,296.226 234.574,284.706 128.718,255.682 76.142,167.362 63.854,63.843 c 29.824,35.968 51.84,77.056 88.448,107.168 39.008,32.064 81.952,43.744 129.12,57.408 103.552,30.048 154.784,117.6 166.56,219.52 -32.32,-38.848 -56.032,-82.433 -96.928,-113.665 z"
             id="path68757"
             style="fill:#9f703a;fill-opacity:1" />
        </g>
      </g>
      <g
         id="g68799"
         style="fill:#9f703a;fill-opacity:1"
         transform="matrix(0.02070287,0.00700709,-0.00700709,0.02070287,372.19802,531.36982)">
        <g
           id="g68797"
           style="fill:#9f703a;fill-opacity:1">
          <path
             d="M 510.606,278.946 C 503.63,211.522 470.958,145.538 418.606,93.186 309.582,-15.773 147.918,-31.485 58.254,58.274 c -89.728,89.728 -74.048,251.328 34.944,360.32 52.352,52.352 118.336,85.024 185.76,92 8.992,0.928 17.856,1.408 26.592,1.408 57.984,0 109.824,-20.32 148,-58.496 43.904,-43.872 64.192,-105.888 57.056,-174.56 z M 351.054,334.274 C 315.342,307.01 276.622,296.226 234.574,284.706 128.718,255.682 76.142,167.362 63.854,63.843 c 29.824,35.968 51.84,77.056 88.448,107.168 39.008,32.064 81.952,43.744 129.12,57.408 103.552,30.048 154.784,117.6 166.56,219.52 -32.32,-38.848 -56.032,-82.433 -96.928,-113.665 z"
             id="path68795"
             style="fill:#9f703a;fill-opacity:1" />
        </g>
      </g>
    </g>
  </g>
</svg>
