<?xml version="1.0" encoding="UTF-8" standalone="no"?>
<svg
   xmlns:dc="http://purl.org/dc/elements/1.1/"
   xmlns:cc="http://creativecommons.org/ns#"
   xmlns:rdf="http://www.w3.org/1999/02/22-rdf-syntax-ns#"
   xmlns:svg="http://www.w3.org/2000/svg"
   xmlns="http://www.w3.org/2000/svg"
   xmlns:sodipodi="http://sodipodi.sourceforge.net/DTD/sodipodi-0.dtd"
   xmlns:inkscape="http://www.inkscape.org/namespaces/inkscape"
   width="45.200001"
   height="26.5"
   viewBox="0 0 11.959167 7.0114585"
   version="1.1"
   id="svg8"
   inkscape:version="1.0.2 (e86c870879, 2021-01-15, custom)"
   sodipodi:docname="kettle_opened.svg">
  <defs
     id="defs2" />
  <sodipodi:namedview
     id="base"
     pagecolor="#ffffff"
     bordercolor="#666666"
     borderopacity="1.0"
     inkscape:pageopacity="0.0"
     inkscape:pageshadow="2"
     inkscape:zoom="7.9195959"
     inkscape:cx="20.390222"
     inkscape:cy="9.6415817"
     inkscape:document-units="px"
     inkscape:current-layer="layer1"
     inkscape:document-rotation="0"
     showgrid="false"
     units="px"
     inkscape:window-width="1024"
     inkscape:window-height="728"
     inkscape:window-x="11"
     inkscape:window-y="89"
     inkscape:window-maximized="0" />
  <metadata
     id="metadata5">
    <rdf:RDF>
      <cc:Work
         rdf:about="">
        <dc:format>image/svg+xml</dc:format>
        <dc:type
           rdf:resource="http://purl.org/dc/dcmitype/StillImage" />
        <dc:title></dc:title>
      </cc:Work>
    </rdf:RDF>
  </metadata>
  <g
     inkscape:label="Layer 1"
     inkscape:groupmode="layer"
     id="layer1">
    <g
       id="g23514"
       transform="rotate(-30,-226.91036,-800.25401)">
      <g
         id="g23469">
        <path
           id="path22774"
           style="fill:#fef8ec;fill-opacity:1;stroke:#fef8ec;stroke-width:0.120941;stroke-linejoin:round;stroke-miterlimit:3.83596;stroke-dasharray:0.00357175, 0.0071435;stroke-opacity:1"
           d="m -423.67702,10.755894 -3.8377,-0.06618 a 3.2373175,3.2373175 0 0 0 -1.36292,2.584025 3.2373175,3.2373175 0 0 0 3.181,3.292639 3.2373175,3.2373175 0 0 0 3.29269,-3.181007 3.2373175,3.2373175 0 0 0 -1.27307,-2.62948 z" />
        <path
           style="fill:#fef8ec;fill-opacity:1;stroke:#fef8ec;stroke-width:0.025754px;stroke-linecap:butt;stroke-linejoin:miter;stroke-opacity:1"
           d="m -427.18333,10.406389 3.25604,0.05615 c 0.49576,0.0085 -1.06861,-0.6359769 -1.60035,-0.6725823 -0.47951,-0.03301 -2.38876,0.6037943 -1.65569,0.6164353 z"
           id="path22776"
           sodipodi:nodetypes="ssss" />
        <ellipse
           style="fill:#fef8ec;fill-opacity:1;stroke:none;stroke-width:0.0867089;stroke-linejoin:round;stroke-miterlimit:3.83596;stroke-dasharray:0.00256078, 0.00512155"
           id="ellipse22778"
           cx="-425.34772"
           cy="17.098965"
           rx="0.50575233"
           ry="0.3626149"
           transform="rotate(0.9879004)" />
        <ellipse
           style="fill:#fef8ec;fill-opacity:1;stroke:none;stroke-width:0.0422135;stroke-linejoin:round;stroke-miterlimit:3.83596;stroke-dasharray:0.0012467, 0.00249339"
           id="ellipse22780"
           cx="-425.34772"
           cy="16.731579"
           rx="0.24622153"
           ry="0.1765362"
           transform="rotate(0.9879004)" />
        <path
           style="fill:#fef8ec;fill-opacity:1;stroke:#fef8ec;stroke-width:0.0245974px;stroke-linecap:butt;stroke-linejoin:miter;stroke-opacity:1"
           d="m -427.92238,15.295887 c -0.52862,-0.390666 -1.42302,-0.415003 -1.70809,-2.489567 -0.0915,-0.322998 0.0138,-0.831577 -0.67221,-1.299533 0.19579,-0.140927 0.27132,-0.229626 0.72759,-0.233464 0.15393,0.227529 0.31498,0.315684 0.3605,0.717111 0.18062,1.608496 0.66482,1.744498 1.29221,3.305453 z"
           id="path22784"
           sodipodi:nodetypes="cccccc" />
        <path
           style="fill:#fef8ec;fill-opacity:1;stroke:#fef8ec;stroke-width:0.0218267px;stroke-linecap:butt;stroke-linejoin:miter;stroke-opacity:1"
           d="m -422.44989,12.558743 c 0.81813,0.187234 1.02421,1.565532 -0.0493,1.869371 l -0.46996,0.805272 c 1.92274,-0.200596 2.71993,-2.742955 0.25432,-3.30782 z"
           id="path22786"
           sodipodi:nodetypes="ccccc" />
        <g
           id="g22792"
           style="fill:#9f703a;fill-opacity:1"
           transform="matrix(0.00145696,0.00232728,-0.00232728,0.00145696,-424.59823,12.657594)">
          <path
             d="M 510.606,278.946 C 503.63,211.522 470.958,145.538 418.606,93.186 309.582,-15.773 147.918,-31.485 58.254,58.274 c -89.728,89.728 -74.048,251.328 34.944,360.32 52.352,52.352 118.336,85.024 185.76,92 8.992,0.928 17.856,1.408 26.592,1.408 57.984,0 109.824,-20.32 148,-58.496 43.904,-43.872 64.192,-105.888 57.056,-174.56 z M 351.054,334.274 C 315.342,307.01 276.622,296.226 234.574,284.706 128.718,255.682 76.142,167.362 63.854,63.843 c 29.824,35.968 51.84,77.056 88.448,107.168 39.008,32.064 81.952,43.744 129.12,57.408 103.552,30.048 154.784,117.6 166.56,219.52 -32.32,-38.848 -56.032,-82.433 -96.928,-113.665 z"
             id="path22790"
             style="fill:#9f703a;fill-opacity:1" />
        </g>
        <g
           id="g22830"
           style="fill:#9f703a;fill-opacity:1"
           transform="matrix(0.00369596,-0.00102183,0.00102183,0.00369596,-427.63471,12.282099)">
          <path
             d="M 510.606,278.946 C 503.63,211.522 470.958,145.538 418.606,93.186 309.582,-15.773 147.918,-31.485 58.254,58.274 c -89.728,89.728 -74.048,251.328 34.944,360.32 52.352,52.352 118.336,85.024 185.76,92 8.992,0.928 17.856,1.408 26.592,1.408 57.984,0 109.824,-20.32 148,-58.496 43.904,-43.872 64.192,-105.888 57.056,-174.56 z M 351.054,334.274 C 315.342,307.01 276.622,296.226 234.574,284.706 128.718,255.682 76.142,167.362 63.854,63.843 c 29.824,35.968 51.84,77.056 88.448,107.168 39.008,32.064 81.952,43.744 129.12,57.408 103.552,30.048 154.784,117.6 166.56,219.52 -32.32,-38.848 -56.032,-82.433 -96.928,-113.665 z"
             id="path22828"
             style="fill:#9f703a;fill-opacity:1" />
        </g>
        <g
           id="g22868"
           style="fill:#9f703a;fill-opacity:1"
           transform="matrix(0.00202128,1.1457217e-4,-1.1457217e-4,0.00202128,-426.37554,13.962562)">
          <path
             d="M 510.606,278.946 C 503.63,211.522 470.958,145.538 418.606,93.186 309.582,-15.773 147.918,-31.485 58.254,58.274 c -89.728,89.728 -74.048,251.328 34.944,360.32 52.352,52.352 118.336,85.024 185.76,92 8.992,0.928 17.856,1.408 26.592,1.408 57.984,0 109.824,-20.32 148,-58.496 43.904,-43.872 64.192,-105.888 57.056,-174.56 z M 351.054,334.274 C 315.342,307.01 276.622,296.226 234.574,284.706 128.718,255.682 76.142,167.362 63.854,63.843 c 29.824,35.968 51.84,77.056 88.448,107.168 39.008,32.064 81.952,43.744 129.12,57.408 103.552,30.048 154.784,117.6 166.56,219.52 -32.32,-38.848 -56.032,-82.433 -96.928,-113.665 z"
             id="path22866"
             style="fill:#9f703a;fill-opacity:1" />
        </g>
        <path
           style="fill:#161719;fill-opacity:1;stroke:#161719;stroke-width:0.0330381;stroke-linecap:butt;stroke-linejoin:miter;stroke-opacity:1"
           d="m -429.63799,11.362512 c 0.12955,0.126982 -0.34093,0.17141 -0.54806,0.149458 -0.0444,-0.07074 0.52894,-0.214412 0.54806,-0.149458 z"
           id="path22908"
           sodipodi:nodetypes="ccc" />
      </g>
      <path
         style="fill:#9f703a;fill-opacity:1;stroke:#9f703a;stroke-width:0.0356076;stroke-linecap:butt;stroke-linejoin:miter;stroke-opacity:1"
         d="m -430.09015,11.360234 c 0.33347,0.194859 -0.007,0.185495 -0.10565,0.155167 -1.65479,-0.707805 -2.42521,0.738068 -2.93955,0.112471 l -0.10621,-0.129115 c -0.66468,-0.808443 1.74953,-0.699087 3.14196,-0.143433 z"
         id="path22910"
         sodipodi:nodetypes="ccsscc" />
    </g>
  </g>
</svg>
