<?xml version="1.0" encoding="UTF-8" standalone="no"?>
<svg
   xmlns:dc="http://purl.org/dc/elements/1.1/"
   xmlns:cc="http://creativecommons.org/ns#"
   xmlns:rdf="http://www.w3.org/1999/02/22-rdf-syntax-ns#"
   xmlns:svg="http://www.w3.org/2000/svg"
   xmlns="http://www.w3.org/2000/svg"
   xmlns:sodipodi="http://sodipodi.sourceforge.net/DTD/sodipodi-0.dtd"
   xmlns:inkscape="http://www.inkscape.org/namespaces/inkscape"
   width="450"
   height="262"
   viewBox="0 0 119.0625 69.320835"
   version="1.1"
   id="svg16903"
   inkscape:version="1.0.2 (e86c870879, 2021-01-15, custom)"
   sodipodi:docname="laptop.svg">
  <defs
     id="defs16897" />
  <sodipodi:namedview
     id="base"
     pagecolor="#ffffff"
     bordercolor="#666666"
     borderopacity="1.0"
     inkscape:pageopacity="0.0"
     inkscape:pageshadow="2"
     inkscape:zoom="0.7"
     inkscape:cx="294.68711"
     inkscape:cy="107.00362"
     inkscape:document-units="px"
     inkscape:current-layer="layer1"
     inkscape:document-rotation="0"
     showgrid="false"
     units="px"
     inkscape:window-width="1267"
     inkscape:window-height="728"
     inkscape:window-x="52"
     inkscape:window-y="0"
     inkscape:window-maximized="0" />
  <metadata
     id="metadata16900">
    <rdf:RDF>
      <cc:Work
         rdf:about="">
        <dc:format>image/svg+xml</dc:format>
        <dc:type
           rdf:resource="http://purl.org/dc/dcmitype/StillImage" />
        <dc:title></dc:title>
      </cc:Work>
    </rdf:RDF>
  </metadata>
  <g
     inkscape:label="Layer 1"
     inkscape:groupmode="layer"
     id="layer1">
    <path
       d="M 110.07317,0.19442841 H 7.1995004 A 2.8315139,2.8315139 0 0 0 4.3679841,3.0259447 V 60.345238 a 2.8315219,2.8315219 0 0 0 2.8315163,2.831527 H 110.07317 a 2.8315252,2.8315252 0 0 0 2.83152,-2.831527 V 3.0259447 a 2.8315187,2.8315187 0 0 0 -2.83152,-2.83151629 z"
       fill="#3f3d56"
       id="path16825"
       style="fill:#2f2e41;fill-opacity:1;stroke-width:0.160894" />
    <circle
       cx="58.550064"
       cy="2.6101937"
       r="1.0353242"
       fill="#ffffff"
       id="circle16829"
       style="stroke-width:0.160894" />
    <rect
       x="8.1641932"
       y="5.1985979"
       width="100.9443"
       height="56.942848"
       fill="#e6e6e6"
       id="rect16849"
       style="stroke-width:0.154935" />
    <path
       d="m 115.73897,61.106112 h -9.85152 v -0.709796 a 0.14072867,0.14072867 0 0 0 -0.14072,-0.140741 h -3.37768 a 0.14073188,0.14073188 0 0 0 -0.14075,0.140741 v 0.709796 h -2.11102 v -0.709796 a 0.14073188,0.14073188 0 0 0 -0.140726,-0.140741 h -3.377658 a 0.14073027,0.14073027 0 0 0 -0.140731,0.140741 v 0 0.709796 h -2.111037 v -0.709796 a 0.14073027,0.14073027 0 0 0 -0.140731,-0.140741 h -3.37768 a 0.14073188,0.14073188 0 0 0 -0.140731,0.140741 v 0 0.709796 h -2.111027 v -0.709796 a 0.14073188,0.14073188 0 0 0 -0.140741,-0.140741 h -3.377659 a 0.14072867,0.14072867 0 0 0 -0.14073,0.140741 v 0.709796 H 82.806802 V 60.396316 A 0.14073188,0.14073188 0 0 0 82.66606,60.255575 h -3.377658 a 0.14073027,0.14073027 0 0 0 -0.140731,0.140741 v 0 0.709796 h -2.111048 v -0.709796 a 0.14073027,0.14073027 0 0 0 -0.140731,-0.140741 h -3.377669 a 0.14073188,0.14073188 0 0 0 -0.140731,0.140741 v 0 0.709796 H 71.266455 V 60.396316 A 0.14073188,0.14073188 0 0 0 71.125724,60.255575 H 44.667382 a 0.14073027,0.14073027 0 0 0 -0.140731,0.140741 v 0 0.709796 h -2.111038 v -0.709796 a 0.14073027,0.14073027 0 0 0 -0.140742,-0.140741 h -3.377647 a 0.14073188,0.14073188 0 0 0 -0.140741,0.140741 v 0 0.709796 h -2.111038 v -0.709796 a 0.14072867,0.14072867 0 0 0 -0.14072,-0.140741 h -3.37768 a 0.14073027,0.14073027 0 0 0 -0.140731,0.140741 v 0 0.709796 h -2.111048 v -0.709796 a 0.14073027,0.14073027 0 0 0 -0.140731,-0.140741 h -3.377658 a 0.14073188,0.14073188 0 0 0 -0.140742,0.140741 v 0 0.709796 h -2.111027 v -0.709796 a 0.14073027,0.14073027 0 0 0 -0.14073,-0.140741 h -3.37767 a 0.14073188,0.14073188 0 0 0 -0.14073,0.140741 v 0 0.709796 H 19.33494 v -0.709796 a 0.14073188,0.14073188 0 0 0 -0.140742,-0.140741 h -3.377669 a 0.14073188,0.14073188 0 0 0 -0.14073,0.140741 v 0.709796 H 13.564772 V 60.396316 A 0.14073027,0.14073027 0 0 0 13.42403,60.255575 h -3.377658 a 0.14073509,0.14073509 0 0 0 -0.1407308,0.140741 v 0 0.709796 H 3.4317754 a 3.3776618,3.3776618 0 0 0 -3.37764714,3.377669 v 1.527298 A 3.37766,3.37766 0 0 0 3.4317754,69.388726 H 115.73897 a 3.3776633,3.3776633 0 0 0 3.37765,-3.377647 v -1.527298 a 3.3776585,3.3776585 0 0 0 -3.37765,-3.377669 z"
       fill="#3f3d56"
       id="path16851"
       style="fill:#2f2e41;fill-opacity:1;stroke-width:0.160894" />
    <rect
       x="10.725886"
       y="12.526636"
       width="95.820869"
       height="45.360912"
       fill="#ffffff"
       id="rect16853"
       style="stroke-width:0.15366" />
    <rect
       x="8.1641598"
       width="100.94431"
       height="3.8924057"
       fill="#d69e5d"
       id="rect16855"
       y="5.1985979"
       style="stroke-width:0.157279" />
    <circle
       cx="10.961595"
       cy="7.1708879"
       r="0.72815263"
       fill="#ffffff"
       id="circle16857"
       style="stroke-width:0.151236" />
    <circle
       cx="13.725458"
       cy="7.1708879"
       r="0.72815263"
       fill="#ffffff"
       id="circle16859"
       style="stroke-width:0.151236" />
    <circle
       cx="16.489355"
       cy="7.1708879"
       r="0.72815263"
       fill="#ffffff"
       id="circle16861"
       style="stroke-width:0.151236" />
    <path
       d="m 77.559765,15.583763 h -28.38515 a 0.25194045,0.25194045 0 0 1 0,-0.499561 h 28.38515 a 0.25194045,0.25194045 0 0 1 0,0.499561 z"
       fill="#cccccc"
       id="path16863"
       style="stroke-width:0.151237" />
    <path
       d="M 57.891661,18.331341 H 39.844302 a 0.25194045,0.25194045 0 0 1 0,-0.499561 h 18.047359 a 0.25194045,0.25194045 0 0 1 0,0.499561 z"
       fill="#cccccc"
       id="path16865"
       style="stroke-width:0.151237" />
    <path
       d="M 77.559765,18.3813 H 59.512417 a 0.25194045,0.25194045 0 0 1 0,-0.49956 h 18.047359 a 0.25194045,0.25194045 0 0 1 0,0.49956 z"
       fill="#cccccc"
       id="path16867"
       style="stroke-width:0.151237" />
    <path
       d="M 57.935456,21.07893 H 39.888109 a 0.25194045,0.25194045 0 0 1 0,-0.499561 h 18.047347 a 0.25194045,0.25194045 0 0 1 0,0.499561 z"
       fill="#cccccc"
       id="path16869"
       style="stroke-width:0.151237" />
    <path
       d="M 57.979263,23.826519 H 39.931915 a 0.25194045,0.25194045 0 0 1 0,-0.499572 h 18.047348 a 0.25194045,0.25194045 0 0 1 0,0.499572 z"
       fill="#cccccc"
       id="path16871"
       style="stroke-width:0.151237" />
    <path
       d="m 66.170655,21.07893 h -5.168901 a 0.25194045,0.25194045 0 0 1 0,-0.499561 h 5.168901 a 0.25194045,0.25194045 0 0 1 0,0.499561 z"
       fill="#cccccc"
       id="path16873"
       style="stroke-width:0.151237" />
    <path
       d="m 66.170655,23.776549 h -5.168901 a 0.25194045,0.25194045 0 0 1 0,-0.49955 h 5.168901 a 0.25194045,0.25194045 0 0 1 0,0.49955 z"
       fill="#cccccc"
       id="path16875"
       style="stroke-width:0.151237" />
    <path
       d="m 74.843906,23.776549 h -5.168901 a 0.25194045,0.25194045 0 0 1 0,-0.49955 h 5.168901 a 0.25194045,0.25194045 0 0 1 0,0.49955 z"
       fill="#cccccc"
       id="path16877"
       style="stroke-width:0.151237" />
    <path
       d="m 44.881795,15.583763 h -5.168912 a 0.25194045,0.25194045 0 0 1 0,-0.499561 h 5.168912 a 0.25194045,0.25194045 0 0 1 0,0.499561 z"
       fill="#cccccc"
       id="path16879"
       style="stroke-width:0.151237" />
    <polygon
       points="501.622,208.985 547.965,254.748 558.392,244.321 523.345,209.274 558.681,173.938 547.965,163.221 "
       fill="#d69e5d"
       id="polygon16885"
       transform="matrix(0.15123656,0,0,0.15123656,-29.404846,3.5797203)" />
    <polygon
       points="662.662,208.985 616.32,254.748 605.893,244.321 640.939,209.274 605.603,173.938 616.32,163.221 "
       fill="#e6e6e6"
       id="polygon16883"
       transform="matrix(0.15123656,0,0,0.15123656,-29.404846,3.5797203)"
       style="fill:#d69e5d;fill-opacity:1" />
  </g>
</svg>
