<?xml version="1.0" encoding="UTF-8" standalone="no"?>
<svg
   xmlns:dc="http://purl.org/dc/elements/1.1/"
   xmlns:cc="http://creativecommons.org/ns#"
   xmlns:rdf="http://www.w3.org/1999/02/22-rdf-syntax-ns#"
   xmlns:svg="http://www.w3.org/2000/svg"
   xmlns="http://www.w3.org/2000/svg"
   xmlns:sodipodi="http://sodipodi.sourceforge.net/DTD/sodipodi-0.dtd"
   xmlns:inkscape="http://www.inkscape.org/namespaces/inkscape"
   width="68"
   height="47"
   viewBox="0 0 17.991666 12.435417"
   version="1.1"
   id="svg27987"
   inkscape:version="1.0.2 (e86c870879, 2021-01-15, custom)"
   sodipodi:docname="mail.svg">
  <defs
     id="defs27981" />
  <sodipodi:namedview
     id="base"
     pagecolor="#ffffff"
     bordercolor="#666666"
     borderopacity="1.0"
     inkscape:pageopacity="0.0"
     inkscape:pageshadow="2"
     inkscape:zoom="3.959798"
     inkscape:cx="29.716013"
     inkscape:cy="32.267304"
     inkscape:document-units="px"
     inkscape:current-layer="layer1"
     inkscape:document-rotation="0"
     showgrid="false"
     units="px"
     inkscape:window-width="1267"
     inkscape:window-height="728"
     inkscape:window-x="83"
     inkscape:window-y="0"
     inkscape:window-maximized="0" />
  <metadata
     id="metadata27984">
    <rdf:RDF>
      <cc:Work
         rdf:about="">
        <dc:format>image/svg+xml</dc:format>
        <dc:type
           rdf:resource="http://purl.org/dc/dcmitype/StillImage" />
        <dc:title></dc:title>
      </cc:Work>
    </rdf:RDF>
  </metadata>
  <g
     inkscape:label="Layer 1"
     inkscape:groupmode="layer"
     id="layer1">
    <g
       id="g19194"
       transform="matrix(0.94876437,0,0,0.94876437,-289.51342,-205.63265)"
       style="fill:#2f2e41;fill-opacity:1">
      <path
         d="m 323.99333,218.40237 -4.90549,4.99072 a 0.08850534,0.08850534 0 0 0 0,0.12784 l 3.44188,3.65986 a 0.59331358,0.59331358 0 0 1 -0.41794,1.01125 0.59659156,0.59659156 0 0 1 -0.41959,-0.17373 l -3.42384,-3.64675 a 0.0934223,0.0934223 0 0 0 -0.13112,0 l -0.83425,0.84244 a 3.6664157,3.6664157 0 0 1 -2.62238,1.10304 3.7467261,3.7467261 0 0 1 -2.66827,-1.13418 l -0.80146,-0.81949 a 0.0934223,0.0934223 0 0 0 -0.13112,0 l -3.41565,3.63855 a 0.5916746,0.5916746 0 0 1 -0.83753,0 0.59003561,0.59003561 0 0 1 0,-0.83752 l 3.42877,-3.65167 a 0.09833927,0.09833927 0 0 0 0,-0.12784 l -4.90549,-4.99072 a 0.09014433,0.09014433 0 0 0 -0.15407,0.0639 v 9.98635 a 1.4619771,1.4619771 0 0 0 1.45706,1.45706 h 16.04078 a 1.4619771,1.4619771 0 0 0 1.45706,-1.45706 v -9.97816 a 0.09014433,0.09014433 0 0 0 -0.15735,-0.0639 z"
         fill="#d69e5d"
         id="path19189"
         style="fill:#2f2e41;fill-opacity:1;stroke-width:0.163899" />
      <path
         d="m 314.67569,225.13205 a 2.4814275,2.4814275 0 0 0 1.78977,-0.73754 l 7.14435,-7.27219 a 1.4259194,1.4259194 0 0 0 -0.90144,-0.3278 h -16.05225 a 1.4160855,1.4160855 0 0 0 -0.90144,0.3278 l 7.14598,7.27219 a 2.4715936,2.4715936 0 0 0 1.77503,0.73754 z"
         fill="#d69e5d"
         id="path19191"
         style="fill:#2f2e41;fill-opacity:1;stroke-width:0.163899" />
    </g>
  </g>
</svg>
