<?xml version="1.0" encoding="UTF-8" standalone="no"?>
<svg
   xmlns:dc="http://purl.org/dc/elements/1.1/"
   xmlns:cc="http://creativecommons.org/ns#"
   xmlns:rdf="http://www.w3.org/1999/02/22-rdf-syntax-ns#"
   xmlns:svg="http://www.w3.org/2000/svg"
   xmlns="http://www.w3.org/2000/svg"
   xmlns:sodipodi="http://sodipodi.sourceforge.net/DTD/sodipodi-0.dtd"
   xmlns:inkscape="http://www.inkscape.org/namespaces/inkscape"
   width="87.5"
   height="83"
   viewBox="0 0 23.151041 21.960418"
   version="1.1"
   id="svg24548"
   inkscape:version="1.0.2 (e86c870879, 2021-01-15, custom)"
   sodipodi:docname="mugs_l.svg">
  <defs
     id="defs24542">
    <filter
       inkscape:collect="always"
       style="color-interpolation-filters:sRGB"
       id="filter58708"
       x="-0.037737671"
       width="1.0754753"
       y="-0.62896121"
       height="2.2579224">
      <feGaussianBlur
         inkscape:collect="always"
         stdDeviation="0.15601186"
         id="feGaussianBlur58710" />
    </filter>
  </defs>
  <sodipodi:namedview
     id="base"
     pagecolor="#ffffff"
     bordercolor="#666666"
     borderopacity="1.0"
     inkscape:pageopacity="0.0"
     inkscape:pageshadow="2"
     inkscape:zoom="3.959798"
     inkscape:cx="59.913833"
     inkscape:cy="49.186083"
     inkscape:document-units="px"
     inkscape:current-layer="layer1"
     inkscape:document-rotation="0"
     showgrid="false"
     units="px"
     inkscape:window-width="1267"
     inkscape:window-height="728"
     inkscape:window-x="83"
     inkscape:window-y="0"
     inkscape:window-maximized="0" />
  <metadata
     id="metadata24545">
    <rdf:RDF>
      <cc:Work
         rdf:about="">
        <dc:format>image/svg+xml</dc:format>
        <dc:type
           rdf:resource="http://purl.org/dc/dcmitype/StillImage" />
        <dc:title></dc:title>
      </cc:Work>
    </rdf:RDF>
  </metadata>
  <g
     inkscape:label="Layer 1"
     inkscape:groupmode="layer"
     id="layer1">
    <g
       id="g26039"
       transform="translate(0,0.06681738)">
      <path
         style="fill:#000000;stroke:#000000;stroke-width:0.0558291px;stroke-linecap:butt;stroke-linejoin:miter;stroke-opacity:1"
         d="m 10.314032,8.1009292 h 0.431548 l 0.05394,-0.303349 z"
         id="path57166" />
      <path
         style="fill:#000000;stroke:#000000;stroke-width:0.0587592px;stroke-linecap:butt;stroke-linejoin:miter;stroke-opacity:1"
         d="m 21.213849,15.424629 c -0.02079,-0.0052 -0.436263,0.01039 -0.436263,0.01039 l 0.07271,-0.181777 0.07271,0.01039 0.04674,0.01559 0.05194,0.02597 0.05194,0.02597 0.0831,0.06232 z"
         id="path57168" />
      <path
         style="fill:none;stroke:#3e3f41;stroke-width:0.235036;stroke-linecap:butt;stroke-linejoin:miter;stroke-opacity:1"
         d="m 10.38317,4.0929171 1.585344,15.6908589 h 8.285062 l 1.70402,-15.6887336 z"
         id="path57155" />
      <path
         style="fill:#3e3f41;fill-opacity:1;stroke:#3e3f41;stroke-width:0.22179;stroke-linecap:butt;stroke-linejoin:miter;stroke-opacity:1"
         d="m 10.354464,8.2222062 c 3.855399,0 8.253157,-2.4406078 11.5662,0 l -0.784146,7.0181368 c -1.801832,-1.084666 -6.415008,2.230878 -10.076321,0 z"
         id="path57157"
         sodipodi:nodetypes="ccccc" />
      <path
         style="fill:none;stroke:#3e3f41;stroke-width:0.235036;stroke-linecap:butt;stroke-linejoin:miter;stroke-opacity:1"
         d="M 9.2613456,4.0098205 C 9.3128198,3.7771515 9.2213063,2.4673672 10.798664,2.5555983 h 10.761214 c 1.448184,-0.015546 1.365924,1.093747 1.412668,1.4126728 z"
         id="path57159"
         sodipodi:nodetypes="ccccc" />
      <path
         style="fill:none;stroke:#3e3f41;stroke-width:0.235036;stroke-linecap:butt;stroke-linejoin:miter;stroke-opacity:1"
         d="M 10.880737,2.4756598 C 11.041716,1.995833 10.89897,1.1553177 12.43964,1.2550771 h 7.5676 c 0.763655,-0.087172 1.393869,0.6304742 1.2635,1.2468439 z"
         id="path57161"
         sodipodi:nodetypes="ccccc" />
      <path
         style="fill:none;stroke:#3e3f41;stroke-width:0.235036;stroke-linecap:butt;stroke-linejoin:miter;stroke-opacity:1"
         d="M 17.139905,1.1844794 H 19.8406 C 19.612615,0.9742917 19.922633,0.62144274 19.009615,0.1457489 H 17.596946 C 17.420977,0.2231491 17.105547,0.02163593 17.139905,0.51969346 Z"
         id="path57163"
         sodipodi:nodetypes="cccccc" />
      <g
         id="g57253"
         transform="matrix(0.00138369,0.00464344,-0.00464344,0.00138369,16.229643,10.969781)"
         style="fill:#9f703a;fill-opacity:1">
        <g
           id="g57221"
           style="fill:#9f703a;fill-opacity:1">
          <g
             id="g57219"
             style="fill:#9f703a;fill-opacity:1">
            <path
               d="M 510.606,278.946 C 503.63,211.522 470.958,145.538 418.606,93.186 309.582,-15.773 147.918,-31.485 58.254,58.274 c -89.728,89.728 -74.048,251.328 34.944,360.32 52.352,52.352 118.336,85.024 185.76,92 8.992,0.928 17.856,1.408 26.592,1.408 57.984,0 109.824,-20.32 148,-58.496 43.904,-43.872 64.192,-105.888 57.056,-174.56 z M 351.054,334.274 C 315.342,307.01 276.622,296.226 234.574,284.706 128.718,255.682 76.142,167.362 63.854,63.843 c 29.824,35.968 51.84,77.056 88.448,107.168 39.008,32.064 81.952,43.744 129.12,57.408 103.552,30.048 154.784,117.6 166.56,219.52 -32.32,-38.848 -56.032,-82.433 -96.928,-113.665 z"
               id="path57217"
               style="fill:#9f703a;fill-opacity:1" />
          </g>
        </g>
        <g
           id="g57223"
           style="fill:#9f703a;fill-opacity:1" />
        <g
           id="g57225"
           style="fill:#9f703a;fill-opacity:1" />
        <g
           id="g57227"
           style="fill:#9f703a;fill-opacity:1" />
        <g
           id="g57229"
           style="fill:#9f703a;fill-opacity:1" />
        <g
           id="g57231"
           style="fill:#9f703a;fill-opacity:1" />
        <g
           id="g57233"
           style="fill:#9f703a;fill-opacity:1" />
        <g
           id="g57235"
           style="fill:#9f703a;fill-opacity:1" />
        <g
           id="g57237"
           style="fill:#9f703a;fill-opacity:1" />
        <g
           id="g57239"
           style="fill:#9f703a;fill-opacity:1" />
        <g
           id="g57241"
           style="fill:#9f703a;fill-opacity:1" />
        <g
           id="g57243"
           style="fill:#9f703a;fill-opacity:1" />
        <g
           id="g57245"
           style="fill:#9f703a;fill-opacity:1" />
        <g
           id="g57247"
           style="fill:#9f703a;fill-opacity:1" />
        <g
           id="g57249"
           style="fill:#9f703a;fill-opacity:1" />
        <g
           id="g57251"
           style="fill:#9f703a;fill-opacity:1" />
      </g>
      <g
         id="g57215"
         transform="matrix(0.00676677,0,0,0.00676677,11.24163,8.9032619)"
         style="fill:#9f703a;fill-opacity:1">
        <g
           id="g57183"
           style="fill:#9f703a;fill-opacity:1">
          <g
             id="g57181"
             style="fill:#9f703a;fill-opacity:1">
            <path
               d="M 510.606,278.946 C 503.63,211.522 470.958,145.538 418.606,93.186 309.582,-15.773 147.918,-31.485 58.254,58.274 c -89.728,89.728 -74.048,251.328 34.944,360.32 52.352,52.352 118.336,85.024 185.76,92 8.992,0.928 17.856,1.408 26.592,1.408 57.984,0 109.824,-20.32 148,-58.496 43.904,-43.872 64.192,-105.888 57.056,-174.56 z M 351.054,334.274 C 315.342,307.01 276.622,296.226 234.574,284.706 128.718,255.682 76.142,167.362 63.854,63.843 c 29.824,35.968 51.84,77.056 88.448,107.168 39.008,32.064 81.952,43.744 129.12,57.408 103.552,30.048 154.784,117.6 166.56,219.52 -32.32,-38.848 -56.032,-82.433 -96.928,-113.665 z"
               id="path57179"
               style="fill:#9f703a;fill-opacity:1" />
          </g>
        </g>
        <g
           id="g57185"
           style="fill:#9f703a;fill-opacity:1" />
        <g
           id="g57187"
           style="fill:#9f703a;fill-opacity:1" />
        <g
           id="g57189"
           style="fill:#9f703a;fill-opacity:1" />
        <g
           id="g57191"
           style="fill:#9f703a;fill-opacity:1" />
        <g
           id="g57193"
           style="fill:#9f703a;fill-opacity:1" />
        <g
           id="g57195"
           style="fill:#9f703a;fill-opacity:1" />
        <g
           id="g57197"
           style="fill:#9f703a;fill-opacity:1" />
        <g
           id="g57199"
           style="fill:#9f703a;fill-opacity:1" />
        <g
           id="g57201"
           style="fill:#9f703a;fill-opacity:1" />
        <g
           id="g57203"
           style="fill:#9f703a;fill-opacity:1" />
        <g
           id="g57205"
           style="fill:#9f703a;fill-opacity:1" />
        <g
           id="g57207"
           style="fill:#9f703a;fill-opacity:1" />
        <g
           id="g57209"
           style="fill:#9f703a;fill-opacity:1" />
        <g
           id="g57211"
           style="fill:#9f703a;fill-opacity:1" />
        <g
           id="g57213"
           style="fill:#9f703a;fill-opacity:1" />
      </g>
      <g
         id="g57291"
         transform="matrix(0.003384,0.00114535,-0.00114535,0.003384,12.593066,12.353578)"
         style="fill:#9f703a;fill-opacity:1">
        <g
           id="g57259"
           style="fill:#9f703a;fill-opacity:1">
          <g
             id="g57257"
             style="fill:#9f703a;fill-opacity:1">
            <path
               d="M 510.606,278.946 C 503.63,211.522 470.958,145.538 418.606,93.186 309.582,-15.773 147.918,-31.485 58.254,58.274 c -89.728,89.728 -74.048,251.328 34.944,360.32 52.352,52.352 118.336,85.024 185.76,92 8.992,0.928 17.856,1.408 26.592,1.408 57.984,0 109.824,-20.32 148,-58.496 43.904,-43.872 64.192,-105.888 57.056,-174.56 z M 351.054,334.274 C 315.342,307.01 276.622,296.226 234.574,284.706 128.718,255.682 76.142,167.362 63.854,63.843 c 29.824,35.968 51.84,77.056 88.448,107.168 39.008,32.064 81.952,43.744 129.12,57.408 103.552,30.048 154.784,117.6 166.56,219.52 -32.32,-38.848 -56.032,-82.433 -96.928,-113.665 z"
               id="path57255"
               style="fill:#9f703a;fill-opacity:1" />
          </g>
        </g>
        <g
           id="g57261"
           style="fill:#9f703a;fill-opacity:1" />
        <g
           id="g57263"
           style="fill:#9f703a;fill-opacity:1" />
        <g
           id="g57265"
           style="fill:#9f703a;fill-opacity:1" />
        <g
           id="g57267"
           style="fill:#9f703a;fill-opacity:1" />
        <g
           id="g57269"
           style="fill:#9f703a;fill-opacity:1" />
        <g
           id="g57271"
           style="fill:#9f703a;fill-opacity:1" />
        <g
           id="g57273"
           style="fill:#9f703a;fill-opacity:1" />
        <g
           id="g57275"
           style="fill:#9f703a;fill-opacity:1" />
        <g
           id="g57277"
           style="fill:#9f703a;fill-opacity:1" />
        <g
           id="g57279"
           style="fill:#9f703a;fill-opacity:1" />
        <g
           id="g57281"
           style="fill:#9f703a;fill-opacity:1" />
        <g
           id="g57283"
           style="fill:#9f703a;fill-opacity:1" />
        <g
           id="g57285"
           style="fill:#9f703a;fill-opacity:1" />
        <g
           id="g57287"
           style="fill:#9f703a;fill-opacity:1" />
        <g
           id="g57289"
           style="fill:#9f703a;fill-opacity:1" />
      </g>
      <g
         id="g57329"
         transform="matrix(0.00138369,0.00464344,-0.00464344,0.00138369,16.229643,10.969781)"
         style="fill:#9f703a;fill-opacity:1">
        <g
           id="g57297"
           style="fill:#9f703a;fill-opacity:1">
          <g
             id="g57295"
             style="fill:#9f703a;fill-opacity:1">
            <path
               d="M 510.606,278.946 C 503.63,211.522 470.958,145.538 418.606,93.186 309.582,-15.773 147.918,-31.485 58.254,58.274 c -89.728,89.728 -74.048,251.328 34.944,360.32 52.352,52.352 118.336,85.024 185.76,92 8.992,0.928 17.856,1.408 26.592,1.408 57.984,0 109.824,-20.32 148,-58.496 43.904,-43.872 64.192,-105.888 57.056,-174.56 z M 351.054,334.274 C 315.342,307.01 276.622,296.226 234.574,284.706 128.718,255.682 76.142,167.362 63.854,63.843 c 29.824,35.968 51.84,77.056 88.448,107.168 39.008,32.064 81.952,43.744 129.12,57.408 103.552,30.048 154.784,117.6 166.56,219.52 -32.32,-38.848 -56.032,-82.433 -96.928,-113.665 z"
               id="path57293"
               style="fill:#9f703a;fill-opacity:1" />
          </g>
        </g>
        <g
           id="g57299"
           style="fill:#9f703a;fill-opacity:1" />
        <g
           id="g57301"
           style="fill:#9f703a;fill-opacity:1" />
        <g
           id="g57303"
           style="fill:#9f703a;fill-opacity:1" />
        <g
           id="g57305"
           style="fill:#9f703a;fill-opacity:1" />
        <g
           id="g57307"
           style="fill:#9f703a;fill-opacity:1" />
        <g
           id="g57309"
           style="fill:#9f703a;fill-opacity:1" />
        <g
           id="g57311"
           style="fill:#9f703a;fill-opacity:1" />
        <g
           id="g57313"
           style="fill:#9f703a;fill-opacity:1" />
        <g
           id="g57315"
           style="fill:#9f703a;fill-opacity:1" />
        <g
           id="g57317"
           style="fill:#9f703a;fill-opacity:1" />
        <g
           id="g57319"
           style="fill:#9f703a;fill-opacity:1" />
        <g
           id="g57321"
           style="fill:#9f703a;fill-opacity:1" />
        <g
           id="g57323"
           style="fill:#9f703a;fill-opacity:1" />
        <g
           id="g57325"
           style="fill:#9f703a;fill-opacity:1" />
        <g
           id="g57327"
           style="fill:#9f703a;fill-opacity:1" />
      </g>
      <g
         id="g57367"
         transform="matrix(0.00676677,0,0,0.00676677,11.24163,8.9032619)"
         style="fill:#9f703a;fill-opacity:1">
        <g
           id="g57335"
           style="fill:#9f703a;fill-opacity:1">
          <g
             id="g57333"
             style="fill:#9f703a;fill-opacity:1">
            <path
               d="M 510.606,278.946 C 503.63,211.522 470.958,145.538 418.606,93.186 309.582,-15.773 147.918,-31.485 58.254,58.274 c -89.728,89.728 -74.048,251.328 34.944,360.32 52.352,52.352 118.336,85.024 185.76,92 8.992,0.928 17.856,1.408 26.592,1.408 57.984,0 109.824,-20.32 148,-58.496 43.904,-43.872 64.192,-105.888 57.056,-174.56 z M 351.054,334.274 C 315.342,307.01 276.622,296.226 234.574,284.706 128.718,255.682 76.142,167.362 63.854,63.843 c 29.824,35.968 51.84,77.056 88.448,107.168 39.008,32.064 81.952,43.744 129.12,57.408 103.552,30.048 154.784,117.6 166.56,219.52 -32.32,-38.848 -56.032,-82.433 -96.928,-113.665 z"
               id="path57331"
               style="fill:#9f703a;fill-opacity:1" />
          </g>
        </g>
        <g
           id="g57337"
           style="fill:#9f703a;fill-opacity:1" />
        <g
           id="g57339"
           style="fill:#9f703a;fill-opacity:1" />
        <g
           id="g57341"
           style="fill:#9f703a;fill-opacity:1" />
        <g
           id="g57343"
           style="fill:#9f703a;fill-opacity:1" />
        <g
           id="g57345"
           style="fill:#9f703a;fill-opacity:1" />
        <g
           id="g57347"
           style="fill:#9f703a;fill-opacity:1" />
        <g
           id="g57349"
           style="fill:#9f703a;fill-opacity:1" />
        <g
           id="g57351"
           style="fill:#9f703a;fill-opacity:1" />
        <g
           id="g57353"
           style="fill:#9f703a;fill-opacity:1" />
        <g
           id="g57355"
           style="fill:#9f703a;fill-opacity:1" />
        <g
           id="g57357"
           style="fill:#9f703a;fill-opacity:1" />
        <g
           id="g57359"
           style="fill:#9f703a;fill-opacity:1" />
        <g
           id="g57361"
           style="fill:#9f703a;fill-opacity:1" />
        <g
           id="g57363"
           style="fill:#9f703a;fill-opacity:1" />
        <g
           id="g57365"
           style="fill:#9f703a;fill-opacity:1" />
      </g>
      <g
         id="g57405"
         transform="matrix(0.003384,0.00114535,-0.00114535,0.003384,12.593066,12.353578)"
         style="fill:#9f703a;fill-opacity:1">
        <g
           id="g57373"
           style="fill:#9f703a;fill-opacity:1">
          <g
             id="g57371"
             style="fill:#9f703a;fill-opacity:1">
            <path
               d="M 510.606,278.946 C 503.63,211.522 470.958,145.538 418.606,93.186 309.582,-15.773 147.918,-31.485 58.254,58.274 c -89.728,89.728 -74.048,251.328 34.944,360.32 52.352,52.352 118.336,85.024 185.76,92 8.992,0.928 17.856,1.408 26.592,1.408 57.984,0 109.824,-20.32 148,-58.496 43.904,-43.872 64.192,-105.888 57.056,-174.56 z M 351.054,334.274 C 315.342,307.01 276.622,296.226 234.574,284.706 128.718,255.682 76.142,167.362 63.854,63.843 c 29.824,35.968 51.84,77.056 88.448,107.168 39.008,32.064 81.952,43.744 129.12,57.408 103.552,30.048 154.784,117.6 166.56,219.52 -32.32,-38.848 -56.032,-82.433 -96.928,-113.665 z"
               id="path57369"
               style="fill:#9f703a;fill-opacity:1" />
          </g>
        </g>
        <g
           id="g57375"
           style="fill:#9f703a;fill-opacity:1" />
        <g
           id="g57377"
           style="fill:#9f703a;fill-opacity:1" />
        <g
           id="g57379"
           style="fill:#9f703a;fill-opacity:1" />
        <g
           id="g57381"
           style="fill:#9f703a;fill-opacity:1" />
        <g
           id="g57383"
           style="fill:#9f703a;fill-opacity:1" />
        <g
           id="g57385"
           style="fill:#9f703a;fill-opacity:1" />
        <g
           id="g57387"
           style="fill:#9f703a;fill-opacity:1" />
        <g
           id="g57389"
           style="fill:#9f703a;fill-opacity:1" />
        <g
           id="g57391"
           style="fill:#9f703a;fill-opacity:1" />
        <g
           id="g57393"
           style="fill:#9f703a;fill-opacity:1" />
        <g
           id="g57395"
           style="fill:#9f703a;fill-opacity:1" />
        <g
           id="g57397"
           style="fill:#9f703a;fill-opacity:1" />
        <g
           id="g57399"
           style="fill:#9f703a;fill-opacity:1" />
        <g
           id="g57401"
           style="fill:#9f703a;fill-opacity:1" />
        <g
           id="g57403"
           style="fill:#9f703a;fill-opacity:1" />
      </g>
      <ellipse
         style="fill:#4d4d4d;fill-opacity:1;stroke:#4d4d4d;stroke-width:0.132292;stroke-linecap:round;stroke-linejoin:round;stroke-miterlimit:4;stroke-dasharray:none;stroke-opacity:1;filter:url(#filter58708)"
         id="path58646"
         cx="16.142063"
         cy="21.082169"
         rx="4.9609375"
         ry="0.29765624" />
      <g
         id="g21375"
         transform="matrix(0.6536529,0,0,0.6536529,-298.81831,-365.98417)">
        <path
           style="fill:#3e3f41;fill-opacity:1;stroke:#3e3f41;stroke-width:0.264583px;stroke-linecap:butt;stroke-linejoin:miter;stroke-opacity:1"
           d="m 470.24737,563.04335 -4.76708,17.79096 0.38481,0.0254 4.74239,-17.6988 z"
           id="path20570" />
        <path
           style="fill:#000000;stroke:#000000;stroke-width:0.0673873px;stroke-linecap:butt;stroke-linejoin:miter;stroke-opacity:1"
           d="m 458.61454,576.36269 h 0.52089 l 0.0651,-0.36615 z"
           id="path20572" />
        <path
           style="fill:#000000;stroke:#000000;stroke-width:0.0709241px;stroke-linecap:butt;stroke-linejoin:miter;stroke-opacity:1"
           d="m 471.77093,585.20261 c -0.0251,-0.006 -0.52658,0.0125 -0.52658,0.0125 l 0.0878,-0.21941 0.0878,0.0126 0.0564,0.0188 0.0627,0.0313 0.0627,0.0313 0.1003,0.0752 z"
           id="path20574" />
        <path
           style="fill:#3e3f41;fill-opacity:1;stroke:#3e3f41;stroke-width:0.283696;stroke-linecap:butt;stroke-linejoin:miter;stroke-opacity:1"
           d="m 458.69799,571.5249 1.91355,18.93932 h 10.00031 l 2.05681,-18.93675 z"
           id="path20576" />
        <path
           style="fill:#fbf0da;fill-opacity:1;stroke:#3e3f41;stroke-width:0.267707;stroke-linecap:butt;stroke-linejoin:miter;stroke-opacity:1"
           d="m 458.66334,576.50907 c 4.65358,0 9.9618,-2.94588 13.96074,0 l -0.94649,8.4711 c -2.17486,-1.30923 -7.7431,2.69273 -12.16241,0 z"
           id="path20578"
           sodipodi:nodetypes="ccccc" />
        <path
           style="fill:#3e3f41;fill-opacity:1;stroke:#fbf0da;stroke-width:0.283696;stroke-linecap:butt;stroke-linejoin:miter;stroke-opacity:1"
           d="m 457.34391,571.4246 c 0.0621,-0.28084 -0.0483,-1.86178 1.85559,-1.75529 h 12.9891 c 1.748,-0.0188 1.64871,1.32019 1.70513,1.70514 z"
           id="path20580"
           sodipodi:nodetypes="ccccc" />
        <g
           id="g20986"
           transform="matrix(0.00167015,0.00560477,-0.00560477,0.00167015,465.75485,579.82548)"
           style="fill:#9f703a;fill-opacity:1">
          <g
             id="g20644"
             style="fill:#9f703a;fill-opacity:1">
            <g
               id="g20606"
               style="fill:#9f703a;fill-opacity:1">
              <path
                 d="M 510.606,278.946 C 503.63,211.522 470.958,145.538 418.606,93.186 309.582,-15.773 147.918,-31.485 58.254,58.274 c -89.728,89.728 -74.048,251.328 34.944,360.32 52.352,52.352 118.336,85.024 185.76,92 8.992,0.928 17.856,1.408 26.592,1.408 57.984,0 109.824,-20.32 148,-58.496 43.904,-43.872 64.192,-105.888 57.056,-174.56 z M 351.054,334.274 C 315.342,307.01 276.622,296.226 234.574,284.706 128.718,255.682 76.142,167.362 63.854,63.843 c 29.824,35.968 51.84,77.056 88.448,107.168 39.008,32.064 81.952,43.744 129.12,57.408 103.552,30.048 154.784,117.6 166.56,219.52 -32.32,-38.848 -56.032,-82.433 -96.928,-113.665 z"
                 id="path20582"
                 style="fill:#9f703a;fill-opacity:1" />
            </g>
          </g>
          <g
             id="g20682"
             style="fill:#9f703a;fill-opacity:1" />
          <g
             id="g20720"
             style="fill:#9f703a;fill-opacity:1" />
          <g
             id="g20723"
             style="fill:#9f703a;fill-opacity:1" />
          <g
             id="g20758"
             style="fill:#9f703a;fill-opacity:1" />
          <g
             id="g20761"
             style="fill:#9f703a;fill-opacity:1" />
          <g
             id="g20796"
             style="fill:#9f703a;fill-opacity:1" />
          <g
             id="g20799"
             style="fill:#9f703a;fill-opacity:1" />
          <g
             id="g20834"
             style="fill:#9f703a;fill-opacity:1" />
          <g
             id="g20837"
             style="fill:#9f703a;fill-opacity:1" />
          <g
             id="g20872"
             style="fill:#9f703a;fill-opacity:1" />
          <g
             id="g20877"
             style="fill:#9f703a;fill-opacity:1" />
          <g
             id="g20910"
             style="fill:#9f703a;fill-opacity:1" />
          <g
             id="g20915"
             style="fill:#9f703a;fill-opacity:1" />
          <g
             id="g20948"
             style="fill:#9f703a;fill-opacity:1" />
          <g
             id="g20953"
             style="fill:#9f703a;fill-opacity:1" />
        </g>
        <g
           id="g21201"
           transform="matrix(0.00816769,0,0,0.00816769,459.73417,577.33113)"
           style="fill:#9f703a;fill-opacity:1">
          <g
             id="g21024"
             style="fill:#9f703a;fill-opacity:1">
            <g
               id="g20991"
               style="fill:#9f703a;fill-opacity:1">
              <path
                 d="M 510.606,278.946 C 503.63,211.522 470.958,145.538 418.606,93.186 309.582,-15.773 147.918,-31.485 58.254,58.274 c -89.728,89.728 -74.048,251.328 34.944,360.32 52.352,52.352 118.336,85.024 185.76,92 8.992,0.928 17.856,1.408 26.592,1.408 57.984,0 109.824,-20.32 148,-58.496 43.904,-43.872 64.192,-105.888 57.056,-174.56 z M 351.054,334.274 C 315.342,307.01 276.622,296.226 234.574,284.706 128.718,255.682 76.142,167.362 63.854,63.843 c 29.824,35.968 51.84,77.056 88.448,107.168 39.008,32.064 81.952,43.744 129.12,57.408 103.552,30.048 154.784,117.6 166.56,219.52 -32.32,-38.848 -56.032,-82.433 -96.928,-113.665 z"
                 id="path20988"
                 style="fill:#9f703a;fill-opacity:1" />
            </g>
          </g>
          <g
             id="g21031"
             style="fill:#9f703a;fill-opacity:1" />
          <g
             id="g21062"
             style="fill:#9f703a;fill-opacity:1" />
          <g
             id="g21069"
             style="fill:#9f703a;fill-opacity:1" />
          <g
             id="g21100"
             style="fill:#9f703a;fill-opacity:1" />
          <g
             id="g21107"
             style="fill:#9f703a;fill-opacity:1" />
          <g
             id="g21138"
             style="fill:#9f703a;fill-opacity:1" />
          <g
             id="g21145"
             style="fill:#9f703a;fill-opacity:1" />
          <g
             id="g21176"
             style="fill:#9f703a;fill-opacity:1" />
          <g
             id="g21185"
             style="fill:#9f703a;fill-opacity:1" />
          <g
             id="g21187"
             style="fill:#9f703a;fill-opacity:1" />
          <g
             id="g21189"
             style="fill:#9f703a;fill-opacity:1" />
          <g
             id="g21191"
             style="fill:#9f703a;fill-opacity:1" />
          <g
             id="g21195"
             style="fill:#9f703a;fill-opacity:1" />
          <g
             id="g21197"
             style="fill:#9f703a;fill-opacity:1" />
          <g
             id="g21199"
             style="fill:#9f703a;fill-opacity:1" />
        </g>
        <g
           id="g21241"
           transform="matrix(0.00408459,0.00138247,-0.00138247,0.00408459,461.3654,581.49576)"
           style="fill:#9f703a;fill-opacity:1">
          <g
             id="g21207"
             style="fill:#9f703a;fill-opacity:1">
            <g
               id="g21205"
               style="fill:#9f703a;fill-opacity:1">
              <path
                 d="M 510.606,278.946 C 503.63,211.522 470.958,145.538 418.606,93.186 309.582,-15.773 147.918,-31.485 58.254,58.274 c -89.728,89.728 -74.048,251.328 34.944,360.32 52.352,52.352 118.336,85.024 185.76,92 8.992,0.928 17.856,1.408 26.592,1.408 57.984,0 109.824,-20.32 148,-58.496 43.904,-43.872 64.192,-105.888 57.056,-174.56 z M 351.054,334.274 C 315.342,307.01 276.622,296.226 234.574,284.706 128.718,255.682 76.142,167.362 63.854,63.843 c 29.824,35.968 51.84,77.056 88.448,107.168 39.008,32.064 81.952,43.744 129.12,57.408 103.552,30.048 154.784,117.6 166.56,219.52 -32.32,-38.848 -56.032,-82.433 -96.928,-113.665 z"
                 id="path21203"
                 style="fill:#9f703a;fill-opacity:1" />
            </g>
          </g>
          <g
             id="g21211"
             style="fill:#9f703a;fill-opacity:1" />
          <g
             id="g21213"
             style="fill:#9f703a;fill-opacity:1" />
          <g
             id="g21215"
             style="fill:#9f703a;fill-opacity:1" />
          <g
             id="g21217"
             style="fill:#9f703a;fill-opacity:1" />
          <g
             id="g21219"
             style="fill:#9f703a;fill-opacity:1" />
          <g
             id="g21221"
             style="fill:#9f703a;fill-opacity:1" />
          <g
             id="g21223"
             style="fill:#9f703a;fill-opacity:1" />
          <g
             id="g21225"
             style="fill:#9f703a;fill-opacity:1" />
          <g
             id="g21227"
             style="fill:#9f703a;fill-opacity:1" />
          <g
             id="g21229"
             style="fill:#9f703a;fill-opacity:1" />
          <g
             id="g21231"
             style="fill:#9f703a;fill-opacity:1" />
          <g
             id="g21233"
             style="fill:#9f703a;fill-opacity:1" />
          <g
             id="g21235"
             style="fill:#9f703a;fill-opacity:1" />
          <g
             id="g21237"
             style="fill:#9f703a;fill-opacity:1" />
          <g
             id="g21239"
             style="fill:#9f703a;fill-opacity:1" />
        </g>
        <g
           id="g21283"
           transform="matrix(0.00167015,0.00560477,-0.00560477,0.00167015,465.75485,579.82548)"
           style="fill:#9f703a;fill-opacity:1">
          <g
             id="g21247"
             style="fill:#9f703a;fill-opacity:1">
            <g
               id="g21245"
               style="fill:#9f703a;fill-opacity:1">
              <path
                 d="M 510.606,278.946 C 503.63,211.522 470.958,145.538 418.606,93.186 309.582,-15.773 147.918,-31.485 58.254,58.274 c -89.728,89.728 -74.048,251.328 34.944,360.32 52.352,52.352 118.336,85.024 185.76,92 8.992,0.928 17.856,1.408 26.592,1.408 57.984,0 109.824,-20.32 148,-58.496 43.904,-43.872 64.192,-105.888 57.056,-174.56 z M 351.054,334.274 C 315.342,307.01 276.622,296.226 234.574,284.706 128.718,255.682 76.142,167.362 63.854,63.843 c 29.824,35.968 51.84,77.056 88.448,107.168 39.008,32.064 81.952,43.744 129.12,57.408 103.552,30.048 154.784,117.6 166.56,219.52 -32.32,-38.848 -56.032,-82.433 -96.928,-113.665 z"
                 id="path21243"
                 style="fill:#9f703a;fill-opacity:1" />
            </g>
          </g>
          <g
             id="g21249"
             style="fill:#9f703a;fill-opacity:1" />
          <g
             id="g21252"
             style="fill:#9f703a;fill-opacity:1" />
          <g
             id="g21255"
             style="fill:#9f703a;fill-opacity:1" />
          <g
             id="g21257"
             style="fill:#9f703a;fill-opacity:1" />
          <g
             id="g21259"
             style="fill:#9f703a;fill-opacity:1" />
          <g
             id="g21261"
             style="fill:#9f703a;fill-opacity:1" />
          <g
             id="g21263"
             style="fill:#9f703a;fill-opacity:1" />
          <g
             id="g21265"
             style="fill:#9f703a;fill-opacity:1" />
          <g
             id="g21267"
             style="fill:#9f703a;fill-opacity:1" />
          <g
             id="g21269"
             style="fill:#9f703a;fill-opacity:1" />
          <g
             id="g21271"
             style="fill:#9f703a;fill-opacity:1" />
          <g
             id="g21273"
             style="fill:#9f703a;fill-opacity:1" />
          <g
             id="g21275"
             style="fill:#9f703a;fill-opacity:1" />
          <g
             id="g21279"
             style="fill:#9f703a;fill-opacity:1" />
          <g
             id="g21281"
             style="fill:#9f703a;fill-opacity:1" />
        </g>
        <g
           id="g21331"
           transform="matrix(0.00816769,0,0,0.00816769,459.73417,577.33113)"
           style="fill:#9f703a;fill-opacity:1">
          <g
             id="g21291"
             style="fill:#9f703a;fill-opacity:1">
            <g
               id="g21289"
               style="fill:#9f703a;fill-opacity:1">
              <path
                 d="M 510.606,278.946 C 503.63,211.522 470.958,145.538 418.606,93.186 309.582,-15.773 147.918,-31.485 58.254,58.274 c -89.728,89.728 -74.048,251.328 34.944,360.32 52.352,52.352 118.336,85.024 185.76,92 8.992,0.928 17.856,1.408 26.592,1.408 57.984,0 109.824,-20.32 148,-58.496 43.904,-43.872 64.192,-105.888 57.056,-174.56 z M 351.054,334.274 C 315.342,307.01 276.622,296.226 234.574,284.706 128.718,255.682 76.142,167.362 63.854,63.843 c 29.824,35.968 51.84,77.056 88.448,107.168 39.008,32.064 81.952,43.744 129.12,57.408 103.552,30.048 154.784,117.6 166.56,219.52 -32.32,-38.848 -56.032,-82.433 -96.928,-113.665 z"
                 id="path21286"
                 style="fill:#9f703a;fill-opacity:1" />
            </g>
          </g>
          <g
             id="g21295"
             style="fill:#9f703a;fill-opacity:1" />
          <g
             id="g21297"
             style="fill:#9f703a;fill-opacity:1" />
          <g
             id="g21301"
             style="fill:#9f703a;fill-opacity:1" />
          <g
             id="g21303"
             style="fill:#9f703a;fill-opacity:1" />
          <g
             id="g21305"
             style="fill:#9f703a;fill-opacity:1" />
          <g
             id="g21307"
             style="fill:#9f703a;fill-opacity:1" />
          <g
             id="g21311"
             style="fill:#9f703a;fill-opacity:1" />
          <g
             id="g21313"
             style="fill:#9f703a;fill-opacity:1" />
          <g
             id="g21315"
             style="fill:#9f703a;fill-opacity:1" />
          <g
             id="g21317"
             style="fill:#9f703a;fill-opacity:1" />
          <g
             id="g21319"
             style="fill:#9f703a;fill-opacity:1" />
          <g
             id="g21321"
             style="fill:#9f703a;fill-opacity:1" />
          <g
             id="g21323"
             style="fill:#9f703a;fill-opacity:1" />
          <g
             id="g21327"
             style="fill:#9f703a;fill-opacity:1" />
          <g
             id="g21329"
             style="fill:#9f703a;fill-opacity:1" />
        </g>
        <g
           id="g21371"
           transform="matrix(0.00408459,0.00138247,-0.00138247,0.00408459,461.3654,581.49576)"
           style="fill:#9f703a;fill-opacity:1">
          <g
             id="g21337"
             style="fill:#9f703a;fill-opacity:1">
            <g
               id="g21335"
               style="fill:#9f703a;fill-opacity:1">
              <path
                 d="M 510.606,278.946 C 503.63,211.522 470.958,145.538 418.606,93.186 309.582,-15.773 147.918,-31.485 58.254,58.274 c -89.728,89.728 -74.048,251.328 34.944,360.32 52.352,52.352 118.336,85.024 185.76,92 8.992,0.928 17.856,1.408 26.592,1.408 57.984,0 109.824,-20.32 148,-58.496 43.904,-43.872 64.192,-105.888 57.056,-174.56 z M 351.054,334.274 C 315.342,307.01 276.622,296.226 234.574,284.706 128.718,255.682 76.142,167.362 63.854,63.843 c 29.824,35.968 51.84,77.056 88.448,107.168 39.008,32.064 81.952,43.744 129.12,57.408 103.552,30.048 154.784,117.6 166.56,219.52 -32.32,-38.848 -56.032,-82.433 -96.928,-113.665 z"
                 id="path21333"
                 style="fill:#9f703a;fill-opacity:1" />
            </g>
          </g>
          <g
             id="g21339"
             style="fill:#9f703a;fill-opacity:1" />
          <g
             id="g21341"
             style="fill:#9f703a;fill-opacity:1" />
          <g
             id="g21343"
             style="fill:#9f703a;fill-opacity:1" />
          <g
             id="g21345"
             style="fill:#9f703a;fill-opacity:1" />
          <g
             id="g21347"
             style="fill:#9f703a;fill-opacity:1" />
          <g
             id="g21351"
             style="fill:#9f703a;fill-opacity:1" />
          <g
             id="g21353"
             style="fill:#9f703a;fill-opacity:1" />
          <g
             id="g21355"
             style="fill:#9f703a;fill-opacity:1" />
          <g
             id="g21357"
             style="fill:#9f703a;fill-opacity:1" />
          <g
             id="g21359"
             style="fill:#9f703a;fill-opacity:1" />
          <g
             id="g21361"
             style="fill:#9f703a;fill-opacity:1" />
          <g
             id="g21363"
             style="fill:#9f703a;fill-opacity:1" />
          <g
             id="g21365"
             style="fill:#9f703a;fill-opacity:1" />
          <g
             id="g21367"
             style="fill:#9f703a;fill-opacity:1" />
          <g
             id="g21369"
             style="fill:#9f703a;fill-opacity:1" />
        </g>
        <ellipse
           style="fill:#4d4d4d;fill-opacity:1;stroke:#4d4d4d;stroke-width:0.132292;stroke-linecap:round;stroke-linejoin:round;stroke-miterlimit:4;stroke-dasharray:none;stroke-opacity:1;filter:url(#filter58708)"
           id="ellipse21373"
           cx="437.02551"
           cy="553.80597"
           rx="4.9609375"
           ry="0.29765624"
           transform="matrix(1.207029,0,0,1.207029,-61.853335,-76.428448)" />
      </g>
    </g>
  </g>
</svg>
