<?xml version="1.0" encoding="UTF-8" standalone="no"?>
<svg
   xmlns:dc="http://purl.org/dc/elements/1.1/"
   xmlns:cc="http://creativecommons.org/ns#"
   xmlns:rdf="http://www.w3.org/1999/02/22-rdf-syntax-ns#"
   xmlns:svg="http://www.w3.org/2000/svg"
   xmlns="http://www.w3.org/2000/svg"
   xmlns:sodipodi="http://sodipodi.sourceforge.net/DTD/sodipodi-0.dtd"
   xmlns:inkscape="http://www.inkscape.org/namespaces/inkscape"
   width="71.5"
   height="67.5"
   viewBox="0 0 18.917708 17.859376"
   version="1.1"
   id="svg26573"
   inkscape:version="1.0.2 (e86c870879, 2021-01-15, custom)"
   sodipodi:docname="mugs_med.svg">
  <defs
     id="defs26567">
    <filter
       inkscape:collect="always"
       style="color-interpolation-filters:sRGB"
       id="filter58708"
       x="-0.037737671"
       width="1.0754753"
       y="-0.62896121"
       height="2.2579224">
      <feGaussianBlur
         inkscape:collect="always"
         stdDeviation="0.15601186"
         id="feGaussianBlur58710" />
    </filter>
  </defs>
  <sodipodi:namedview
     id="base"
     pagecolor="#ffffff"
     bordercolor="#666666"
     borderopacity="1.0"
     inkscape:pageopacity="0.0"
     inkscape:pageshadow="2"
     inkscape:zoom="3.959798"
     inkscape:cx="38.873609"
     inkscape:cy="66.504433"
     inkscape:document-units="px"
     inkscape:current-layer="layer1"
     inkscape:document-rotation="0"
     showgrid="false"
     units="px"
     inkscape:window-width="1267"
     inkscape:window-height="728"
     inkscape:window-x="53"
     inkscape:window-y="125"
     inkscape:window-maximized="0" />
  <metadata
     id="metadata26570">
    <rdf:RDF>
      <cc:Work
         rdf:about="">
        <dc:format>image/svg+xml</dc:format>
        <dc:type
           rdf:resource="http://purl.org/dc/dcmitype/StillImage" />
        <dc:title></dc:title>
      </cc:Work>
    </rdf:RDF>
  </metadata>
  <g
     inkscape:label="Layer 1"
     inkscape:groupmode="layer"
     id="layer1">
    <g
       id="g22745"
       transform="translate(-385.16481,-574.92088)">
      <g
         id="g59970"
         transform="matrix(-0.81942609,0,0,0.81942609,743.43116,138.48888)">
        <g
           id="g59966"
           transform="matrix(-0.2220824,0,0,0.2220824,511.96786,457.95205)">
          <path
             style="fill:#000000;stroke:#000000;stroke-width:0.251389px;stroke-linecap:butt;stroke-linejoin:miter;stroke-opacity:1"
             d="m 382.96633,373.16185 h 1.94319 l 0.2429,-1.36593 z"
             id="path59724" />
          <path
             style="fill:#000000;stroke:#000000;stroke-width:0.264583px;stroke-linecap:butt;stroke-linejoin:miter;stroke-opacity:1"
             d="m 432.04639,406.13925 c -0.0936,-0.0233 -1.96442,0.0468 -1.96442,0.0468 l 0.32739,-0.81851 0.3274,0.0468 0.21047,0.0702 0.23387,0.11692 0.23386,0.11694 0.37418,0.28062 z"
             id="path59726" />
          <path
             style="fill:none;stroke:#3e3f41;stroke-width:1.05833;stroke-linecap:butt;stroke-linejoin:miter;stroke-opacity:1"
             d="m 383.27765,355.11444 7.13854,70.65332 h 37.30625 l 7.67292,-70.64375 z"
             id="path59728" />
          <path
             style="fill:#3e3f41;fill-opacity:1;stroke:#3e3f41;stroke-width:0.998684;stroke-linecap:butt;stroke-linejoin:miter;stroke-opacity:1"
             d="m 383.14839,373.70794 c 17.36022,0 37.16259,-10.98965 52.08067,0 l -3.53088,31.6015 c -8.11335,-4.88407 -28.88571,10.04527 -45.37199,0 z"
             id="path59730"
             sodipodi:nodetypes="ccccc" />
          <path
             style="fill:none;stroke:#3e3f41;stroke-width:1.05833;stroke-linecap:butt;stroke-linejoin:miter;stroke-opacity:1"
             d="m 378.22626,354.74027 c 0.23178,-1.04767 -0.18029,-6.94541 6.92229,-6.54812 h 48.45595 c 6.52093,-0.07 6.15053,4.92496 6.36101,6.36103 z"
             id="path59732"
             sodipodi:nodetypes="ccccc" />
          <path
             style="fill:none;stroke:#3e3f41;stroke-width:1.05833;stroke-linecap:butt;stroke-linejoin:miter;stroke-opacity:1"
             d="m 385.51811,347.8322 c 0.72486,-2.16058 0.0821,-5.94528 7.01948,-5.49608 h 34.07564 c 3.43861,-0.39252 6.27636,2.83892 5.68933,5.61433 z"
             id="path59734"
             sodipodi:nodetypes="ccccc" />
          <path
             style="fill:none;stroke:#3e3f41;stroke-width:1.05833;stroke-linecap:butt;stroke-linejoin:miter;stroke-opacity:1"
             d="m 413.7021,342.01823 h 12.16078 c -1.02658,-0.94644 0.36938,-2.53526 -3.74179,-4.67723 h -6.36101 c -0.79236,0.34852 -2.21269,-0.55886 -2.05798,1.68381 z"
             id="path59736"
             sodipodi:nodetypes="cccccc" />
          <g
             id="g59774"
             transform="matrix(0.00623052,0.02090863,-0.02090863,0.00623052,409.60334,386.07981)"
             style="fill:#9f703a;fill-opacity:1">
            <g
               id="g59742"
               style="fill:#9f703a;fill-opacity:1">
              <g
                 id="g59740"
                 style="fill:#9f703a;fill-opacity:1">
                <path
                   d="M 510.606,278.946 C 503.63,211.522 470.958,145.538 418.606,93.186 309.582,-15.773 147.918,-31.485 58.254,58.274 c -89.728,89.728 -74.048,251.328 34.944,360.32 52.352,52.352 118.336,85.024 185.76,92 8.992,0.928 17.856,1.408 26.592,1.408 57.984,0 109.824,-20.32 148,-58.496 43.904,-43.872 64.192,-105.888 57.056,-174.56 z M 351.054,334.274 C 315.342,307.01 276.622,296.226 234.574,284.706 128.718,255.682 76.142,167.362 63.854,63.843 c 29.824,35.968 51.84,77.056 88.448,107.168 39.008,32.064 81.952,43.744 129.12,57.408 103.552,30.048 154.784,117.6 166.56,219.52 -32.32,-38.848 -56.032,-82.433 -96.928,-113.665 z"
                   id="path59738"
                   style="fill:#9f703a;fill-opacity:1" />
              </g>
            </g>
            <g
               id="g59744"
               style="fill:#9f703a;fill-opacity:1" />
            <g
               id="g59746"
               style="fill:#9f703a;fill-opacity:1" />
            <g
               id="g59748"
               style="fill:#9f703a;fill-opacity:1" />
            <g
               id="g59750"
               style="fill:#9f703a;fill-opacity:1" />
            <g
               id="g59752"
               style="fill:#9f703a;fill-opacity:1" />
            <g
               id="g59754"
               style="fill:#9f703a;fill-opacity:1" />
            <g
               id="g59756"
               style="fill:#9f703a;fill-opacity:1" />
            <g
               id="g59758"
               style="fill:#9f703a;fill-opacity:1" />
            <g
               id="g59760"
               style="fill:#9f703a;fill-opacity:1" />
            <g
               id="g59762"
               style="fill:#9f703a;fill-opacity:1" />
            <g
               id="g59764"
               style="fill:#9f703a;fill-opacity:1" />
            <g
               id="g59766"
               style="fill:#9f703a;fill-opacity:1" />
            <g
               id="g59768"
               style="fill:#9f703a;fill-opacity:1" />
            <g
               id="g59770"
               style="fill:#9f703a;fill-opacity:1" />
            <g
               id="g59772"
               style="fill:#9f703a;fill-opacity:1" />
          </g>
          <g
             id="g59812"
             transform="matrix(0.03046964,0,0,0.03046964,387.14315,376.77462)"
             style="fill:#9f703a;fill-opacity:1">
            <g
               id="g59780"
               style="fill:#9f703a;fill-opacity:1">
              <g
                 id="g59778"
                 style="fill:#9f703a;fill-opacity:1">
                <path
                   d="M 510.606,278.946 C 503.63,211.522 470.958,145.538 418.606,93.186 309.582,-15.773 147.918,-31.485 58.254,58.274 c -89.728,89.728 -74.048,251.328 34.944,360.32 52.352,52.352 118.336,85.024 185.76,92 8.992,0.928 17.856,1.408 26.592,1.408 57.984,0 109.824,-20.32 148,-58.496 43.904,-43.872 64.192,-105.888 57.056,-174.56 z M 351.054,334.274 C 315.342,307.01 276.622,296.226 234.574,284.706 128.718,255.682 76.142,167.362 63.854,63.843 c 29.824,35.968 51.84,77.056 88.448,107.168 39.008,32.064 81.952,43.744 129.12,57.408 103.552,30.048 154.784,117.6 166.56,219.52 -32.32,-38.848 -56.032,-82.433 -96.928,-113.665 z"
                   id="path59776"
                   style="fill:#9f703a;fill-opacity:1" />
              </g>
            </g>
            <g
               id="g59782"
               style="fill:#9f703a;fill-opacity:1" />
            <g
               id="g59784"
               style="fill:#9f703a;fill-opacity:1" />
            <g
               id="g59786"
               style="fill:#9f703a;fill-opacity:1" />
            <g
               id="g59788"
               style="fill:#9f703a;fill-opacity:1" />
            <g
               id="g59790"
               style="fill:#9f703a;fill-opacity:1" />
            <g
               id="g59792"
               style="fill:#9f703a;fill-opacity:1" />
            <g
               id="g59794"
               style="fill:#9f703a;fill-opacity:1" />
            <g
               id="g59796"
               style="fill:#9f703a;fill-opacity:1" />
            <g
               id="g59798"
               style="fill:#9f703a;fill-opacity:1" />
            <g
               id="g59800"
               style="fill:#9f703a;fill-opacity:1" />
            <g
               id="g59802"
               style="fill:#9f703a;fill-opacity:1" />
            <g
               id="g59804"
               style="fill:#9f703a;fill-opacity:1" />
            <g
               id="g59806"
               style="fill:#9f703a;fill-opacity:1" />
            <g
               id="g59808"
               style="fill:#9f703a;fill-opacity:1" />
            <g
               id="g59810"
               style="fill:#9f703a;fill-opacity:1" />
          </g>
          <g
             id="g59850"
             transform="matrix(0.0152376,0.0051573,-0.0051573,0.0152376,393.22844,392.31082)"
             style="fill:#9f703a;fill-opacity:1">
            <g
               id="g59818"
               style="fill:#9f703a;fill-opacity:1">
              <g
                 id="g59816"
                 style="fill:#9f703a;fill-opacity:1">
                <path
                   d="M 510.606,278.946 C 503.63,211.522 470.958,145.538 418.606,93.186 309.582,-15.773 147.918,-31.485 58.254,58.274 c -89.728,89.728 -74.048,251.328 34.944,360.32 52.352,52.352 118.336,85.024 185.76,92 8.992,0.928 17.856,1.408 26.592,1.408 57.984,0 109.824,-20.32 148,-58.496 43.904,-43.872 64.192,-105.888 57.056,-174.56 z M 351.054,334.274 C 315.342,307.01 276.622,296.226 234.574,284.706 128.718,255.682 76.142,167.362 63.854,63.843 c 29.824,35.968 51.84,77.056 88.448,107.168 39.008,32.064 81.952,43.744 129.12,57.408 103.552,30.048 154.784,117.6 166.56,219.52 -32.32,-38.848 -56.032,-82.433 -96.928,-113.665 z"
                   id="path59814"
                   style="fill:#9f703a;fill-opacity:1" />
              </g>
            </g>
            <g
               id="g59820"
               style="fill:#9f703a;fill-opacity:1" />
            <g
               id="g59822"
               style="fill:#9f703a;fill-opacity:1" />
            <g
               id="g59824"
               style="fill:#9f703a;fill-opacity:1" />
            <g
               id="g59826"
               style="fill:#9f703a;fill-opacity:1" />
            <g
               id="g59828"
               style="fill:#9f703a;fill-opacity:1" />
            <g
               id="g59830"
               style="fill:#9f703a;fill-opacity:1" />
            <g
               id="g59832"
               style="fill:#9f703a;fill-opacity:1" />
            <g
               id="g59834"
               style="fill:#9f703a;fill-opacity:1" />
            <g
               id="g59836"
               style="fill:#9f703a;fill-opacity:1" />
            <g
               id="g59838"
               style="fill:#9f703a;fill-opacity:1" />
            <g
               id="g59840"
               style="fill:#9f703a;fill-opacity:1" />
            <g
               id="g59842"
               style="fill:#9f703a;fill-opacity:1" />
            <g
               id="g59844"
               style="fill:#9f703a;fill-opacity:1" />
            <g
               id="g59846"
               style="fill:#9f703a;fill-opacity:1" />
            <g
               id="g59848"
               style="fill:#9f703a;fill-opacity:1" />
          </g>
          <g
             id="g59888"
             transform="matrix(0.00623052,0.02090863,-0.02090863,0.00623052,409.60334,386.07981)"
             style="fill:#9f703a;fill-opacity:1">
            <g
               id="g59856"
               style="fill:#9f703a;fill-opacity:1">
              <g
                 id="g59854"
                 style="fill:#9f703a;fill-opacity:1">
                <path
                   d="M 510.606,278.946 C 503.63,211.522 470.958,145.538 418.606,93.186 309.582,-15.773 147.918,-31.485 58.254,58.274 c -89.728,89.728 -74.048,251.328 34.944,360.32 52.352,52.352 118.336,85.024 185.76,92 8.992,0.928 17.856,1.408 26.592,1.408 57.984,0 109.824,-20.32 148,-58.496 43.904,-43.872 64.192,-105.888 57.056,-174.56 z M 351.054,334.274 C 315.342,307.01 276.622,296.226 234.574,284.706 128.718,255.682 76.142,167.362 63.854,63.843 c 29.824,35.968 51.84,77.056 88.448,107.168 39.008,32.064 81.952,43.744 129.12,57.408 103.552,30.048 154.784,117.6 166.56,219.52 -32.32,-38.848 -56.032,-82.433 -96.928,-113.665 z"
                   id="path59852"
                   style="fill:#9f703a;fill-opacity:1" />
              </g>
            </g>
            <g
               id="g59858"
               style="fill:#9f703a;fill-opacity:1" />
            <g
               id="g59860"
               style="fill:#9f703a;fill-opacity:1" />
            <g
               id="g59862"
               style="fill:#9f703a;fill-opacity:1" />
            <g
               id="g59864"
               style="fill:#9f703a;fill-opacity:1" />
            <g
               id="g59866"
               style="fill:#9f703a;fill-opacity:1" />
            <g
               id="g59868"
               style="fill:#9f703a;fill-opacity:1" />
            <g
               id="g59870"
               style="fill:#9f703a;fill-opacity:1" />
            <g
               id="g59872"
               style="fill:#9f703a;fill-opacity:1" />
            <g
               id="g59874"
               style="fill:#9f703a;fill-opacity:1" />
            <g
               id="g59876"
               style="fill:#9f703a;fill-opacity:1" />
            <g
               id="g59878"
               style="fill:#9f703a;fill-opacity:1" />
            <g
               id="g59880"
               style="fill:#9f703a;fill-opacity:1" />
            <g
               id="g59882"
               style="fill:#9f703a;fill-opacity:1" />
            <g
               id="g59884"
               style="fill:#9f703a;fill-opacity:1" />
            <g
               id="g59886"
               style="fill:#9f703a;fill-opacity:1" />
          </g>
          <g
             id="g59926"
             transform="matrix(0.03046964,0,0,0.03046964,387.14315,376.77462)"
             style="fill:#9f703a;fill-opacity:1">
            <g
               id="g59894"
               style="fill:#9f703a;fill-opacity:1">
              <g
                 id="g59892"
                 style="fill:#9f703a;fill-opacity:1">
                <path
                   d="M 510.606,278.946 C 503.63,211.522 470.958,145.538 418.606,93.186 309.582,-15.773 147.918,-31.485 58.254,58.274 c -89.728,89.728 -74.048,251.328 34.944,360.32 52.352,52.352 118.336,85.024 185.76,92 8.992,0.928 17.856,1.408 26.592,1.408 57.984,0 109.824,-20.32 148,-58.496 43.904,-43.872 64.192,-105.888 57.056,-174.56 z M 351.054,334.274 C 315.342,307.01 276.622,296.226 234.574,284.706 128.718,255.682 76.142,167.362 63.854,63.843 c 29.824,35.968 51.84,77.056 88.448,107.168 39.008,32.064 81.952,43.744 129.12,57.408 103.552,30.048 154.784,117.6 166.56,219.52 -32.32,-38.848 -56.032,-82.433 -96.928,-113.665 z"
                   id="path59890"
                   style="fill:#9f703a;fill-opacity:1" />
              </g>
            </g>
            <g
               id="g59896"
               style="fill:#9f703a;fill-opacity:1" />
            <g
               id="g59898"
               style="fill:#9f703a;fill-opacity:1" />
            <g
               id="g59900"
               style="fill:#9f703a;fill-opacity:1" />
            <g
               id="g59902"
               style="fill:#9f703a;fill-opacity:1" />
            <g
               id="g59904"
               style="fill:#9f703a;fill-opacity:1" />
            <g
               id="g59906"
               style="fill:#9f703a;fill-opacity:1" />
            <g
               id="g59908"
               style="fill:#9f703a;fill-opacity:1" />
            <g
               id="g59910"
               style="fill:#9f703a;fill-opacity:1" />
            <g
               id="g59912"
               style="fill:#9f703a;fill-opacity:1" />
            <g
               id="g59914"
               style="fill:#9f703a;fill-opacity:1" />
            <g
               id="g59916"
               style="fill:#9f703a;fill-opacity:1" />
            <g
               id="g59918"
               style="fill:#9f703a;fill-opacity:1" />
            <g
               id="g59920"
               style="fill:#9f703a;fill-opacity:1" />
            <g
               id="g59922"
               style="fill:#9f703a;fill-opacity:1" />
            <g
               id="g59924"
               style="fill:#9f703a;fill-opacity:1" />
          </g>
          <g
             id="g59964"
             transform="matrix(0.0152376,0.0051573,-0.0051573,0.0152376,393.22844,392.31082)"
             style="fill:#9f703a;fill-opacity:1">
            <g
               id="g59932"
               style="fill:#9f703a;fill-opacity:1">
              <g
                 id="g59930"
                 style="fill:#9f703a;fill-opacity:1">
                <path
                   d="M 510.606,278.946 C 503.63,211.522 470.958,145.538 418.606,93.186 309.582,-15.773 147.918,-31.485 58.254,58.274 c -89.728,89.728 -74.048,251.328 34.944,360.32 52.352,52.352 118.336,85.024 185.76,92 8.992,0.928 17.856,1.408 26.592,1.408 57.984,0 109.824,-20.32 148,-58.496 43.904,-43.872 64.192,-105.888 57.056,-174.56 z M 351.054,334.274 C 315.342,307.01 276.622,296.226 234.574,284.706 128.718,255.682 76.142,167.362 63.854,63.843 c 29.824,35.968 51.84,77.056 88.448,107.168 39.008,32.064 81.952,43.744 129.12,57.408 103.552,30.048 154.784,117.6 166.56,219.52 -32.32,-38.848 -56.032,-82.433 -96.928,-113.665 z"
                   id="path59928"
                   style="fill:#9f703a;fill-opacity:1" />
              </g>
            </g>
            <g
               id="g59934"
               style="fill:#9f703a;fill-opacity:1" />
            <g
               id="g59936"
               style="fill:#9f703a;fill-opacity:1" />
            <g
               id="g59938"
               style="fill:#9f703a;fill-opacity:1" />
            <g
               id="g59940"
               style="fill:#9f703a;fill-opacity:1" />
            <g
               id="g59942"
               style="fill:#9f703a;fill-opacity:1" />
            <g
               id="g59944"
               style="fill:#9f703a;fill-opacity:1" />
            <g
               id="g59946"
               style="fill:#9f703a;fill-opacity:1" />
            <g
               id="g59948"
               style="fill:#9f703a;fill-opacity:1" />
            <g
               id="g59950"
               style="fill:#9f703a;fill-opacity:1" />
            <g
               id="g59952"
               style="fill:#9f703a;fill-opacity:1" />
            <g
               id="g59954"
               style="fill:#9f703a;fill-opacity:1" />
            <g
               id="g59956"
               style="fill:#9f703a;fill-opacity:1" />
            <g
               id="g59958"
               style="fill:#9f703a;fill-opacity:1" />
            <g
               id="g59960"
               style="fill:#9f703a;fill-opacity:1" />
            <g
               id="g59962"
               style="fill:#9f703a;fill-opacity:1" />
          </g>
        </g>
        <ellipse
           style="opacity:1;fill:#4d4d4d;fill-opacity:1;stroke:#4d4d4d;stroke-width:0.132292;stroke-linecap:round;stroke-linejoin:round;stroke-miterlimit:4;stroke-dasharray:none;stroke-opacity:1;filter:url(#filter58708)"
           id="ellipse59968"
           cx="421.15054"
           cy="553.80597"
           rx="4.9609375"
           ry="0.29765624"
           transform="matrix(-1,0,0,1,842.24025,0)" />
      </g>
      <g
         id="g21619"
         transform="matrix(0.52879549,0,0,0.52879549,143.47014,279.12501)">
        <path
           style="fill:#3e3f41;fill-opacity:1;stroke:#3e3f41;stroke-width:0.264583px;stroke-linecap:butt;stroke-linejoin:miter;stroke-opacity:1"
           d="m 470.24737,563.04335 -4.76708,17.79096 0.38481,0.0254 4.74239,-17.6988 z"
           id="path21377" />
        <path
           style="fill:#000000;stroke:#000000;stroke-width:0.0673873px;stroke-linecap:butt;stroke-linejoin:miter;stroke-opacity:1"
           d="m 458.61454,576.36269 h 0.52089 l 0.0651,-0.36615 z"
           id="path21379" />
        <path
           style="fill:#000000;stroke:#000000;stroke-width:0.0709241px;stroke-linecap:butt;stroke-linejoin:miter;stroke-opacity:1"
           d="m 471.77093,585.20261 c -0.0251,-0.006 -0.52658,0.0125 -0.52658,0.0125 l 0.0878,-0.21941 0.0878,0.0126 0.0564,0.0188 0.0627,0.0313 0.0627,0.0313 0.1003,0.0752 z"
           id="path21381" />
        <path
           style="fill:#3e3f41;fill-opacity:1;stroke:#3e3f41;stroke-width:0.283696;stroke-linecap:butt;stroke-linejoin:miter;stroke-opacity:1"
           d="m 458.69799,571.5249 1.91355,18.93932 h 10.00031 l 2.05681,-18.93675 z"
           id="path21383" />
        <path
           style="fill:#fbf0da;fill-opacity:1;stroke:#3e3f41;stroke-width:0.267707;stroke-linecap:butt;stroke-linejoin:miter;stroke-opacity:1"
           d="m 458.66334,576.50907 c 4.65358,0 9.9618,-2.94588 13.96074,0 l -0.94649,8.4711 c -2.17486,-1.30923 -7.7431,2.69273 -12.16241,0 z"
           id="path21385"
           sodipodi:nodetypes="ccccc" />
        <path
           style="fill:#3e3f41;fill-opacity:1;stroke:#fbf0da;stroke-width:0.283696;stroke-linecap:butt;stroke-linejoin:miter;stroke-opacity:1"
           d="m 457.34391,571.4246 c 0.0621,-0.28084 -0.0483,-1.86178 1.85559,-1.75529 h 12.9891 c 1.748,-0.0188 1.64871,1.32019 1.70513,1.70514 z"
           id="path21387"
           sodipodi:nodetypes="ccccc" />
        <g
           id="g21425"
           transform="matrix(0.00167015,0.00560477,-0.00560477,0.00167015,465.75485,579.82548)"
           style="fill:#9f703a;fill-opacity:1">
          <g
             id="g21393"
             style="fill:#9f703a;fill-opacity:1">
            <g
               id="g21391"
               style="fill:#9f703a;fill-opacity:1">
              <path
                 d="M 510.606,278.946 C 503.63,211.522 470.958,145.538 418.606,93.186 309.582,-15.773 147.918,-31.485 58.254,58.274 c -89.728,89.728 -74.048,251.328 34.944,360.32 52.352,52.352 118.336,85.024 185.76,92 8.992,0.928 17.856,1.408 26.592,1.408 57.984,0 109.824,-20.32 148,-58.496 43.904,-43.872 64.192,-105.888 57.056,-174.56 z M 351.054,334.274 C 315.342,307.01 276.622,296.226 234.574,284.706 128.718,255.682 76.142,167.362 63.854,63.843 c 29.824,35.968 51.84,77.056 88.448,107.168 39.008,32.064 81.952,43.744 129.12,57.408 103.552,30.048 154.784,117.6 166.56,219.52 -32.32,-38.848 -56.032,-82.433 -96.928,-113.665 z"
                 id="path21389"
                 style="fill:#9f703a;fill-opacity:1" />
            </g>
          </g>
          <g
             id="g21395"
             style="fill:#9f703a;fill-opacity:1" />
          <g
             id="g21397"
             style="fill:#9f703a;fill-opacity:1" />
          <g
             id="g21399"
             style="fill:#9f703a;fill-opacity:1" />
          <g
             id="g21401"
             style="fill:#9f703a;fill-opacity:1" />
          <g
             id="g21403"
             style="fill:#9f703a;fill-opacity:1" />
          <g
             id="g21405"
             style="fill:#9f703a;fill-opacity:1" />
          <g
             id="g21407"
             style="fill:#9f703a;fill-opacity:1" />
          <g
             id="g21409"
             style="fill:#9f703a;fill-opacity:1" />
          <g
             id="g21411"
             style="fill:#9f703a;fill-opacity:1" />
          <g
             id="g21413"
             style="fill:#9f703a;fill-opacity:1" />
          <g
             id="g21415"
             style="fill:#9f703a;fill-opacity:1" />
          <g
             id="g21417"
             style="fill:#9f703a;fill-opacity:1" />
          <g
             id="g21419"
             style="fill:#9f703a;fill-opacity:1" />
          <g
             id="g21421"
             style="fill:#9f703a;fill-opacity:1" />
          <g
             id="g21423"
             style="fill:#9f703a;fill-opacity:1" />
        </g>
        <g
           id="g21463"
           transform="matrix(0.00816769,0,0,0.00816769,459.73417,577.33113)"
           style="fill:#9f703a;fill-opacity:1">
          <g
             id="g21431"
             style="fill:#9f703a;fill-opacity:1">
            <g
               id="g21429"
               style="fill:#9f703a;fill-opacity:1">
              <path
                 d="M 510.606,278.946 C 503.63,211.522 470.958,145.538 418.606,93.186 309.582,-15.773 147.918,-31.485 58.254,58.274 c -89.728,89.728 -74.048,251.328 34.944,360.32 52.352,52.352 118.336,85.024 185.76,92 8.992,0.928 17.856,1.408 26.592,1.408 57.984,0 109.824,-20.32 148,-58.496 43.904,-43.872 64.192,-105.888 57.056,-174.56 z M 351.054,334.274 C 315.342,307.01 276.622,296.226 234.574,284.706 128.718,255.682 76.142,167.362 63.854,63.843 c 29.824,35.968 51.84,77.056 88.448,107.168 39.008,32.064 81.952,43.744 129.12,57.408 103.552,30.048 154.784,117.6 166.56,219.52 -32.32,-38.848 -56.032,-82.433 -96.928,-113.665 z"
                 id="path21427"
                 style="fill:#9f703a;fill-opacity:1" />
            </g>
          </g>
          <g
             id="g21433"
             style="fill:#9f703a;fill-opacity:1" />
          <g
             id="g21435"
             style="fill:#9f703a;fill-opacity:1" />
          <g
             id="g21437"
             style="fill:#9f703a;fill-opacity:1" />
          <g
             id="g21439"
             style="fill:#9f703a;fill-opacity:1" />
          <g
             id="g21441"
             style="fill:#9f703a;fill-opacity:1" />
          <g
             id="g21443"
             style="fill:#9f703a;fill-opacity:1" />
          <g
             id="g21445"
             style="fill:#9f703a;fill-opacity:1" />
          <g
             id="g21447"
             style="fill:#9f703a;fill-opacity:1" />
          <g
             id="g21449"
             style="fill:#9f703a;fill-opacity:1" />
          <g
             id="g21451"
             style="fill:#9f703a;fill-opacity:1" />
          <g
             id="g21453"
             style="fill:#9f703a;fill-opacity:1" />
          <g
             id="g21455"
             style="fill:#9f703a;fill-opacity:1" />
          <g
             id="g21457"
             style="fill:#9f703a;fill-opacity:1" />
          <g
             id="g21459"
             style="fill:#9f703a;fill-opacity:1" />
          <g
             id="g21461"
             style="fill:#9f703a;fill-opacity:1" />
        </g>
        <g
           id="g21501"
           transform="matrix(0.00408459,0.00138247,-0.00138247,0.00408459,461.3654,581.49576)"
           style="fill:#9f703a;fill-opacity:1">
          <g
             id="g21469"
             style="fill:#9f703a;fill-opacity:1">
            <g
               id="g21467"
               style="fill:#9f703a;fill-opacity:1">
              <path
                 d="M 510.606,278.946 C 503.63,211.522 470.958,145.538 418.606,93.186 309.582,-15.773 147.918,-31.485 58.254,58.274 c -89.728,89.728 -74.048,251.328 34.944,360.32 52.352,52.352 118.336,85.024 185.76,92 8.992,0.928 17.856,1.408 26.592,1.408 57.984,0 109.824,-20.32 148,-58.496 43.904,-43.872 64.192,-105.888 57.056,-174.56 z M 351.054,334.274 C 315.342,307.01 276.622,296.226 234.574,284.706 128.718,255.682 76.142,167.362 63.854,63.843 c 29.824,35.968 51.84,77.056 88.448,107.168 39.008,32.064 81.952,43.744 129.12,57.408 103.552,30.048 154.784,117.6 166.56,219.52 -32.32,-38.848 -56.032,-82.433 -96.928,-113.665 z"
                 id="path21465"
                 style="fill:#9f703a;fill-opacity:1" />
            </g>
          </g>
          <g
             id="g21471"
             style="fill:#9f703a;fill-opacity:1" />
          <g
             id="g21473"
             style="fill:#9f703a;fill-opacity:1" />
          <g
             id="g21475"
             style="fill:#9f703a;fill-opacity:1" />
          <g
             id="g21477"
             style="fill:#9f703a;fill-opacity:1" />
          <g
             id="g21479"
             style="fill:#9f703a;fill-opacity:1" />
          <g
             id="g21481"
             style="fill:#9f703a;fill-opacity:1" />
          <g
             id="g21483"
             style="fill:#9f703a;fill-opacity:1" />
          <g
             id="g21485"
             style="fill:#9f703a;fill-opacity:1" />
          <g
             id="g21487"
             style="fill:#9f703a;fill-opacity:1" />
          <g
             id="g21489"
             style="fill:#9f703a;fill-opacity:1" />
          <g
             id="g21491"
             style="fill:#9f703a;fill-opacity:1" />
          <g
             id="g21493"
             style="fill:#9f703a;fill-opacity:1" />
          <g
             id="g21495"
             style="fill:#9f703a;fill-opacity:1" />
          <g
             id="g21497"
             style="fill:#9f703a;fill-opacity:1" />
          <g
             id="g21499"
             style="fill:#9f703a;fill-opacity:1" />
        </g>
        <g
           id="g21539"
           transform="matrix(0.00167015,0.00560477,-0.00560477,0.00167015,465.75485,579.82548)"
           style="fill:#9f703a;fill-opacity:1">
          <g
             id="g21507"
             style="fill:#9f703a;fill-opacity:1">
            <g
               id="g21505"
               style="fill:#9f703a;fill-opacity:1">
              <path
                 d="M 510.606,278.946 C 503.63,211.522 470.958,145.538 418.606,93.186 309.582,-15.773 147.918,-31.485 58.254,58.274 c -89.728,89.728 -74.048,251.328 34.944,360.32 52.352,52.352 118.336,85.024 185.76,92 8.992,0.928 17.856,1.408 26.592,1.408 57.984,0 109.824,-20.32 148,-58.496 43.904,-43.872 64.192,-105.888 57.056,-174.56 z M 351.054,334.274 C 315.342,307.01 276.622,296.226 234.574,284.706 128.718,255.682 76.142,167.362 63.854,63.843 c 29.824,35.968 51.84,77.056 88.448,107.168 39.008,32.064 81.952,43.744 129.12,57.408 103.552,30.048 154.784,117.6 166.56,219.52 -32.32,-38.848 -56.032,-82.433 -96.928,-113.665 z"
                 id="path21503"
                 style="fill:#9f703a;fill-opacity:1" />
            </g>
          </g>
          <g
             id="g21509"
             style="fill:#9f703a;fill-opacity:1" />
          <g
             id="g21511"
             style="fill:#9f703a;fill-opacity:1" />
          <g
             id="g21513"
             style="fill:#9f703a;fill-opacity:1" />
          <g
             id="g21515"
             style="fill:#9f703a;fill-opacity:1" />
          <g
             id="g21517"
             style="fill:#9f703a;fill-opacity:1" />
          <g
             id="g21519"
             style="fill:#9f703a;fill-opacity:1" />
          <g
             id="g21521"
             style="fill:#9f703a;fill-opacity:1" />
          <g
             id="g21523"
             style="fill:#9f703a;fill-opacity:1" />
          <g
             id="g21525"
             style="fill:#9f703a;fill-opacity:1" />
          <g
             id="g21527"
             style="fill:#9f703a;fill-opacity:1" />
          <g
             id="g21529"
             style="fill:#9f703a;fill-opacity:1" />
          <g
             id="g21531"
             style="fill:#9f703a;fill-opacity:1" />
          <g
             id="g21533"
             style="fill:#9f703a;fill-opacity:1" />
          <g
             id="g21535"
             style="fill:#9f703a;fill-opacity:1" />
          <g
             id="g21537"
             style="fill:#9f703a;fill-opacity:1" />
        </g>
        <g
           id="g21577"
           transform="matrix(0.00816769,0,0,0.00816769,459.73417,577.33113)"
           style="fill:#9f703a;fill-opacity:1">
          <g
             id="g21545"
             style="fill:#9f703a;fill-opacity:1">
            <g
               id="g21543"
               style="fill:#9f703a;fill-opacity:1">
              <path
                 d="M 510.606,278.946 C 503.63,211.522 470.958,145.538 418.606,93.186 309.582,-15.773 147.918,-31.485 58.254,58.274 c -89.728,89.728 -74.048,251.328 34.944,360.32 52.352,52.352 118.336,85.024 185.76,92 8.992,0.928 17.856,1.408 26.592,1.408 57.984,0 109.824,-20.32 148,-58.496 43.904,-43.872 64.192,-105.888 57.056,-174.56 z M 351.054,334.274 C 315.342,307.01 276.622,296.226 234.574,284.706 128.718,255.682 76.142,167.362 63.854,63.843 c 29.824,35.968 51.84,77.056 88.448,107.168 39.008,32.064 81.952,43.744 129.12,57.408 103.552,30.048 154.784,117.6 166.56,219.52 -32.32,-38.848 -56.032,-82.433 -96.928,-113.665 z"
                 id="path21541"
                 style="fill:#9f703a;fill-opacity:1" />
            </g>
          </g>
          <g
             id="g21547"
             style="fill:#9f703a;fill-opacity:1" />
          <g
             id="g21549"
             style="fill:#9f703a;fill-opacity:1" />
          <g
             id="g21551"
             style="fill:#9f703a;fill-opacity:1" />
          <g
             id="g21553"
             style="fill:#9f703a;fill-opacity:1" />
          <g
             id="g21555"
             style="fill:#9f703a;fill-opacity:1" />
          <g
             id="g21557"
             style="fill:#9f703a;fill-opacity:1" />
          <g
             id="g21559"
             style="fill:#9f703a;fill-opacity:1" />
          <g
             id="g21561"
             style="fill:#9f703a;fill-opacity:1" />
          <g
             id="g21563"
             style="fill:#9f703a;fill-opacity:1" />
          <g
             id="g21565"
             style="fill:#9f703a;fill-opacity:1" />
          <g
             id="g21567"
             style="fill:#9f703a;fill-opacity:1" />
          <g
             id="g21569"
             style="fill:#9f703a;fill-opacity:1" />
          <g
             id="g21571"
             style="fill:#9f703a;fill-opacity:1" />
          <g
             id="g21573"
             style="fill:#9f703a;fill-opacity:1" />
          <g
             id="g21575"
             style="fill:#9f703a;fill-opacity:1" />
        </g>
        <g
           id="g21615"
           transform="matrix(0.00408459,0.00138247,-0.00138247,0.00408459,461.3654,581.49576)"
           style="fill:#9f703a;fill-opacity:1">
          <g
             id="g21583"
             style="fill:#9f703a;fill-opacity:1">
            <g
               id="g21581"
               style="fill:#9f703a;fill-opacity:1">
              <path
                 d="M 510.606,278.946 C 503.63,211.522 470.958,145.538 418.606,93.186 309.582,-15.773 147.918,-31.485 58.254,58.274 c -89.728,89.728 -74.048,251.328 34.944,360.32 52.352,52.352 118.336,85.024 185.76,92 8.992,0.928 17.856,1.408 26.592,1.408 57.984,0 109.824,-20.32 148,-58.496 43.904,-43.872 64.192,-105.888 57.056,-174.56 z M 351.054,334.274 C 315.342,307.01 276.622,296.226 234.574,284.706 128.718,255.682 76.142,167.362 63.854,63.843 c 29.824,35.968 51.84,77.056 88.448,107.168 39.008,32.064 81.952,43.744 129.12,57.408 103.552,30.048 154.784,117.6 166.56,219.52 -32.32,-38.848 -56.032,-82.433 -96.928,-113.665 z"
                 id="path21579"
                 style="fill:#9f703a;fill-opacity:1" />
            </g>
          </g>
          <g
             id="g21585"
             style="fill:#9f703a;fill-opacity:1" />
          <g
             id="g21587"
             style="fill:#9f703a;fill-opacity:1" />
          <g
             id="g21589"
             style="fill:#9f703a;fill-opacity:1" />
          <g
             id="g21591"
             style="fill:#9f703a;fill-opacity:1" />
          <g
             id="g21593"
             style="fill:#9f703a;fill-opacity:1" />
          <g
             id="g21595"
             style="fill:#9f703a;fill-opacity:1" />
          <g
             id="g21597"
             style="fill:#9f703a;fill-opacity:1" />
          <g
             id="g21599"
             style="fill:#9f703a;fill-opacity:1" />
          <g
             id="g21601"
             style="fill:#9f703a;fill-opacity:1" />
          <g
             id="g21603"
             style="fill:#9f703a;fill-opacity:1" />
          <g
             id="g21605"
             style="fill:#9f703a;fill-opacity:1" />
          <g
             id="g21607"
             style="fill:#9f703a;fill-opacity:1" />
          <g
             id="g21609"
             style="fill:#9f703a;fill-opacity:1" />
          <g
             id="g21611"
             style="fill:#9f703a;fill-opacity:1" />
          <g
             id="g21613"
             style="fill:#9f703a;fill-opacity:1" />
        </g>
        <ellipse
           style="fill:#4d4d4d;fill-opacity:1;stroke:#4d4d4d;stroke-width:0.132292;stroke-linecap:round;stroke-linejoin:round;stroke-miterlimit:4;stroke-dasharray:none;stroke-opacity:1;filter:url(#filter58708)"
           id="ellipse21617"
           cx="437.02551"
           cy="553.80597"
           rx="4.9609375"
           ry="0.29765624"
           transform="matrix(1.207029,0,0,1.207029,-61.853335,-76.428448)" />
      </g>
    </g>
  </g>
</svg>
