<?xml version="1.0" encoding="UTF-8" standalone="no"?>
<svg
   xmlns:dc="http://purl.org/dc/elements/1.1/"
   xmlns:cc="http://creativecommons.org/ns#"
   xmlns:rdf="http://www.w3.org/1999/02/22-rdf-syntax-ns#"
   xmlns:svg="http://www.w3.org/2000/svg"
   xmlns="http://www.w3.org/2000/svg"
   xmlns:sodipodi="http://sodipodi.sourceforge.net/DTD/sodipodi-0.dtd"
   xmlns:inkscape="http://www.inkscape.org/namespaces/inkscape"
   width="105"
   height="99.5"
   viewBox="0 0 27.78125 26.326042"
   version="1.1"
   id="svg23261"
   inkscape:version="1.0.2 (e86c870879, 2021-01-15, custom)"
   sodipodi:docname="mugs_xl.svg">
  <defs
     id="defs23255">
    <filter
       inkscape:collect="always"
       style="color-interpolation-filters:sRGB"
       id="filter58708"
       x="-0.037737671"
       width="1.0754753"
       y="-0.62896121"
       height="2.2579224">
      <feGaussianBlur
         inkscape:collect="always"
         stdDeviation="0.15601186"
         id="feGaussianBlur58710" />
    </filter>
  </defs>
  <sodipodi:namedview
     id="base"
     pagecolor="#ffffff"
     bordercolor="#666666"
     borderopacity="1.0"
     inkscape:pageopacity="0.0"
     inkscape:pageshadow="2"
     inkscape:zoom="3.959798"
     inkscape:cx="89.868739"
     inkscape:cy="62.573065"
     inkscape:document-units="px"
     inkscape:current-layer="layer1"
     inkscape:document-rotation="0"
     showgrid="false"
     inkscape:window-width="1267"
     inkscape:window-height="728"
     inkscape:window-x="78"
     inkscape:window-y="0"
     inkscape:window-maximized="0" />
  <metadata
     id="metadata23258">
    <rdf:RDF>
      <cc:Work
         rdf:about="">
        <dc:format>image/svg+xml</dc:format>
        <dc:type
           rdf:resource="http://purl.org/dc/dcmitype/StillImage" />
        <dc:title></dc:title>
      </cc:Work>
    </rdf:RDF>
  </metadata>
  <g
     inkscape:label="Layer 1"
     inkscape:groupmode="layer"
     id="layer1">
    <g
       id="g22249"
       transform="translate(-435.60345,-566.3672)">
      <g
         id="g9651"
         transform="translate(9.184535,3.7041668)">
        <path
           style="fill:#000000;stroke:#000000;stroke-width:0.0673873px;stroke-linecap:butt;stroke-linejoin:miter;stroke-opacity:1"
           d="m 439.06377,572.65852 h 0.52089 l 0.0651,-0.36615 z"
           id="path59972" />
        <path
           style="fill:#000000;stroke:#000000;stroke-width:0.0709241px;stroke-linecap:butt;stroke-linejoin:miter;stroke-opacity:1"
           d="m 452.22016,581.49844 c -0.0251,-0.006 -0.52658,0.0125 -0.52658,0.0125 l 0.0878,-0.21941 0.0878,0.0126 0.0564,0.0188 0.0627,0.0313 0.0627,0.0313 0.1003,0.0752 z"
           id="path59974" />
        <path
           style="fill:none;stroke:#3e3f41;stroke-width:0.283696;stroke-linecap:butt;stroke-linejoin:miter;stroke-opacity:1"
           d="m 439.14722,567.82073 1.91355,18.93932 h 10.00031 l 2.05681,-18.93675 z"
           id="path59976" />
        <path
           style="fill:#3e3f41;fill-opacity:1;stroke:#3e3f41;stroke-width:0.267707;stroke-linecap:butt;stroke-linejoin:miter;stroke-opacity:1"
           d="m 439.11257,572.8049 c 4.65358,0 9.9618,-2.94588 13.96074,0 l -0.94649,8.4711 c -2.17486,-1.30923 -7.7431,2.69273 -12.16241,0 z"
           id="path59978"
           sodipodi:nodetypes="ccccc" />
        <path
           style="fill:none;stroke:#3e3f41;stroke-width:0.283696;stroke-linecap:butt;stroke-linejoin:miter;stroke-opacity:1"
           d="m 437.79314,567.72043 c 0.0621,-0.28084 -0.0483,-1.86178 1.85559,-1.75529 h 12.9891 c 1.748,-0.0188 1.64871,1.32019 1.70513,1.70514 z"
           id="path59980"
           sodipodi:nodetypes="ccccc" />
        <path
           style="fill:none;stroke:#3e3f41;stroke-width:0.283696;stroke-linecap:butt;stroke-linejoin:miter;stroke-opacity:1"
           d="m 439.7478,565.86865 c 0.1943,-0.57916 0.022,-1.59369 1.88164,-1.47327 h 9.13431 c 0.92175,-0.10522 1.68244,0.761 1.52508,1.50497 z"
           id="path59982"
           sodipodi:nodetypes="ccccc" />
        <path
           style="fill:none;stroke:#3e3f41;stroke-width:0.283696;stroke-linecap:butt;stroke-linejoin:miter;stroke-opacity:1"
           d="m 447.30279,564.31016 h 3.25982 c -0.27518,-0.2537 0.099,-0.6796 -1.00302,-1.25378 h -1.70513 c -0.2124,0.0934 -0.59314,-0.1498 -0.55167,0.45137 z"
           id="path59984"
           sodipodi:nodetypes="cccccc" />
        <g
           id="g60022"
           transform="matrix(0.00167015,0.00560477,-0.00560477,0.00167015,446.20408,576.12131)"
           style="fill:#9f703a;fill-opacity:1">
          <g
             id="g59990"
             style="fill:#9f703a;fill-opacity:1">
            <g
               id="g59988"
               style="fill:#9f703a;fill-opacity:1">
              <path
                 d="M 510.606,278.946 C 503.63,211.522 470.958,145.538 418.606,93.186 309.582,-15.773 147.918,-31.485 58.254,58.274 c -89.728,89.728 -74.048,251.328 34.944,360.32 52.352,52.352 118.336,85.024 185.76,92 8.992,0.928 17.856,1.408 26.592,1.408 57.984,0 109.824,-20.32 148,-58.496 43.904,-43.872 64.192,-105.888 57.056,-174.56 z M 351.054,334.274 C 315.342,307.01 276.622,296.226 234.574,284.706 128.718,255.682 76.142,167.362 63.854,63.843 c 29.824,35.968 51.84,77.056 88.448,107.168 39.008,32.064 81.952,43.744 129.12,57.408 103.552,30.048 154.784,117.6 166.56,219.52 -32.32,-38.848 -56.032,-82.433 -96.928,-113.665 z"
                 id="path59986"
                 style="fill:#9f703a;fill-opacity:1" />
            </g>
          </g>
          <g
             id="g59992"
             style="fill:#9f703a;fill-opacity:1" />
          <g
             id="g59994"
             style="fill:#9f703a;fill-opacity:1" />
          <g
             id="g59996"
             style="fill:#9f703a;fill-opacity:1" />
          <g
             id="g59998"
             style="fill:#9f703a;fill-opacity:1" />
          <g
             id="g60000"
             style="fill:#9f703a;fill-opacity:1" />
          <g
             id="g60002"
             style="fill:#9f703a;fill-opacity:1" />
          <g
             id="g60004"
             style="fill:#9f703a;fill-opacity:1" />
          <g
             id="g60006"
             style="fill:#9f703a;fill-opacity:1" />
          <g
             id="g60008"
             style="fill:#9f703a;fill-opacity:1" />
          <g
             id="g60010"
             style="fill:#9f703a;fill-opacity:1" />
          <g
             id="g60012"
             style="fill:#9f703a;fill-opacity:1" />
          <g
             id="g60014"
             style="fill:#9f703a;fill-opacity:1" />
          <g
             id="g60016"
             style="fill:#9f703a;fill-opacity:1" />
          <g
             id="g60018"
             style="fill:#9f703a;fill-opacity:1" />
          <g
             id="g60020"
             style="fill:#9f703a;fill-opacity:1" />
        </g>
        <g
           id="g60060"
           transform="matrix(0.00816769,0,0,0.00816769,440.1834,573.62696)"
           style="fill:#9f703a;fill-opacity:1">
          <g
             id="g60028"
             style="fill:#9f703a;fill-opacity:1">
            <g
               id="g60026"
               style="fill:#9f703a;fill-opacity:1">
              <path
                 d="M 510.606,278.946 C 503.63,211.522 470.958,145.538 418.606,93.186 309.582,-15.773 147.918,-31.485 58.254,58.274 c -89.728,89.728 -74.048,251.328 34.944,360.32 52.352,52.352 118.336,85.024 185.76,92 8.992,0.928 17.856,1.408 26.592,1.408 57.984,0 109.824,-20.32 148,-58.496 43.904,-43.872 64.192,-105.888 57.056,-174.56 z M 351.054,334.274 C 315.342,307.01 276.622,296.226 234.574,284.706 128.718,255.682 76.142,167.362 63.854,63.843 c 29.824,35.968 51.84,77.056 88.448,107.168 39.008,32.064 81.952,43.744 129.12,57.408 103.552,30.048 154.784,117.6 166.56,219.52 -32.32,-38.848 -56.032,-82.433 -96.928,-113.665 z"
                 id="path60024"
                 style="fill:#9f703a;fill-opacity:1" />
            </g>
          </g>
          <g
             id="g60030"
             style="fill:#9f703a;fill-opacity:1" />
          <g
             id="g60032"
             style="fill:#9f703a;fill-opacity:1" />
          <g
             id="g60034"
             style="fill:#9f703a;fill-opacity:1" />
          <g
             id="g60036"
             style="fill:#9f703a;fill-opacity:1" />
          <g
             id="g60038"
             style="fill:#9f703a;fill-opacity:1" />
          <g
             id="g60040"
             style="fill:#9f703a;fill-opacity:1" />
          <g
             id="g60042"
             style="fill:#9f703a;fill-opacity:1" />
          <g
             id="g60044"
             style="fill:#9f703a;fill-opacity:1" />
          <g
             id="g60046"
             style="fill:#9f703a;fill-opacity:1" />
          <g
             id="g60048"
             style="fill:#9f703a;fill-opacity:1" />
          <g
             id="g60050"
             style="fill:#9f703a;fill-opacity:1" />
          <g
             id="g60052"
             style="fill:#9f703a;fill-opacity:1" />
          <g
             id="g60054"
             style="fill:#9f703a;fill-opacity:1" />
          <g
             id="g60056"
             style="fill:#9f703a;fill-opacity:1" />
          <g
             id="g60058"
             style="fill:#9f703a;fill-opacity:1" />
        </g>
        <g
           id="g60098"
           transform="matrix(0.00408459,0.00138247,-0.00138247,0.00408459,441.81463,577.79159)"
           style="fill:#9f703a;fill-opacity:1">
          <g
             id="g60066"
             style="fill:#9f703a;fill-opacity:1">
            <g
               id="g60064"
               style="fill:#9f703a;fill-opacity:1">
              <path
                 d="M 510.606,278.946 C 503.63,211.522 470.958,145.538 418.606,93.186 309.582,-15.773 147.918,-31.485 58.254,58.274 c -89.728,89.728 -74.048,251.328 34.944,360.32 52.352,52.352 118.336,85.024 185.76,92 8.992,0.928 17.856,1.408 26.592,1.408 57.984,0 109.824,-20.32 148,-58.496 43.904,-43.872 64.192,-105.888 57.056,-174.56 z M 351.054,334.274 C 315.342,307.01 276.622,296.226 234.574,284.706 128.718,255.682 76.142,167.362 63.854,63.843 c 29.824,35.968 51.84,77.056 88.448,107.168 39.008,32.064 81.952,43.744 129.12,57.408 103.552,30.048 154.784,117.6 166.56,219.52 -32.32,-38.848 -56.032,-82.433 -96.928,-113.665 z"
                 id="path60062"
                 style="fill:#9f703a;fill-opacity:1" />
            </g>
          </g>
          <g
             id="g60068"
             style="fill:#9f703a;fill-opacity:1" />
          <g
             id="g60070"
             style="fill:#9f703a;fill-opacity:1" />
          <g
             id="g60072"
             style="fill:#9f703a;fill-opacity:1" />
          <g
             id="g60074"
             style="fill:#9f703a;fill-opacity:1" />
          <g
             id="g60076"
             style="fill:#9f703a;fill-opacity:1" />
          <g
             id="g60078"
             style="fill:#9f703a;fill-opacity:1" />
          <g
             id="g60080"
             style="fill:#9f703a;fill-opacity:1" />
          <g
             id="g60082"
             style="fill:#9f703a;fill-opacity:1" />
          <g
             id="g60084"
             style="fill:#9f703a;fill-opacity:1" />
          <g
             id="g60086"
             style="fill:#9f703a;fill-opacity:1" />
          <g
             id="g60088"
             style="fill:#9f703a;fill-opacity:1" />
          <g
             id="g60090"
             style="fill:#9f703a;fill-opacity:1" />
          <g
             id="g60092"
             style="fill:#9f703a;fill-opacity:1" />
          <g
             id="g60094"
             style="fill:#9f703a;fill-opacity:1" />
          <g
             id="g60096"
             style="fill:#9f703a;fill-opacity:1" />
        </g>
        <g
           id="g60136"
           transform="matrix(0.00167015,0.00560477,-0.00560477,0.00167015,446.20408,576.12131)"
           style="fill:#9f703a;fill-opacity:1">
          <g
             id="g60104"
             style="fill:#9f703a;fill-opacity:1">
            <g
               id="g60102"
               style="fill:#9f703a;fill-opacity:1">
              <path
                 d="M 510.606,278.946 C 503.63,211.522 470.958,145.538 418.606,93.186 309.582,-15.773 147.918,-31.485 58.254,58.274 c -89.728,89.728 -74.048,251.328 34.944,360.32 52.352,52.352 118.336,85.024 185.76,92 8.992,0.928 17.856,1.408 26.592,1.408 57.984,0 109.824,-20.32 148,-58.496 43.904,-43.872 64.192,-105.888 57.056,-174.56 z M 351.054,334.274 C 315.342,307.01 276.622,296.226 234.574,284.706 128.718,255.682 76.142,167.362 63.854,63.843 c 29.824,35.968 51.84,77.056 88.448,107.168 39.008,32.064 81.952,43.744 129.12,57.408 103.552,30.048 154.784,117.6 166.56,219.52 -32.32,-38.848 -56.032,-82.433 -96.928,-113.665 z"
                 id="path60100"
                 style="fill:#9f703a;fill-opacity:1" />
            </g>
          </g>
          <g
             id="g60106"
             style="fill:#9f703a;fill-opacity:1" />
          <g
             id="g60108"
             style="fill:#9f703a;fill-opacity:1" />
          <g
             id="g60110"
             style="fill:#9f703a;fill-opacity:1" />
          <g
             id="g60112"
             style="fill:#9f703a;fill-opacity:1" />
          <g
             id="g60114"
             style="fill:#9f703a;fill-opacity:1" />
          <g
             id="g60116"
             style="fill:#9f703a;fill-opacity:1" />
          <g
             id="g60118"
             style="fill:#9f703a;fill-opacity:1" />
          <g
             id="g60120"
             style="fill:#9f703a;fill-opacity:1" />
          <g
             id="g60122"
             style="fill:#9f703a;fill-opacity:1" />
          <g
             id="g60124"
             style="fill:#9f703a;fill-opacity:1" />
          <g
             id="g60126"
             style="fill:#9f703a;fill-opacity:1" />
          <g
             id="g60128"
             style="fill:#9f703a;fill-opacity:1" />
          <g
             id="g60130"
             style="fill:#9f703a;fill-opacity:1" />
          <g
             id="g60132"
             style="fill:#9f703a;fill-opacity:1" />
          <g
             id="g60134"
             style="fill:#9f703a;fill-opacity:1" />
        </g>
        <g
           id="g60174"
           transform="matrix(0.00816769,0,0,0.00816769,440.1834,573.62696)"
           style="fill:#9f703a;fill-opacity:1">
          <g
             id="g60142"
             style="fill:#9f703a;fill-opacity:1">
            <g
               id="g60140"
               style="fill:#9f703a;fill-opacity:1">
              <path
                 d="M 510.606,278.946 C 503.63,211.522 470.958,145.538 418.606,93.186 309.582,-15.773 147.918,-31.485 58.254,58.274 c -89.728,89.728 -74.048,251.328 34.944,360.32 52.352,52.352 118.336,85.024 185.76,92 8.992,0.928 17.856,1.408 26.592,1.408 57.984,0 109.824,-20.32 148,-58.496 43.904,-43.872 64.192,-105.888 57.056,-174.56 z M 351.054,334.274 C 315.342,307.01 276.622,296.226 234.574,284.706 128.718,255.682 76.142,167.362 63.854,63.843 c 29.824,35.968 51.84,77.056 88.448,107.168 39.008,32.064 81.952,43.744 129.12,57.408 103.552,30.048 154.784,117.6 166.56,219.52 -32.32,-38.848 -56.032,-82.433 -96.928,-113.665 z"
                 id="path60138"
                 style="fill:#9f703a;fill-opacity:1" />
            </g>
          </g>
          <g
             id="g60144"
             style="fill:#9f703a;fill-opacity:1" />
          <g
             id="g60146"
             style="fill:#9f703a;fill-opacity:1" />
          <g
             id="g60148"
             style="fill:#9f703a;fill-opacity:1" />
          <g
             id="g60150"
             style="fill:#9f703a;fill-opacity:1" />
          <g
             id="g60152"
             style="fill:#9f703a;fill-opacity:1" />
          <g
             id="g60154"
             style="fill:#9f703a;fill-opacity:1" />
          <g
             id="g60156"
             style="fill:#9f703a;fill-opacity:1" />
          <g
             id="g60158"
             style="fill:#9f703a;fill-opacity:1" />
          <g
             id="g60160"
             style="fill:#9f703a;fill-opacity:1" />
          <g
             id="g60162"
             style="fill:#9f703a;fill-opacity:1" />
          <g
             id="g60164"
             style="fill:#9f703a;fill-opacity:1" />
          <g
             id="g60166"
             style="fill:#9f703a;fill-opacity:1" />
          <g
             id="g60168"
             style="fill:#9f703a;fill-opacity:1" />
          <g
             id="g60170"
             style="fill:#9f703a;fill-opacity:1" />
          <g
             id="g60172"
             style="fill:#9f703a;fill-opacity:1" />
        </g>
        <g
           id="g60212"
           transform="matrix(0.00408459,0.00138247,-0.00138247,0.00408459,441.81463,577.79159)"
           style="fill:#9f703a;fill-opacity:1">
          <g
             id="g60180"
             style="fill:#9f703a;fill-opacity:1">
            <g
               id="g60178"
               style="fill:#9f703a;fill-opacity:1">
              <path
                 d="M 510.606,278.946 C 503.63,211.522 470.958,145.538 418.606,93.186 309.582,-15.773 147.918,-31.485 58.254,58.274 c -89.728,89.728 -74.048,251.328 34.944,360.32 52.352,52.352 118.336,85.024 185.76,92 8.992,0.928 17.856,1.408 26.592,1.408 57.984,0 109.824,-20.32 148,-58.496 43.904,-43.872 64.192,-105.888 57.056,-174.56 z M 351.054,334.274 C 315.342,307.01 276.622,296.226 234.574,284.706 128.718,255.682 76.142,167.362 63.854,63.843 c 29.824,35.968 51.84,77.056 88.448,107.168 39.008,32.064 81.952,43.744 129.12,57.408 103.552,30.048 154.784,117.6 166.56,219.52 -32.32,-38.848 -56.032,-82.433 -96.928,-113.665 z"
                 id="path60176"
                 style="fill:#9f703a;fill-opacity:1" />
            </g>
          </g>
          <g
             id="g60182"
             style="fill:#9f703a;fill-opacity:1" />
          <g
             id="g60184"
             style="fill:#9f703a;fill-opacity:1" />
          <g
             id="g60186"
             style="fill:#9f703a;fill-opacity:1" />
          <g
             id="g60188"
             style="fill:#9f703a;fill-opacity:1" />
          <g
             id="g60190"
             style="fill:#9f703a;fill-opacity:1" />
          <g
             id="g60192"
             style="fill:#9f703a;fill-opacity:1" />
          <g
             id="g60194"
             style="fill:#9f703a;fill-opacity:1" />
          <g
             id="g60196"
             style="fill:#9f703a;fill-opacity:1" />
          <g
             id="g60198"
             style="fill:#9f703a;fill-opacity:1" />
          <g
             id="g60200"
             style="fill:#9f703a;fill-opacity:1" />
          <g
             id="g60202"
             style="fill:#9f703a;fill-opacity:1" />
          <g
             id="g60204"
             style="fill:#9f703a;fill-opacity:1" />
          <g
             id="g60206"
             style="fill:#9f703a;fill-opacity:1" />
          <g
             id="g60208"
             style="fill:#9f703a;fill-opacity:1" />
          <g
             id="g60210"
             style="fill:#9f703a;fill-opacity:1" />
        </g>
        <ellipse
           style="fill:#4d4d4d;fill-opacity:1;stroke:#4d4d4d;stroke-width:0.132292;stroke-linecap:round;stroke-linejoin:round;stroke-miterlimit:4;stroke-dasharray:none;stroke-opacity:1;filter:url(#filter58708)"
           id="ellipse60216"
           cx="437.02551"
           cy="553.80597"
           rx="4.9609375"
           ry="0.29765624"
           transform="matrix(1.207029,0,0,1.207029,-81.404101,-80.132615)" />
      </g>
      <g
         id="g20568"
         transform="matrix(0.80419405,0,0,0.80419405,68.061157,115.85727)">
        <path
           style="fill:#3e3f41;fill-opacity:1;stroke:#3e3f41;stroke-width:0.264583px;stroke-linecap:butt;stroke-linejoin:miter;stroke-opacity:1"
           d="m 470.24737,563.04335 -4.76708,17.79096 0.38481,0.0254 4.74239,-17.6988 z"
           id="path20419" />
        <path
           style="fill:#000000;stroke:#000000;stroke-width:0.0673873px;stroke-linecap:butt;stroke-linejoin:miter;stroke-opacity:1"
           d="m 458.61454,576.36269 h 0.52089 l 0.0651,-0.36615 z"
           id="path18946" />
        <path
           style="fill:#000000;stroke:#000000;stroke-width:0.0709241px;stroke-linecap:butt;stroke-linejoin:miter;stroke-opacity:1"
           d="m 471.77093,585.20261 c -0.0251,-0.006 -0.52658,0.0125 -0.52658,0.0125 l 0.0878,-0.21941 0.0878,0.0126 0.0564,0.0188 0.0627,0.0313 0.0627,0.0313 0.1003,0.0752 z"
           id="path18948" />
        <path
           style="fill:#3e3f41;fill-opacity:1;stroke:#3e3f41;stroke-width:0.283696;stroke-linecap:butt;stroke-linejoin:miter;stroke-opacity:1"
           d="m 458.69799,571.5249 1.91355,18.93932 h 10.00031 l 2.05681,-18.93675 z"
           id="path18950" />
        <path
           style="fill:#fbf0da;fill-opacity:1;stroke:#3e3f41;stroke-width:0.267707;stroke-linecap:butt;stroke-linejoin:miter;stroke-opacity:1"
           d="m 458.66334,576.50907 c 4.65358,0 9.9618,-2.94588 13.96074,0 l -0.94649,8.4711 c -2.17486,-1.30923 -7.7431,2.69273 -12.16241,0 z"
           id="path18952"
           sodipodi:nodetypes="ccccc" />
        <path
           style="fill:#3e3f41;fill-opacity:1;stroke:#fbf0da;stroke-width:0.283696;stroke-linecap:butt;stroke-linejoin:miter;stroke-opacity:1"
           d="m 457.34391,571.4246 c 0.0621,-0.28084 -0.0483,-1.86178 1.85559,-1.75529 h 12.9891 c 1.748,-0.0188 1.64871,1.32019 1.70513,1.70514 z"
           id="path18954"
           sodipodi:nodetypes="ccccc" />
        <g
           id="g19141"
           transform="matrix(0.00167015,0.00560477,-0.00560477,0.00167015,465.75485,579.82548)"
           style="fill:#9f703a;fill-opacity:1">
          <g
             id="g18970"
             style="fill:#9f703a;fill-opacity:1">
            <g
               id="g18965"
               style="fill:#9f703a;fill-opacity:1">
              <path
                 d="M 510.606,278.946 C 503.63,211.522 470.958,145.538 418.606,93.186 309.582,-15.773 147.918,-31.485 58.254,58.274 c -89.728,89.728 -74.048,251.328 34.944,360.32 52.352,52.352 118.336,85.024 185.76,92 8.992,0.928 17.856,1.408 26.592,1.408 57.984,0 109.824,-20.32 148,-58.496 43.904,-43.872 64.192,-105.888 57.056,-174.56 z M 351.054,334.274 C 315.342,307.01 276.622,296.226 234.574,284.706 128.718,255.682 76.142,167.362 63.854,63.843 c 29.824,35.968 51.84,77.056 88.448,107.168 39.008,32.064 81.952,43.744 129.12,57.408 103.552,30.048 154.784,117.6 166.56,219.52 -32.32,-38.848 -56.032,-82.433 -96.928,-113.665 z"
                 id="path18960"
                 style="fill:#9f703a;fill-opacity:1" />
            </g>
          </g>
          <g
             id="g19003"
             style="fill:#9f703a;fill-opacity:1" />
          <g
             id="g19008"
             style="fill:#9f703a;fill-opacity:1" />
          <g
             id="g19041"
             style="fill:#9f703a;fill-opacity:1" />
          <g
             id="g19046"
             style="fill:#9f703a;fill-opacity:1" />
          <g
             id="g19079"
             style="fill:#9f703a;fill-opacity:1" />
          <g
             id="g19084"
             style="fill:#9f703a;fill-opacity:1" />
          <g
             id="g19119"
             style="fill:#9f703a;fill-opacity:1" />
          <g
             id="g19121"
             style="fill:#9f703a;fill-opacity:1" />
          <g
             id="g19123"
             style="fill:#9f703a;fill-opacity:1" />
          <g
             id="g19125"
             style="fill:#9f703a;fill-opacity:1" />
          <g
             id="g19129"
             style="fill:#9f703a;fill-opacity:1" />
          <g
             id="g19131"
             style="fill:#9f703a;fill-opacity:1" />
          <g
             id="g19133"
             style="fill:#9f703a;fill-opacity:1" />
          <g
             id="g19135"
             style="fill:#9f703a;fill-opacity:1" />
          <g
             id="g19139"
             style="fill:#9f703a;fill-opacity:1" />
        </g>
        <g
           id="g19179"
           transform="matrix(0.00816769,0,0,0.00816769,459.73417,577.33113)"
           style="fill:#9f703a;fill-opacity:1">
          <g
             id="g19147"
             style="fill:#9f703a;fill-opacity:1">
            <g
               id="g19145"
               style="fill:#9f703a;fill-opacity:1">
              <path
                 d="M 510.606,278.946 C 503.63,211.522 470.958,145.538 418.606,93.186 309.582,-15.773 147.918,-31.485 58.254,58.274 c -89.728,89.728 -74.048,251.328 34.944,360.32 52.352,52.352 118.336,85.024 185.76,92 8.992,0.928 17.856,1.408 26.592,1.408 57.984,0 109.824,-20.32 148,-58.496 43.904,-43.872 64.192,-105.888 57.056,-174.56 z M 351.054,334.274 C 315.342,307.01 276.622,296.226 234.574,284.706 128.718,255.682 76.142,167.362 63.854,63.843 c 29.824,35.968 51.84,77.056 88.448,107.168 39.008,32.064 81.952,43.744 129.12,57.408 103.552,30.048 154.784,117.6 166.56,219.52 -32.32,-38.848 -56.032,-82.433 -96.928,-113.665 z"
                 id="path19143"
                 style="fill:#9f703a;fill-opacity:1" />
            </g>
          </g>
          <g
             id="g19149"
             style="fill:#9f703a;fill-opacity:1" />
          <g
             id="g19151"
             style="fill:#9f703a;fill-opacity:1" />
          <g
             id="g19153"
             style="fill:#9f703a;fill-opacity:1" />
          <g
             id="g19155"
             style="fill:#9f703a;fill-opacity:1" />
          <g
             id="g19157"
             style="fill:#9f703a;fill-opacity:1" />
          <g
             id="g19159"
             style="fill:#9f703a;fill-opacity:1" />
          <g
             id="g19161"
             style="fill:#9f703a;fill-opacity:1" />
          <g
             id="g19163"
             style="fill:#9f703a;fill-opacity:1" />
          <g
             id="g19165"
             style="fill:#9f703a;fill-opacity:1" />
          <g
             id="g19167"
             style="fill:#9f703a;fill-opacity:1" />
          <g
             id="g19169"
             style="fill:#9f703a;fill-opacity:1" />
          <g
             id="g19171"
             style="fill:#9f703a;fill-opacity:1" />
          <g
             id="g19173"
             style="fill:#9f703a;fill-opacity:1" />
          <g
             id="g19175"
             style="fill:#9f703a;fill-opacity:1" />
          <g
             id="g19177"
             style="fill:#9f703a;fill-opacity:1" />
        </g>
        <g
           id="g19259"
           transform="matrix(0.00408459,0.00138247,-0.00138247,0.00408459,461.3654,581.49576)"
           style="fill:#9f703a;fill-opacity:1">
          <g
             id="g19189"
             style="fill:#9f703a;fill-opacity:1">
            <g
               id="g19187"
               style="fill:#9f703a;fill-opacity:1">
              <path
                 d="M 510.606,278.946 C 503.63,211.522 470.958,145.538 418.606,93.186 309.582,-15.773 147.918,-31.485 58.254,58.274 c -89.728,89.728 -74.048,251.328 34.944,360.32 52.352,52.352 118.336,85.024 185.76,92 8.992,0.928 17.856,1.408 26.592,1.408 57.984,0 109.824,-20.32 148,-58.496 43.904,-43.872 64.192,-105.888 57.056,-174.56 z M 351.054,334.274 C 315.342,307.01 276.622,296.226 234.574,284.706 128.718,255.682 76.142,167.362 63.854,63.843 c 29.824,35.968 51.84,77.056 88.448,107.168 39.008,32.064 81.952,43.744 129.12,57.408 103.552,30.048 154.784,117.6 166.56,219.52 -32.32,-38.848 -56.032,-82.433 -96.928,-113.665 z"
                 id="path19182"
                 style="fill:#9f703a;fill-opacity:1" />
            </g>
          </g>
          <g
             id="g19191"
             style="fill:#9f703a;fill-opacity:1" />
          <g
             id="g19195"
             style="fill:#9f703a;fill-opacity:1" />
          <g
             id="g19197"
             style="fill:#9f703a;fill-opacity:1" />
          <g
             id="g19199"
             style="fill:#9f703a;fill-opacity:1" />
          <g
             id="g19201"
             style="fill:#9f703a;fill-opacity:1" />
          <g
             id="g19203"
             style="fill:#9f703a;fill-opacity:1" />
          <g
             id="g19205"
             style="fill:#9f703a;fill-opacity:1" />
          <g
             id="g19207"
             style="fill:#9f703a;fill-opacity:1" />
          <g
             id="g19209"
             style="fill:#9f703a;fill-opacity:1" />
          <g
             id="g19211"
             style="fill:#9f703a;fill-opacity:1" />
          <g
             id="g19213"
             style="fill:#9f703a;fill-opacity:1" />
          <g
             id="g19215"
             style="fill:#9f703a;fill-opacity:1" />
          <g
             id="g19217"
             style="fill:#9f703a;fill-opacity:1" />
          <g
             id="g19221"
             style="fill:#9f703a;fill-opacity:1" />
          <g
             id="g19236"
             style="fill:#9f703a;fill-opacity:1" />
        </g>
        <g
           id="g19578"
           transform="matrix(0.00167015,0.00560477,-0.00560477,0.00167015,465.75485,579.82548)"
           style="fill:#9f703a;fill-opacity:1">
          <g
             id="g19297"
             style="fill:#9f703a;fill-opacity:1">
            <g
               id="g19274"
               style="fill:#9f703a;fill-opacity:1">
              <path
                 d="M 510.606,278.946 C 503.63,211.522 470.958,145.538 418.606,93.186 309.582,-15.773 147.918,-31.485 58.254,58.274 c -89.728,89.728 -74.048,251.328 34.944,360.32 52.352,52.352 118.336,85.024 185.76,92 8.992,0.928 17.856,1.408 26.592,1.408 57.984,0 109.824,-20.32 148,-58.496 43.904,-43.872 64.192,-105.888 57.056,-174.56 z M 351.054,334.274 C 315.342,307.01 276.622,296.226 234.574,284.706 128.718,255.682 76.142,167.362 63.854,63.843 c 29.824,35.968 51.84,77.056 88.448,107.168 39.008,32.064 81.952,43.744 129.12,57.408 103.552,30.048 154.784,117.6 166.56,219.52 -32.32,-38.848 -56.032,-82.433 -96.928,-113.665 z"
                 id="path19261"
                 style="fill:#9f703a;fill-opacity:1" />
            </g>
          </g>
          <g
             id="g19312"
             style="fill:#9f703a;fill-opacity:1" />
          <g
             id="g19335"
             style="fill:#9f703a;fill-opacity:1" />
          <g
             id="g19350"
             style="fill:#9f703a;fill-opacity:1" />
          <g
             id="g19385"
             style="fill:#9f703a;fill-opacity:1" />
          <g
             id="g19387"
             style="fill:#9f703a;fill-opacity:1" />
          <g
             id="g19389"
             style="fill:#9f703a;fill-opacity:1" />
          <g
             id="g19391"
             style="fill:#9f703a;fill-opacity:1" />
          <g
             id="g19426"
             style="fill:#9f703a;fill-opacity:1" />
          <g
             id="g19429"
             style="fill:#9f703a;fill-opacity:1" />
          <g
             id="g19464"
             style="fill:#9f703a;fill-opacity:1" />
          <g
             id="g19467"
             style="fill:#9f703a;fill-opacity:1" />
          <g
             id="g19502"
             style="fill:#9f703a;fill-opacity:1" />
          <g
             id="g19505"
             style="fill:#9f703a;fill-opacity:1" />
          <g
             id="g19540"
             style="fill:#9f703a;fill-opacity:1" />
          <g
             id="g19545"
             style="fill:#9f703a;fill-opacity:1" />
        </g>
        <g
           id="g19929"
           transform="matrix(0.00816769,0,0,0.00816769,459.73417,577.33113)"
           style="fill:#9f703a;fill-opacity:1">
          <g
             id="g19616"
             style="fill:#9f703a;fill-opacity:1">
            <g
               id="g19583"
               style="fill:#9f703a;fill-opacity:1">
              <path
                 d="M 510.606,278.946 C 503.63,211.522 470.958,145.538 418.606,93.186 309.582,-15.773 147.918,-31.485 58.254,58.274 c -89.728,89.728 -74.048,251.328 34.944,360.32 52.352,52.352 118.336,85.024 185.76,92 8.992,0.928 17.856,1.408 26.592,1.408 57.984,0 109.824,-20.32 148,-58.496 43.904,-43.872 64.192,-105.888 57.056,-174.56 z M 351.054,334.274 C 315.342,307.01 276.622,296.226 234.574,284.706 128.718,255.682 76.142,167.362 63.854,63.843 c 29.824,35.968 51.84,77.056 88.448,107.168 39.008,32.064 81.952,43.744 129.12,57.408 103.552,30.048 154.784,117.6 166.56,219.52 -32.32,-38.848 -56.032,-82.433 -96.928,-113.665 z"
                 id="path19580"
                 style="fill:#9f703a;fill-opacity:1" />
            </g>
          </g>
          <g
             id="g19621"
             style="fill:#9f703a;fill-opacity:1" />
          <g
             id="g19654"
             style="fill:#9f703a;fill-opacity:1" />
          <g
             id="g19659"
             style="fill:#9f703a;fill-opacity:1" />
          <g
             id="g19692"
             style="fill:#9f703a;fill-opacity:1" />
          <g
             id="g19699"
             style="fill:#9f703a;fill-opacity:1" />
          <g
             id="g19730"
             style="fill:#9f703a;fill-opacity:1" />
          <g
             id="g19737"
             style="fill:#9f703a;fill-opacity:1" />
          <g
             id="g19768"
             style="fill:#9f703a;fill-opacity:1" />
          <g
             id="g19775"
             style="fill:#9f703a;fill-opacity:1" />
          <g
             id="g19806"
             style="fill:#9f703a;fill-opacity:1" />
          <g
             id="g19813"
             style="fill:#9f703a;fill-opacity:1" />
          <g
             id="g19844"
             style="fill:#9f703a;fill-opacity:1" />
          <g
             id="g19853"
             style="fill:#9f703a;fill-opacity:1" />
          <g
             id="g19882"
             style="fill:#9f703a;fill-opacity:1" />
          <g
             id="g19920"
             style="fill:#9f703a;fill-opacity:1" />
        </g>
        <g
           id="g20262"
           transform="matrix(0.00408459,0.00138247,-0.00138247,0.00408459,461.3654,581.49576)"
           style="fill:#9f703a;fill-opacity:1">
          <g
             id="g20186"
             style="fill:#9f703a;fill-opacity:1">
            <g
               id="g19958"
               style="fill:#9f703a;fill-opacity:1">
              <path
                 d="M 510.606,278.946 C 503.63,211.522 470.958,145.538 418.606,93.186 309.582,-15.773 147.918,-31.485 58.254,58.274 c -89.728,89.728 -74.048,251.328 34.944,360.32 52.352,52.352 118.336,85.024 185.76,92 8.992,0.928 17.856,1.408 26.592,1.408 57.984,0 109.824,-20.32 148,-58.496 43.904,-43.872 64.192,-105.888 57.056,-174.56 z M 351.054,334.274 C 315.342,307.01 276.622,296.226 234.574,284.706 128.718,255.682 76.142,167.362 63.854,63.843 c 29.824,35.968 51.84,77.056 88.448,107.168 39.008,32.064 81.952,43.744 129.12,57.408 103.552,30.048 154.784,117.6 166.56,219.52 -32.32,-38.848 -56.032,-82.433 -96.928,-113.665 z"
                 id="path19931"
                 style="fill:#9f703a;fill-opacity:1" />
            </g>
          </g>
          <g
             id="g20191"
             style="fill:#9f703a;fill-opacity:1" />
          <g
             id="g20224"
             style="fill:#9f703a;fill-opacity:1" />
          <g
             id="g20231"
             style="fill:#9f703a;fill-opacity:1" />
          <g
             id="g20233"
             style="fill:#9f703a;fill-opacity:1" />
          <g
             id="g20235"
             style="fill:#9f703a;fill-opacity:1" />
          <g
             id="g20237"
             style="fill:#9f703a;fill-opacity:1" />
          <g
             id="g20239"
             style="fill:#9f703a;fill-opacity:1" />
          <g
             id="g20241"
             style="fill:#9f703a;fill-opacity:1" />
          <g
             id="g20243"
             style="fill:#9f703a;fill-opacity:1" />
          <g
             id="g20245"
             style="fill:#9f703a;fill-opacity:1" />
          <g
             id="g20247"
             style="fill:#9f703a;fill-opacity:1" />
          <g
             id="g20249"
             style="fill:#9f703a;fill-opacity:1" />
          <g
             id="g20251"
             style="fill:#9f703a;fill-opacity:1" />
          <g
             id="g20253"
             style="fill:#9f703a;fill-opacity:1" />
          <g
             id="g20257"
             style="fill:#9f703a;fill-opacity:1" />
        </g>
        <ellipse
           style="fill:#4d4d4d;fill-opacity:1;stroke:#4d4d4d;stroke-width:0.132292;stroke-linecap:round;stroke-linejoin:round;stroke-miterlimit:4;stroke-dasharray:none;stroke-opacity:1;filter:url(#filter58708)"
           id="ellipse20264"
           cx="437.02551"
           cy="553.80597"
           rx="4.9609375"
           ry="0.29765624"
           transform="matrix(1.207029,0,0,1.207029,-61.853335,-76.428448)" />
      </g>
    </g>
  </g>
</svg>
