<svg xmlns="http://www.w3.org/2000/svg" width="303" height="303" viewBox="0 0 80.169 80.169"><circle style="opacity:.987;fill:#332c24;fill-opacity:1;stroke:none;stroke-width:11.3944;stroke-linejoin:round" cx="40.254" cy="40.065" r="40.029"/><g transform="matrix(1.63773 0 0 1.63773 -1595.473 -57.531)"><circle style="opacity:.997;fill:#ecd29f;fill-opacity:1;stroke:none;stroke-width:6.84487;stroke-linejoin:round" cx="998.778" cy="59.593" r="24.046"/><circle style="opacity:.997;fill:#936430;fill-opacity:.39759;stroke:none;stroke-width:6.5645;stroke-linejoin:round" cx="998.778" cy="59.593" r="23.061"/></g><circle style="opacity:.997;fill:#ebd7a6;fill-opacity:1;stroke:none;stroke-width:10.6243;stroke-linejoin:round" cx="40.254" cy="40.065" r="37.323"/><circle style="opacity:.997;fill:#9f703a;fill-opacity:1;stroke:none;stroke-width:10.189;stroke-linejoin:round" cx="40.255" cy="40.065" r="35.794"/><path style="opacity:.997;fill:#332c24;fill-opacity:1;stroke:none;stroke-width:10.189;stroke-linejoin:round" d="M40.19 4.335A35.794 35.794 0 0 0 6.116 29.173a35.794 35.794 0 0 1 .104-.295 35.794 35.794 0 0 1 .112-.311 35.794 35.794 0 0 1 .116-.31 35.794 35.794 0 0 1 .118-.31 35.794 35.794 0 0 1 .121-.308 35.794 35.794 0 0 1 .125-.307 35.794 35.794 0 0 1 .126-.305 35.794 35.794 0 0 1 .13-.305 35.794 35.794 0 0 1 .132-.304 35.794 35.794 0 0 1 .136-.302 35.794 35.794 0 0 1 .138-.301 35.794 35.794 0 0 1 .141-.3 35.794 35.794 0 0 1 .144-.298 35.794 35.794 0 0 1 .146-.297 35.794 35.794 0 0 1 .15-.296 35.794 35.794 0 0 1 .15-.294 35.794 35.794 0 0 1 .156-.293 35.794 35.794 0 0 1 .157-.292 35.794 35.794 0 0 1 .16-.29 35.794 35.794 0 0 1 .163-.288 35.794 35.794 0 0 1 .166-.287 35.794 35.794 0 0 1 .167-.286 35.794 35.794 0 0 1 .171-.283 35.794 35.794 0 0 1 .173-.282 35.794 35.794 0 0 1 .176-.28 35.794 35.794 0 0 1 .178-.28 35.794 35.794 0 0 1 .182-.277 35.794 35.794 0 0 1 .183-.276 35.794 35.794 0 0 1 .186-.274 35.794 35.794 0 0 1 .19-.272 35.794 35.794 0 0 1 .19-.27 35.794 35.794 0 0 1 .193-.269 35.794 35.794 0 0 1 .197-.267 35.794 35.794 0 0 1 .199-.265 35.794 35.794 0 0 1 .2-.263 35.794 35.794 0 0 1 .203-.261 35.794 35.794 0 0 1 .207-.26 35.794 35.794 0 0 1 .208-.257 35.794 35.794 0 0 1 .21-.256 35.794 35.794 0 0 1 .213-.254 35.794 35.794 0 0 1 .216-.251 35.794 35.794 0 0 1 .217-.25 35.794 35.794 0 0 1 .22-.248 35.794 35.794 0 0 1 .222-.245 35.794 35.794 0 0 1 .224-.244 35.794 35.794 0 0 1 .227-.241 35.794 35.794 0 0 1 .23-.239 35.794 35.794 0 0 1 .23-.237 35.794 35.794 0 0 1 .234-.235 35.794 35.794 0 0 1 .236-.233 35.794 35.794 0 0 1 .237-.23 35.794 35.794 0 0 1 .24-.23 35.794 35.794 0 0 1 .242-.225 35.794 35.794 0 0 1 .244-.224 35.794 35.794 0 0 1 .246-.222 35.794 35.794 0 0 1 .248-.22 35.794 35.794 0 0 1 .25-.217 35.794 35.794 0 0 1 .252-.214 35.794 35.794 0 0 1 .254-.213 35.794 35.794 0 0 1 .256-.21 35.794 35.794 0 0 1 .258-.208 35.794 35.794 0 0 1 .26-.205 35.794 35.794 0 0 1 .262-.203 35.794 35.794 0 0 1 .263-.2 35.794 35.794 0 0 1 .266-.198 35.794 35.794 0 0 1 .267-.196 35.794 35.794 0 0 1 .27-.193 35.794 35.794 0 0 1 .27-.19 35.794 35.794 0 0 1 .272-.189 35.794 35.794 0 0 1 .275-.185 35.794 35.794 0 0 1 .276-.183 35.794 35.794 0 0 1 .277-.18 35.794 35.794 0 0 1 .28-.179 35.794 35.794 0 0 1 .28-.175 35.794 35.794 0 0 1 .283-.172 35.794 35.794 0 0 1 .284-.17 35.794 35.794 0 0 1 .286-.168 35.794 35.794 0 0 1 .287-.164 35.794 35.794 0 0 1 .289-.163 35.794 35.794 0 0 1 .29-.159 35.794 35.794 0 0 1 .292-.157 35.794 35.794 0 0 1 .293-.154 35.794 35.794 0 0 1 .295-.151 35.794 35.794 0 0 1 .296-.149 35.794 35.794 0 0 1 .297-.146 35.794 35.794 0 0 1 .299-.143 35.794 35.794 0 0 1 .3-.14 35.794 35.794 0 0 1 .301-.137 35.794 35.794 0 0 1 .303-.135 35.794 35.794 0 0 1 .303-.132 35.794 35.794 0 0 1 .306-.13 35.794 35.794 0 0 1 .305-.125 35.794 35.794 0 0 1 .308-.124 35.794 35.794 0 0 1 .309-.12 35.794 35.794 0 0 1 .31-.118 35.794 35.794 0 0 1 .31-.115 35.794 35.794 0 0 1 .311-.112 35.794 35.794 0 0 1 .313-.109 35.794 35.794 0 0 1 .314-.106 35.794 35.794 0 0 1 .314-.104 35.794 35.794 0 0 1 .316-.1 35.794 35.794 0 0 1 .317-.097 35.794 35.794 0 0 1 .317-.095 35.794 35.794 0 0 1 .318-.091 35.794 35.794 0 0 1 .32-.089 35.794 35.794 0 0 1 .32-.085 35.794 35.794 0 0 1 .32-.083 35.794 35.794 0 0 1 .32-.08 35.794 35.794 0 0 1 .323-.077 35.794 35.794 0 0 1 .323-.073 35.794 35.794 0 0 1 .324-.07 35.794 35.794 0 0 1 .324-.068 35.794 35.794 0 0 1 .325-.066 35.794 35.794 0 0 1 .325-.061 35.794 35.794 0 0 1 .326-.059 35.794 35.794 0 0 1 .326-.056 35.794 35.794 0 0 1 .327-.053 35.794 35.794 0 0 1 .328-.049 35.794 35.794 0 0 1 .327-.047 35.794 35.794 0 0 1 .328-.044 35.794 35.794 0 0 1 .33-.04 35.794 35.794 0 0 1 .329-.037 35.794 35.794 0 0 1 .33-.035 35.794 35.794 0 0 1 .328-.031 35.794 35.794 0 0 1 .33-.03 35.794 35.794 0 0 1 .33-.025 35.794 35.794 0 0 1 .331-.022 35.794 35.794 0 0 1 .33-.019 35.794 35.794 0 0 1 .331-.016 35.794 35.794 0 0 1 .331-.013 35.794 35.794 0 0 1 .331-.01 35.794 35.794 0 0 1 .331-.007 35.794 35.794 0 0 1 .332-.004 35.794 35.794 0 0 1 .257 0 35.794 35.794 0 0 1 .331 0 35.794 35.794 0 0 1 .33.005 35.794 35.794 0 0 1 .333.008 35.794 35.794 0 0 1 .33.01 35.794 35.794 0 0 1 .331.014 35.794 35.794 0 0 1 .33.017 35.794 35.794 0 0 1 .331.02 35.794 35.794 0 0 1 .33.023 35.794 35.794 0 0 1 .33.027 35.794 35.794 0 0 1 .33.028 35.794 35.794 0 0 1 .33.033 35.794 35.794 0 0 1 .33.034 35.794 35.794 0 0 1 .328.04 35.794 35.794 0 0 1 .33.04 35.794 35.794 0 0 1 .327.045 35.794 35.794 0 0 1 .328.047 35.794 35.794 0 0 1 .328.05 35.794 35.794 0 0 1 .326.053 35.794 35.794 0 0 1 .326.057 35.794 35.794 0 0 1 .326.06 35.794 35.794 0 0 1 .326.062 35.794 35.794 0 0 1 .324.065 35.794 35.794 0 0 1 .324.069 35.794 35.794 0 0 1 .324.07 35.794 35.794 0 0 1 .322.075 35.794 35.794 0 0 1 .322.078 35.794 35.794 0 0 1 .321.08 35.794 35.794 0 0 1 .321.083 35.794 35.794 0 0 1 .32.087 35.794 35.794 0 0 1 .319.09 35.794 35.794 0 0 1 .318.092 35.794 35.794 0 0 1 .317.094 35.794 35.794 0 0 1 .316.099 35.794 35.794 0 0 1 .316.1 35.794 35.794 0 0 1 .314.104 35.794 35.794 0 0 1 .314.107 35.794 35.794 0 0 1 .312.11 35.794 35.794 0 0 1 .312.113 35.794 35.794 0 0 1 .31.116 35.794 35.794 0 0 1 .31.117 35.794 35.794 0 0 1 .307.122 35.794 35.794 0 0 1 .307.124 35.794 35.794 0 0 1 .306.127 35.794 35.794 0 0 1 .305.13 35.794 35.794 0 0 1 .303.132 35.794 35.794 0 0 1 .303.135 35.794 35.794 0 0 1 .3.138 35.794 35.794 0 0 1 .3.142 35.794 35.794 0 0 1 .3.143 35.794 35.794 0 0 1 .296.146 35.794 35.794 0 0 1 .296.15 35.794 35.794 0 0 1 .294.151 35.794 35.794 0 0 1 .293.155 35.794 35.794 0 0 1 .291.158 35.794 35.794 0 0 1 .29.16 35.794 35.794 0 0 1 .288.162 35.794 35.794 0 0 1 .287.165 35.794 35.794 0 0 1 .286.169 35.794 35.794 0 0 1 .284.17 35.794 35.794 0 0 1 .282.173 35.794 35.794 0 0 1 .28.176 35.794 35.794 0 0 1 .28.179 35.794 35.794 0 0 1 .276.18 35.794 35.794 0 0 1 .276.184 35.794 35.794 0 0 1 .274.186 35.794 35.794 0 0 1 .272.189 35.794 35.794 0 0 1 .271.19 35.794 35.794 0 0 1 .268.195 35.794 35.794 0 0 1 .268.196 35.794 35.794 0 0 1 .265.198 35.794 35.794 0 0 1 .263.202 35.794 35.794 0 0 1 .261.203 35.794 35.794 0 0 1 .26.205 35.794 35.794 0 0 1 .257.209 35.794 35.794 0 0 1 .255.21 35.794 35.794 0 0 1 .254.214 35.794 35.794 0 0 1 .251.214 35.794 35.794 0 0 1 .25.218 35.794 35.794 0 0 1 .248.22 35.794 35.794 0 0 1 .245.223 35.794 35.794 0 0 1 .244.224 35.794 35.794 0 0 1 .241.227 35.794 35.794 0 0 1 .24.228 35.794 35.794 0 0 1 .237.232 35.794 35.794 0 0 1 .235.233 35.794 35.794 0 0 1 .233.236 35.794 35.794 0 0 1 .23.237 35.794 35.794 0 0 1 .229.24 35.794 35.794 0 0 1 .226.241 35.794 35.794 0 0 1 .224.245 35.794 35.794 0 0 1 .222.246 35.794 35.794 0 0 1 .219.247 35.794 35.794 0 0 1 .217.251 35.794 35.794 0 0 1 .215.252 35.794 35.794 0 0 1 .213.254 35.794 35.794 0 0 1 .21.256 35.794 35.794 0 0 1 .207.258 35.794 35.794 0 0 1 .206.26 35.794 35.794 0 0 1 .203.261 35.794 35.794 0 0 1 .2.264 35.794 35.794 0 0 1 .198.265 35.794 35.794 0 0 1 .196.268 35.794 35.794 0 0 1 .193.269 35.794 35.794 0 0 1 .19.27 35.794 35.794 0 0 1 .188.273 35.794 35.794 0 0 1 .185.274 35.794 35.794 0 0 1 .184.277 35.794 35.794 0 0 1 .18.278 35.794 35.794 0 0 1 .178.279 35.794 35.794 0 0 1 .175.28 35.794 35.794 0 0 1 .173.283 35.794 35.794 0 0 1 .17.284 35.794 35.794 0 0 1 .168.286 35.794 35.794 0 0 1 .164.288 35.794 35.794 0 0 1 .162.288 35.794 35.794 0 0 1 .159.29 35.794 35.794 0 0 1 .157.292 35.794 35.794 0 0 1 .154.293 35.794 35.794 0 0 1 .15.295 35.794 35.794 0 0 1 .15.296 35.794 35.794 0 0 1 .145.297 35.794 35.794 0 0 1 .143.299 35.794 35.794 0 0 1 .14.3 35.794 35.794 0 0 1 .138.3 35.794 35.794 0 0 1 .135.304 35.794 35.794 0 0 1 .132.304 35.794 35.794 0 0 1 .13.304 35.794 35.794 0 0 1 .126.307 35.794 35.794 0 0 1 .123.307 35.794 35.794 0 0 1 .12.308 35.794 35.794 0 0 1 .117.31 35.794 35.794 0 0 1 .115.31 35.794 35.794 0 0 1 .111.312 35.794 35.794 0 0 1 .11.313 35.794 35.794 0 0 1 .106.314 35.794 35.794 0 0 1 .103.314 35.794 35.794 0 0 1 .1.316 35.794 35.794 0 0 1 .099.316 35.794 35.794 0 0 1 .095.318 35.794 35.794 0 0 1 .091.318 35.794 35.794 0 0 1 .089.319 35.794 35.794 0 0 1 .085.32 35.794 35.794 0 0 1 .083.32 35.794 35.794 0 0 1 .08.322 35.794 35.794 0 0 1 .078.323 35.794 35.794 0 0 1 .073.322 35.794 35.794 0 0 1 .07.323 35.794 35.794 0 0 1 .068.324 35.794 35.794 0 0 1 .064.325 35.794 35.794 0 0 1 .062.326 35.794 35.794 0 0 1 .059.326 35.794 35.794 0 0 1 .056.326 35.794 35.794 0 0 1 .054.327 35.794 35.794 0 0 1 .049.328 35.794 35.794 0 0 1 .047.327 35.794 35.794 0 0 1 .043.329 35.794 35.794 0 0 1 .04.328 35.794 35.794 0 0 1 .038.33 35.794 35.794 0 0 1 .035.329 35.794 35.794 0 0 1 .03.33 35.794 35.794 0 0 1 .03.33 35.794 35.794 0 0 1 .027.33 35.794 35.794 0 0 1 .02.33 35.794 35.794 0 0 1 .02.33 35.794 35.794 0 0 1 .017.332 35.794 35.794 0 0 1 .016.33 35.794 35.794 0 0 1 .017.332 35.794 35.794 0 0 1 0 .33 35.794 35.794 0 0 1 0 .331 35.794 35.794 0 0 1 0 .258 35.794 35.794 0 0 1 0 .331 35.794 35.794 0 0 1 0 .331 35.794 35.794 0 0 1 0 .331 35.794 35.794 0 0 1-.016.331 35.794 35.794 0 0 1-.016.331 35.794 35.794 0 0 1-.017.331 35.794 35.794 0 0 1-.02.33 35.794 35.794 0 0 1-.022.33 35.794 35.794 0 0 1-.026.331 35.794 35.794 0 0 1-.03.33 35.794 35.794 0 0 1-.033.33 35.794 35.794 0 0 1-.034.329 35.794 35.794 0 0 1-.038.329 35.794 35.794 0 0 1-.04.328 35.794 35.794 0 0 1-.045.328 35.794 35.794 0 0 1-.047.328 35.794 35.794 0 0 1-.051.328 35.794 35.794 0 0 1-.054.326 35.794 35.794 0 0 1-.057.327 35.794 35.794 0 0 1-.06.326 35.794 35.794 0 0 1-.062.325 35.794 35.794 0 0 1-.065.325 35.794 35.794 0 0 1-.069.324 35.794 35.794 0 0 1-.07.323 35.794 35.794 0 0 1-.074.323 35.794 35.794 0 0 1-.079.321 35.794 35.794 0 0 1-.08.322 35.794 35.794 0 0 1-.083.32 35.794 35.794 0 0 1-.087.32 35.794 35.794 0 0 1-.089.319 35.794 35.794 0 0 1-.091.318 35.794 35.794 0 0 1-.095.317 35.794 35.794 0 0 1-.099.317 35.794 35.794 0 0 1-.057.178A35.794 35.794 0 0 0 75.99 40.13 35.794 35.794 0 0 0 40.197 4.335Z"/><path style="opacity:.997;fill:#fbf0da;fill-opacity:1;stroke:none;stroke-width:3.67336;stroke-linejoin:round" d="M52.472 69.42a12.864 12.945 0 0 0 .021-.064 12.864 12.945 0 0 0 .036-.115 12.864 12.945 0 0 0 .034-.114 12.864 12.945 0 0 0 .033-.115 12.864 12.945 0 0 0 .031-.115 12.864 12.945 0 0 0 .031-.116 12.864 12.945 0 0 0 .03-.116 12.864 12.945 0 0 0 .03-.116 12.864 12.945 0 0 0 .027-.117 12.864 12.945 0 0 0 .027-.116 12.864 12.945 0 0 0 .024-.117 12.864 12.945 0 0 0 .025-.118 12.864 12.945 0 0 0 .023-.117 12.864 12.945 0 0 0 .023-.118 12.864 12.945 0 0 0 .02-.117 12.864 12.945 0 0 0 .022-.119 12.864 12.945 0 0 0 .02-.118 12.864 12.945 0 0 0 .018-.118 12.864 12.945 0 0 0 .016-.119 12.864 12.945 0 0 0 .017-.118 12.864 12.945 0 0 0 .016-.12 12.864 12.945 0 0 0 .016-.118 12.864 12.945 0 0 0 .017-.12 12.864 12.945 0 0 0 .016-.118 12.864 12.945 0 0 0 .017-.12 12.864 12.945 0 0 0 0-.12 12.864 12.945 0 0 0 0-.119 12.864 12.945 0 0 0 0-.12 12.864 12.945 0 0 0 0-.119 12.864 12.945 0 0 0 0-.12 12.864 12.945 0 0 0 0-.12 12.864 12.945 0 0 0 0-.119 12.864 12.945 0 0 0 0-.12 12.864 12.945 0 0 0 0-.12 12.864 12.945 0 0 0 0-.093 12.864 12.945 0 0 0 0-.12 12.864 12.945 0 0 0 0-.119 12.864 12.945 0 0 0 0-.12 12.864 12.945 0 0 0 0-.12 12.864 12.945 0 0 0 0-.12 12.864 12.945 0 0 0 0-.119 12.864 12.945 0 0 0 0-.12 12.864 12.945 0 0 0 0-.118 12.864 12.945 0 0 0-.017-.12 12.864 12.945 0 0 0-.017-.12 12.864 12.945 0 0 0-.016-.118 12.864 12.945 0 0 0-.016-.12 12.864 12.945 0 0 0-.017-.118 12.864 12.945 0 0 0-.016-.119 12.864 12.945 0 0 0-.017-.118 12.864 12.945 0 0 0-.018-.119 12.864 12.945 0 0 0-.02-.118 12.864 12.945 0 0 0-.019-.118 12.864 12.945 0 0 0-.021-.118 12.864 12.945 0 0 0-.023-.118 12.864 12.945 0 0 0-.023-.117 12.864 12.945 0 0 0-.024-.118 12.864 12.945 0 0 0-.025-.116 12.864 12.945 0 0 0-.026-.117 12.864 12.945 0 0 0-.028-.117 12.864 12.945 0 0 0-.03-.116 12.864 12.945 0 0 0-.03-.116 12.864 12.945 0 0 0-.03-.116 12.864 12.945 0 0 0-.031-.115 12.864 12.945 0 0 0-.033-.115 12.864 12.945 0 0 0-.035-.115 12.864 12.945 0 0 0-.034-.114 12.864 12.945 0 0 0-.036-.115 12.864 12.945 0 0 0-.038-.113 12.864 12.945 0 0 0-.037-.114 12.864 12.945 0 0 0-.04-.113 12.864 12.945 0 0 0-.039-.113 12.864 12.945 0 0 0-.041-.112 12.864 12.945 0 0 0-.043-.112 12.864 12.945 0 0 0-.042-.111 12.864 12.945 0 0 0-.044-.112 12.864 12.945 0 0 0-.046-.11 12.864 12.945 0 0 0-.046-.11 12.864 12.945 0 0 0-.048-.11 12.864 12.945 0 0 0-.047-.11 12.864 12.945 0 0 0-.05-.109 12.864 12.945 0 0 0-.05-.108 12.864 12.945 0 0 0-.05-.108 12.864 12.945 0 0 0-.053-.108 12.864 12.945 0 0 0-.054-.107 12.864 12.945 0 0 0-.054-.106 12.864 12.945 0 0 0-.056-.107 12.864 12.945 0 0 0-.056-.105 12.864 12.945 0 0 0-.057-.105 12.864 12.945 0 0 0-.059-.104 12.864 12.945 0 0 0-.059-.104 12.864 12.945 0 0 0-.06-.104 12.864 12.945 0 0 0-.061-.102 12.864 12.945 0 0 0-.062-.103 12.864 12.945 0 0 0-.063-.101 12.864 12.945 0 0 0-.063-.101 12.864 12.945 0 0 0-.066-.1 12.864 12.945 0 0 0-.065-.1 12.864 12.945 0 0 0-.068-.1 12.864 12.945 0 0 0-.067-.098 12.864 12.945 0 0 0-.068-.098 12.864 12.945 0 0 0-.07-.098 12.864 12.945 0 0 0-.07-.096 12.864 12.945 0 0 0-.07-.096 12.864 12.945 0 0 0-.072-.096 12.864 12.945 0 0 0-.074-.094 12.864 12.945 0 0 0-.074-.094 12.864 12.945 0 0 0-.075-.094 12.864 12.945 0 0 0-.075-.092 12.864 12.945 0 0 0-.077-.092 12.864 12.945 0 0 0-.077-.091 12.864 12.945 0 0 0-.079-.09 12.864 12.945 0 0 0-.078-.09 12.864 12.945 0 0 0-.08-.09 12.864 12.945 0 0 0-.08-.088 12.864 12.945 0 0 0-.083-.087 12.864 12.945 0 0 0-.082-.087 12.864 12.945 0 0 0-.082-.086 12.864 12.945 0 0 0-.083-.085 12.864 12.945 0 0 0-.085-.084 12.864 12.945 0 0 0-.085-.084 12.864 12.945 0 0 0-.087-.083 12.864 12.945 0 0 0-.087-.082 12.864 12.945 0 0 0-.087-.08 12.864 12.945 0 0 0-.088-.081 12.864 12.945 0 0 0-.089-.08 12.864 12.945 0 0 0-.09-.078 12.864 12.945 0 0 0-.09-.078 12.864 12.945 0 0 0-.092-.077 12.864 12.945 0 0 0-.091-.077 12.864 12.945 0 0 0-.092-.075 12.864 12.945 0 0 0-.093-.074 12.864 12.945 0 0 0-.094-.074 12.864 12.945 0 0 0-.095-.073 12.864 12.945 0 0 0-.095-.071 12.864 12.945 0 0 0-.096-.071 12.864 12.945 0 0 0-.097-.07 12.864 12.945 0 0 0-.097-.07 12.864 12.945 0 0 0-.098-.068 12.864 12.945 0 0 0-.098-.067 12.864 12.945 0 0 0-.1-.067 12.864 12.945 0 0 0-.1-.065 12.864 12.945 0 0 0-.1-.064 12.864 12.945 0 0 0-.101-.064 12.864 12.945 0 0 0-.102-.063 12.864 12.945 0 0 0-.101-.061 12.864 12.945 0 0 0-.104-.061 12.864 12.945 0 0 0-.103-.06 12.864 12.945 0 0 0-.103-.059 12.864 12.945 0 0 0-.105-.057 12.864 12.945 0 0 0-.105-.057 12.864 12.945 0 0 0-.104-.056 12.864 12.945 0 0 0-.107-.055 12.864 12.945 0 0 0-.106-.054 12.864 12.945 0 0 0-.107-.053 12.864 12.945 0 0 0-.108-.052 12.864 12.945 0 0 0-.108-.051 12.864 12.945 0 0 0-.108-.05 12.864 12.945 0 0 0-.108-.049 12.864 12.945 0 0 0-.11-.048 12.864 12.945 0 0 0-.11-.047 12.864 12.945 0 0 0-.11-.046 12.864 12.945 0 0 0-.11-.044 12.864 12.945 0 0 0-.11-.045 12.864 12.945 0 0 0-.112-.042 12.864 12.945 0 0 0-.111-.042 12.864 12.945 0 0 0-.112-.04 12.864 12.945 0 0 0-.11-.04 12.864 12.945 0 0 0-.114-.04 12.864 12.945 0 0 0-.113-.037 12.864 12.945 0 0 0-.113-.036 12.864 12.945 0 0 0-.113-.036 12.864 12.945 0 0 0-.113-.034 12.864 12.945 0 0 0-.115-.033 12.864 12.945 0 0 0-.114-.033 12.864 12.945 0 0 0-.115-.031 12.864 12.945 0 0 0-.115-.03 12.864 12.945 0 0 0-.114-.029 12.864 12.945 0 0 0-.116-.028 12.864 12.945 0 0 0-.117-.027 12.864 12.945 0 0 0-.116-.026 12.864 12.945 0 0 0-.116-.025 12.864 12.945 0 0 0-.117-.023 12.864 12.945 0 0 0-.117-.023 12.864 12.945 0 0 0-.118-.021 12.864 12.945 0 0 0-.118-.02 12.864 12.945 0 0 0-.118-.02 12.864 12.945 0 0 0-.118-.018 12.864 12.945 0 0 0-.118-.017 12.864 12.945 0 0 0-.118-.016 12.864 12.945 0 0 0-.118-.015 12.864 12.945 0 0 0-.118-.014 12.864 12.945 0 0 0-.118-.013 12.864 12.945 0 0 0-.118-.011 12.864 12.945 0 0 0-.12-.01 12.864 12.945 0 0 0-.117-.01 12.864 12.945 0 0 0-.118-.009 12.864 12.945 0 0 0-.12-.007 12.864 12.945 0 0 0-.117-.006 12.864 12.945 0 0 0-.12-.005 12.864 12.945 0 0 0-.12-.004 12.864 12.945 0 0 0-.12-.003 12.864 12.945 0 0 0-.119-.002 12.864 12.945 0 0 0-.12 0 12.864 12.945 0 0 0-.09 0 12.864 12.945 0 0 0-.12.002 12.864 12.945 0 0 0-.12.002 12.864 12.945 0 0 0-.118.004 12.864 12.945 0 0 0-.119.004 12.864 12.945 0 0 0-.119.006 12.864 12.945 0 0 0-.118.007 12.864 12.945 0 0 0-.12.008 12.864 12.945 0 0 0-.118.01 12.864 12.945 0 0 0-.118.01 12.864 12.945 0 0 0-.119.011 12.864 12.945 0 0 0-.118.013 12.864 12.945 0 0 0-.118.013 12.864 12.945 0 0 0-.119.015 12.864 12.945 0 0 0-.117.016 12.864 12.945 0 0 0-.118.017 12.864 12.945 0 0 0-.118.018 12.864 12.945 0 0 0-.117.019 12.864 12.945 0 0 0-.118.02 12.864 12.945 0 0 0-.117.021 12.864 12.945 0 0 0-.117.023 12.864 12.945 0 0 0-.116.023 12.864 12.945 0 0 0-.117.025 12.864 12.945 0 0 0-.116.025 12.864 12.945 0 0 0-.116.027 12.864 12.945 0 0 0-.116.028 12.864 12.945 0 0 0-.115.028 12.864 12.945 0 0 0-.116.03 12.864 12.945 0 0 0-.115.031 12.864 12.945 0 0 0-.114.032 12.864 12.945 0 0 0-.115.033 12.864 12.945 0 0 0-.114.035 12.864 12.945 0 0 0-.113.035 12.864 12.945 0 0 0-.114.036 12.864 12.945 0 0 0-.113.037 12.864 12.945 0 0 0-.113.039 12.864 12.945 0 0 0-.112.04 12.864 12.945 0 0 0-.112.04 12.864 12.945 0 0 0-.112.041 12.864 12.945 0 0 0-.111.043 12.864 12.945 0 0 0-.111.043 12.864 12.945 0 0 0-.11.045 12.864 12.945 0 0 0-.11.046 12.864 12.945 0 0 0-.11.047 12.864 12.945 0 0 0-.11.047 12.864 12.945 0 0 0-.108.05 12.864 12.945 0 0 0-.108.049 12.864 12.945 0 0 0-.108.05 12.864 12.945 0 0 0-.107.052 12.864 12.945 0 0 0-.107.053 12.864 12.945 0 0 0-.107.054 12.864 12.945 0 0 0-.105.055 12.864 12.945 0 0 0-.106.055 12.864 12.945 0 0 0-.105.057 12.864 12.945 0 0 0-.104.057 12.864 12.945 0 0 0-.104.06 12.864 12.945 0 0 0-.103.058 12.864 12.945 0 0 0-.103.061 12.864 12.945 0 0 0-.102.062 12.864 12.945 0 0 0-.101.062 12.864 12.945 0 0 0-.102.063 12.864 12.945 0 0 0-.1.065 12.864 12.945 0 0 0-.1.065 12.864 12.945 0 0 0-.099.066 12.864 12.945 0 0 0-.098.067 12.864 12.945 0 0 0-.098.068 12.864 12.945 0 0 0-.098.07 12.864 12.945 0 0 0-.096.07 12.864 12.945 0 0 0-.096.07 12.864 12.945 0 0 0-.096.072 12.864 12.945 0 0 0-.094.072 12.864 12.945 0 0 0-.094.073 12.864 12.945 0 0 0-.094.075 12.864 12.945 0 0 0-.092.075 12.864 12.945 0 0 0-.093.076 12.864 12.945 0 0 0-.09.077 12.864 12.945 0 0 0-.091.077 12.864 12.945 0 0 0-.09.079 12.864 12.945 0 0 0-.09.08 12.864 12.945 0 0 0-.088.08 12.864 12.945 0 0 0-.087.08 12.864 12.945 0 0 0-.087.082 12.864 12.945 0 0 0-.086.083 12.864 12.945 0 0 0-.086.083 12.864 12.945 0 0 0-.084.085 12.864 12.945 0 0 0-.084.084 12.864 12.945 0 0 0-.083.086 12.864 12.945 0 0 0-.083.087 12.864 12.945 0 0 0-.081.087 12.864 12.945 0 0 0-.08.088 12.864 12.945 0 0 0-.08.089 12.864 12.945 0 0 0-.08.09 12.864 12.945 0 0 0-.078.09 12.864 12.945 0 0 0-.077.09 12.864 12.945 0 0 0-.077.092 12.864 12.945 0 0 0-.075.093 12.864 12.945 0 0 0-.075.093 12.864 12.945 0 0 0-.074.094 12.864 12.945 0 0 0-.073.094 12.864 12.945 0 0 0-.072.095 12.864 12.945 0 0 0-.072.096 12.864 12.945 0 0 0-.07.097 12.864 12.945 0 0 0-.07.097 12.864 12.945 0 0 0-.069.098 12.864 12.945 0 0 0-.067.098 12.864 12.945 0 0 0-.067.1 12.864 12.945 0 0 0-.066.1 12.864 12.945 0 0 0-.065.1 12.864 12.945 0 0 0-.065.1 12.864 12.945 0 0 0-.063.102 12.864 12.945 0 0 0-.062.102 12.864 12.945 0 0 0-.061.102 12.864 12.945 0 0 0-.06.104 12.864 12.945 0 0 0-.06.104 12.864 12.945 0 0 0-.058.104 12.864 12.945 0 0 0-.058.105 12.864 12.945 0 0 0-.056.105 12.864 12.945 0 0 0-.056.106 12.864 12.945 0 0 0-.055.106 12.864 12.945 0 0 0-.053.107 12.864 12.945 0 0 0-.053.108 12.864 12.945 0 0 0-.052.108 12.864 12.945 0 0 0-.05.108 12.864 12.945 0 0 0-.05.109 12.864 12.945 0 0 0-.049.11 12.864 12.945 0 0 0-.047.109 12.864 12.945 0 0 0-.047.11 12.864 12.945 0 0 0-.045.11 12.864 12.945 0 0 0-.045.112 12.864 12.945 0 0 0-.044.111 12.864 12.945 0 0 0-.042.112 12.864 12.945 0 0 0-.042.112 12.864 12.945 0 0 0-.04.113 12.864 12.945 0 0 0-.037.106 12.864 12.945 0 0 0-.002.006 12.864 12.945 0 0 0-.616 3.957 12.864 12.945 0 0 0 12.864 12.945 12.864 12.945 0 0 0 12.155-8.708 12.864 12.945 0 0 0 0-.005z"/><path style="opacity:.997;fill:#9f703a;fill-opacity:1;stroke:none;stroke-width:1.94634;stroke-linejoin:round" d="M1005.108 76.93a6.837 6.837 0 0 0 .012-.034 6.837 6.837 0 0 0 .02-.06 6.837 6.837 0 0 0 .018-.061 6.837 6.837 0 0 0 .018-.061 6.837 6.837 0 0 0 .017-.061 6.837 6.837 0 0 0 .017-.061 6.837 6.837 0 0 0 .016-.061 6.837 6.837 0 0 0 .016-.062 6.837 6.837 0 0 0 .015-.061 6.837 6.837 0 0 0 .014-.062 6.837 6.837 0 0 0 .013-.062 6.837 6.837 0 0 0 .013-.062 6.837 6.837 0 0 0 .013-.062 6.837 6.837 0 0 0 .012-.062 6.837 6.837 0 0 0 .012-.062 6.837 6.837 0 0 0 .012-.062 6.837 6.837 0 0 0 .011-.063 6.837 6.837 0 0 0 .01-.062 6.837 6.837 0 0 0 .01-.063 6.837 6.837 0 0 0 .01-.063 6.837 6.837 0 0 0 .01-.062 6.837 6.837 0 0 0 .01-.063 6.837 6.837 0 0 0 .01-.063 6.837 6.837 0 0 0 .01-.063 6.837 6.837 0 0 0 .01-.063 6.837 6.837 0 0 0 0-.063 6.837 6.837 0 0 0 0-.063 6.837 6.837 0 0 0 0-.063 6.837 6.837 0 0 0 0-.063 6.837 6.837 0 0 0 0-.064 6.837 6.837 0 0 0 0-.063 6.837 6.837 0 0 0 0-.063 6.837 6.837 0 0 0 0-.063 6.837 6.837 0 0 0 0-.064 6.837 6.837 0 0 0 0-.049 6.837 6.837 0 0 0 0-.063 6.837 6.837 0 0 0 0-.063 6.837 6.837 0 0 0 0-.063 6.837 6.837 0 0 0 0-.064 6.837 6.837 0 0 0 0-.063 6.837 6.837 0 0 0 0-.063 6.837 6.837 0 0 0 0-.063 6.837 6.837 0 0 0 0-.063 6.837 6.837 0 0 0-.01-.063 6.837 6.837 0 0 0-.01-.063 6.837 6.837 0 0 0-.01-.063 6.837 6.837 0 0 0-.01-.063 6.837 6.837 0 0 0-.01-.063 6.837 6.837 0 0 0-.01-.063 6.837 6.837 0 0 0-.01-.062 6.837 6.837 0 0 0-.01-.063 6.837 6.837 0 0 0-.01-.062 6.837 6.837 0 0 0-.012-.062 6.837 6.837 0 0 0-.012-.063 6.837 6.837 0 0 0-.012-.062 6.837 6.837 0 0 0-.012-.062 6.837 6.837 0 0 0-.013-.062 6.837 6.837 0 0 0-.013-.062 6.837 6.837 0 0 0-.014-.061 6.837 6.837 0 0 0-.015-.062 6.837 6.837 0 0 0-.016-.061 6.837 6.837 0 0 0-.016-.062 6.837 6.837 0 0 0-.017-.06 6.837 6.837 0 0 0-.017-.062 6.837 6.837 0 0 0-.018-.06 6.837 6.837 0 0 0-.019-.061 6.837 6.837 0 0 0-.019-.06 6.837 6.837 0 0 0-.019-.06 6.837 6.837 0 0 0-.02-.06 6.837 6.837 0 0 0-.019-.06 6.837 6.837 0 0 0-.02-.06 6.837 6.837 0 0 0-.02-.06 6.837 6.837 0 0 0-.022-.06 6.837 6.837 0 0 0-.023-.059 6.837 6.837 0 0 0-.023-.058 6.837 6.837 0 0 0-.023-.06 6.837 6.837 0 0 0-.024-.058 6.837 6.837 0 0 0-.024-.058 6.837 6.837 0 0 0-.025-.058 6.837 6.837 0 0 0-.025-.058 6.837 6.837 0 0 0-.026-.057 6.837 6.837 0 0 0-.027-.058 6.837 6.837 0 0 0-.027-.057 6.837 6.837 0 0 0-.028-.056 6.837 6.837 0 0 0-.028-.057 6.837 6.837 0 0 0-.028-.056 6.837 6.837 0 0 0-.029-.056 6.837 6.837 0 0 0-.029-.056 6.837 6.837 0 0 0-.03-.055 6.837 6.837 0 0 0-.03-.055 6.837 6.837 0 0 0-.032-.055 6.837 6.837 0 0 0-.032-.055 6.837 6.837 0 0 0-.032-.054 6.837 6.837 0 0 0-.033-.054 6.837 6.837 0 0 0-.033-.054 6.837 6.837 0 0 0-.034-.053 6.837 6.837 0 0 0-.035-.053 6.837 6.837 0 0 0-.035-.053 6.837 6.837 0 0 0-.036-.053 6.837 6.837 0 0 0-.035-.052 6.837 6.837 0 0 0-.036-.051 6.837 6.837 0 0 0-.036-.052 6.837 6.837 0 0 0-.037-.05 6.837 6.837 0 0 0-.037-.051 6.837 6.837 0 0 0-.038-.05 6.837 6.837 0 0 0-.039-.05 6.837 6.837 0 0 0-.039-.05 6.837 6.837 0 0 0-.04-.05 6.837 6.837 0 0 0-.04-.049 6.837 6.837 0 0 0-.04-.048 6.837 6.837 0 0 0-.042-.048 6.837 6.837 0 0 0-.042-.048 6.837 6.837 0 0 0-.042-.047 6.837 6.837 0 0 0-.043-.047 6.837 6.837 0 0 0-.043-.047 6.837 6.837 0 0 0-.043-.046 6.837 6.837 0 0 0-.044-.046 6.837 6.837 0 0 0-.043-.045 6.837 6.837 0 0 0-.044-.045 6.837 6.837 0 0 0-.045-.045 6.837 6.837 0 0 0-.045-.044 6.837 6.837 0 0 0-.046-.044 6.837 6.837 0 0 0-.046-.043 6.837 6.837 0 0 0-.046-.043 6.837 6.837 0 0 0-.047-.043 6.837 6.837 0 0 0-.047-.042 6.837 6.837 0 0 0-.048-.041 6.837 6.837 0 0 0-.048-.041 6.837 6.837 0 0 0-.049-.04 6.837 6.837 0 0 0-.049-.041 6.837 6.837 0 0 0-.049-.04 6.837 6.837 0 0 0-.05-.04 6.837 6.837 0 0 0-.05-.038 6.837 6.837 0 0 0-.05-.039 6.837 6.837 0 0 0-.052-.037 6.837 6.837 0 0 0-.052-.038 6.837 6.837 0 0 0-.052-.037 6.837 6.837 0 0 0-.052-.036 6.837 6.837 0 0 0-.052-.036 6.837 6.837 0 0 0-.052-.036 6.837 6.837 0 0 0-.053-.035 6.837 6.837 0 0 0-.053-.035 6.837 6.837 0 0 0-.053-.034 6.837 6.837 0 0 0-.054-.033 6.837 6.837 0 0 0-.054-.033 6.837 6.837 0 0 0-.054-.033 6.837 6.837 0 0 0-.055-.032 6.837 6.837 0 0 0-.055-.032 6.837 6.837 0 0 0-.055-.03 6.837 6.837 0 0 0-.056-.031 6.837 6.837 0 0 0-.056-.03 6.837 6.837 0 0 0-.056-.03 6.837 6.837 0 0 0-.057-.029 6.837 6.837 0 0 0-.057-.028 6.837 6.837 0 0 0-.057-.028 6.837 6.837 0 0 0-.058-.028 6.837 6.837 0 0 0-.058-.027 6.837 6.837 0 0 0-.058-.026 6.837 6.837 0 0 0-.058-.026 6.837 6.837 0 0 0-.059-.025 6.837 6.837 0 0 0-.059-.025 6.837 6.837 0 0 0-.059-.024 6.837 6.837 0 0 0-.059-.024 6.837 6.837 0 0 0-.06-.023 6.837 6.837 0 0 0-.06-.023 6.837 6.837 0 0 0-.06-.022 6.837 6.837 0 0 0-.06-.021 6.837 6.837 0 0 0-.06-.021 6.837 6.837 0 0 0-.06-.02 6.837 6.837 0 0 0-.06-.02 6.837 6.837 0 0 0-.06-.02 6.837 6.837 0 0 0-.06-.019 6.837 6.837 0 0 0-.06-.018 6.837 6.837 0 0 0-.062-.017 6.837 6.837 0 0 0-.06-.017 6.837 6.837 0 0 0-.062-.017 6.837 6.837 0 0 0-.06-.016 6.837 6.837 0 0 0-.062-.015 6.837 6.837 0 0 0-.062-.015 6.837 6.837 0 0 0-.062-.014 6.837 6.837 0 0 0-.062-.014 6.837 6.837 0 0 0-.061-.013 6.837 6.837 0 0 0-.062-.012 6.837 6.837 0 0 0-.063-.012 6.837 6.837 0 0 0-.062-.012 6.837 6.837 0 0 0-.063-.01 6.837 6.837 0 0 0-.063-.01 6.837 6.837 0 0 0-.062-.01 6.837 6.837 0 0 0-.063-.01 6.837 6.837 0 0 0-.063-.008 6.837 6.837 0 0 0-.062-.008 6.837 6.837 0 0 0-.063-.007 6.837 6.837 0 0 0-.063-.007 6.837 6.837 0 0 0-.062-.006 6.837 6.837 0 0 0-.064-.005 6.837 6.837 0 0 0-.063-.005 6.837 6.837 0 0 0-.062-.005 6.837 6.837 0 0 0-.064-.004 6.837 6.837 0 0 0-.062-.003 6.837 6.837 0 0 0-.064-.002 6.837 6.837 0 0 0-.063-.003 6.837 6.837 0 0 0-.064-.001 6.837 6.837 0 0 0-.063-.001 6.837 6.837 0 0 0-.064 0 6.837 6.837 0 0 0-.049 0 6.837 6.837 0 0 0-.063 0 6.837 6.837 0 0 0-.063.002 6.837 6.837 0 0 0-.064.002 6.837 6.837 0 0 0-.063.002 6.837 6.837 0 0 0-.063.004 6.837 6.837 0 0 0-.063.003 6.837 6.837 0 0 0-.063.004 6.837 6.837 0 0 0-.063.005 6.837 6.837 0 0 0-.063.006 6.837 6.837 0 0 0-.063.006 6.837 6.837 0 0 0-.063.006 6.837 6.837 0 0 0-.063.008 6.837 6.837 0 0 0-.063.007 6.837 6.837 0 0 0-.063.009 6.837 6.837 0 0 0-.062.009 6.837 6.837 0 0 0-.063.009 6.837 6.837 0 0 0-.062.01 6.837 6.837 0 0 0-.063.01 6.837 6.837 0 0 0-.062.012 6.837 6.837 0 0 0-.062.012 6.837 6.837 0 0 0-.062.012 6.837 6.837 0 0 0-.062.013 6.837 6.837 0 0 0-.062.014 6.837 6.837 0 0 0-.062.014 6.837 6.837 0 0 0-.061.014 6.837 6.837 0 0 0-.061.016 6.837 6.837 0 0 0-.062.015 6.837 6.837 0 0 0-.06.017 6.837 6.837 0 0 0-.062.017 6.837 6.837 0 0 0-.06.017 6.837 6.837 0 0 0-.061.018 6.837 6.837 0 0 0-.06.019 6.837 6.837 0 0 0-.061.019 6.837 6.837 0 0 0-.06.02 6.837 6.837 0 0 0-.06.02 6.837 6.837 0 0 0-.06.02 6.837 6.837 0 0 0-.06.022 6.837 6.837 0 0 0-.058.022 6.837 6.837 0 0 0-.06.023 6.837 6.837 0 0 0-.059.023 6.837 6.837 0 0 0-.058.023 6.837 6.837 0 0 0-.059.024 6.837 6.837 0 0 0-.058.025 6.837 6.837 0 0 0-.058.025 6.837 6.837 0 0 0-.058.026 6.837 6.837 0 0 0-.057.026 6.837 6.837 0 0 0-.058.027 6.837 6.837 0 0 0-.057.027 6.837 6.837 0 0 0-.057.028 6.837 6.837 0 0 0-.056.029 6.837 6.837 0 0 0-.057.029 6.837 6.837 0 0 0-.056.029 6.837 6.837 0 0 0-.055.03 6.837 6.837 0 0 0-.056.03 6.837 6.837 0 0 0-.055.031 6.837 6.837 0 0 0-.055.032 6.837 6.837 0 0 0-.054.032 6.837 6.837 0 0 0-.055.032 6.837 6.837 0 0 0-.054.033 6.837 6.837 0 0 0-.053.034 6.837 6.837 0 0 0-.054.034 6.837 6.837 0 0 0-.053.034 6.837 6.837 0 0 0-.052.035 6.837 6.837 0 0 0-.053.035 6.837 6.837 0 0 0-.052.036 6.837 6.837 0 0 0-.052.037 6.837 6.837 0 0 0-.05.037 6.837 6.837 0 0 0-.052.037 6.837 6.837 0 0 0-.05.038 6.837 6.837 0 0 0-.051.038 6.837 6.837 0 0 0-.05.039 6.837 6.837 0 0 0-.05.04 6.837 6.837 0 0 0-.049.039 6.837 6.837 0 0 0-.049.04 6.837 6.837 0 0 0-.048.04 6.837 6.837 0 0 0-.048.042 6.837 6.837 0 0 0-.048.041 6.837 6.837 0 0 0-.047.042 6.837 6.837 0 0 0-.047.042 6.837 6.837 0 0 0-.047.043 6.837 6.837 0 0 0-.046.043 6.837 6.837 0 0 0-.046.044 6.837 6.837 0 0 0-.045.044 6.837 6.837 0 0 0-.045.045 6.837 6.837 0 0 0-.045.044 6.837 6.837 0 0 0-.044.046 6.837 6.837 0 0 0-.044.045 6.837 6.837 0 0 0-.043.046 6.837 6.837 0 0 0-.043.047 6.837 6.837 0 0 0-.043.047 6.837 6.837 0 0 0-.042.047 6.837 6.837 0 0 0-.041.048 6.837 6.837 0 0 0-.041.048 6.837 6.837 0 0 0-.04.048 6.837 6.837 0 0 0-.041.05 6.837 6.837 0 0 0-.04.048 6.837 6.837 0 0 0-.04.05 6.837 6.837 0 0 0-.038.05 6.837 6.837 0 0 0-.038.05 6.837 6.837 0 0 0-.038.05 6.837 6.837 0 0 0-.038.052 6.837 6.837 0 0 0-.037.051 6.837 6.837 0 0 0-.036.052 6.837 6.837 0 0 0-.036.052 6.837 6.837 0 0 0-.036.052 6.837 6.837 0 0 0-.035.053 6.837 6.837 0 0 0-.034.053 6.837 6.837 0 0 0-.035.053 6.837 6.837 0 0 0-.033.054 6.837 6.837 0 0 0-.033.053 6.837 6.837 0 0 0-.033.055 6.837 6.837 0 0 0-.032.054 6.837 6.837 0 0 0-.032.055 6.837 6.837 0 0 0-.03.055 6.837 6.837 0 0 0-.031.055 6.837 6.837 0 0 0-.03.056 6.837 6.837 0 0 0-.03.056 6.837 6.837 0 0 0-.029.056 6.837 6.837 0 0 0-.028.057 6.837 6.837 0 0 0-.028.057 6.837 6.837 0 0 0-.028.056 6.837 6.837 0 0 0-.027.058 6.837 6.837 0 0 0-.026.057 6.837 6.837 0 0 0-.026.058 6.837 6.837 0 0 0-.025.058 6.837 6.837 0 0 0-.025.058 6.837 6.837 0 0 0-.024.059 6.837 6.837 0 0 0-.024.058 6.837 6.837 0 0 0-.023.06 6.837 6.837 0 0 0-.023.058 6.837 6.837 0 0 0-.022.06 6.837 6.837 0 0 0-.021.059 6.837 6.837 0 0 0-.02.056 6.837 6.837 0 0 0-.001.004 6.837 6.837 0 0 0-.327 2.09 6.837 6.837 0 0 0 6.837 6.837 6.837 6.837 0 0 0 6.461-4.6 6.837 6.837 0 0 0 0-.002z" transform="matrix(1.62505 0 0 1.63773 -1582.552 -57.122)"/><path style="opacity:.997;fill:#ecd29f;fill-opacity:1;stroke:none;stroke-width:1.86922;stroke-linejoin:round" d="M1004.86 76.844a6.567 6.567 0 0 0 .011-.033 6.567 6.567 0 0 0 .02-.058 6.567 6.567 0 0 0 .017-.058 6.567 6.567 0 0 0 .016-.059 6.567 6.567 0 0 0 .015-.058 6.567 6.567 0 0 0 .015-.059 6.567 6.567 0 0 0 .016-.058 6.567 6.567 0 0 0 .014-.06 6.567 6.567 0 0 0 .014-.058 6.567 6.567 0 0 0 .013-.06 6.567 6.567 0 0 0 .012-.059 6.567 6.567 0 0 0 .012-.06 6.567 6.567 0 0 0 .012-.059 6.567 6.567 0 0 0 .011-.06 6.567 6.567 0 0 0 .011-.06 6.567 6.567 0 0 0 .011-.06 6.567 6.567 0 0 0 .01-.06 6.567 6.567 0 0 0 .01-.06 6.567 6.567 0 0 0 .01-.06 6.567 6.567 0 0 0 .01-.06 6.567 6.567 0 0 0 .01-.06 6.567 6.567 0 0 0 .01-.06 6.567 6.567 0 0 0 .01-.06 6.567 6.567 0 0 0 .01-.061 6.567 6.567 0 0 0 .01-.06 6.567 6.567 0 0 0 0-.061 6.567 6.567 0 0 0 0-.06 6.567 6.567 0 0 0 0-.061 6.567 6.567 0 0 0 0-.061 6.567 6.567 0 0 0 0-.06 6.567 6.567 0 0 0 0-.062 6.567 6.567 0 0 0 0-.06 6.567 6.567 0 0 0 0-.06 6.567 6.567 0 0 0 0-.062 6.567 6.567 0 0 0 0-.047 6.567 6.567 0 0 0 0-.06 6.567 6.567 0 0 0 0-.061 6.567 6.567 0 0 0 0-.061 6.567 6.567 0 0 0 0-.06 6.567 6.567 0 0 0 0-.062 6.567 6.567 0 0 0 0-.06 6.567 6.567 0 0 0 0-.06 6.567 6.567 0 0 0 0-.061 6.567 6.567 0 0 0-.01-.06 6.567 6.567 0 0 0-.01-.061 6.567 6.567 0 0 0-.01-.06 6.567 6.567 0 0 0-.01-.061 6.567 6.567 0 0 0-.01-.06 6.567 6.567 0 0 0-.01-.06 6.567 6.567 0 0 0-.01-.06 6.567 6.567 0 0 0-.01-.06 6.567 6.567 0 0 0-.01-.06 6.567 6.567 0 0 0-.01-.06 6.567 6.567 0 0 0-.011-.06 6.567 6.567 0 0 0-.011-.06 6.567 6.567 0 0 0-.011-.06 6.567 6.567 0 0 0-.012-.06 6.567 6.567 0 0 0-.012-.059 6.567 6.567 0 0 0-.013-.059 6.567 6.567 0 0 0-.014-.059 6.567 6.567 0 0 0-.016-.059 6.567 6.567 0 0 0-.015-.059 6.567 6.567 0 0 0-.015-.058 6.567 6.567 0 0 0-.015-.059 6.567 6.567 0 0 0-.017-.058 6.567 6.567 0 0 0-.017-.059 6.567 6.567 0 0 0-.018-.058 6.567 6.567 0 0 0-.019-.058 6.567 6.567 0 0 0-.019-.057 6.567 6.567 0 0 0-.019-.058 6.567 6.567 0 0 0-.02-.057 6.567 6.567 0 0 0-.02-.057 6.567 6.567 0 0 0-.021-.057 6.567 6.567 0 0 0-.022-.057 6.567 6.567 0 0 0-.022-.057 6.567 6.567 0 0 0-.023-.056 6.567 6.567 0 0 0-.024-.056 6.567 6.567 0 0 0-.024-.056 6.567 6.567 0 0 0-.025-.056 6.567 6.567 0 0 0-.025-.055 6.567 6.567 0 0 0-.026-.056 6.567 6.567 0 0 0-.026-.055 6.567 6.567 0 0 0-.026-.054 6.567 6.567 0 0 0-.027-.055 6.567 6.567 0 0 0-.027-.054 6.567 6.567 0 0 0-.027-.054 6.567 6.567 0 0 0-.028-.054 6.567 6.567 0 0 0-.028-.054 6.567 6.567 0 0 0-.029-.053 6.567 6.567 0 0 0-.03-.053 6.567 6.567 0 0 0-.03-.053 6.567 6.567 0 0 0-.031-.052 6.567 6.567 0 0 0-.031-.052 6.567 6.567 0 0 0-.032-.052 6.567 6.567 0 0 0-.032-.052 6.567 6.567 0 0 0-.033-.05 6.567 6.567 0 0 0-.034-.052 6.567 6.567 0 0 0-.034-.05 6.567 6.567 0 0 0-.035-.05 6.567 6.567 0 0 0-.034-.05 6.567 6.567 0 0 0-.035-.05 6.567 6.567 0 0 0-.035-.05 6.567 6.567 0 0 0-.036-.049 6.567 6.567 0 0 0-.036-.048 6.567 6.567 0 0 0-.036-.049 6.567 6.567 0 0 0-.037-.048 6.567 6.567 0 0 0-.038-.048 6.567 6.567 0 0 0-.038-.047 6.567 6.567 0 0 0-.038-.047 6.567 6.567 0 0 0-.039-.046 6.567 6.567 0 0 0-.039-.047 6.567 6.567 0 0 0-.04-.046 6.567 6.567 0 0 0-.04-.045 6.567 6.567 0 0 0-.041-.045 6.567 6.567 0 0 0-.041-.045 6.567 6.567 0 0 0-.041-.044 6.567 6.567 0 0 0-.042-.044 6.567 6.567 0 0 0-.041-.044 6.567 6.567 0 0 0-.042-.043 6.567 6.567 0 0 0-.043-.043 6.567 6.567 0 0 0-.043-.042 6.567 6.567 0 0 0-.044-.042 6.567 6.567 0 0 0-.044-.042 6.567 6.567 0 0 0-.044-.041 6.567 6.567 0 0 0-.045-.04 6.567 6.567 0 0 0-.045-.041 6.567 6.567 0 0 0-.046-.04 6.567 6.567 0 0 0-.046-.04 6.567 6.567 0 0 0-.048-.039 6.567 6.567 0 0 0-.046-.038 6.567 6.567 0 0 0-.047-.039 6.567 6.567 0 0 0-.047-.037 6.567 6.567 0 0 0-.047-.038 6.567 6.567 0 0 0-.048-.037 6.567 6.567 0 0 0-.048-.036 6.567 6.567 0 0 0-.049-.036 6.567 6.567 0 0 0-.049-.035 6.567 6.567 0 0 0-.049-.036 6.567 6.567 0 0 0-.049-.034 6.567 6.567 0 0 0-.05-.034 6.567 6.567 0 0 0-.05-.034 6.567 6.567 0 0 0-.051-.033 6.567 6.567 0 0 0-.051-.033 6.567 6.567 0 0 0-.051-.032 6.567 6.567 0 0 0-.052-.032 6.567 6.567 0 0 0-.052-.031 6.567 6.567 0 0 0-.053-.031 6.567 6.567 0 0 0-.053-.03 6.567 6.567 0 0 0-.053-.03 6.567 6.567 0 0 0-.054-.03 6.567 6.567 0 0 0-.054-.028 6.567 6.567 0 0 0-.054-.029 6.567 6.567 0 0 0-.055-.028 6.567 6.567 0 0 0-.055-.027 6.567 6.567 0 0 0-.055-.027 6.567 6.567 0 0 0-.056-.026 6.567 6.567 0 0 0-.056-.026 6.567 6.567 0 0 0-.056-.025 6.567 6.567 0 0 0-.056-.025 6.567 6.567 0 0 0-.057-.025 6.567 6.567 0 0 0-.057-.023 6.567 6.567 0 0 0-.057-.024 6.567 6.567 0 0 0-.057-.022 6.567 6.567 0 0 0-.058-.023 6.567 6.567 0 0 0-.058-.021 6.567 6.567 0 0 0-.058-.022 6.567 6.567 0 0 0-.058-.02 6.567 6.567 0 0 0-.058-.02 6.567 6.567 0 0 0-.058-.02 6.567 6.567 0 0 0-.059-.019 6.567 6.567 0 0 0-.058-.018 6.567 6.567 0 0 0-.058-.018 6.567 6.567 0 0 0-.058-.018 6.567 6.567 0 0 0-.059-.017 6.567 6.567 0 0 0-.059-.016 6.567 6.567 0 0 0-.059-.016 6.567 6.567 0 0 0-.059-.015 6.567 6.567 0 0 0-.059-.015 6.567 6.567 0 0 0-.06-.014 6.567 6.567 0 0 0-.06-.014 6.567 6.567 0 0 0-.06-.013 6.567 6.567 0 0 0-.06-.013 6.567 6.567 0 0 0-.059-.012 6.567 6.567 0 0 0-.06-.011 6.567 6.567 0 0 0-.06-.01 6.567 6.567 0 0 0-.06-.011 6.567 6.567 0 0 0-.06-.01 6.567 6.567 0 0 0-.06-.01 6.567 6.567 0 0 0-.06-.008 6.567 6.567 0 0 0-.06-.008 6.567 6.567 0 0 0-.061-.008 6.567 6.567 0 0 0-.06-.007 6.567 6.567 0 0 0-.06-.006 6.567 6.567 0 0 0-.06-.006 6.567 6.567 0 0 0-.062-.005 6.567 6.567 0 0 0-.06-.005 6.567 6.567 0 0 0-.06-.004 6.567 6.567 0 0 0-.061-.004 6.567 6.567 0 0 0-.06-.003 6.567 6.567 0 0 0-.061-.003 6.567 6.567 0 0 0-.061-.002 6.567 6.567 0 0 0-.061-.001 6.567 6.567 0 0 0-.061-.001 6.567 6.567 0 0 0-.061 0 6.567 6.567 0 0 0-.047 0 6.567 6.567 0 0 0-.06 0 6.567 6.567 0 0 0-.061.002 6.567 6.567 0 0 0-.061.002 6.567 6.567 0 0 0-.06.002 6.567 6.567 0 0 0-.061.003 6.567 6.567 0 0 0-.061.004 6.567 6.567 0 0 0-.06.004 6.567 6.567 0 0 0-.061.004 6.567 6.567 0 0 0-.06.006 6.567 6.567 0 0 0-.061.006 6.567 6.567 0 0 0-.06.006 6.567 6.567 0 0 0-.06.007 6.567 6.567 0 0 0-.061.007 6.567 6.567 0 0 0-.06.008 6.567 6.567 0 0 0-.06.009 6.567 6.567 0 0 0-.06.009 6.567 6.567 0 0 0-.06.01 6.567 6.567 0 0 0-.06.01 6.567 6.567 0 0 0-.06.01 6.567 6.567 0 0 0-.06.012 6.567 6.567 0 0 0-.06.012 6.567 6.567 0 0 0-.059.012 6.567 6.567 0 0 0-.06.013 6.567 6.567 0 0 0-.059.014 6.567 6.567 0 0 0-.059.014 6.567 6.567 0 0 0-.059.014 6.567 6.567 0 0 0-.059.015 6.567 6.567 0 0 0-.058.016 6.567 6.567 0 0 0-.059.017 6.567 6.567 0 0 0-.058.016 6.567 6.567 0 0 0-.058.018 6.567 6.567 0 0 0-.058.017 6.567 6.567 0 0 0-.058.019 6.567 6.567 0 0 0-.058.019 6.567 6.567 0 0 0-.058.02 6.567 6.567 0 0 0-.057.02 6.567 6.567 0 0 0-.057.02 6.567 6.567 0 0 0-.057.021 6.567 6.567 0 0 0-.057.022 6.567 6.567 0 0 0-.057.022 6.567 6.567 0 0 0-.056.022 6.567 6.567 0 0 0-.056.023 6.567 6.567 0 0 0-.056.024 6.567 6.567 0 0 0-.056.024 6.567 6.567 0 0 0-.055.025 6.567 6.567 0 0 0-.055.025 6.567 6.567 0 0 0-.055.026 6.567 6.567 0 0 0-.055.026 6.567 6.567 0 0 0-.055.027 6.567 6.567 0 0 0-.054.027 6.567 6.567 0 0 0-.054.028 6.567 6.567 0 0 0-.054.028 6.567 6.567 0 0 0-.053.03 6.567 6.567 0 0 0-.054.028 6.567 6.567 0 0 0-.053.03 6.567 6.567 0 0 0-.052.03 6.567 6.567 0 0 0-.053.03 6.567 6.567 0 0 0-.052.032 6.567 6.567 0 0 0-.052.032 6.567 6.567 0 0 0-.051.032 6.567 6.567 0 0 0-.052.032 6.567 6.567 0 0 0-.05.034 6.567 6.567 0 0 0-.051.033 6.567 6.567 0 0 0-.05.034 6.567 6.567 0 0 0-.05.035 6.567 6.567 0 0 0-.05.035 6.567 6.567 0 0 0-.05.035 6.567 6.567 0 0 0-.048.036 6.567 6.567 0 0 0-.05.036 6.567 6.567 0 0 0-.048.037 6.567 6.567 0 0 0-.047.037 6.567 6.567 0 0 0-.048.038 6.567 6.567 0 0 0-.047.038 6.567 6.567 0 0 0-.047.039 6.567 6.567 0 0 0-.047.039 6.567 6.567 0 0 0-.046.039 6.567 6.567 0 0 0-.046.04 6.567 6.567 0 0 0-.046.04 6.567 6.567 0 0 0-.045.04 6.567 6.567 0 0 0-.044.042 6.567 6.567 0 0 0-.045.041 6.567 6.567 0 0 0-.044.042 6.567 6.567 0 0 0-.043.043 6.567 6.567 0 0 0-.044.042 6.567 6.567 0 0 0-.042.043 6.567 6.567 0 0 0-.043.044 6.567 6.567 0 0 0-.042.044 6.567 6.567 0 0 0-.042.044 6.567 6.567 0 0 0-.04.045 6.567 6.567 0 0 0-.042.045 6.567 6.567 0 0 0-.04.045 6.567 6.567 0 0 0-.04.046 6.567 6.567 0 0 0-.04.046 6.567 6.567 0 0 0-.038.047 6.567 6.567 0 0 0-.04.047 6.567 6.567 0 0 0-.037.047 6.567 6.567 0 0 0-.038.048 6.567 6.567 0 0 0-.037.047 6.567 6.567 0 0 0-.037.049 6.567 6.567 0 0 0-.037.048 6.567 6.567 0 0 0-.036.05 6.567 6.567 0 0 0-.035.049 6.567 6.567 0 0 0-.035.05 6.567 6.567 0 0 0-.035.05 6.567 6.567 0 0 0-.034.05 6.567 6.567 0 0 0-.034.05 6.567 6.567 0 0 0-.033.05 6.567 6.567 0 0 0-.033.052 6.567 6.567 0 0 0-.032.052 6.567 6.567 0 0 0-.032.051 6.567 6.567 0 0 0-.03.052 6.567 6.567 0 0 0-.032.053 6.567 6.567 0 0 0-.03.052 6.567 6.567 0 0 0-.03.053 6.567 6.567 0 0 0-.03.053 6.567 6.567 0 0 0-.028.054 6.567 6.567 0 0 0-.029.054 6.567 6.567 0 0 0-.027.054 6.567 6.567 0 0 0-.028.054 6.567 6.567 0 0 0-.027.054 6.567 6.567 0 0 0-.026.055 6.567 6.567 0 0 0-.026.055 6.567 6.567 0 0 0-.025.055 6.567 6.567 0 0 0-.025.056 6.567 6.567 0 0 0-.024.055 6.567 6.567 0 0 0-.024.056 6.567 6.567 0 0 0-.023.056 6.567 6.567 0 0 0-.023.057 6.567 6.567 0 0 0-.022.056 6.567 6.567 0 0 0-.022.057 6.567 6.567 0 0 0-.021.057 6.567 6.567 0 0 0-.021.057 6.567 6.567 0 0 0-.019.054 6.567 6.567 0 0 0 0 .003 6.567 6.567 0 0 0-.315 2.007 6.567 6.567 0 0 0 6.567 6.567 6.567 6.567 0 0 0 6.204-4.418 6.567 6.567 0 0 0 0-.002z" transform="matrix(1.62505 0 0 1.63773 -1582.552 -57.122)"/><g style="fill:#161719;fill-opacity:1"><g style="fill:#161719;fill-opacity:1"><path d="M510.606 278.946c-6.976-67.424-39.648-133.408-92-185.76C309.582-15.773 147.918-31.485 58.254 58.274c-89.728 89.728-74.048 251.328 34.944 360.32 52.352 52.352 118.336 85.024 185.76 92 8.992.928 17.856 1.408 26.592 1.408 57.984 0 109.824-20.32 148-58.496 43.904-43.872 64.192-105.888 57.056-174.56zm-159.552 55.328c-35.712-27.264-74.432-38.048-116.48-49.568C128.718 255.682 76.142 167.362 63.854 63.843c29.824 35.968 51.84 77.056 88.448 107.168 39.008 32.064 81.952 43.744 129.12 57.408 103.552 30.048 154.784 117.6 166.56 219.52-32.32-38.848-56.032-82.433-96.928-113.665z" style="fill:#161719;fill-opacity:1" transform="matrix(-.00471 .00008 -.00008 -.00471 55.621 51.826)"/></g><g style="fill:#161719;fill-opacity:1"><path d="M510.606 278.946c-6.976-67.424-39.648-133.408-92-185.76C309.582-15.773 147.918-31.485 58.254 58.274c-89.728 89.728-74.048 251.328 34.944 360.32 52.352 52.352 118.336 85.024 185.76 92 8.992.928 17.856 1.408 26.592 1.408 57.984 0 109.824-20.32 148-58.496 43.904-43.872 64.192-105.888 57.056-174.56zm-159.552 55.328c-35.712-27.264-74.432-38.048-116.48-49.568C128.718 255.682 76.142 167.362 63.854 63.843c29.824 35.968 51.84 77.056 88.448 107.168 39.008 32.064 81.952 43.744 129.12 57.408 103.552 30.048 154.784 117.6 166.56 219.52-32.32-38.848-56.032-82.433-96.928-113.665z" style="fill:#161719;fill-opacity:1" transform="matrix(.00103 -.0046 .0046 .00103 52.886 54.258)"/></g><g style="fill:#161719;fill-opacity:1"><path d="M510.606 278.946c-6.976-67.424-39.648-133.408-92-185.76C309.582-15.773 147.918-31.485 58.254 58.274c-89.728 89.728-74.048 251.328 34.944 360.32 52.352 52.352 118.336 85.024 185.76 92 8.992.928 17.856 1.408 26.592 1.408 57.984 0 109.824-20.32 148-58.496 43.904-43.872 64.192-105.888 57.056-174.56zm-159.552 55.328c-35.712-27.264-74.432-38.048-116.48-49.568C128.718 255.682 76.142 167.362 63.854 63.843c29.824 35.968 51.84 77.056 88.448 107.168 39.008 32.064 81.952 43.744 129.12 57.408 103.552 30.048 154.784 117.6 166.56 219.52-32.32-38.848-56.032-82.433-96.928-113.665z" style="fill:#161719;fill-opacity:1" transform="matrix(-.00471 .00008 -.00008 -.00471 58.168 54.592)"/></g><g style="fill:#161719;fill-opacity:1"><path d="M510.606 278.946c-6.976-67.424-39.648-133.408-92-185.76C309.582-15.773 147.918-31.485 58.254 58.274c-89.728 89.728-74.048 251.328 34.944 360.32 52.352 52.352 118.336 85.024 185.76 92 8.992.928 17.856 1.408 26.592 1.408 57.984 0 109.824-20.32 148-58.496 43.904-43.872 64.192-105.888 57.056-174.56zm-159.552 55.328c-35.712-27.264-74.432-38.048-116.48-49.568C128.718 255.682 76.142 167.362 63.854 63.843c29.824 35.968 51.84 77.056 88.448 107.168 39.008 32.064 81.952 43.744 129.12 57.408 103.552 30.048 154.784 117.6 166.56 219.52-32.32-38.848-56.032-82.433-96.928-113.665z" style="fill:#161719;fill-opacity:1" transform="rotate(180 28.177 28.709) scale(.00364)"/></g></g><path style="fill:#fbf0da;fill-opacity:1;stroke:#ebe8d9;stroke-width:.031799;stroke-linecap:butt;stroke-linejoin:miter;stroke-opacity:1" d="M53.243 63.965c.052.299.105.848.034 1.63l5.784.086c-.035-.645-.182-1.26-1.232-1.637z"/><path style="fill:#fbf0da;fill-opacity:1;stroke:#f4ecdd;stroke-width:.031799;stroke-linecap:butt;stroke-linejoin:miter;stroke-opacity:1" d="M53.116 67.648c.05-.453.188-1.195.157-1.656l5.784.069c-.05.644-.215 1.254-1.275 1.604z"/><g style="fill:#161719;fill-opacity:1"><g style="fill:#161719;fill-opacity:1"><path d="M510.606 278.946c-6.976-67.424-39.648-133.408-92-185.76C309.582-15.773 147.918-31.485 58.254 58.274c-89.728 89.728-74.048 251.328 34.944 360.32 52.352 52.352 118.336 85.024 185.76 92 8.992.928 17.856 1.408 26.592 1.408 57.984 0 109.824-20.32 148-58.496 43.904-43.872 64.192-105.888 57.056-174.56zm-159.552 55.328c-35.712-27.264-74.432-38.048-116.48-49.568C128.718 255.682 76.142 167.362 63.854 63.843c29.824 35.968 51.84 77.056 88.448 107.168 39.008 32.064 81.952 43.744 129.12 57.408 103.552 30.048 154.784 117.6 166.56 219.52-32.32-38.848-56.032-82.433-96.928-113.665z" style="fill:#161719;fill-opacity:1" transform="rotate(141.455 17.802 23.337) scale(.00668)"/></g><g style="fill:#161719;fill-opacity:1"><path d="M510.606 278.946c-6.976-67.424-39.648-133.408-92-185.76C309.582-15.773 147.918-31.485 58.254 58.274c-89.728 89.728-74.048 251.328 34.944 360.32 52.352 52.352 118.336 85.024 185.76 92 8.992.928 17.856 1.408 26.592 1.408 57.984 0 109.824-20.32 148-58.496 43.904-43.872 64.192-105.888 57.056-174.56zm-159.552 55.328c-35.712-27.264-74.432-38.048-116.48-49.568C128.718 255.682 76.142 167.362 63.854 63.843c29.824 35.968 51.84 77.056 88.448 107.168 39.008 32.064 81.952 43.744 129.12 57.408 103.552 30.048 154.784 117.6 166.56 219.52-32.32-38.848-56.032-82.433-96.928-113.665z" style="fill:#161719;fill-opacity:1" transform="rotate(-114.982 33.991 3.36) scale(.00668)"/></g><g style="fill:#161719;fill-opacity:1"><path d="M510.606 278.946c-6.976-67.424-39.648-133.408-92-185.76C309.582-15.773 147.918-31.485 58.254 58.274c-89.728 89.728-74.048 251.328 34.944 360.32 52.352 52.352 118.336 85.024 185.76 92 8.992.928 17.856 1.408 26.592 1.408 57.984 0 109.824-20.32 148-58.496 43.904-43.872 64.192-105.888 57.056-174.56zm-159.552 55.328c-35.712-27.264-74.432-38.048-116.48-49.568C128.718 255.682 76.142 167.362 63.854 63.843c29.824 35.968 51.84 77.056 88.448 107.168 39.008 32.064 81.952 43.744 129.12 57.408 103.552 30.048 154.784 117.6 166.56 219.52-32.32-38.848-56.032-82.433-96.928-113.665z" style="fill:#161719;fill-opacity:1" transform="rotate(141.455 20.27 24.707) scale(.00668)"/></g><g style="fill:#161719;fill-opacity:1"><path d="M510.606 278.946c-6.976-67.424-39.648-133.408-92-185.76C309.582-15.773 147.918-31.485 58.254 58.274c-89.728 89.728-74.048 251.328 34.944 360.32 52.352 52.352 118.336 85.024 185.76 92 8.992.928 17.856 1.408 26.592 1.408 57.984 0 109.824-20.32 148-58.496 43.904-43.872 64.192-105.888 57.056-174.56zm-159.552 55.328c-35.712-27.264-74.432-38.048-116.48-49.568C128.718 255.682 76.142 167.362 63.854 63.843c29.824 35.968 51.84 77.056 88.448 107.168 39.008 32.064 81.952 43.744 129.12 57.408 103.552 30.048 154.784 117.6 166.56 219.52-32.32-38.848-56.032-82.433-96.928-113.665z" style="fill:#161719;fill-opacity:1" transform="rotate(141.476 19.882 26.711) scale(.00516)"/></g></g><g style="fill:#161719;fill-opacity:1"><g style="fill:#161719;fill-opacity:1"><path d="M510.606 278.946c-6.976-67.424-39.648-133.408-92-185.76C309.582-15.773 147.918-31.485 58.254 58.274c-89.728 89.728-74.048 251.328 34.944 360.32 52.352 52.352 118.336 85.024 185.76 92 8.992.928 17.856 1.408 26.592 1.408 57.984 0 109.824-20.32 148-58.496 43.904-43.872 64.192-105.888 57.056-174.56zm-159.552 55.328c-35.712-27.264-74.432-38.048-116.48-49.568C128.718 255.682 76.142 167.362 63.854 63.843c29.824 35.968 51.84 77.056 88.448 107.168 39.008 32.064 81.952 43.744 129.12 57.408 103.552 30.048 154.784 117.6 166.56 219.52-32.32-38.848-56.032-82.433-96.928-113.665z" style="fill:#161719;fill-opacity:1" transform="matrix(-.00144 -.00449 .00449 -.00144 64.34 42.416)"/></g><g style="fill:#161719;fill-opacity:1"><path d="M510.606 278.946c-6.976-67.424-39.648-133.408-92-185.76C309.582-15.773 147.918-31.485 58.254 58.274c-89.728 89.728-74.048 251.328 34.944 360.32 52.352 52.352 118.336 85.024 185.76 92 8.992.928 17.856 1.408 26.592 1.408 57.984 0 109.824-20.32 148-58.496 43.904-43.872 64.192-105.888 57.056-174.56zm-159.552 55.328c-35.712-27.264-74.432-38.048-116.48-49.568C128.718 255.682 76.142 167.362 63.854 63.843c29.824 35.968 51.84 77.056 88.448 107.168 39.008 32.064 81.952 43.744 129.12 57.408 103.552 30.048 154.784 117.6 166.56 219.52-32.32-38.848-56.032-82.433-96.928-113.665z" style="fill:#161719;fill-opacity:1" transform="matrix(.0047 -.00035 .00035 .0047 61.22 40.507)"/></g><g style="fill:#161719;fill-opacity:1"><path d="M510.606 278.946c-6.976-67.424-39.648-133.408-92-185.76C309.582-15.773 147.918-31.485 58.254 58.274c-89.728 89.728-74.048 251.328 34.944 360.32 52.352 52.352 118.336 85.024 185.76 92 8.992.928 17.856 1.408 26.592 1.408 57.984 0 109.824-20.32 148-58.496 43.904-43.872 64.192-105.888 57.056-174.56zm-159.552 55.328c-35.712-27.264-74.432-38.048-116.48-49.568C128.718 255.682 76.142 167.362 63.854 63.843c29.824 35.968 51.84 77.056 88.448 107.168 39.008 32.064 81.952 43.744 129.12 57.408 103.552 30.048 154.784 117.6 166.56 219.52-32.32-38.848-56.032-82.433-96.928-113.665z" style="fill:#161719;fill-opacity:1" transform="matrix(-.00144 -.00449 .00449 -.00144 62.435 45.658)"/></g><g style="fill:#161719;fill-opacity:1"><path d="M510.606 278.946c-6.976-67.424-39.648-133.408-92-185.76C309.582-15.773 147.918-31.485 58.254 58.274c-89.728 89.728-74.048 251.328 34.944 360.32 52.352 52.352 118.336 85.024 185.76 92 8.992.928 17.856 1.408 26.592 1.408 57.984 0 109.824-20.32 148-58.496 43.904-43.872 64.192-105.888 57.056-174.56zm-159.552 55.328c-35.712-27.264-74.432-38.048-116.48-49.568C128.718 255.682 76.142 167.362 63.854 63.843c29.824 35.968 51.84 77.056 88.448 107.168 39.008 32.064 81.952 43.744 129.12 57.408 103.552 30.048 154.784 117.6 166.56 219.52-32.32-38.848-56.032-82.433-96.928-113.665z" style="fill:#161719;fill-opacity:1" transform="rotate(-107.86 46.294 .753) scale(.00364)"/></g></g><g style="fill:#161719;fill-opacity:1"><g style="fill:#161719;fill-opacity:1"><path d="M510.606 278.946c-6.976-67.424-39.648-133.408-92-185.76C309.582-15.773 147.918-31.485 58.254 58.274c-89.728 89.728-74.048 251.328 34.944 360.32 52.352 52.352 118.336 85.024 185.76 92 8.992.928 17.856 1.408 26.592 1.408 57.984 0 109.824-20.32 148-58.496 43.904-43.872 64.192-105.888 57.056-174.56zm-159.552 55.328c-35.712-27.264-74.432-38.048-116.48-49.568C128.718 255.682 76.142 167.362 63.854 63.843c29.824 35.968 51.84 77.056 88.448 107.168 39.008 32.064 81.952 43.744 129.12 57.408 103.552 30.048 154.784 117.6 166.56 219.52-32.32-38.848-56.032-82.433-96.928-113.665z" style="fill:#161719;fill-opacity:1" transform="matrix(-.00144 -.00449 .00449 -.00144 24.542 20.435)"/></g><g style="fill:#161719;fill-opacity:1"><path d="M510.606 278.946c-6.976-67.424-39.648-133.408-92-185.76C309.582-15.773 147.918-31.485 58.254 58.274c-89.728 89.728-74.048 251.328 34.944 360.32 52.352 52.352 118.336 85.024 185.76 92 8.992.928 17.856 1.408 26.592 1.408 57.984 0 109.824-20.32 148-58.496 43.904-43.872 64.192-105.888 57.056-174.56zm-159.552 55.328c-35.712-27.264-74.432-38.048-116.48-49.568C128.718 255.682 76.142 167.362 63.854 63.843c29.824 35.968 51.84 77.056 88.448 107.168 39.008 32.064 81.952 43.744 129.12 57.408 103.552 30.048 154.784 117.6 166.56 219.52-32.32-38.848-56.032-82.433-96.928-113.665z" style="fill:#161719;fill-opacity:1" transform="matrix(.0047 -.00035 .00035 .0047 21.421 18.525)"/></g><g style="fill:#161719;fill-opacity:1"><path d="M510.606 278.946c-6.976-67.424-39.648-133.408-92-185.76C309.582-15.773 147.918-31.485 58.254 58.274c-89.728 89.728-74.048 251.328 34.944 360.32 52.352 52.352 118.336 85.024 185.76 92 8.992.928 17.856 1.408 26.592 1.408 57.984 0 109.824-20.32 148-58.496 43.904-43.872 64.192-105.888 57.056-174.56zm-159.552 55.328c-35.712-27.264-74.432-38.048-116.48-49.568C128.718 255.682 76.142 167.362 63.854 63.843c29.824 35.968 51.84 77.056 88.448 107.168 39.008 32.064 81.952 43.744 129.12 57.408 103.552 30.048 154.784 117.6 166.56 219.52-32.32-38.848-56.032-82.433-96.928-113.665z" style="fill:#161719;fill-opacity:1" transform="matrix(-.00144 -.00449 .00449 -.00144 22.637 23.676)"/></g><g style="fill:#161719;fill-opacity:1"><path d="M510.606 278.946c-6.976-67.424-39.648-133.408-92-185.76C309.582-15.773 147.918-31.485 58.254 58.274c-89.728 89.728-74.048 251.328 34.944 360.32 52.352 52.352 118.336 85.024 185.76 92 8.992.928 17.856 1.408 26.592 1.408 57.984 0 109.824-20.32 148-58.496 43.904-43.872 64.192-105.888 57.056-174.56zm-159.552 55.328c-35.712-27.264-74.432-38.048-116.48-49.568C128.718 255.682 76.142 167.362 63.854 63.843c29.824 35.968 51.84 77.056 88.448 107.168 39.008 32.064 81.952 43.744 129.12 57.408 103.552 30.048 154.784 117.6 166.56 219.52-32.32-38.848-56.032-82.433-96.928-113.665z" style="fill:#161719;fill-opacity:1" transform="rotate(-107.86 18.397 4.266) scale(.00364)"/></g></g><g style="fill:#161719;fill-opacity:1"><g style="fill:#161719;fill-opacity:1"><path d="M510.606 278.946c-6.976-67.424-39.648-133.408-92-185.76C309.582-15.773 147.918-31.485 58.254 58.274c-89.728 89.728-74.048 251.328 34.944 360.32 52.352 52.352 118.336 85.024 185.76 92 8.992.928 17.856 1.408 26.592 1.408 57.984 0 109.824-20.32 148-58.496 43.904-43.872 64.192-105.888 57.056-174.56zm-159.552 55.328c-35.712-27.264-74.432-38.048-116.48-49.568C128.718 255.682 76.142 167.362 63.854 63.843c29.824 35.968 51.84 77.056 88.448 107.168 39.008 32.064 81.952 43.744 129.12 57.408 103.552 30.048 154.784 117.6 166.56 219.52-32.32-38.848-56.032-82.433-96.928-113.665z" style="fill:#161719;fill-opacity:1" transform="matrix(.0016 -.00443 .00443 .0016 63.587 26.765)"/></g><g style="fill:#161719;fill-opacity:1"><path d="M510.606 278.946c-6.976-67.424-39.648-133.408-92-185.76C309.582-15.773 147.918-31.485 58.254 58.274c-89.728 89.728-74.048 251.328 34.944 360.32 52.352 52.352 118.336 85.024 185.76 92 8.992.928 17.856 1.408 26.592 1.408 57.984 0 109.824-20.32 148-58.496 43.904-43.872 64.192-105.888 57.056-174.56zm-159.552 55.328c-35.712-27.264-74.432-38.048-116.48-49.568C128.718 255.682 76.142 167.362 63.854 63.843c29.824 35.968 51.84 77.056 88.448 107.168 39.008 32.064 81.952 43.744 129.12 57.408 103.552 30.048 154.784 117.6 166.56 219.52-32.32-38.848-56.032-82.433-96.928-113.665z" style="fill:#161719;fill-opacity:1" transform="matrix(.00393 .0026 -.0026 .00393 62.287 23.345)"/></g><g style="fill:#161719;fill-opacity:1"><path d="M510.606 278.946c-6.976-67.424-39.648-133.408-92-185.76C309.582-15.773 147.918-31.485 58.254 58.274c-89.728 89.728-74.048 251.328 34.944 360.32 52.352 52.352 118.336 85.024 185.76 92 8.992.928 17.856 1.408 26.592 1.408 57.984 0 109.824-20.32 148-58.496 43.904-43.872 64.192-105.888 57.056-174.56zm-159.552 55.328c-35.712-27.264-74.432-38.048-116.48-49.568C128.718 255.682 76.142 167.362 63.854 63.843c29.824 35.968 51.84 77.056 88.448 107.168 39.008 32.064 81.952 43.744 129.12 57.408 103.552 30.048 154.784 117.6 166.56 219.52-32.32-38.848-56.032-82.433-96.928-113.665z" style="fill:#161719;fill-opacity:1" transform="matrix(.0016 -.00443 .00443 .0016 60.097 28.163)"/></g><g style="fill:#161719;fill-opacity:1"><path d="M510.606 278.946c-6.976-67.424-39.648-133.408-92-185.76C309.582-15.773 147.918-31.485 58.254 58.274c-89.728 89.728-74.048 251.328 34.944 360.32 52.352 52.352 118.336 85.024 185.76 92 8.992.928 17.856 1.408 26.592 1.408 57.984 0 109.824-20.32 148-58.496 43.904-43.872 64.192-105.888 57.056-174.56zm-159.552 55.328c-35.712-27.264-74.432-38.048-116.48-49.568C128.718 255.682 76.142 167.362 63.854 63.843c29.824 35.968 51.84 77.056 88.448 107.168 39.008 32.064 81.952 43.744 129.12 57.408 103.552 30.048 154.784 117.6 166.56 219.52-32.32-38.848-56.032-82.433-96.928-113.665z" style="fill:#161719;fill-opacity:1" transform="rotate(-70.103 47.724 -28.548) scale(.00364)"/></g></g><g style="fill:#161719;fill-opacity:1"><g style="fill:#161719;fill-opacity:1"><path d="M510.606 278.946c-6.976-67.424-39.648-133.408-92-185.76C309.582-15.773 147.918-31.485 58.254 58.274c-89.728 89.728-74.048 251.328 34.944 360.32 52.352 52.352 118.336 85.024 185.76 92 8.992.928 17.856 1.408 26.592 1.408 57.984 0 109.824-20.32 148-58.496 43.904-43.872 64.192-105.888 57.056-174.56zm-159.552 55.328c-35.712-27.264-74.432-38.048-116.48-49.568C128.718 255.682 76.142 167.362 63.854 63.843c29.824 35.968 51.84 77.056 88.448 107.168 39.008 32.064 81.952 43.744 129.12 57.408 103.552 30.048 154.784 117.6 166.56 219.52-32.32-38.848-56.032-82.433-96.928-113.665z" style="fill:#161719;fill-opacity:1" transform="matrix(.00471 -.00017 .00017 .00471 48.804 14.653)"/></g><g style="fill:#161719;fill-opacity:1"><path d="M510.606 278.946c-6.976-67.424-39.648-133.408-92-185.76C309.582-15.773 147.918-31.485 58.254 58.274c-89.728 89.728-74.048 251.328 34.944 360.32 52.352 52.352 118.336 85.024 185.76 92 8.992.928 17.856 1.408 26.592 1.408 57.984 0 109.824-20.32 148-58.496 43.904-43.872 64.192-105.888 57.056-174.56zm-159.552 55.328c-35.712-27.264-74.432-38.048-116.48-49.568C128.718 255.682 76.142 167.362 63.854 63.843c29.824 35.968 51.84 77.056 88.448 107.168 39.008 32.064 81.952 43.744 129.12 57.408 103.552 30.048 154.784 117.6 166.56 219.52-32.32-38.848-56.032-82.433-96.928-113.665z" style="fill:#161719;fill-opacity:1" transform="matrix(-.00094 .00462 -.00462 -.00094 51.49 12.168)"/></g><g style="fill:#161719;fill-opacity:1"><path d="M510.606 278.946c-6.976-67.424-39.648-133.408-92-185.76C309.582-15.773 147.918-31.485 58.254 58.274c-89.728 89.728-74.048 251.328 34.944 360.32 52.352 52.352 118.336 85.024 185.76 92 8.992.928 17.856 1.408 26.592 1.408 57.984 0 109.824-20.32 148-58.496 43.904-43.872 64.192-105.888 57.056-174.56zm-159.552 55.328c-35.712-27.264-74.432-38.048-116.48-49.568C128.718 255.682 76.142 167.362 63.854 63.843c29.824 35.968 51.84 77.056 88.448 107.168 39.008 32.064 81.952 43.744 129.12 57.408 103.552 30.048 154.784 117.6 166.56 219.52-32.32-38.848-56.032-82.433-96.928-113.665z" style="fill:#161719;fill-opacity:1" transform="matrix(.00471 -.00017 .00017 .00471 46.202 11.939)"/></g><g style="fill:#161719;fill-opacity:1"><path d="M510.606 278.946c-6.976-67.424-39.648-133.408-92-185.76C309.582-15.773 147.918-31.485 58.254 58.274c-89.728 89.728-74.048 251.328 34.944 360.32 52.352 52.352 118.336 85.024 185.76 92 8.992.928 17.856 1.408 26.592 1.408 57.984 0 109.824-20.32 148-58.496 43.904-43.872 64.192-105.888 57.056-174.56zm-159.552 55.328c-35.712-27.264-74.432-38.048-116.48-49.568C128.718 255.682 76.142 167.362 63.854 63.843c29.824 35.968 51.84 77.056 88.448 107.168 39.008 32.064 81.952 43.744 129.12 57.408 103.552 30.048 154.784 117.6 166.56 219.52-32.32-38.848-56.032-82.433-96.928-113.665z" style="fill:#161719;fill-opacity:1" transform="translate(47.482 9.535) scale(.00364)"/></g></g><path style="opacity:1;fill:#161719;fill-opacity:1;stroke-width:.396875" d="M30.132 58.163a.467.467 0 0 0-.294.092.53.53 0 0 0-.135.15.652.652 0 0 0-.08.195.392.392 0 0 0 .001.194.5.5 0 0 0 .11.194.969.969 0 0 0 .235.188.862.862 0 0 0 .26.11.467.467 0 0 0 .409-.076.558.558 0 0 0 .21-.342.455.455 0 0 0-.117-.398.882.882 0 0 0-.222-.184.844.844 0 0 0-.26-.109.603.603 0 0 0-.117-.014zm-.02.272c.025 0 .05.005.076.013a.752.752 0 0 1 .319.193.271.271 0 0 1 .079.133.206.206 0 0 1-.034.15.203.203 0 0 1-.116.097.27.27 0 0 1-.153-.008.784.784 0 0 1-.17-.079.765.765 0 0 1-.147-.113.258.258 0 0 1-.074-.13.203.203 0 0 1 .033-.148.205.205 0 0 1 .117-.099.222.222 0 0 1 .07-.01zm-.796.637-.32.528.593.36v-.002a.673.673 0 0 1 .02-.132.358.358 0 0 1 .043-.103.193.193 0 0 1 .075-.074.156.156 0 0 1 .094-.022.216.216 0 0 1 .102.034c.03.019.053.04.066.066.014.026.02.053.017.08a.179.179 0 0 1-.025.079.318.318 0 0 1-.086.09.259.259 0 0 1-.108.045l.112.232a.58.58 0 0 0 .315-.25.42.42 0 0 0 .007-.424.442.442 0 0 0-.16-.162.45.45 0 0 0-.203-.066.384.384 0 0 0-.367.198.637.637 0 0 0-.024.043l-.007.017-.12-.073.2-.329zM39.62 52.733a1.519 1.519 0 0 0-.207.147 1.212 1.212 0 0 0-.172.178.838.838 0 0 0-.115.197.569.569 0 0 0-.041.213c0 .118.02.218.063.3a.447.447 0 0 0 .414.25c.077 0 .15-.017.22-.05a.403.403 0 0 0 .237-.38.396.396 0 0 0-.19-.35.334.334 0 0 0-.174-.05.341.341 0 0 0-.221.065c-.008.007-.015.017-.022.024.002-.004.002-.008.005-.013a.612.612 0 0 1 .14-.186.724.724 0 0 1 .244-.149zm1.04.019a.653.653 0 0 0-.207.031.393.393 0 0 0-.166.103.5.5 0 0 0-.108.194.968.968 0 0 0-.039.298c0 .107.014.2.041.28a.563.563 0 0 0 .112.195c.048.051.104.09.166.115a.557.557 0 0 0 .401.002.456.456 0 0 0 .166-.11.529.529 0 0 0 .113-.197.88.88 0 0 0 .042-.285c0-.107-.014-.2-.042-.277a.529.529 0 0 0-.113-.196.436.436 0 0 0-.166-.116.532.532 0 0 0-.2-.037zm-.002.26c.062 0 .111.017.146.05.035.03.06.072.073.126a.753.753 0 0 1 0 .373.271.271 0 0 1-.073.136.206.206 0 0 1-.146.048.202.202 0 0 1-.143-.048.27.27 0 0 1-.073-.134.786.786 0 0 1-.02-.187c0-.068.007-.13.02-.185a.258.258 0 0 1 .073-.13.202.202 0 0 1 .143-.048zm-1.107.403c.035 0 .065.007.093.02a.162.162 0 0 1 .094.153c0 .04-.009.075-.025.104a.164.164 0 0 1-.067.063.21.21 0 0 1-.19-.004.198.198 0 0 1-.067-.065.158.158 0 0 1-.025-.084v-.045c0-.024.008-.048.025-.069a.175.175 0 0 1 .067-.052.218.218 0 0 1 .095-.02zM30.183 70.811a.604.604 0 0 0-.117.02.881.881 0 0 0-.26.126.842.842 0 0 0-.207.19.53.53 0 0 0-.098.203.436.436 0 0 0-.003.202.533.533 0 0 0 .08.187.65.65 0 0 0 .142.153.393.393 0 0 0 .178.08c.066.012.14.005.221-.018a.97.97 0 0 0 .27-.135.86.86 0 0 0 .208-.19.567.567 0 0 0 .1-.202.465.465 0 0 0 .001-.201.558.558 0 0 0-.223-.333.456.456 0 0 0-.292-.082zm.025.276a.239.239 0 0 1 .073.004c.047.01.087.042.122.093.034.05.048.1.04.147a.271.271 0 0 1-.07.135.786.786 0 0 1-.144.121.758.758 0 0 1-.164.086.259.259 0 0 1-.149.013.203.203 0 0 1-.12-.092.206.206 0 0 1-.042-.148.247.247 0 0 1 .065-.13.68.68 0 0 1 .139-.121.752.752 0 0 1 .17-.088.321.321 0 0 1 .08-.02zm.859.621-.224.152-.083-.123-.17.115.083.122-.644.434.001.002 1.253.106.002-.001-.29-.43.224-.15zm-.242.492.068.102-.204-.01zM40.981 76.605a.48.48 0 0 0-.218.05.407.407 0 0 0-.226.376c0 .078.011.14.034.19a.293.293 0 0 0 .203.178c.007.002.014.001.02.002l-.236.455h.673v-.261h-.294l.2-.377-.005-.007a.498.498 0 0 1-.142.017.165.165 0 0 1-.127-.05.18.18 0 0 1-.046-.13c0-.04.009-.073.026-.1a.17.17 0 0 1 .145-.082c.042 0 .083.01.122.033a.3.3 0 0 1 .085.07l.138-.224a.432.432 0 0 0-.16-.103.55.55 0 0 0-.192-.037zm-1.142.013a.557.557 0 0 0-.199.035.456.456 0 0 0-.166.11.529.529 0 0 0-.114.196.88.88 0 0 0-.041.285c0 .107.014.2.041.278.028.08.066.145.114.196.047.052.103.09.166.115a.532.532 0 0 0 .2.038c.074 0 .143-.01.207-.032a.393.393 0 0 0 .166-.103.5.5 0 0 0 .108-.193.968.968 0 0 0 .039-.299c0-.107-.014-.2-.041-.28a.566.566 0 0 0-.112-.196.466.466 0 0 0-.166-.113.547.547 0 0 0-.202-.037zm.003.259c.06 0 .108.016.143.049a.27.27 0 0 1 .073.133c.014.056.02.119.02.187s-.006.13-.02.185a.258.258 0 0 1-.073.13.203.203 0 0 1-.143.049.206.206 0 0 1-.146-.049.246.246 0 0 1-.073-.126.751.751 0 0 1 0-.373.27.27 0 0 1 .073-.136.206.206 0 0 1 .146-.049zM50.548 70.138l-.453.77.226.132.155-.265.052.136c.024.059.05.114.077.165.028.052.06.1.097.14a.511.511 0 0 0 .127.105.391.391 0 0 0 .2.054.403.403 0 0 0 .369-.213.55.55 0 0 0 .083-.26.44.44 0 0 0-.048-.22.375.375 0 0 0-.14-.148.455.455 0 0 0-.108-.041.57.57 0 0 0-.14-.016.23.23 0 0 0-.123.036l.046.22a.296.296 0 0 1 .097-.006.285.285 0 0 1 .101.038c.015.008.028.02.038.035.01.015.016.033.02.053a.21.21 0 0 1-.028.137.21.21 0 0 1-.05.06.154.154 0 0 1-.059.033.165.165 0 0 1-.135-.017.394.394 0 0 1-.134-.136 1.067 1.067 0 0 1-.102-.216 3.89 3.89 0 0 1-.086-.27l-.082-.306Zm-.373 1.104a.466.466 0 0 0-.29.096.557.557 0 0 0-.205.345.457.457 0 0 0 .01.199c.02.067.057.133.112.197s.13.124.225.18c.092.054.18.089.26.105a.528.528 0 0 0 .227 0 .438.438 0 0 0 .184-.084.532.532 0 0 0 .133-.153.652.652 0 0 0 .078-.195.392.392 0 0 0-.005-.194.502.502 0 0 0-.112-.192.967.967 0 0 0-.238-.185.862.862 0 0 0-.262-.106.654.654 0 0 0-.117-.013zm-.012.272c.025.001.052.006.08.014a.784.784 0 0 1 .17.077.762.762 0 0 1 .15.11.26.26 0 0 1 .075.13c.01.046 0 .096-.031.148a.206.206 0 0 1-.116.101.245.245 0 0 1-.145-.001.756.756 0 0 1-.322-.189.272.272 0 0 1-.081-.132.206.206 0 0 1 .032-.15.202.202 0 0 1 .114-.099.24.24 0 0 1 .074-.009zM50.295 57.849l-.215.147.056.082-.803.552.154.225 1.019-.7zm.228.692a.609.609 0 0 0-.116.023.972.972 0 0 0-.268.137.86.86 0 0 0-.207.192.465.465 0 0 0-.098.404.556.556 0 0 0 .225.331.458.458 0 0 0 .411.058.88.88 0 0 0 .258-.128.844.844 0 0 0 .206-.191.528.528 0 0 0 .097-.205.436.436 0 0 0 .001-.202.532.532 0 0 0-.082-.185.654.654 0 0 0-.143-.153.392.392 0 0 0-.284-.081zm.017.285a.229.229 0 0 1 .072.004c.047.01.087.04.122.09.035.052.049.101.042.148a.246.246 0 0 1-.063.132.754.754 0 0 1-.307.211.272.272 0 0 1-.154.017.206.206 0 0 1-.122-.092.203.203 0 0 1-.042-.146.271.271 0 0 1 .07-.136.786.786 0 0 1 .142-.122.764.764 0 0 1 .164-.088.296.296 0 0 1 .076-.018z"/><path style="opacity:1;fill:#fbf0da;fill-opacity:1;stroke-width:.396875" d="M15.524 30.826v5.63h.348v-1.555c0-.213.05-.403.148-.57a1.17 1.17 0 0 1 .408-.4c.168-.1.348-.149.54-.149.218.005.383.07.497.193a.69.69 0 0 1 .178.466v2.016h.355v-2.112a.838.838 0 0 0-.26-.622c-.167-.163-.387-.244-.659-.244-.286 0-.54.071-.762.215-.204.129-.353.287-.453.472v-3.34zm-2.119 1.46v1.31h-.615v.283h.615v2.578h.356v-2.578h.896v-.282h-.896v-1.311zm7.179 1.178a1.53 1.53 0 0 0-1.341.763 1.477 1.477 0 0 0-.208.77c0 .287.065.546.193.778.133.227.316.407.548.54.232.134.499.201.8.201a1.5 1.5 0 0 0 .549-.104 1.81 1.81 0 0 0 .481-.266l-.178-.253c-.113.094-.244.171-.392.23-.144.06-.294.09-.452.09-.238 0-.447-.058-.63-.171a1.217 1.217 0 0 1-.43-.452c-.013-.025-.023-.05-.034-.076l2.472-.954a1.69 1.69 0 0 0-.511-.793c-.232-.202-.522-.303-.867-.303zm-.023.296c.247 0 .455.071.623.215.154.127.27.278.354.448l-2.133.832a1.33 1.33 0 0 1 .127-.895c.109-.183.252-.328.43-.437.177-.109.377-.163.6-.163zm.297 3.424v5.667h1.089l-.022-3.223 3.815 3.445h.03V37.4h-1.082l.021 3.285-3.807-3.5zm8.786.155c-.37 0-.726.06-1.067.178a2.512 2.512 0 0 0-.896.548 2.612 2.612 0 0 0-.615.92c-.148.365-.222.797-.222 1.296 0 .38.066.73.2 1.051.133.321.326.6.578.837.252.233.555.415.91.549.357.128.756.193 1.2.193.169 0 .346-.02.534-.06.188-.034.37-.081.548-.14.183-.06.344-.124.482-.193a1.18 1.18 0 0 0 .304-.215v-2.304h-2.03v1.037h.941v.66c-.089.049-.198.086-.326.11-.128.02-.27.03-.422.03a2.31 2.31 0 0 1-.734-.11 1.67 1.67 0 0 1-.57-.327 1.507 1.507 0 0 1-.37-.518 1.752 1.752 0 0 1-.134-.697c0-.291.04-.545.119-.763.079-.222.195-.408.348-.556.158-.148.35-.259.578-.333.227-.074.489-.111.785-.111.119 0 .254.017.407.052.153.03.304.069.452.118.149.05.267.1.356.149l.348-1a3.058 3.058 0 0 0-.74-.282 3.675 3.675 0 0 0-.964-.119zm5.986.03a2.042 2.042 0 0 0-.89.23 1.5 1.5 0 0 0-.6.548 1.576 1.576 0 0 0-.206.822c0 .262.046.484.14.667.099.178.225.328.378.452.158.118.326.22.504.304.178.084.35.158.519.222.143.054.273.118.392.192.123.074.22.156.29.245a.452.452 0 0 1 .11.296.5.5 0 0 1-.133.37.718.718 0 0 1-.326.193 1.479 1.479 0 0 1-.808-.007 2.84 2.84 0 0 1-.46-.163 2.9 2.9 0 0 1-.414-.252l-.474.837c.193.133.393.244.6.333.207.084.418.149.63.193.217.04.43.06.637.06.405 0 .746-.072 1.022-.215.277-.149.487-.341.63-.578.143-.237.215-.494.215-.77 0-.262-.037-.482-.111-.66a1.283 1.283 0 0 0-.297-.452 1.613 1.613 0 0 0-.422-.304 3.597 3.597 0 0 0-.466-.215 5.716 5.716 0 0 1-.504-.215 1.607 1.607 0 0 1-.393-.266.493.493 0 0 1-.148-.348c0-.188.066-.329.2-.423.133-.094.316-.14.548-.14.188 0 .388.037.6.11.217.075.43.169.637.282l.408-.822a3.707 3.707 0 0 0-.741-.37c-.272-.104-.627-.156-1.067-.156Zm-22.47.03v5.452h1.09v-2.06l.266-.266 1.682 2.326h1.363l-2.26-3.007 2.253-2.445H16.16l-1.778 2.007-.163.208.03-.274v-1.941zm5.216 0v5.452h1.074V37.4zm13.95.014v1.874h.889l.015-.94.015-.934zm-16.713 6.513a2.611 2.611 0 0 0-2.452 1.653c-.134.33-.2.689-.2 1.074 0 .36.061.701.185 1.022.128.316.309.598.54.844.233.242.512.436.838.579a2.76 2.76 0 0 0 1.089.207c.207 0 .4-.02.578-.06.177-.034.34-.083.488-.147.149-.064.28-.131.393-.2l-.17-.32a2.264 2.264 0 0 1-1.282.378 2.4 2.4 0 0 1-.94-.177 2.226 2.226 0 0 1-.727-.504 2.281 2.281 0 0 1-.459-.74 2.573 2.573 0 0 1-.155-.897c0-.331.059-.64.177-.926.119-.287.282-.536.49-.748.211-.218.456-.386.732-.504.277-.124.57-.185.882-.185.242 0 .472.037.69.11.217.075.411.166.584.275l.156-.334a2.96 2.96 0 0 0-.66-.288 2.643 2.643 0 0 0-.777-.112zm5.148 0a2.652 2.652 0 0 0-1.897.8c-.246.247-.439.534-.577.86a2.593 2.593 0 0 0-.207 1.037c0 .385.069.741.207 1.067.138.326.33.61.578.852.247.242.53.43.852.563.326.133.674.2 1.044.2s.72-.069 1.045-.207a2.709 2.709 0 0 0 1.437-1.43 2.57 2.57 0 0 0 .215-1.045c0-.37-.071-.716-.215-1.037a2.687 2.687 0 0 0-.577-.86 2.63 2.63 0 0 0-.86-.585 2.57 2.57 0 0 0-1.045-.215zm4.038.06v5.26h.363v-2.4h2.29v-.341h-2.29v-2.17h2.585v-.35zm4.282 0v5.26h.363v-2.4h2.29v-.341h-2.29v-2.17h2.585v-.35zm4.282 0v5.26h3.349v-.348h-2.986V46.77h2.593v-.348h-2.593v-2.089h2.882v-.348zm4.734 0v5.26h3.349v-.348H38.46V46.77h2.593v-.348H38.46v-2.089h2.882v-.348zm-17.336.289c.321 0 .623.061.904.185.282.123.529.294.741.511.213.213.378.462.497.748.123.282.185.583.185.904 0 .326-.062.63-.185.912a2.297 2.297 0 0 1-.497.74c-.212.212-.46.38-.74.504a2.323 2.323 0 0 1-.912.178c-.316 0-.615-.06-.897-.178a2.427 2.427 0 0 1-.733-.504 2.296 2.296 0 0 1-.674-1.644c0-.316.057-.615.17-.897.119-.286.282-.538.49-.755.212-.218.459-.388.74-.511.282-.129.585-.193.911-.193zM7.889 36.567c-.445 0-.832.087-1.162.26a1.851 1.851 0 0 0-.754.736c-.173.318-.26.691-.26 1.119 0 .433.081.802.243 1.109.167.3.396.528.685.684.288.15.618.226.988.226.271 0 .516-.05.736-.148.22-.098.393-.237.52-.416 0 .613-.063 1.055-.19 1.326-.127.272-.344.407-.65.407-.445 0-.711-.228-.798-.684h-1.37c.024.34.117.653.278.936.168.283.405.511.71.684.313.174.688.26 1.127.26.555 0 .992-.127 1.31-.381.323-.254.55-.624.684-1.11.138-.49.208-1.111.208-1.863 0-1.034-.17-1.817-.512-2.348-.34-.532-.938-.797-1.793-.797Zm.043 1.274c.254 0 .456.075.607.225.15.15.225.364.225.641 0 .255-.072.457-.217.607-.144.144-.338.217-.58.217-.278 0-.491-.076-.642-.226-.144-.156-.216-.358-.216-.606 0-.266.072-.474.216-.624.15-.156.353-.234.607-.234zM41.936 6.115c-.399 0-.763.079-1.092.235a1.87 1.87 0 0 0-.789.728c-.196.329-.3.739-.312 1.23h1.43c0-.3.06-.531.182-.693a.618.618 0 0 1 .52-.252c.22 0 .384.067.494.2.11.133.165.318.165.554 0 .312-.113.633-.338.963-.226.329-.503.644-.832.944a32.147 32.147 0 0 1-1.604 1.37v1.1h4.35v-1.205h-2.34c.654-.502 1.19-1.016 1.613-1.542.421-.532.633-1.106.633-1.725 0-.566-.177-1.025-.529-1.378-.347-.352-.864-.529-1.551-.529Zm-5.538.14v1.377h.858v4.949h1.542V6.255ZM72.355 36.567c-.653 0-1.17.167-1.551.503-.381.335-.584.811-.607 1.43h1.448a.912.912 0 0 1 .182-.495c.11-.132.274-.199.494-.199.202 0 .36.058.476.174.116.115.174.277.174.485 0 .26-.093.442-.278.546-.179.098-.416.147-.71.147h-.278v1.205h.278c.387 0 .667.063.84.19.18.122.27.321.27.598a.72.72 0 0 1-.192.52c-.12.127-.295.191-.52.191-.266 0-.468-.072-.607-.216-.138-.15-.21-.353-.216-.607h-1.439c.023.687.24 1.202.65 1.542.416.341.97.511 1.664.511.434 0 .806-.077 1.118-.233.318-.156.558-.37.72-.641.167-.278.251-.596.251-.954 0-.399-.096-.725-.286-.98a1.563 1.563 0 0 0-.78-.545v-.035c.254-.087.476-.248.667-.485.19-.243.286-.555.286-.936 0-.324-.08-.615-.243-.875a1.6 1.6 0 0 0-.701-.616c-.307-.15-.676-.225-1.11-.225z"/></svg>